<svg xmlns="http://www.w3.org/2000/svg" width="48" height="48" viewBox="0 0 48 48">
<style type="text/css">
	.st0{fill:#F6D1D3;}
	.st1{fill-rule:evenodd;clip-rule:evenodd;fill:#D11B25;}
</style>
<rect x="16.8" y="18.6" class="st0" width="5" height="7"/>
<rect x="24.7" y="18.7" class="st0" width="7" height="4"/>
<path class="st1" d="M24,12c0.4,0,0.7,0.3,0.7,0.7v2.1H34c0.6,0,1,0.5,1,1v12.6c0,0.5-0.4,1-1,1h-7.9l3.1,5.5c0.2,0.3,0.1,0.8-0.3,1
	c-0.3,0.2-0.8,0.1-1-0.3l-3.4-5.9v5.6c0,0.4-0.3,0.7-0.7,0.7c-0.4,0-0.7-0.3-0.7-0.7v-5.6l-3.4,5.9c-0.2,0.3-0.6,0.5-1,0.3
	c-0.3-0.2-0.5-0.6-0.3-1l3.1-5.5H14c-0.6,0-1-0.5-1-1V15.8c0-0.5,0.4-1,1-1h9.3v-2.1C23.3,12.3,23.6,12,24,12z M14.4,16.2V28H23l0,0
	h1.8l0,0h8.6V16.2H14.4z M17.2,19.1v6.1h4.2v-6.1H17.2z M15.8,18.7c0-0.6,0.5-1,1-1h4.9c0.5,0,1,0.4,1,1v6.9c0,0.6-0.5,1-1,1h-4.8
	c-0.5,0-1-0.4-1-1L15.8,18.7L15.8,18.7z M25.6,19.1v3.3h5.1v-3.3H25.6z M24.2,18.6c0-0.5,0.4-1,1-1h6c0.6,0,1,0.5,1,1v4.1
	c0,0.5-0.4,1-1,1h-6c-0.6,0-1-0.5-1-1C24.2,22.7,24.2,18.6,24.2,18.6z"/>
</svg>
