<svg width="24" height="30" viewBox="0 0 24 30" fill="none" xmlns="http://www.w3.org/2000/svg">
<path d="M20.0454 15.6878C20.06 14.5572 20.3603 13.4485 20.9185 12.4651C21.4766 11.4817 22.2745 10.6554 23.2378 10.0632C22.6258 9.18922 21.8185 8.46997 20.8799 7.96258C19.9414 7.45518 18.8975 7.17363 17.8311 7.14026C15.5563 6.90149 13.3509 8.50147 12.1917 8.50147C11.0101 8.50147 9.22533 7.16397 7.30342 7.20351C6.06028 7.24367 4.84874 7.60517 3.78685 8.25278C2.72496 8.90039 1.84893 9.81202 1.24411 10.8989C-1.37581 15.4348 0.578418 22.1012 3.08808 25.7678C4.34372 27.5632 5.81121 29.5687 7.73138 29.4976C9.61038 29.4196 10.3122 28.2994 12.5803 28.2994C14.8273 28.2994 15.4857 29.4976 17.4449 29.4524C19.4611 29.4196 20.7315 27.649 21.9431 25.8366C22.8452 24.5573 23.5394 23.1434 24 21.6472C22.8286 21.1518 21.829 20.3225 21.1257 19.2628C20.4225 18.203 20.0468 16.9597 20.0454 15.6878Z" fill="#EAEAEA"/>
<path d="M16.3453 4.72862C17.4446 3.4089 17.9862 1.71261 17.8551 0C16.1755 0.176405 14.6241 0.979124 13.5099 2.24822C12.9651 2.8682 12.5479 3.58947 12.282 4.3708C12.0162 5.15213 11.9069 5.9782 11.9605 6.80177C12.8006 6.81042 13.6317 6.62834 14.3912 6.26924C15.1507 5.91013 15.8188 5.38337 16.3453 4.72862Z" fill="#ffffff"/>
</svg>
