<svg width="25" height="25" viewBox="0 0 25 25" fill="none" xmlns="http://www.w3.org/2000/svg">
<path d="M5.14392 19.2182H2.74519C2.21528 19.2182 1.78571 18.768 1.78571 18.2125L1.78571 2.79137C1.78571 2.23592 2.21528 1.78564 2.74519 1.78564L22.2548 1.78565C22.7847 1.78565 23.2143 2.23592 23.2143 2.79137V18.2125C23.2143 18.768 22.7847 19.2182 22.2548 19.2182L12.529 19.2182C11.1646 19.2182 9.84096 19.6832 8.77637 20.5366L5.5227 23.1446C5.30793 23.3167 4.99892 23.1492 5.00881 22.866L5.13095 19.3685" stroke="#777777" stroke-linecap="round"/>
<circle cx="12.6488" cy="15.4761" r="0.595238" fill="#777777"/>
<path d="M9.82141 8.34875C9.82141 4.75679 15.4762 4.7568 15.4762 8.34875C15.4762 10.7861 12.6488 10.5296 12.6488 13.0953" stroke="#777777" stroke-linecap="round" stroke-linejoin="round"/>
</svg>
