<svg width="9" height="18" viewBox="0 0 9 18" fill="none" xmlns="http://www.w3.org/2000/svg">
<path d="M4.48585 17.9995C2.04838 17.9645 0.0720243 16.0041 0.0373106 13.587L0 3.34218C0.0151911 1.46795 1.5598 -0.0282067 3.45002 0.000403578C5.30915 0.0285244 6.81638 1.52313 6.84473 3.3667L6.87854 12.6436C6.88294 13.8496 5.90056 14.8237 4.68437 14.8194C3.46818 14.815 2.47868 13.8338 2.47429 12.6278L2.44193 3.75427C2.44631 3.43931 2.70736 3.18935 3.02503 3.19597C3.33492 3.20243 3.58571 3.45112 3.59222 3.75842L3.62455 12.6319C3.63912 13.208 4.12185 13.6667 4.7027 13.6564C5.26602 13.6464 5.71818 13.198 5.72825 12.6394L5.69444 3.3626C5.68093 2.11826 4.65273 1.11308 3.39794 1.11749C2.15583 1.12185 1.15469 2.11461 1.15029 3.34632L1.1876 13.5912C1.19392 15.4164 2.69113 16.9016 4.53171 16.9085C6.3723 16.9155 7.85927 15.4415 7.85297 13.6163L7.81564 3.37141C7.79 3.05724 8.02589 2.78375 8.34254 2.76059C8.65919 2.73743 8.9367 2.97334 8.96235 3.28751C8.96474 3.31682 8.96485 3.34622 8.96267 3.37552L9 13.6204C8.98196 16.0745 6.96092 18.0352 4.48585 17.9995Z" fill="#777777"/>
</svg>
