<svg width="154" height="140" viewBox="0 0 154 140" fill="none" xmlns="http://www.w3.org/2000/svg">
<path d="M130.9 0H23.1C10.3481 0.0139261 0.0137858 10.4534 0 23.3351V90.7475C0.0137858 103.629 10.3481 114.069 23.1 114.083H30.2348L25.7181 136.899C25.5238 137.88 25.906 138.885 26.6981 139.484C27.4902 140.083 28.5529 140.167 29.4289 139.702L77.6341 114.083H130.9C143.652 114.069 153.986 103.629 154 90.7475V23.3351C153.986 10.4534 143.652 0.0139261 130.9 0ZM148.867 90.7475C148.855 100.767 140.818 108.886 130.9 108.897H77C76.5827 108.897 76.1729 109 75.8044 109.196L31.8089 132.588L35.882 112.009C36.0361 111.245 35.8431 110.453 35.3556 109.85C34.8681 109.246 34.1374 108.897 33.3667 108.897H23.1C13.1817 108.886 5.14461 100.767 5.13333 90.7475V23.3351C5.14461 13.3159 13.1817 5.19697 23.1 5.18557H130.9C140.818 5.19697 148.855 13.3159 148.867 23.3351V90.7475Z" fill="#095C68"/>
</svg>
