<svg width="72" height="72" viewBox="0 0 72 72" fill="none" xmlns="http://www.w3.org/2000/svg">
<path d="M44.7516 69H30.2499C29.5688 69 29.0013 68.4174 29.0013 67.7183V3.28175C28.9729 2.58262 29.5405 2 30.2216 2H44.7232C45.4327 2 46.0002 2.58262 46.0002 3.28175V67.6891C46.0002 68.4174 45.4327 69 44.7516 69Z" fill="#F6D1D3"/>
<path fill-rule="evenodd" clip-rule="evenodd" d="M48.3158 15.1576V67.2621H68.2105V15.1576H48.3158ZM44.5264 15.1163C44.5264 13.0289 46.2149 11.3682 48.2862 11.3682H68.2401C70.3114 11.3682 72 13.0289 72 15.1163V67.3035C72 69.3908 70.3114 71.0515 68.2401 71.0515H48.2862C46.2149 71.0515 44.5264 69.3908 44.5264 67.3035V15.1163Z" fill="#D11B25"/>
<path fill-rule="evenodd" clip-rule="evenodd" d="M31.2642 3.78941V67.2621H44.5264V3.78941H31.2642ZM27.4748 3.21132C27.4296 1.45857 28.8454 0 30.5936 0H45.1401C46.9186 0 48.3158 1.45374 48.3158 3.18147V67.8408C48.3158 69.5417 46.9732 71.0515 45.1685 71.0515H30.622C28.8445 71.0515 27.4748 69.5698 27.4748 67.87V3.21132Z" fill="#D11B25"/>
<path fill-rule="evenodd" clip-rule="evenodd" d="M12.1552 16.2247L3.88738 66.0389L15.3187 68.0986L23.5865 18.2844L12.1552 16.2247ZM12.1781 12.3784C10.3647 11.9987 8.79067 13.3167 8.52342 14.962C8.52309 14.9641 8.52275 14.9662 8.52242 14.9683L0.0566272 65.9753C-0.269961 67.6666 0.848276 69.3493 2.58131 69.654C2.5839 69.6545 2.58649 69.6549 2.58909 69.6554L15.3278 71.9507L15.3403 71.9529C17.1185 72.261 18.6733 71.0175 18.9493 69.3677L27.4172 18.348C27.7438 16.6566 26.6254 14.9739 24.8924 14.6693L12.1781 12.3784Z" fill="#D11B25"/>
<path fill-rule="evenodd" clip-rule="evenodd" d="M50.2106 22.7365C50.2106 21.6901 51.0589 20.8418 52.1053 20.8418H64.4211C65.4675 20.8418 66.3158 21.6901 66.3158 22.7365C66.3158 23.7829 65.4675 24.6312 64.4211 24.6312H52.1053C51.0589 24.6312 50.2106 23.7829 50.2106 22.7365Z" fill="#D11B25"/>
<path fill-rule="evenodd" clip-rule="evenodd" d="M27.4737 10.4209C27.4737 9.37447 28.322 8.52618 29.3685 8.52618H46.4211C47.4675 8.52618 48.3158 9.37447 48.3158 10.4209C48.3158 11.4673 47.4675 12.3156 46.4211 12.3156H29.3685C28.322 12.3156 27.4737 11.4673 27.4737 10.4209Z" fill="#D11B25"/>
<path fill-rule="evenodd" clip-rule="evenodd" d="M44.5264 52.1044C44.5264 51.058 45.3747 50.2097 46.4211 50.2097H70.1053C71.1517 50.2097 72 51.058 72 52.1044C72 53.1508 71.1517 53.9991 70.1053 53.9991H46.4211C45.3747 53.9991 44.5264 53.1508 44.5264 52.1044Z" fill="#D11B25"/>
<path fill-rule="evenodd" clip-rule="evenodd" d="M45.4737 60.6306C45.4737 59.5842 46.322 58.7359 47.3685 58.7359H70.1053C71.1517 58.7359 72 59.5842 72 60.6306C72 61.677 71.1517 62.5253 70.1053 62.5253H47.3685C46.322 62.5253 45.4737 61.677 45.4737 60.6306Z" fill="#D11B25"/>
<path fill-rule="evenodd" clip-rule="evenodd" d="M37.8948 23.6838C38.9412 23.6838 39.7895 24.5321 39.7895 25.5785V57.7885C39.7895 58.8349 38.9412 59.6832 37.8948 59.6832C36.8484 59.6832 36 58.8349 36 57.7885V25.5785C36 24.5321 36.8484 23.6838 37.8948 23.6838Z" fill="#D11B25"/>
<path fill-rule="evenodd" clip-rule="evenodd" d="M3.81535 53.6876C3.98738 52.6555 4.9636 51.9582 5.99579 52.1302L17.3642 54.0249C18.3964 54.1969 19.0937 55.1731 18.9217 56.2053C18.7496 57.2375 17.7734 57.9348 16.7412 57.7628L5.37281 55.868C4.34061 55.696 3.64331 54.7198 3.81535 53.6876Z" fill="#D11B25"/>
<path fill-rule="evenodd" clip-rule="evenodd" d="M9.49955 21.4776C9.67158 20.4455 10.6478 19.7482 11.68 19.9202L23.0484 21.8149C24.0806 21.9869 24.7779 22.9631 24.6059 23.9953C24.4338 25.0275 23.4576 25.7248 22.4254 25.5528L11.057 23.658C10.0248 23.486 9.32752 22.5098 9.49955 21.4776Z" fill="#D11B25"/>
</svg>
