<?xml version="1.0" encoding="utf-8"?>
<!-- Generator: Adobe Illustrator 23.0.6, SVG Export Plug-In . SVG Version: 6.00 Build 0)  -->
<svg version="1.1" id="Layer_1" xmlns="http://www.w3.org/2000/svg" xmlns:xlink="http://www.w3.org/1999/xlink" x="0px" y="0px"
	 viewBox="0 0 73 50" style="enable-background:new 0 0 73 50;" xml:space="preserve">
<style type="text/css">
	.st0{fill:#F6D1D3;}
	.st1{fill-rule:evenodd;clip-rule:evenodd;fill:#D11B25;}
</style>
<path class="st0" d="M31.3,41.2c0,3.3-2.7,6-6,6s-6-2.7-6-6c0-3.3,2.7-6,6-6S31.3,37.9,31.3,41.2z"/>
<path class="st0" d="M58.1,41.2c0,3.3-2.7,6-6,6c-3.3,0-6-2.7-6-6c0-3.3,2.7-6,6-6C55.4,35.2,58.1,37.9,58.1,41.2z"/>
<path class="st1" d="M10.8,7.9c0-1,0.8-1.7,1.7-1.7h34.6v3.8h8.7c0.5,0,1,0.2,1.2,0.5c0.3,0.2,0.6,0.4,0.8,0.8l5.8,11.5l4.4,5.5
	c0.5,0.6,0.5,1.6,0,2.2v11.3c0,0.7-0.4,1.3-1,1.6c-0.3,0.3-0.7,0.4-1.1,0.4h-6.3c-0.8,3.5-3.8,6-7.5,6c-3.7,0-6.7-2.5-7.5-6H32.7
	c-0.8,3.5-3.8,6-7.5,6s-6.7-2.5-7.5-5.9L12.6,44c-1,0-1.7-0.8-1.7-1.7s0.8-1.7,1.7-1.7l5.2-0.1c0.8-3.5,3.8-6.1,7.5-6.1
	s6.7,2.5,7.5,6h11.9c0.8-3.5,3.8-6,7.5-6c3.7,0,6.7,2.5,7.5,6h5V29.5l-3.2-4h-16c-0.4,0-0.9-0.2-1.2-0.5c-0.3-0.3-0.5-0.8-0.5-1.2
	v-14H12.5C11.6,9.7,10.8,8.9,10.8,7.9z M47.1,13.4V22h12.2l-4.3-8.5H47.1z M47.9,42.6C48,42.4,48,42.2,48,42c0-0.2,0-0.3-0.1-0.5
	c0.3-2.1,2-3.7,4.2-3.7c2.4,0,4.3,1.9,4.3,4.3c0,2.4-1.9,4.3-4.3,4.3C49.9,46.3,48.2,44.7,47.9,42.6z M21,42c0,2.4,1.9,4.3,4.3,4.3
	s4.3-1.9,4.3-4.3c0-2.4-1.9-4.3-4.3-4.3C22.8,37.8,21,39.7,21,42L21,42z M7.7,15.9c0-1,0.8-1.7,1.7-1.7h18c1,0,1.7,0.8,1.7,1.7
	s-0.8,1.7-1.7,1.7h-18C8.5,17.6,7.7,16.8,7.7,15.9z M4.8,24.1c0-1,0.8-1.7,1.7-1.7h18c1,0,1.7,0.8,1.7,1.7c0,1-0.8,1.7-1.7,1.7h-18
	C5.5,25.9,4.8,25.1,4.8,24.1z M8.2,31.7c0-1,0.8-1.7,1.7-1.7H20c1,0,1.7,0.8,1.7,1.7c0,1-0.8,1.7-1.7,1.7H9.9
	C8.9,33.4,8.2,32.6,8.2,31.7z"/>
</svg>
