<svg width="72" height="62" viewBox="0 0 72 62" fill="none" xmlns="http://www.w3.org/2000/svg">
<path d="M29.5 60.0005C31.9853 60.0005 34 57.7619 34 55.0005C34 52.2391 31.9853 50.0005 29.5 50.0005C27.0147 50.0005 25 52.2391 25 55.0005C25 57.7619 27.0147 60.0005 29.5 60.0005Z" fill="#F6D1D3"/>
<path d="M53 60.0005C55.7614 60.0005 58 57.7619 58 55.0005C58 52.2391 55.7614 50.0005 53 50.0005C50.2386 50.0005 48 52.2391 48 55.0005C48 57.7619 50.2386 60.0005 53 60.0005Z" fill="#F6D1D3"/>
<path fill-rule="evenodd" clip-rule="evenodd" d="M11.1008 0.0296736C11.9755 -0.126876 12.8676 0.346644 13.2015 1.19886L24.9726 31.2397L63.1498 28.7205L68.2721 9.36206C68.5377 8.35841 69.5735 7.75827 70.5857 8.0216C71.5978 8.28494 72.2031 9.31203 71.9375 10.3157L66.1229 32.2902L25.1854 34.9915L23.4603 41.3051H61.2331C62.2796 41.3051 63.1279 42.1462 63.1279 43.1839C63.1279 44.2215 62.2796 45.0626 61.2331 45.0626H21.6742C21.5817 45.0626 21.4908 45.0561 21.4019 45.0434C21.1075 45.1109 20.7926 45.1095 20.4806 45.0257C19.4706 44.7543 18.8736 43.7225 19.1473 42.7209L21.7186 33.3107L10.1389 3.75805H1.89472C0.848297 3.75805 0 2.9169 0 1.87928C0 0.84166 0.848297 0.00050491 1.89472 0.00050491H10.7664C10.8805 0.00050491 10.9923 0.0105064 11.1008 0.0296736Z" fill="#D11B25"/>
<path fill-rule="evenodd" clip-rule="evenodd" d="M56.2868 4.30833C57.0267 5.04204 57.0267 6.23161 56.2868 6.96532L43.0237 20.1167C42.2838 20.8504 41.0841 20.8504 40.3442 20.1167L33.7126 13.541C32.9727 12.8073 32.9727 11.6177 33.7126 10.884C34.4526 10.1503 35.6522 10.1503 36.3922 10.884L41.6839 16.1312L53.6072 4.30833C54.3472 3.57462 55.5469 3.57462 56.2868 4.30833Z" fill="#D11B25"/>
<path fill-rule="evenodd" clip-rule="evenodd" d="M29.8419 51.6668C28.0107 51.6668 26.5261 53.1388 26.5261 54.9546C26.5261 56.7704 28.0107 58.2425 29.8419 58.2425C31.6732 58.2425 33.1577 56.7704 33.1577 54.9546C33.1577 53.1388 31.6732 51.6668 29.8419 51.6668ZM22.7367 54.9546C22.7367 51.0635 25.9178 47.9092 29.8419 47.9092C33.766 47.9092 36.9471 51.0635 36.9471 54.9546C36.9471 58.8457 33.766 62 29.8419 62C25.9178 62 22.7367 58.8457 22.7367 54.9546Z" fill="#D11B25"/>
<path fill-rule="evenodd" clip-rule="evenodd" d="M53.526 51.6668C51.6947 51.6668 50.2102 53.1388 50.2102 54.9546C50.2102 56.7704 51.6947 58.2425 53.526 58.2425C55.3572 58.2425 56.8417 56.7704 56.8417 54.9546C56.8417 53.1388 55.3572 51.6668 53.526 51.6668ZM46.4208 54.9546C46.4208 51.0635 49.6019 47.9092 53.526 47.9092C57.4501 47.9092 60.6312 51.0635 60.6312 54.9546C60.6312 58.8457 57.4501 62 53.526 62C49.6019 62 46.4208 58.8457 46.4208 54.9546Z" fill="#D11B25"/>
</svg>
