<svg width="18" height="16" viewBox="0 0 18 16" fill="none" xmlns="http://www.w3.org/2000/svg">
<path fill-rule="evenodd" clip-rule="evenodd" d="M0.25 2.77778C0.25 1.34766 1.45642 0.25 2.86667 0.25H15.1333C16.5436 0.25 17.75 1.34766 17.75 2.77778V10.9048C17.75 12.3349 16.5436 13.4325 15.1333 13.4325H9.30692L7.45913 15.2491C7.1673 15.536 6.69937 15.536 6.40754 15.2491L4.55974 13.4325H2.86667C1.45642 13.4325 0.25 12.3349 0.25 10.9048V2.77778ZM2.86667 1.75C2.21505 1.75 1.75 2.24421 1.75 2.77778V10.9048C1.75 11.4383 2.21505 11.9325 2.86667 11.9325H4.86667C5.06337 11.9325 5.25219 12.0098 5.39246 12.1477L6.93333 13.6625L8.47421 12.1477C8.61448 12.0098 8.8033 11.9325 9 11.9325H15.1333C15.785 11.9325 16.25 11.4383 16.25 10.9048V2.77778C16.25 2.24421 15.785 1.75 15.1333 1.75H2.86667Z" fill="white"/>
</svg>
