<svg width="11" height="14" viewBox="0 0 11 14" fill="none" xmlns="http://www.w3.org/2000/svg">
<path d="M10.0361 8.93945C9.87793 10.293 9.37695 11.3389 8.5332 12.0771C7.69531 12.8096 6.5791 13.1758 5.18457 13.1758C3.67285 13.1758 2.45996 12.6338 1.5459 11.5498C0.637695 10.4658 0.183594 9.01562 0.183594 7.19922V5.96875C0.183594 4.7793 0.394531 3.7334 0.816406 2.83105C1.24414 1.92871 1.84766 1.2373 2.62695 0.756836C3.40625 0.270508 4.30859 0.0273438 5.33398 0.0273438C6.69336 0.0273438 7.7832 0.408203 8.60352 1.16992C9.42383 1.92578 9.90137 2.97461 10.0361 4.31641H8.33984C8.19336 3.29688 7.87402 2.55859 7.38184 2.10156C6.89551 1.64453 6.21289 1.41602 5.33398 1.41602C4.25586 1.41602 3.40918 1.81445 2.79395 2.61133C2.18457 3.4082 1.87988 4.54199 1.87988 6.0127V7.25195C1.87988 8.64062 2.16992 9.74512 2.75 10.5654C3.33008 11.3857 4.1416 11.7959 5.18457 11.7959C6.12207 11.7959 6.83984 11.585 7.33789 11.1631C7.8418 10.7354 8.17578 9.99414 8.33984 8.93945H10.0361Z" fill="white"/>
</svg>
