<svg width="20" height="20" viewBox="0 0 20 20" fill="none" xmlns="http://www.w3.org/2000/svg">
<path fill-rule="evenodd" clip-rule="evenodd" d="M0.538038 0.46967C0.830932 0.176777 1.30581 0.176777 1.5987 0.46967L10 8.87098L18.4013 0.469691C18.6942 0.176798 19.1691 0.176798 19.462 0.469691C19.7549 0.762584 19.7549 1.23746 19.462 1.53035L11.0607 9.93164L19.5303 18.4013C19.8232 18.6942 19.8232 19.1691 19.5303 19.462C19.2374 19.7549 18.7626 19.7549 18.4697 19.462L10 10.9923L1.53033 19.462C1.23744 19.7549 0.762563 19.7549 0.46967 19.462C0.176777 19.1691 0.176777 18.6942 0.46967 18.4013L8.93935 9.93164L0.538038 1.53033C0.245145 1.23744 0.245145 0.762563 0.538038 0.46967Z" fill="#D11B25"/>
</svg>
