<svg width="24" height="23" viewBox="0 0 24 23" fill="none" xmlns="http://www.w3.org/2000/svg">
<path fill-rule="evenodd" clip-rule="evenodd" d="M10.5206 18.2467C10.8997 17.8301 11.4368 17.5926 12 17.5926H21.2C21.5254 17.5926 22 17.2733 22 16.6111V2.98148C22 2.31925 21.5254 2 21.2 2H2.8C2.47464 2 2 2.31925 2 2.98148V16.6111C2 17.2733 2.47464 17.5926 2.8 17.5926H5.8C6.36323 17.5926 6.90035 17.8301 7.27937 18.2467L8.9 20.028L10.5206 18.2467ZM8.9 23L5.8 19.5926H2.8C1.2536 19.5926 0 18.2577 0 16.6111V2.98148C0 1.33486 1.2536 0 2.8 0H21.2C22.7464 0 24 1.33485 24 2.98148V16.6111C24 18.2577 22.7464 19.5926 21.2 19.5926H12L8.9 23Z" fill="#000000"/>
</svg>
