<?xml version="1.0" encoding="utf-8"?>
<!-- Generator: Adobe Illustrator 23.0.6, SVG Export Plug-In . SVG Version: 6.00 Build 0)  -->
<svg version="1.1" id="Layer_1" xmlns="http://www.w3.org/2000/svg" xmlns:xlink="http://www.w3.org/1999/xlink" x="0px" y="0px"
	 viewBox="0 0 24 24" style="enable-background:new 0 0 24 24;" xml:space="preserve">
<style type="text/css">
	.st0{fill:#F6D1D3;}
	.st1{fill-rule:evenodd;clip-rule:evenodd;fill:#D11B25;}
</style>
<path class="st0" d="M1,21.5L5.4,20l0.4-0.2c1.8,1,3.9,1.7,6.2,1.7c6.1,0,11-4.3,11-9.5s-4.9-9.5-11-9.5S1,6.7,1,12
	c0,1.8,0.6,3.4,1.5,4.8L2.4,17L1,21.5z"/>
<path class="st1" d="M6,10.2c0-0.4,0.3-0.7,0.8-0.7h10c0.4,0,0.8,0.3,0.8,0.7S17.3,11,16.8,11h-10C6.3,11,6,10.7,6,10.2z"/>
<path class="st1" d="M6,14.2c0-0.4,0.3-0.7,0.8-0.7h10c0.4,0,0.8,0.3,0.8,0.8c0,0.4-0.3,0.8-0.8,0.8h-10C6.3,15,6,14.7,6,14.2z"/>
<path class="st1" d="M0,12C0,6.1,5.5,1.5,12,1.5S24,6.1,24,12s-5.5,10.5-12,10.5c-2.3,0-4.5-0.6-6.4-1.6l0,0c0,0,0,0-0.1,0L1,22.5
	c-0.3,0.1-0.6,0-0.8-0.2s-0.3-0.5-0.2-0.8l1.4-4.4C0.5,15.6,0,13.8,0,12z M12,3.1C6.1,3.1,1.5,7.2,1.5,12c0,1.6,0.5,3.2,1.5,4.5
	c0.1,0.2,0.2,0.5,0.1,0.7L3,17.4l-1,3.1l3-1l0.4-0.2c0.2-0.1,0.5-0.1,0.7,0c1.7,1,3.7,1.6,6,1.6c5.9,0,10.5-4.1,10.5-8.9
	C22.5,7.2,17.9,3.1,12,3.1z"/>
</svg>
