<svg xmlns="http://www.w3.org/2000/svg" width="48" height="48" viewBox="0 0 48 48">
<style type="text/css">
	.st0{fill:#F6D1D3;}
	.st1{fill-rule:evenodd;clip-rule:evenodd;fill:#D11B25;}
</style>
<path class="st0" d="M13,33.5l4.4-1.5l0.4-0.2c1.8,1,3.9,1.7,6.2,1.7c6.1,0,11-4.3,11-9.5s-4.9-9.5-11-9.5S13,18.7,13,24
	c0,1.8,0.6,3.4,1.5,4.8L14.4,29L13,33.5z"/>
<path class="st1" d="M18,22.2c0-0.4,0.3-0.7,0.8-0.7h10c0.4,0,0.8,0.3,0.8,0.7S29.3,23,28.8,23h-10C18.3,23,18,22.7,18,22.2z"/>
<path class="st1" d="M18,26.2c0-0.4,0.3-0.7,0.8-0.7h10c0.4,0,0.8,0.3,0.8,0.8c0,0.4-0.3,0.8-0.8,0.8h-10C18.3,27,18,26.7,18,26.2z"
	/>
<path class="st1" d="M12,24c0-5.9,5.5-10.5,12-10.5S36,18.1,36,24s-5.5,10.5-12,10.5c-2.3,0-4.5-0.6-6.4-1.6l0,0c0,0,0,0-0.1,0
	L13,34.5c-0.3,0.1-0.6,0-0.8-0.2c-0.2-0.2-0.3-0.5-0.2-0.8l1.4-4.4C12.5,27.6,12,25.8,12,24z M24,15.1c-5.9,0-10.5,4.1-10.5,8.9
	c0,1.6,0.5,3.2,1.5,4.5c0.1,0.2,0.2,0.5,0.1,0.7L15,29.4l-1,3.1l3-1l0.4-0.2c0.2-0.1,0.5-0.1,0.7,0c1.7,1,3.7,1.6,6,1.6
	c5.9,0,10.5-4.1,10.5-8.9C34.5,19.2,29.9,15.1,24,15.1z"/>
</svg>
