<svg width="72" height="57" viewBox="0 0 72 57" fill="none" xmlns="http://www.w3.org/2000/svg">
<path d="M33.7171 52H10.2829C10.1266 52 10 52.1266 10 52.2829V54.7171C10 54.8734 10.1266 55 10.2829 55H33.7171C33.8734 55 34 54.8734 34 54.7171V52.2829C34 52.1266 33.8734 52 33.7171 52Z" fill="#F6D1D3"/>
<path d="M63.9682 57H57.0319C56.9096 57 56.7922 56.9505 56.705 56.8621C56.6178 56.7738 56.5677 56.6536 56.5655 56.5275L55.0001 27.4811C54.999 27.4183 55.01 27.356 55.0325 27.2976C55.055 27.2393 55.0886 27.1862 55.1312 27.1414C55.1739 27.0966 55.2247 27.0611 55.2809 27.0368C55.337 27.0125 55.3972 27 55.4581 27H65.5337C65.5949 27 65.6556 27.0124 65.7121 27.0366C65.7687 27.0608 65.8201 27.0962 65.8634 27.1409C65.9067 27.1856 65.9411 27.2386 65.9645 27.297C65.9879 27.3554 66 27.4179 66 27.4811L64.4262 56.5275C64.4262 56.6528 64.378 56.773 64.2921 56.8616C64.2062 56.9502 64.0897 57 63.9682 57Z" fill="#F6D1D3"/>
<path fill-rule="evenodd" clip-rule="evenodd" d="M21.2739 3.71729C11.6629 3.88086 3.61035 12.7895 3.81362 24.1442C4.01688 35.4988 12.3833 44.128 21.9944 43.9645C31.6055 43.8009 39.658 34.8922 39.4547 23.5376C39.2515 12.1829 30.885 3.55371 21.2739 3.71729ZM0.00424313 24.209C-0.227129 11.2844 9.03061 0.210192 21.2074 0.00294669C33.3843 -0.204298 43.0327 10.5481 43.2641 23.4727C43.4955 36.3974 34.2377 47.4716 22.0609 47.6788C9.88408 47.886 0.235615 37.1336 0.00424313 24.209Z" fill="#D11B25"/>
<path fill-rule="evenodd" clip-rule="evenodd" d="M17.7077 43.0691V46.784H27.2326V43.0691H17.7077ZM14.4123 40.2379C14.7652 39.7884 15.3872 39.3542 16.2195 39.3542H28.7209C29.5532 39.3542 30.1752 39.7884 30.5281 40.2379C30.8796 40.6856 31.0426 41.2237 31.0426 41.7423V48.1108C31.0426 48.6294 30.8796 49.1675 30.5281 49.6152C30.1752 50.0647 29.5532 50.4989 28.7209 50.4989H16.2195C15.3872 50.4989 14.7652 50.0647 14.4123 49.6152C14.0607 49.1675 13.8978 48.6294 13.8978 48.1108V41.7423C13.8978 41.2237 14.0607 40.6856 14.4123 40.2379Z" fill="#D11B25"/>
<path fill-rule="evenodd" clip-rule="evenodd" d="M11.0403 50.4989V53.2851H33.9V50.4989H11.0403ZM7.52354 47.9903C7.68168 47.6819 8.25259 46.784 9.44966 46.784H35.4907C36.6878 46.784 37.2587 47.6819 37.4168 47.9903C37.6319 48.4098 37.71 48.8593 37.71 49.2544V54.5296C37.71 54.9247 37.6319 55.3742 37.4168 55.7937C37.2587 56.1021 36.6878 57 35.4907 57H9.44966C8.2526 57 7.68169 56.1021 7.52355 55.7937C7.30844 55.3742 7.23037 54.9247 7.23037 54.5296V49.2544C7.23037 48.8593 7.30844 48.4098 7.52354 47.9903Z" fill="#D11B25"/>
<path fill-rule="evenodd" clip-rule="evenodd" d="M23.7574 9.19444C24.533 9.88763 24.5854 11.0626 23.8744 11.8188L13.3971 22.9635C12.6861 23.7197 11.4811 23.7708 10.7056 23.0776C9.93002 22.3844 9.87762 21.2095 10.5885 20.4533L21.0659 9.30854C21.7768 8.55234 22.9819 8.50125 23.7574 9.19444Z" fill="#D11B25"/>
<path fill-rule="evenodd" clip-rule="evenodd" d="M29.488 13.8522C30.2555 14.5538 30.2944 15.7292 29.5749 16.4776L15.2875 31.3373C14.568 32.0857 13.3624 32.1236 12.5949 31.422C11.8274 30.7203 11.7885 29.5449 12.508 28.7965L26.7954 13.9369C27.5149 13.1885 28.7205 13.1505 29.488 13.8522Z" fill="#D11B25"/>
<path fill-rule="evenodd" clip-rule="evenodd" d="M55.8881 29.1382L57.2228 53.2851H61.0517L62.3935 29.1382H55.8881ZM54.3386 25.4233C54.0191 25.4233 53.7044 25.4874 53.4133 25.6102C53.1223 25.733 52.8625 25.9112 52.6475 26.1314C52.4327 26.3515 52.2666 26.6092 52.1562 26.8881C52.0458 27.1669 51.9923 27.4632 51.9977 27.7603L51.9983 27.7939L53.4901 54.7828C53.5121 55.3521 53.7491 55.903 54.1704 56.3192C54.6051 56.7487 55.2027 57 55.8376 57C55.8375 57 55.8377 57 55.8376 57H62.4444C63.0849 57 63.6866 56.7435 64.1208 56.3068C64.5359 55.8891 64.767 55.3396 64.7845 54.7734L66.2846 27.7778V27.7276C66.2846 27.4329 66.227 27.1398 66.1137 26.8645C66.0003 26.5892 65.8326 26.3353 65.6175 26.1189C65.4021 25.9022 65.1433 25.7272 64.8541 25.6067C64.5647 25.4861 64.2524 25.4233 63.9355 25.4233H54.3386C54.3385 25.4233 54.3387 25.4233 54.3386 25.4233Z" fill="#D11B25"/>
<path fill-rule="evenodd" clip-rule="evenodd" d="M55.8073 20.7797V25.4233H62.4747V20.7797H55.8073ZM51.9973 19.4456C51.9973 18.2022 53.0092 17.0648 54.4178 17.0648H63.8641C65.2728 17.0648 66.2846 18.2022 66.2846 19.4456V26.7573C66.2846 28.0008 65.2728 29.1382 63.8641 29.1382H54.4178C53.0092 29.1382 51.9973 28.0008 51.9973 26.7573V19.4456Z" fill="#D11B25"/>
<path fill-rule="evenodd" clip-rule="evenodd" d="M70.9266 6.10657C71.8731 6.55463 72.2678 7.66594 71.8083 8.58876L66.6973 18.8527C66.5892 19.303 66.3541 19.72 66.0115 20.053C65.5345 20.5166 64.8874 20.7797 64.2095 20.7797C64.2094 20.7797 64.2095 20.7797 64.2095 20.7797H55.0249C54.3437 20.7797 53.6939 20.5132 53.2175 20.0445C52.8789 19.7113 52.6475 19.2955 52.5422 18.8473L47.4267 8.58976C46.9666 7.6672 47.3606 6.55566 48.3068 6.10705C49.253 5.65845 50.3929 6.04266 50.853 6.96522L55.8897 17.0648H63.3524L68.3809 6.96621C68.8404 6.04339 69.9802 5.65852 70.9266 6.10657Z" fill="#D11B25"/>
<path fill-rule="evenodd" clip-rule="evenodd" d="M59.6488 4.06293C57.8798 4.0488 56.1363 4.46146 54.5772 5.26209C53.0182 6.06265 51.6942 7.22509 50.7241 8.64164C50.1398 9.49475 48.9569 9.7245 48.0819 9.1548C47.207 8.5851 46.9714 7.43169 47.5556 6.57858C48.8804 4.64433 50.6844 3.06249 52.8018 1.97516C54.9191 0.887892 57.2835 0.329009 59.68 0.348152C62.0765 0.367294 64.4311 0.963873 66.5295 2.08489C68.6281 3.20597 70.4048 4.81653 71.6962 6.77182C72.2658 7.6343 72.0105 8.78373 71.126 9.33914C70.2414 9.89456 69.0626 9.64564 68.493 8.78316C67.5474 7.35146 66.2437 6.16815 64.6989 5.34286C63.1539 4.51751 61.4178 4.07706 59.6488 4.06293Z" fill="#D11B25"/>
<path d="M27.6875 42H18.3125C18.1399 42 18 42.1279 18 42.2857V45.7143C18 45.8721 18.1399 46 18.3125 46H27.6875C27.8601 46 28 45.8721 28 45.7143V42.2857C28 42.1279 27.8601 42 27.6875 42Z" fill="#F6D1D3"/>
</svg>
