<?xml version="1.0" encoding="utf-8"?>
<!-- Generator: Adobe Illustrator 23.0.6, SVG Export Plug-In . SVG Version: 6.00 Build 0)  -->
<svg version="1.1" id="Layer_1" xmlns="http://www.w3.org/2000/svg" xmlns:xlink="http://www.w3.org/1999/xlink" x="0px" y="0px"
	 viewBox="0 0 36 32" style="enable-background:new 0 0 36 32;" xml:space="preserve">
<style type="text/css">
	.st0{fill:#F6D1D3;}
	.st1{fill-rule:evenodd;clip-rule:evenodd;fill:#D11B25;}
</style>
<path class="st0" d="M14.3,12.4c1.5,0,2.6-1.2,2.6-2.6s-1.2-2.6-2.6-2.6s-2.6,1.2-2.6,2.6S12.9,12.4,14.3,12.4z"/>
<path class="st0" d="M23.1,14.9c1.5,0,2.6-1.2,2.6-2.6s-1.2-2.6-2.6-2.6c-1.5,0-2.6,1.2-2.6,2.6S21.7,14.9,23.1,14.9z"/>
<path class="st1" d="M18.3,2C10.4,2,4.1,8.2,4.1,15.7c0,0.5,0,1,0.1,1.5l0.3-0.8c0.2-0.5,0.8-0.8,1.3-0.6c0.5,0.2,0.8,0.8,0.6,1.3
	l-1.9,5.3C4.3,22.7,4,23,3.6,23c-0.4,0-0.8-0.2-1-0.5l-0.3-0.6l-2.2-4.1c-0.3-0.5-0.1-1.1,0.4-1.4c0.5-0.3,1.1-0.1,1.4,0.4l0.3,0.5
	c-0.1-0.6-0.1-1.2-0.1-1.7C2.1,7,9.4,0,18.3,0c4.4,0,8.4,1.7,11.4,4.5c0.4,0.4,0.4,1,0,1.4c-0.4,0.4-1,0.4-1.4,0
	C25.7,3.5,22.2,2,18.3,2z M32.4,8.3c0.4,0,0.8,0.2,1,0.5l0.3,0.6l2.2,4.1c0.3,0.5,0.1,1.1-0.4,1.4c-0.4,0.2-0.9,0.1-1.2-0.2
	c0.1,0.6,0.1,1.1,0.1,1.7C34.3,25,27,32,18.1,32c-4.4,0-8.4-1.7-11.4-4.5c-0.4-0.4-0.4-1,0-1.4c0.4-0.4,1-0.4,1.4,0
	c2.6,2.4,6.1,3.9,10,3.9c7.9,0,14.2-6.2,14.2-13.7c0-0.9-0.1-1.8-0.3-2.7L31.6,15c-0.2,0.5-0.8,0.8-1.3,0.6
	c-0.5-0.2-0.8-0.8-0.6-1.3L31.6,9C31.7,8.6,32,8.4,32.4,8.3z"/>
<path class="st1" d="M23.1,10.5c-0.9,0-1.6,0.7-1.6,1.6c0,0.9,0.7,1.6,1.6,1.6c0.9,0,1.6-0.7,1.6-1.6C24.8,11.3,24,10.5,23.1,10.5z
	 M19.5,12.2c0-2,1.6-3.6,3.6-3.6s3.6,1.6,3.6,3.6c0,2-1.6,3.6-3.6,3.6S19.5,14.2,19.5,12.2z"/>
<path class="st1" d="M21.2,19.5c-0.7,0-1.5,0.8-1.5,2V22c0,0.6-0.4,1-1,1c-0.6,0-1-0.4-1-1v-0.6c0-1.9,1.4-4,3.5-4H25
	c2.1,0,3.5,1.9,3.5,4V22c0,0.6-0.4,1-1,1c-0.6,0-1-0.4-1-1v-0.6c0-1.3-0.8-2-1.5-2H21.2z"/>
<path class="st1" d="M14.4,8c-0.9,0-1.6,0.7-1.6,1.6c0,0.9,0.7,1.6,1.6,1.6c0.9,0,1.6-0.7,1.6-1.6C16.1,8.7,15.3,8,14.4,8z
	 M10.8,9.6c0-2,1.6-3.6,3.6-3.6c2,0,3.6,1.6,3.6,3.6c0,2-1.6,3.6-3.6,3.6C12.4,13.3,10.8,11.7,10.8,9.6z"/>
<path class="st1" d="M12.5,16.8c-1,0-1.5,0.6-1.5,1.2v0.4c0,0.6-0.4,1-1,1c-0.6,0-1-0.4-1-1V18c0-1.9,1.7-3.2,3.5-3.2h3.7
	c1.7,0,3.5,1.3,3.5,3.2v0.4c0,0.6-0.4,1-1,1s-1-0.4-1-1V18c0-0.6-0.6-1.2-1.5-1.2H12.5z"/>
</svg>
