<?xml version="1.0" encoding="utf-8"?>
<!-- Generator: Adobe Illustrator 23.0.6, SVG Export Plug-In . SVG Version: 6.00 Build 0)  -->
<svg version="1.1" id="Layer_1" xmlns="http://www.w3.org/2000/svg" xmlns:xlink="http://www.w3.org/1999/xlink" x="0px" y="0px"
	 viewBox="0 0 26.1 24" style="enable-background:new 0 0 26.1 24;" xml:space="preserve">
<style type="text/css">
	.st0{fill-rule:evenodd;clip-rule:evenodd;fill:#D11B25;}
	.st1{fill:#F6D1D3;}
</style>
<path class="st0" d="M13.3,1.6C7.6,1.6,3,6.2,3,11.9c0,1.2,0.2,2.3,0.6,3.5c0.1,0.4-0.1,0.8-0.5,1.1C2.7,16.6,2.3,16.4,2,16
	c-0.4-1.3-0.6-2.5-0.6-3.9c0-6.7,5.4-12,11.9-12c3.3,0,6.1,1.3,8.3,3.4c0.3,0.3,0.3,0.8,0,1.2c-0.3,0.3-0.8,0.3-1.2,0
	C18.6,2.8,16.1,1.6,13.3,1.6z"/>
<path class="st0" d="M13.1,22.5c5.7,0,10.2-4.6,10.2-10.3c0-1.2-0.2-2.3-0.6-3.5c-0.1-0.4,0.1-0.8,0.5-1.1c0.4-0.1,0.8,0.1,1.1,0.5
	c0.4,1.3,0.6,2.5,0.6,3.9c0,6.5-5.3,11.9-11.8,11.9c-3.3,0-6.1-1.3-8.3-3.4c-0.3-0.3-0.3-0.8,0-1.2C5.1,19,5.6,19,6,19.3
	C7.9,21.5,10.4,22.5,13.1,22.5z"/>
<path class="st0" d="M2.6,17.4c-0.3,0-0.6-0.1-0.7-0.4l-0.2-0.4l-1.6-3c-0.2-0.4,0-0.8,0.3-1.1c0.4-0.2,0.8,0,1.1,0.3l0.9,1.9
	l0.7-2.3c0.1-0.4,0.6-0.6,1.1-0.5C4.6,12,4.8,12.5,4.7,13l-1.4,4C3.2,17.2,2.9,17.4,2.6,17.4z"/>
<path class="st0" d="M23.5,6.3c0.3,0,0.6,0.1,0.7,0.4l0.2,0.4l1.6,3c0.2,0.4,0,0.8-0.3,1.1c-0.4,0.2-0.8,0-1.1-0.3L23.7,9L23,11.4
	c-0.1,0.4-0.6,0.6-1.1,0.5c-0.4-0.1-0.6-0.6-0.5-1.1l1.4-4C22.9,6.6,23.2,6.3,23.5,6.3z"/>
<path class="st1" d="M10,9C11.2,9,12,8.1,12,7.1S11.1,5.2,10,5.2S8.1,6.1,8.1,7.1S9,9,10,9z"/>
<path class="st1" d="M16.6,10.9c1.1,0,1.9-0.9,1.9-1.9S17.6,7,16.6,7c-1.1,0-1.9,0.9-1.9,1.9S15.5,10.9,16.6,10.9z"/>
<path class="st0" d="M16.6,7.6c-0.7,0-1.2,0.5-1.2,1.2c0,0.7,0.5,1.2,1.2,1.2c0.7,0,1.2-0.5,1.2-1.2C17.8,8.2,17.2,7.6,16.6,7.6z
	 M13.9,8.9c0-1.5,1.2-2.7,2.7-2.7c1.5,0,2.7,1.2,2.7,2.7s-1.2,2.7-2.7,2.7C15.1,11.6,13.9,10.4,13.9,8.9z"/>
<path class="st0" d="M15.2,14.3c-0.5,0-1.1,0.6-1.1,1.5v0.4c0,0.4-0.3,0.7-0.7,0.7c-0.4,0-0.7-0.3-0.7-0.7v-0.4c0-1.4,1-3,2.6-3H18
	c1.6,0,2.6,1.4,2.6,3v0.4c0,0.4-0.3,0.7-0.7,0.7c-0.4,0-0.7-0.3-0.7-0.7v-0.4c0-1-0.6-1.5-1.1-1.5L15.2,14.3L15.2,14.3z"/>
<path class="st0" d="M10.1,5.8C9.4,5.8,8.9,6.3,8.9,7s0.5,1.2,1.2,1.2c0.7,0,1.2-0.5,1.2-1.2C11.4,6.3,10.8,5.8,10.1,5.8z M7.4,7
	c0-1.5,1.2-2.7,2.7-2.7s2.7,1.2,2.7,2.7s-1.2,2.7-2.7,2.7C8.6,9.7,7.4,8.5,7.4,7z"/>
<path class="st0" d="M8.7,12.3c-0.7,0-1.1,0.4-1.1,0.9v0.3c0,0.4-0.3,0.7-0.7,0.7c-0.4,0-0.7-0.3-0.7-0.7v-0.3
	c0-1.4,1.3-2.4,2.6-2.4h2.7c1.3,0,2.6,1,2.6,2.4v0.3c0,0.4-0.3,0.7-0.7,0.7c-0.4,0-0.7-0.3-0.7-0.7v-0.3c0-0.4-0.4-0.9-1.1-0.9H8.7z
	"/>
</svg>
