<svg width="18" height="18" viewBox="0 0 18 18" fill="none" xmlns="http://www.w3.org/2000/svg">
<path fill-rule="evenodd" clip-rule="evenodd" d="M5.90884 15.9851C6.24243 15.6054 6.6903 14.8953 7.28924 13.6933C7.94554 12.3761 8.87838 11.2967 9.52483 10.715C9.92825 10.3522 10.0889 9.99855 10.1558 9.7591C10.1901 9.63625 10.2011 9.53804 10.2043 9.47779C10.206 9.44776 10.2056 9.42764 10.2053 9.41924L10.2021 9.3904L10.2021 3.38527C10.2021 2.44144 9.4893 1.75 8.69876 1.75L2.97166 1.75C2.42047 1.75 2.14001 1.85883 2.00077 1.97546C1.89259 2.06607 1.75727 2.25647 1.75028 2.74874L1.75028 9.34845C1.75028 10.2923 2.46306 10.9837 3.25361 10.9837H6.32048L5.78867 12.0648C5.48417 12.6838 5.10527 13.7227 5.03297 14.6496C4.9969 15.1119 5.04248 15.4834 5.15674 15.7484C5.2498 15.9642 5.39397 16.1283 5.64577 16.2332C5.69291 16.2026 5.77836 16.1336 5.90884 15.9851ZM5.60058 16.2552C5.60058 16.2552 5.6068 16.2512 5.61826 16.2492C5.60615 16.2551 5.60058 16.2552 5.60058 16.2552ZM0.25 3.53895L0.25 2.78895C0.25 1.9939 0.473939 1.29767 1.03759 0.825548C1.57308 0.377018 2.27845 0.25 2.97166 0.25L8.69876 0.250001C10.397 0.250001 11.7021 1.69458 11.7021 3.38527L11.7021 9.31968C11.703 9.33337 11.7038 9.34902 11.7044 9.36654C11.7061 9.41601 11.7063 9.48065 11.7022 9.55816C11.6939 9.71298 11.6679 9.92096 11.6005 10.1626C11.4638 10.652 11.1614 11.2606 10.528 11.8302C10.0016 12.3039 9.19277 13.2364 8.6318 14.3623C8.02183 15.5864 7.50372 16.4425 7.03569 16.9752C6.59692 17.4745 5.97432 17.9345 5.23358 17.6803M0.25 3.53895L0.250284 9.34845C0.250284 11.0392 1.55535 12.4837 3.25361 12.4837H3.99472C3.77859 13.1043 3.59258 13.827 3.53751 14.5329C3.4913 15.1253 3.53196 15.7687 3.77935 16.3424C4.03909 16.9447 4.51297 17.4329 5.23358 17.6803M15.4556 9.25C15.9003 9.25 16.2056 8.91263 16.2056 8.56269V2.43732C16.2056 2.08737 15.9003 1.75 15.4556 1.75C15.0108 1.75 14.7056 2.08737 14.7056 2.43732V8.56269C14.7056 8.91263 15.0108 9.25 15.4556 9.25ZM17.7056 8.56269C17.7056 9.80101 16.6675 10.75 15.4556 10.75C14.2436 10.75 13.2056 9.80101 13.2056 8.56269V2.43732C13.2056 1.199 14.2436 0.250001 15.4556 0.250001C16.6675 0.250001 17.7056 1.199 17.7056 2.43732V8.56269Z" fill="black"/>
</svg>
