<svg width="5" height="16" viewBox="0 0 5 16" fill="none" xmlns="http://www.w3.org/2000/svg">
<path d="M2.11108 4C3.21108 4 4.11108 3.1 4.11108 2C4.11108 0.9 3.21108 -9.77881e-09 2.11108 -6.30891e-09C1.01108 -2.83901e-09 0.111084 0.9 0.111084 2C0.111084 3.1 1.01108 4 2.11108 4ZM2.11108 6C1.01108 6 0.111084 6.9 0.111084 8C0.111084 9.1 1.01108 10 2.11108 10C3.21108 10 4.11108 9.1 4.11108 8C4.11108 6.9 3.21108 6 2.11108 6ZM2.11108 12C1.01108 12 0.111084 12.9 0.111084 14C0.111084 15.1 1.01108 16 2.11108 16C3.21108 16 4.11108 15.1 4.11108 14C4.11108 12.9 3.21108 12 2.11108 12Z" fill="#263238"/>
</svg>
