<?xml version="1.0" encoding="utf-8"?>
<!-- Generator: Adobe Illustrator 23.0.6, SVG Export Plug-In . SVG Version: 6.00 Build 0)  -->
<svg version="1.1" id="Layer_1" xmlns="http://www.w3.org/2000/svg" xmlns:xlink="http://www.w3.org/1999/xlink" x="0px" y="0px"
	 viewBox="0 0 24 24" style="enable-background:new 0 0 24 24;" xml:space="preserve">
<style type="text/css">
	.st0{fill:#F6D1D3;}
	.st1{fill-rule:evenodd;clip-rule:evenodd;fill:#D11B25;}
</style>
<path class="st0" d="M3,5h18l-9,6.3L8.6,9L3,5z"/>
<path class="st1" d="M1.1,5.2c0-0.8,0.7-1.5,1.5-1.5h18.6c0.8,0,1.5,0.7,1.5,1.5v12.2c0,0.8-0.7,1.5-1.5,1.5H2.6
	c-0.8,0-1.5-0.7-1.5-1.5C1.1,17.4,1.1,5.2,1.1,5.2z M2.6,5C2.5,5,2.4,5.1,2.4,5.2v12.2c0,0.1,0.1,0.2,0.2,0.2h18.6
	c0.1,0,0.2-0.1,0.2-0.2V5.2c0-0.1-0.1-0.2-0.2-0.2C21.3,5,2.6,5,2.6,5z"/>
<path class="st1" d="M22.3,4.8c0.2,0.3,0.1,0.7-0.2,0.9l-9.9,6.5c-0.2,0.1-0.5,0.1-0.7,0L1.6,5.7C1.3,5.5,1.2,5.1,1.4,4.8
	S2,4.4,2.3,4.6l9.5,6.3l9.5-6.3C21.7,4.4,22.1,4.5,22.3,4.8z"/>
</svg>
