<svg xmlns="http://www.w3.org/2000/svg" width="48" height="48" viewBox="0 0 48 48">
<style type="text/css">
	.st0{fill:#F6D1D3;}
	.st1{fill-rule:evenodd;clip-rule:evenodd;fill:#D11B25;}
</style>
<path class="st0" d="M15,17h18l-9,6.3L20.6,21L15,17z"/>
<path class="st1" d="M13.1,17.2c0-0.8,0.7-1.5,1.5-1.5h18.6c0.8,0,1.5,0.7,1.5,1.5v12.2c0,0.8-0.7,1.5-1.5,1.5H14.6
	c-0.8,0-1.5-0.7-1.5-1.5C13.1,29.4,13.1,17.2,13.1,17.2z M14.6,17c-0.1,0-0.2,0.1-0.2,0.2v12.2c0,0.1,0.1,0.2,0.2,0.2h18.6
	c0.1,0,0.2-0.1,0.2-0.2V17.2c0-0.1-0.1-0.2-0.2-0.2C33.3,17,14.6,17,14.6,17z"/>
<path class="st1" d="M34.3,16.8c0.2,0.3,0.1,0.7-0.2,0.9l-9.9,6.5c-0.2,0.1-0.5,0.1-0.7,0l-9.9-6.5c-0.3-0.2-0.4-0.6-0.2-0.9
	c0.2-0.3,0.6-0.4,0.9-0.2l9.5,6.3l9.5-6.3C33.7,16.4,34.1,16.5,34.3,16.8z"/>
</svg>
