<svg width="18" height="18" viewBox="0 0 18 18" fill="none" xmlns="http://www.w3.org/2000/svg">
<style type="text/css">
	.st0{fill-rule:evenodd;clip-rule:evenodd;fill:#777777;}
</style>
<path class="st0" d="M1.7,9c0.5,0.6,1.5,1.6,2.7,2.6c1.3,1,2.9,1.7,4.5,1.7s3.2-0.7,4.5-1.7c1.3-0.9,2.3-2,2.7-2.6
	c-0.5-0.6-1.5-1.6-2.7-2.6c-0.1-0.1-0.2-0.1-0.3-0.2c0.2,0.5,0.3,1.1,0.3,1.7c0,2.7-2.1,4.3-4.5,4.3s-4.5-1.7-4.5-4.3
	c0-0.6,0.1-1.2,0.3-1.7C4.7,6.3,4.6,6.3,4.5,6.4C3.2,7.4,2.2,8.4,1.7,9z M9,3.2c-2.1,0-4,1-5.4,2S1,7.5,0.5,8.1
	c-0.4,0.5-0.4,1.3,0,1.8c0.5,0.6,1.6,1.8,3.1,2.9s3.4,2,5.4,2s4-1,5.4-2s2.6-2.3,3.1-2.9c0.4-0.5,0.4-1.3,0-1.8
	c-0.5-0.6-1.6-1.8-3.1-2.9S11.1,3.2,9,3.2z M9,4.7C7.4,4.7,5.9,6.1,5.9,8c0,1.7,1.3,2.9,3.1,2.9s3.1-1.2,3.1-2.9
	C12.1,6.1,10.6,4.7,9,4.7z"/>
</svg>
