<?xml version="1.0" encoding="utf-8"?>
<!-- Generator: Adobe Illustrator 23.0.6, SVG Export Plug-In . SVG Version: 6.00 Build 0)  -->
<svg version="1.1" id="Layer_1" xmlns="http://www.w3.org/2000/svg" xmlns:xlink="http://www.w3.org/1999/xlink" x="0px" y="0px"
	 viewBox="0 0 57.2 57.2" style="enable-background:new 0 0 57.2 57.2;" xml:space="preserve">
<style type="text/css">
	.st0{fill-rule:evenodd;clip-rule:evenodd;fill:#D11B25;}
	.st1{fill:#F6D1D3;}
</style>
<path class="st0" d="M28.9,22.5l-14.4,5.4v23.7h28.2V27.9L28.9,22.5z M28,19.7c0.6-0.2,1.2-0.2,1.7,0L44,25.3
	c0.9,0.4,1.5,1.3,1.5,2.3v24.6c0,1.3-1.1,2.4-2.4,2.4H14c-1.3,0-2.4-1.1-2.4-2.4V27.6c0-1,0.6-1.9,1.6-2.3L28,19.7z"/>
<path class="st0" d="M19.6,42.1c0-0.8,0.7-1.5,1.5-1.5h3c1.4,0,2.5,1.1,2.5,2.5v3c0,0.8-0.7,1.5-1.5,1.5s-1.5-0.7-1.5-1.5v-2.5h-2.5
	C20.3,43.6,19.6,42.9,19.6,42.1z"/>
<path class="st0" d="M30.6,42.1c0-0.8,0.7-1.5,1.5-1.5h3c1.4,0,2.5,1.1,2.5,2.5v3c0,0.8-0.7,1.5-1.5,1.5s-1.5-0.7-1.5-1.5v-2.5h-2.5
	C31.3,43.6,30.6,42.9,30.6,42.1z"/>
<path class="st0" d="M19.6,32.1c0-0.8,0.7-1.5,1.5-1.5h3c1.4,0,2.5,1.1,2.5,2.5v3c0,0.8-0.7,1.5-1.5,1.5s-1.5-0.7-1.5-1.5v-2.5h-2.5
	C20.3,33.6,19.6,32.9,19.6,32.1z"/>
<path class="st0" d="M30.6,32.1c0-0.8,0.7-1.5,1.5-1.5h3c1.4,0,2.5,1.1,2.5,2.5v3c0,0.8-0.7,1.5-1.5,1.5s-1.5-0.7-1.5-1.5v-2.5h-2.5
	C31.3,33.6,30.6,32.9,30.6,32.1z"/>
<path class="st1" d="M28.9,4.2C29,4,29.2,4,29.3,4.2l1.5,4.6c0,0.1,0.1,0.1,0.2,0.1h5c0.2,0,0.3,0.2,0.1,0.4l-4,2.9
	C32,12.2,32,12.3,32,12.4l1.5,4.6c0.1,0.2-0.1,0.3-0.3,0.2l-4-2.9c-0.1,0-0.2,0-0.2,0l-4,2.9c-0.2,0.1-0.4,0-0.3-0.2l1.5-4.6
	c0-0.1,0-0.2-0.1-0.2l-4-2.9c-0.2-0.1-0.1-0.4,0.1-0.4h5c0.1,0,0.2-0.1,0.2-0.1L28.9,4.2z"/>
<path class="st0" d="M28,2.4c0.4-1.1,1.9-1.1,2.3,0l1.4,4.3h4.7c1.2,0,1.6,1.6,0.7,2.3l-3.7,2.6l1.4,4.2c0.4,1.1-0.8,2.1-1.8,1.5
	l-3.9-2.7l-3.9,2.7c-1,0.7-2.2-0.3-1.8-1.5l1.4-4.2L21.1,9c-1-0.7-0.5-2.3,0.7-2.3h4.7L28,2.4z M29.1,5.4L28.2,8
	c-0.2,0.5-0.6,0.8-1.1,0.8h-2.7l2.1,1.5c0.5,0.3,0.6,0.9,0.5,1.5l-0.8,2.5l2.3-1.6c0.4-0.3,0.9-0.3,1.3,0l2.3,1.6l-0.8-2.5
	c-0.2-0.5,0-1.1,0.5-1.5l2.1-1.5h-2.7c-0.5,0-1-0.3-1.1-0.8L29.1,5.4z"/>
<path class="st0" d="M12.5,11.4c0.4-1.1,1.9-1.1,2.2,0l0.9,2.5h2.8c1.2,0,1.6,1.5,0.7,2.1l-2.2,1.5l0.8,2.5c0.4,1.1-0.9,2-1.8,1.3
	l-2.3-1.6l-2.3,1.6C10.3,22,9.1,21.1,9.5,20l0.8-2.5L8.1,16c-1-0.7-0.5-2.1,0.7-2.1h2.8L12.5,11.4z M13.6,14.2l-0.3,0.9
	c-0.2,0.5-0.6,0.8-1.1,0.8h-0.9l0.7,0.5c0.4,0.3,0.6,0.8,0.4,1.3l-0.3,0.8l0.8-0.5c0.4-0.3,0.9-0.3,1.4,0l0.8,0.5l-0.3-0.8
	c-0.2-0.5,0-1,0.4-1.3l0.7-0.5H15c-0.5,0-1-0.3-1.1-0.8L13.6,14.2z"/>
<path class="st0" d="M43.1,11.4c0.3-1.1,1.7-1.1,2.1,0l0.8,2.5h2.6c1.1,0,1.5,1.5,0.6,2.1l-2,1.5l0.8,2.5c0.3,1.1-0.8,2-1.7,1.3
	l-2.1-1.6L42,21.4c-0.9,0.6-2-0.3-1.7-1.3l0.8-2.5l-2-1.5c-0.9-0.7-0.4-2.1,0.6-2.1h2.6L43.1,11.4z M44.1,14.2l-0.3,0.9
	c-0.1,0.5-0.6,0.8-1,0.8H42l0.6,0.5c0.4,0.3,0.6,0.8,0.4,1.3l-0.2,0.8l0.7-0.5c0.4-0.3,0.9-0.3,1.2,0l0.7,0.5l-0.2-0.8
	c-0.2-0.5,0-1,0.4-1.3l0.6-0.5h-0.8c-0.5,0-0.9-0.3-1-0.8L44.1,14.2z"/>
</svg>
