<?xml version="1.0" encoding="utf-8"?>
<!-- Generator: Adobe Illustrator 23.0.6, SVG Export Plug-In . SVG Version: 6.00 Build 0)  -->
<svg version="1.1" id="Layer_1" xmlns="http://www.w3.org/2000/svg" xmlns:xlink="http://www.w3.org/1999/xlink" x="0px" y="0px"
	 viewBox="0 0 48 48" style="enable-background:new 0 0 48 48;" xml:space="preserve">
<style type="text/css">
	.st0{fill-rule:evenodd;clip-rule:evenodd;fill:#D11B25;}
</style>
<path class="st0" d="M14.5,14.5c0.3-0.3,0.8-0.3,1.1,0l8.4,8.4l8.4-8.4c0.3-0.3,0.8-0.3,1.1,0c0.3,0.3,0.3,0.8,0,1.1L25.1,24
	l8.5,8.5c0.3,0.3,0.3,0.8,0,1.1s-0.8,0.3-1.1,0L24,25l-8.5,8.5c-0.3,0.3-0.8,0.3-1.1,0c-0.3-0.3-0.3-0.8,0-1.1l8.5-8.5l-8.4-8.4
	C14.2,15.3,14.2,14.8,14.5,14.5z"/>
</svg>
