<?xml version="1.0" encoding="utf-8"?>
<!-- Generator: Adobe Illustrator 23.0.6, SVG Export Plug-In . SVG Version: 6.00 Build 0)  -->
<svg version="1.1" id="Layer_1" xmlns="http://www.w3.org/2000/svg" xmlns:xlink="http://www.w3.org/1999/xlink" x="0px" y="0px"
	 viewBox="0 0 48 48" style="enable-background:new 0 0 48 48;" xml:space="preserve">
<style type="text/css">
	.st0{fill-rule:evenodd;clip-rule:evenodd;fill:#777777;}
</style>
<path class="st0" d="M36,17.7H12c-0.4,0-0.8-0.3-0.8-0.8s0.3-0.8,0.8-0.8h24c0.4,0,0.8,0.3,0.8,0.8S36.4,17.7,36,17.7z M15.5,24
	c0-0.4,0.3-0.8,0.8-0.8h15.5c0.4,0,0.8,0.3,0.8,0.8s-0.3,0.8-0.8,0.8H16.3C15.9,24.7,15.5,24.4,15.5,24z M18.7,31
	c0-0.4,0.3-0.8,0.8-0.8h9.2c0.4,0,0.8,0.3,0.8,0.8s-0.3,0.8-0.8,0.8h-9.2C19,31.7,18.7,31.4,18.7,31z"/>
</svg>
