<?xml version="1.0" encoding="utf-8"?>
<!-- Generator: Adobe Illustrator 23.0.6, SVG Export Plug-In . SVG Version: 6.00 Build 0)  -->
<svg version="1.1" id="Layer_1" xmlns="http://www.w3.org/2000/svg" xmlns:xlink="http://www.w3.org/1999/xlink" x="0px" y="0px"
	 viewBox="0 0 45.1 45.1" style="enable-background:new 0 0 45.1 45.1;" xml:space="preserve">
<style type="text/css">
	.st0{fill-rule:evenodd;clip-rule:evenodd;fill:#D11B25;}
	.st1{fill:#F6D1D3;}
</style>
<path class="st0" d="M1.5,23c0-10.4,9.6-18.5,21-18.5s21,8.1,21,18.5s-9.6,18.5-21,18.5c-4.1,0-7.9-1-11.2-2.8l0,0
	c0,0-0.1,0-0.1,0.1l-7.8,2.7c-0.5,0.2-1.1,0-1.4-0.3c-0.4-0.4-0.5-0.9-0.3-1.5l2.5-7.7C2.5,29.3,1.5,26.3,1.5,23z M22.5,7.4
	C12.3,7.4,4.3,14.6,4.3,23c0,2.9,0.9,5.6,2.5,7.9c0.3,0.4,0.3,0.9,0.2,1.3l-0.1,0.3l-1.7,5.3l5.1-1.8l0.6-0.3
	c0.4-0.2,0.9-0.2,1.3,0.1c2.9,1.7,6.5,2.8,10.4,2.8c10.3,0,18.2-7.2,18.2-15.6C40.7,14.6,32.8,7.4,22.5,7.4z"/>
<path class="st1" d="M22.4,30.5l-6.5-6.9l-0.3-0.4c-1.5-1.9-1.2-4.5,0.7-6c1.9-1.5,4.7-0.6,6.2,1.2c1.5-1.9,4.7-2.7,6.5-1.2
	c1.9,1.5,2.2,4.2,0.7,6l-0.3,0.4L22.4,30.5z"/>
<path class="st0" d="M26.3,18.5c-0.9,0.2-1.8,0.7-2.4,1.4c-0.3,0.3-0.7,0.5-1.1,0.5c-0.4,0-0.8-0.2-1.1-0.5
	c-0.6-0.7-1.4-1.2-2.2-1.4c-0.8-0.2-1.5-0.1-2,0.4c-1.3,1-1.5,2.8-0.5,4.1l0.3,0.3l5.6,5.9l5.9-5.9l0.3-0.3c1-1.2,0.8-3.1-0.5-4.1
	l0,0l0,0C28.1,18.4,27.3,18.3,26.3,18.5z M30.3,16.6c-1.4-1.1-3.1-1.2-4.6-0.9c-1,0.2-2,0.7-2.8,1.3c-0.8-0.6-1.7-1.1-2.6-1.3
	c-1.5-0.3-3.1-0.2-4.5,0.9c-2.5,2-2.9,5.6-0.9,8.1c0,0,0,0,0,0l0.3,0.4c0,0,0,0,0,0.1l6.6,6.9c0.3,0.3,0.6,0.4,1,0.4
	c0.4,0,0.8-0.1,1-0.4l7-6.9c0,0,0.1-0.1,0.1-0.1l0.3-0.4c0,0,0,0,0,0C33.3,22.2,32.9,18.6,30.3,16.6z"/>
</svg>
