<svg width="394" height="303" viewBox="0 0 394 303" fill="none" xmlns="http://www.w3.org/2000/svg" xmlns:xlink="http://www.w3.org/1999/xlink">
<style type="text/css">
	.st0{opacity:0.1;fill:#D11B25;enable-background:new;}
</style>
<path class="st0" d="M385.1,148.2L353.9,17.4L132,0l4.2,123.2L237.9,202l126.8-9.7C382.7,190.9,391,173,385.1,148.2z"/>
<path class="st0" d="M58.7,137.7c-3.4-1.6-7.4-0.5-9.7,2.4L1.6,202.2c-1.7,2.2-2.1,5-1.2,7.6l20.4,56.2c1.4,4,5.7,6.1,9.8,4.9
	l84.5-24.8c2.9-0.9,5.1-3.3,5.6-6.3l11.1-62.2c0.6-3.6-1.2-7.2-4.6-8.7L58.7,137.7z"/>
<path class="st0" d="M392.8,269.2l-19.6-82.3L234,176l2.6,77.4l63.8,49.6l79.5-6.1C391.3,296,396.5,284.8,392.8,269.2z"/>
</svg>
