<?xml version="1.0" encoding="utf-8"?>
<!-- Generator: Adobe Illustrator 23.0.6, SVG Export Plug-In . SVG Version: 6.00 Build 0)  -->
<svg version="1.1" id="Layer_1" xmlns="http://www.w3.org/2000/svg" xmlns:xlink="http://www.w3.org/1999/xlink" x="0px" y="0px"
	 viewBox="0 0 909.1 612.3" style="enable-background:new 0 0 909.1 612.3;" xml:space="preserve">
<style type="text/css">
	.st0{opacity:0.1;fill:#D12028;enable-background:new    ;}
</style>
<path class="st0" d="M789.2,306.7L724.7,36L267,0l8.6,254.9L485.4,418l261.5-20.1C784.2,395,801.3,358.1,789.2,306.7z"/>
<path class="st0" d="M117.2,279.4c-3.4-1.5-7.3-0.5-9.6,2.4L1.7,417.8c-1.7,2.2-2.2,5.1-1.2,7.7l47,126.6c1.5,3.9,5.7,6.1,9.7,4.9
	l189.2-54.4c2.9-0.8,5.1-3.3,5.7-6.3l25.3-138.6c0.7-3.6-1.2-7.2-4.6-8.7L117.2,279.4z"/>
<path class="st0" d="M888.4,612.3l-47.6-200.2l-457.7-36l7.9,234.8L888.4,612.3z"/>
</svg>
