<svg width="166" height="180" viewBox="0 0 166 180" fill="none" xmlns="http://www.w3.org/2000/svg">
<g opacity="0.2">
<path d="M26.5648 174.166V123.333H180.356V174.166L141.908 162.436L105.432 174.166L72.7021 162.436L26.5648 174.166Z" fill="#777777"/>
<path fill-rule="evenodd" clip-rule="evenodd" d="M54.5557 42.1875C54.5557 39.0809 57.1093 36.5625 60.2595 36.5625H145.816C148.966 36.5625 151.52 39.0809 151.52 42.1875C151.52 45.2941 148.966 47.8125 145.816 47.8125H60.2595C57.1093 47.8125 54.5557 45.2941 54.5557 42.1875Z" fill="#777777"/>
<path fill-rule="evenodd" clip-rule="evenodd" d="M0.369751 5.625C0.369751 2.5184 2.92342 0 6.07353 0H200.002C203.152 0 205.706 2.5184 205.706 5.625C205.706 8.7316 203.152 11.25 200.002 11.25H6.07353C2.92342 11.25 0.369751 8.7316 0.369751 5.625Z" fill="#777777"/>
<path fill-rule="evenodd" clip-rule="evenodd" d="M54.5557 75.9375C54.5557 72.8309 57.1093 70.3125 60.2595 70.3125H145.816C148.966 70.3125 151.52 72.8309 151.52 75.9375C151.52 79.0441 148.966 81.5625 145.816 81.5625H60.2595C57.1093 81.5625 54.5557 79.0441 54.5557 75.9375Z" fill="#777777"/>
<path fill-rule="evenodd" clip-rule="evenodd" d="M20.4931 126.562C20.4931 123.456 23.8782 120.938 28.054 120.938H175.49C179.666 120.938 183.051 123.456 183.051 126.562C183.051 129.669 179.666 132.188 175.49 132.188H28.054C23.8782 132.188 20.4931 129.669 20.4931 126.562Z" fill="#777777"/>
<path fill-rule="evenodd" clip-rule="evenodd" d="M28.0117 0C32.1642 0 31.9007 3.35786 31.9007 7.5V167.344L68.9753 158.906C70.1743 158.638 71.421 158.667 72.6062 158.991L105.126 167.344L138.847 157.5C140.084 157.162 141.387 157.145 142.633 157.452L174.495 165.938V10.458C174.495 6.31583 174.232 0 178.384 0C182.537 0 185.903 3.35786 185.903 7.5V172.5C185.903 174.805 184.84 176.982 183.021 178.404C181.202 179.826 178.828 180.334 176.584 179.782L139.927 170.766L107.112 179.733C105.812 180.089 104.44 180.089 103.139 179.733L70.2429 170.744L29.6562 179.818C27.4285 180.316 25.0946 179.778 23.3125 178.355C21.5304 176.931 20.4931 174.777 20.4931 172.5V7.5C20.4931 3.35786 23.8593 0 28.0117 0Z" fill="#777777"/>
</g>
</svg>
