<?xml version="1.0" encoding="utf-8"?>
<!-- Generator: Adobe Illustrator 23.0.6, SVG Export Plug-In . SVG Version: 6.00 Build 0)  -->
<svg version="1.1" id="Layer_1" xmlns="http://www.w3.org/2000/svg" xmlns:xlink="http://www.w3.org/1999/xlink" x="0px" y="0px"
	 viewBox="0 0 1416.5 871.4" style="enable-background:new 0 0 1416.5 871.4;" xml:space="preserve">
<style type="text/css">
	
		.st0{opacity:0.1;fill:#D11B25;stroke:#D11B25;stroke-width:18;stroke-linecap:round;stroke-linejoin:round;enable-background:new    ;}
	.st1{fill:url(#SVGID_1_);}
	.st2{clip-path:url(#SVGID_3_);fill:#FFFFFF;}
	.st3{clip-path:url(#SVGID_5_);fill:#FFFFFF;stroke:#FFFFFF;stroke-width:18;stroke-linecap:round;stroke-linejoin:round;}
</style>
<g>
	<path class="st0" d="M528.3-61.1l-492,506.5l240.4,654.1l824.8-237.7l111.8-615.3L528.3-61.1z"/>
	<path class="st0" d="M1206.3,416.5l-43.1-180.6l-305.8-24l6.7,170.1l139.2,108.8l174.7-13.4C1203,475.4,1214.4,450.8,1206.3,416.5z
		"/>
	<path class="st0" d="M725.2,619.2l-98.3-249.8l-477.4-96.9l38.9,227.8l236.1,174.5l268,19.4C730.7,696.9,744.2,666.6,725.2,619.2z"
		/>
	<path class="st0" d="M1276.8,862l144.3-145.9c0,0-624,110.5-639.1,123.8s-361.5,240.8-337.6,256.3s361.1,62.9,410,13.5
		c48.9-49.3-22.2-125.8,30-146.2C936.6,943.2,1276.8,862,1276.8,862z"/>
	<path class="st0" d="M1253.1,1322.2l10.8,379.7c0,0,462.3-496.5,463.1-531.9c0.8-35.5,94.9-676.9,58-701.3
		c-37-24.4-391.5,8.2-387.9,136.6c3.6,128.5,143.3,268,115.5,334.1C1484.6,1005.4,1253.1,1322.2,1253.1,1322.2z"/>
	<path class="st0" d="M1244.4,597.4L1037,706.7l-81.4,279.8l197.6,129.6L1302.4,904L1244.4,597.4z"/>
	<path class="st0" d="M242.5,685.6L127.6,833.2l52.2,140.7l205.4-59.1L413.1,762L242.5,685.6z"/>
</g>
<linearGradient id="SVGID_1_" gradientUnits="userSpaceOnUse" x1="682.4218" y1="-861.2412" x2="716.8649" y2="-170.9858" gradientTransform="matrix(1 0 0 1 0 807.9999)">
	<stop  offset="0" style="stop-color:#D5242E"/>
	<stop  offset="1" style="stop-color:#AB000B"/>
</linearGradient>
<path class="st1" d="M590.2,296.7h-28.4l-0.1-59.6h-9.4l-39.5,53.7l-0.4,5.7H492L409,321v14.6h102.6l0.4,54h49.7v-54h28.4v-38.9
	H590.2z M702.4,142.3c-58.3,0-88.9,45-88.9,126.4c0,81,30.6,126.7,88.9,126.7c58.7,0,89.3-45.7,89.3-126.7
	C791.7,187.3,761.1,142.3,702.4,142.3z M702.4,180.4c25.2,0,36.7,20.9,36.7,88.2c0,67-11.5,88.2-36.7,88.2S666,334.5,666,268.6
	S677.2,180.4,702.4,180.4z M977.1,298.7l-8.1-0.4l-10.6-27.5L941,263l-18.7,34.6h-51.4l60.1-140l-43.2-16.1L818,301v35.1h35.1
	l68-2.8l42.1,44.1l7.4-41.9l23.7-6.9L977.1,298.7z"/>
<path class="st0" d="M338.9-43.2L179.8,161.7L252.1,357l284.5-82l38.6-212.2L338.9-43.2z"/>
<g>
	<g>
		<g>
			<g>
				<defs>
					<polygon id="SVGID_2_" points="339.6,-47.5 174.9,164.6 249.8,366.8 544.3,282 584.2,62.4 					"/>
				</defs>
				<clipPath id="SVGID_3_">
					<use xlink:href="#SVGID_2_"  style="overflow:visible;"/>
				</clipPath>
				<polygon class="st2" points="590.1,296.5 561.6,296.5 561.6,237.1 517.7,237.1 512.3,296.5 461.9,296.5 522,157.6 478.8,141.4 
					409,300.8 409,335.4 511.6,335.4 512,389.4 561.6,389.4 561.6,335.4 590.1,335.4 				"/>
			</g>
		</g>
	</g>
</g>
<g>
	<g>
		<g>
			<g>
				<defs>
					<polygon id="SVGID_4_" points="999,297.2 970.6,297.2 970.6,237.8 926.7,237.8 921.3,297.2 871.3,297.2 909.8,207 860.3,203.3 
						818.3,298.7 818,336.1 920.6,336.1 920.9,390.1 970.6,390.1 970.6,336.1 999,336.1 					"/>
				</defs>
				<clipPath id="SVGID_5_">
					<use xlink:href="#SVGID_4_"  style="overflow:visible;"/>
				</clipPath>
				<path class="st3" d="M1201.3,413.8l-42.4-177.9l-301.1-23.6l5.7,167.5l138,107.2l172-13.2C1198,471.8,1209.3,447.5,1201.3,413.8
					z"/>
			</g>
		</g>
	</g>
</g>
</svg>
