<svg width="195" height="199" viewBox="0 0 195 199" fill="none" xmlns="http://www.w3.org/2000/svg">
<path fill-rule="evenodd" clip-rule="evenodd" d="M51.4583 41.2005C51.4583 38.3139 53.8835 35.9738 56.875 35.9738H138.125C141.117 35.9738 143.542 38.3139 143.542 41.2005C143.542 44.0872 141.117 46.4272 138.125 46.4272H56.875C53.8835 46.4272 51.4583 44.0872 51.4583 41.2005Z" fill="#EAEAEA"/>
<path fill-rule="evenodd" clip-rule="evenodd" d="M0 7.22674C0 4.34009 2.42512 2 5.41667 2H189.583C192.575 2 195 4.34009 195 7.22674C195 10.1134 192.575 12.4535 189.583 12.4535H5.41667C2.42512 12.4535 0 10.1134 0 7.22674Z" fill="#EAEAEA"/>
<path fill-rule="evenodd" clip-rule="evenodd" d="M51.4583 72.5609C51.4583 69.6743 53.8835 67.3342 56.875 67.3342H138.125C141.117 67.3342 143.542 69.6743 143.542 72.5609C143.542 75.4476 141.117 77.7877 138.125 77.7877H56.875C53.8835 77.7877 51.4583 75.4476 51.4583 72.5609Z" fill="#EAEAEA"/>
<path fill-rule="evenodd" clip-rule="evenodd" d="M26.2506 2C30.194 2 29.9437 5.12012 29.9437 8.96898V132.541V187.24L65.1521 179.4C66.2908 179.151 67.4747 179.178 68.6002 179.479L99.4829 187.24L131.506 178.093C132.681 177.779 133.919 177.763 135.102 178.048L165.36 185.933V132.541V11.7175C165.36 7.86865 165.11 2 169.054 2C172.997 2 176.194 5.12012 176.194 8.96898V192.031C176.194 194.173 175.184 196.196 173.457 197.517C171.729 198.838 169.475 199.31 167.344 198.797L132.532 190.42L101.369 198.752C100.134 199.082 98.8313 199.082 97.5964 198.752L66.3559 190.399L27.8122 198.831C25.6967 199.294 23.4803 198.794 21.7879 197.471C20.0955 196.148 19.1104 194.147 19.1104 192.031V8.96898C19.1104 5.12012 22.3072 2 26.2506 2Z" fill="#EAEAEA"/>
<path fill-rule="evenodd" clip-rule="evenodd" d="M51.4583 105.196C51.4583 102.31 53.8835 99.9694 56.875 99.9694H138.125C141.117 99.9694 143.542 102.31 143.542 105.196C143.542 108.083 141.117 110.423 138.125 110.423H56.875C53.8835 110.423 51.4583 108.083 51.4583 105.196Z" fill="#EAEAEA"/>
<path d="M165.36 132.541H29.9437V187.24L65.1521 179.4C66.2908 179.151 67.4747 179.178 68.6002 179.479L99.4829 187.24L131.506 178.093C132.681 177.779 133.919 177.763 135.102 178.048L165.36 185.933V132.541Z" fill="#EAEAEA"/>
</svg>
