<svg width="26" height="24" viewBox="0 0 26 24" fill="none" xmlns="http://www.w3.org/2000/svg">
<path d="M19.208 12C19.208 15.3137 16.5217 18 13.208 18C9.8943 18 7.20801 15.3137 7.20801 12C7.20801 8.68629 9.8943 6 13.208 6C16.5217 6 19.208 8.68629 19.208 12Z" fill="#F6D1D3"/>
<path fill-rule="evenodd" clip-rule="evenodd" d="M13.2079 1.75C7.82312 1.75 3.45789 6.11522 3.45789 11.5C3.45789 12.6409 3.65354 13.7345 4.01249 14.7501C4.15053 15.1406 3.94583 15.5691 3.5553 15.7071C3.16476 15.8452 2.73627 15.6405 2.59823 15.2499C2.18332 14.0761 1.95789 12.8135 1.95789 11.5C1.95789 5.2868 6.99469 0.25 13.2079 0.25C16.2729 0.25 19.053 1.47673 21.0813 3.46432C21.3771 3.75423 21.382 4.22908 21.092 4.52493C20.8021 4.82077 20.3273 4.82559 20.0314 4.53568C18.2721 2.8117 15.8648 1.75 13.2079 1.75Z" fill="#D11B25"/>
<path fill-rule="evenodd" clip-rule="evenodd" d="M13.0563 21.6975C18.4411 21.6975 22.8063 17.3323 22.8063 11.9475C22.8063 10.8066 22.6106 9.71301 22.2517 8.69744C22.1136 8.30691 22.3183 7.87842 22.7089 7.74038C23.0994 7.60234 23.5279 7.80704 23.6659 8.19758C24.0808 9.37146 24.3063 10.634 24.3063 11.9475C24.3063 18.1607 19.2695 23.1975 13.0563 23.1975C9.99123 23.1975 7.21119 21.9708 5.18288 19.9832C4.88703 19.6933 4.88222 19.2184 5.17213 18.9226C5.46203 18.6267 5.93688 18.6219 6.23273 18.9118C7.99203 20.6358 10.3994 21.6975 13.0563 21.6975Z" fill="#D11B25"/>
<path fill-rule="evenodd" clip-rule="evenodd" d="M3.06731 16.7879C2.76838 16.8114 2.48446 16.6547 2.34534 16.3895L2.11642 15.953L0.62159 13.0563C0.431798 12.6885 0.576467 12.236 0.944717 12.0456C1.31297 11.8552 1.76535 11.999 1.95514 12.3668L2.86791 14.1356L3.6026 11.9836C3.73648 11.5914 4.16283 11.3815 4.55489 11.5146C4.94694 11.6477 5.15622 12.0736 5.02234 12.4657L3.71968 16.2814C3.62279 16.5652 3.36625 16.7644 3.06731 16.7879Z" fill="#D11B25"/>
<path fill-rule="evenodd" clip-rule="evenodd" d="M22.9326 6.21211C23.2315 6.1886 23.5154 6.34527 23.6545 6.61051L23.8835 7.04695L25.3783 9.94374C25.5681 10.3115 25.4234 10.764 25.0552 10.9544C24.6869 11.1448 24.2345 11.001 24.0447 10.6332L23.132 8.8644L22.3973 11.0164C22.2634 11.4086 21.837 11.6185 21.445 11.4854C21.0529 11.3523 20.8437 10.9264 20.9775 10.5343L22.2802 6.71861C22.3771 6.4348 22.6336 6.23562 22.9326 6.21211Z" fill="#D11B25"/>
<path fill-rule="evenodd" clip-rule="evenodd" d="M13.2079 16.5C15.6932 16.5 17.7079 14.4853 17.7079 12C17.7079 9.51472 15.6932 7.5 13.2079 7.5C10.7227 7.5 8.70795 9.51472 8.70795 12C8.70795 14.4853 10.7227 16.5 13.2079 16.5ZM13.2079 18C16.5217 18 19.2079 15.3137 19.2079 12C19.2079 8.68629 16.5217 6 13.2079 6C9.89424 6 7.20795 8.68629 7.20795 12C7.20795 15.3137 9.89424 18 13.2079 18Z" fill="#D11B25"/>
</svg>
