<svg xmlns="http://www.w3.org/2000/svg" width="48" height="48" viewBox="0 0 48 48">
<style type="text/css">
	.st0{fill:#F6D1D3;}
	.st1{fill-rule:evenodd;clip-rule:evenodd;fill:#D11B25;}
</style>
<path class="st0" d="M30.2,24c0,3.3-2.7,6-6,6s-6-2.7-6-6c0-3.3,2.7-6,6-6S30.2,20.7,30.2,24z"/>
<path class="st1" d="M24.2,13.7c-5.4,0-9.8,4.4-9.8,9.8c0,1.1,0.2,2.2,0.6,3.3c0.1,0.4-0.1,0.8-0.5,1c-0.4,0.1-0.8-0.1-1-0.5
	c-0.4-1.2-0.6-2.4-0.6-3.7c0-6.2,5-11.3,11.3-11.3c3.1,0,5.8,1.2,7.9,3.2c0.3,0.3,0.3,0.8,0,1.1c-0.3,0.3-0.8,0.3-1.1,0
	C29.3,14.8,26.9,13.7,24.2,13.7z"/>
<path class="st1" d="M24.1,33.7c5.4,0,9.7-4.4,9.7-9.8c0-1.1-0.2-2.2-0.6-3.3c-0.1-0.4,0.1-0.8,0.5-1c0.4-0.1,0.8,0.1,1,0.5
	c0.4,1.2,0.6,2.4,0.6,3.7c0,6.2-5,11.3-11.2,11.3c-3.1,0-5.8-1.2-7.9-3.2c-0.3-0.3-0.3-0.8,0-1.1c0.3-0.3,0.8-0.3,1.1,0
	C19,32.6,21.4,33.7,24.1,33.7z"/>
<path class="st1" d="M14.1,28.8c-0.3,0-0.6-0.1-0.7-0.4L13.1,28l-1.5-2.9c-0.2-0.4,0-0.8,0.3-1c0.4-0.2,0.8,0,1,0.3l0.9,1.8l0.7-2.2
	c0.1-0.4,0.6-0.6,1-0.5c0.4,0.1,0.6,0.6,0.5,1l-1.3,3.8C14.6,28.6,14.4,28.8,14.1,28.8z"/>
<path class="st1" d="M33.9,18.2c0.3,0,0.6,0.1,0.7,0.4l0.2,0.4l1.5,2.9c0.2,0.4,0,0.8-0.3,1c-0.4,0.2-0.8,0-1-0.3l-0.9-1.8L33.4,23
	c-0.1,0.4-0.6,0.6-1,0.5c-0.4-0.1-0.6-0.6-0.5-1l1.3-3.8C33.4,18.4,33.6,18.2,33.9,18.2z"/>
<path class="st1" d="M24.2,28.5c2.5,0,4.5-2,4.5-4.5c0-2.5-2-4.5-4.5-4.5c-2.5,0-4.5,2-4.5,4.5C19.7,26.5,21.7,28.5,24.2,28.5z
	 M24.2,30c3.3,0,6-2.7,6-6c0-3.3-2.7-6-6-6c-3.3,0-6,2.7-6,6C18.2,27.3,20.9,30,24.2,30z"/>
</svg>
