<svg width="25" height="25" viewBox="0 0 25 25" fill="none" xmlns="http://www.w3.org/2000/svg">
<path d="M2.15483 5.92296L4.14165 8.47027C3.99047 8.78404 3.85646 9.10779 3.74095 9.43851L0.53472 9.8349C0.229371 9.87267 0 10.1321 0 10.4398V14.5599C0 14.8675 0.229371 15.127 0.53472 15.1648L3.74106 15.5608C3.85646 15.8913 3.99059 16.2149 4.14177 16.5285L2.15495 19.0759C1.96578 19.3185 1.98693 19.6642 2.20445 19.8816L5.11773 22.7959C5.33536 23.0136 5.68103 23.0347 5.92369 22.8454L8.47082 20.858C8.78403 21.009 9.10765 21.1429 9.43859 21.2585L9.83465 24.4653C9.8723 24.7707 10.1319 25 10.4395 25H14.5599C14.8674 25 15.127 24.7707 15.1647 24.4653L15.5608 21.2585C15.8915 21.143 16.2151 21.0091 16.5287 20.8579L19.0768 22.8454C19.3192 23.0347 19.665 23.0136 19.8825 22.7958L22.7952 19.8817C23.0129 19.6641 23.034 19.3186 22.8447 19.076L20.858 16.529C21.0094 16.2153 21.1435 15.8917 21.2591 15.5609L24.4653 15.1649C24.7707 15.1271 25 14.8676 25 14.56V10.4399C25 10.1322 24.7707 9.87279 24.4653 9.83502L21.2584 9.43862C21.1427 9.10756 21.0088 8.78382 20.8578 8.47038L22.8446 5.92307C23.0339 5.6804 23.0127 5.33462 22.7951 5.1172L19.8817 2.20473C19.6643 1.98721 19.3186 1.96605 19.0762 2.15511L16.5289 4.14132C16.2154 3.99025 15.8918 3.85623 15.5609 3.7406L15.1648 0.534736C15.1269 0.229379 14.8675 0 14.56 0H10.4396C10.132 0 9.87241 0.229378 9.83475 0.534847L9.4387 3.74071C9.10777 3.85634 8.78414 3.99025 8.47093 4.14132L5.92358 2.15456C5.68114 1.96528 5.33548 1.98654 5.11784 2.20407L2.20467 5.11709C1.98693 5.33462 1.96567 5.68029 2.15483 5.92296ZM5.59863 3.44698L8.02691 5.34093C8.2173 5.48957 8.47768 5.51161 8.69033 5.3972C9.15738 5.14589 9.656 4.93944 10.1723 4.78349C10.4031 4.71371 10.5713 4.51424 10.6008 4.27478L10.9783 1.21888H14.021L14.3987 4.27478C14.4282 4.51435 14.5964 4.71383 14.8272 4.78349C15.3429 4.93922 15.8413 5.14567 16.3092 5.3972C16.5219 5.51161 16.7821 5.48957 16.9726 5.34104L19.4008 3.44765L21.5523 5.59811L19.6582 8.02613C19.5098 8.21663 19.4875 8.47669 19.602 8.68946C19.8531 9.15707 20.0597 9.65592 20.2156 10.1723C20.2855 10.4031 20.485 10.5712 20.7244 10.6008L23.7813 10.9786V14.0211L20.7251 14.3985C20.4857 14.4282 20.2862 14.5962 20.2163 14.8274C20.061 15.3424 19.8541 15.8408 19.6022 16.3087C19.4875 16.5215 19.5096 16.7819 19.6582 16.9725L21.5526 19.4009L19.4015 21.553L16.9726 19.6585C16.7823 19.5099 16.5221 19.4878 16.3092 19.6022C15.8413 19.8538 15.3427 20.0602 14.8274 20.2157C14.5964 20.2854 14.4282 20.485 14.3987 20.7246L14.021 23.7812H10.9783L10.6008 20.7246C10.5712 20.4851 10.4031 20.2855 10.1721 20.2157C9.656 20.0599 9.15738 19.8534 8.69033 19.6022C8.47746 19.4878 8.2173 19.5099 8.02669 19.6585L5.59874 21.553L3.44734 19.4009L5.34134 16.9725C5.48975 16.7821 5.5118 16.522 5.39761 16.3092C5.14575 15.8407 4.9392 15.3421 4.78381 14.8273C4.71403 14.5962 4.51456 14.4281 4.27511 14.3985L1.21896 14.0211V10.9785L4.27522 10.6008C4.51468 10.5711 4.71414 10.4031 4.78392 10.1721C4.93953 9.6567 5.14597 9.15796 5.39772 8.68946C5.51191 8.47669 5.48987 8.21652 5.34146 8.02613L3.44756 5.59811L5.59863 3.44698Z" fill="#777777"/>
<path d="M12.5 17.7419C15.3904 17.7419 17.7419 15.3906 17.7419 12.5004C17.7419 9.60984 15.3904 7.25806 12.5 7.25806C9.60956 7.25806 7.25806 9.60972 7.25806 12.5004C7.25806 15.3906 9.60944 17.7419 12.5 17.7419ZM12.5 8.55068C14.6776 8.55068 16.4493 10.3226 16.4493 12.5005C16.4493 14.678 14.6776 16.4496 12.5 16.4496C10.3222 16.4496 8.55067 14.678 8.55067 12.5005C8.55055 10.3226 10.3222 8.55068 12.5 8.55068Z" fill="#777777"/>
</svg>
