<?xml version="1.0" encoding="utf-8"?>
<!-- Generator: Adobe Illustrator 23.0.6, SVG Export Plug-In . SVG Version: 6.00 Build 0)  -->
<svg version="1.1" id="Layer_1" xmlns="http://www.w3.org/2000/svg" xmlns:xlink="http://www.w3.org/1999/xlink" x="0px" y="0px"
	 viewBox="0 0 38 38" style="enable-background:new 0 0 38 38;" xml:space="preserve">
<style type="text/css">
	.st0{fill:#F6D1D3;}
	.st1{fill-rule:evenodd;clip-rule:evenodd;fill:#D11B25;}
</style>
<path class="st0" d="M6.8,35.9v-7.6C6.8,28.1,7,28,7.2,28h5.7c0.2,0,0.4,0.1,0.4,0.3v7.6"/>
<path class="st0" d="M24.8,35.9v-7.6c0-0.2,0.2-0.3,0.4-0.3h5.7c0.2,0,0.4,0.1,0.4,0.3v7.6"/>
<path class="st1" d="M4,5c0-0.6,0.4-1,1-1h2.9c0.6,0,1,0.4,1,1v2.9c0,0.6-0.4,1-1,1s-1-0.4-1-1V6H5C4.4,6,4,5.5,4,5z"/>
<path class="st1" d="M4,12.5c0-0.6,0.4-1,1-1h2.9c0.6,0,1,0.4,1,1v2.9c0,0.6-0.4,1-1,1s-1-0.4-1-1v-1.9H5C4.4,13.5,4,13.1,4,12.5z"
	/>
<path class="st1" d="M4,20.1c0-0.6,0.4-1,1-1h2.9c0.6,0,1,0.4,1,1V23c0,0.6-0.4,1-1,1s-1-0.4-1-1v-1.9H5C4.4,21.1,4,20.6,4,20.1z"/>
<path class="st1" d="M11.2,5c0-0.6,0.4-1,1-1H15c0.6,0,1,0.4,1,1v2.9c0,0.6-0.4,1-1,1c-0.6,0-1-0.4-1-1V6h-1.9
	C11.6,6,11.2,5.5,11.2,5z"/>
<path class="st1" d="M11.2,12.5c0-0.6,0.4-1,1-1H15c0.6,0,1,0.4,1,1v2.9c0,0.6-0.4,1-1,1c-0.6,0-1-0.4-1-1v-1.9h-1.9
	C11.6,13.5,11.2,13.1,11.2,12.5z"/>
<path class="st1" d="M11.2,20.1c0-0.6,0.4-1,1-1H15c0.6,0,1,0.4,1,1V23c0,0.6-0.4,1-1,1c-0.6,0-1-0.4-1-1v-1.9h-1.9
	C11.6,21.1,11.2,20.6,11.2,20.1z"/>
<path class="st1" d="M28.8,19.4c0-0.6,0.4-1,1-1h2.9c0.6,0,1,0.4,1,1v2.9c0,0.6-0.4,1-1,1s-1-0.4-1-1v-1.9h-1.9
	C29.2,20.4,28.8,19.9,28.8,19.4z"/>
<path class="st1" d="M22.3,19.4c0-0.6,0.4-1,1-1h2.9c0.6,0,1,0.4,1,1v2.9c0,0.6-0.4,1-1,1c-0.6,0-1-0.4-1-1v-1.9h-1.9
	C22.8,20.4,22.3,19.9,22.3,19.4z"/>
<path class="st1" d="M7.8,29v6.9c0,0.6-0.4,1-1,1s-1-0.4-1-1v-7.6c0-0.5,0.3-0.8,0.5-1C6.5,27.1,6.9,27,7.2,27h5.7
	c0.5,0,1.4,0.3,1.4,1.3v7.6c0,0.6-0.4,1-1,1c-0.6,0-1-0.4-1-1V29H7.8z"/>
<path class="st1" d="M25.8,29v6.9c0,0.6-0.4,1-1,1s-1-0.4-1-1v-7.6c0-0.5,0.3-0.8,0.5-1c0.3-0.2,0.6-0.3,0.9-0.3h5.7
	c0.5,0,1.4,0.3,1.4,1.3v7.6c0,0.6-0.4,1-1,1s-1-0.4-1-1V29H25.8z"/>
<path class="st1" d="M20,16v20h16V16H20z M18,15.4c0-0.7,0.6-1.4,1.4-1.4h17.3c0.8,0,1.4,0.7,1.4,1.4v21.2c0,0.7-0.6,1.4-1.4,1.4
	H19.4c-0.8,0-1.4-0.7-1.4-1.4V15.4z"/>
<path class="st1" d="M2,2v34h16V2H2z M0,1.4C0,0.6,0.7,0,1.4,0h17.1C19.3,0,20,0.6,20,1.4v35.2c0,0.8-0.7,1.4-1.4,1.4H1.4
	C0.7,38,0,37.4,0,36.6V1.4z"/>
</svg>
