<svg width="18" height="24" viewBox="0 0 18 24" fill="none" xmlns="http://www.w3.org/2000/svg">
<path fill-rule="evenodd" clip-rule="evenodd" d="M16.5 5.26841L9.16674 1.56487L1.5 5.28499V22.4928H16.5V5.26841ZM0.565141 4.06486C0.219588 4.23254 0 4.58411 0 4.96969V22.9952C0 23.5501 0.447716 24 1 24H17C17.5523 24 18 23.5501 18 22.9952V4.95864C18 4.5788 17.7868 4.23143 17.4491 4.06086L9.62024 0.107023C9.34268 -0.0331567 9.01604 -0.0357597 8.7363 0.0999792L0.565141 4.06486Z" fill="#D11B25"/>
<path fill-rule="evenodd" clip-rule="evenodd" d="M11.5 16.464V22.4928H13.5V16.464H11.5ZM11 14.9568C10.4477 14.9568 10 15.4066 10 15.9616V22.9952C10 23.5501 10.4477 24 11 24H14C14.5523 24 15 23.5501 15 22.9952V15.9616C15 15.4066 14.5523 14.9568 14 14.9568H11Z" fill="#D11B25"/>
<path fill-rule="evenodd" clip-rule="evenodd" d="M3.25 15.9616C3.25 15.5454 3.58579 15.208 4 15.208H6C6.9665 15.208 7.75 15.9952 7.75 16.9664V18.976C7.75 19.3922 7.41421 19.7296 7 19.7296C6.58579 19.7296 6.25 19.3922 6.25 18.976V16.9664C6.25 16.8276 6.13807 16.7152 6 16.7152H4C3.58579 16.7152 3.25 16.3778 3.25 15.9616Z" fill="#D11B25"/>
<path fill-rule="evenodd" clip-rule="evenodd" d="M3.25 8.92793C3.25 8.51172 3.58579 8.17432 4 8.17432H6C6.9665 8.17432 7.75 8.96159 7.75 9.93273V11.9423C7.75 12.3585 7.41421 12.6959 7 12.6959C6.58579 12.6959 6.25 12.3585 6.25 11.9423V9.93273C6.25 9.794 6.13807 9.68153 6 9.68153H4C3.58579 9.68153 3.25 9.34413 3.25 8.92793Z" fill="#D11B25"/>
<path fill-rule="evenodd" clip-rule="evenodd" d="M10.25 8.92793C10.25 8.51172 10.5858 8.17432 11 8.17432H13C13.9665 8.17432 14.75 8.96159 14.75 9.93273V11.9423C14.75 12.3585 14.4142 12.6959 14 12.6959C13.5858 12.6959 13.25 12.3585 13.25 11.9423V9.93273C13.25 9.794 13.1381 9.68153 13 9.68153H11C10.5858 9.68153 10.25 9.34413 10.25 8.92793Z" fill="#D11B25"/>
</svg>
