<?xml version="1.0" encoding="utf-8"?>
<!-- Generator: Adobe Illustrator 23.0.6, SVG Export Plug-In . SVG Version: 6.00 Build 0)  -->
<svg version="1.1" id="Layer_1" xmlns="http://www.w3.org/2000/svg" xmlns:xlink="http://www.w3.org/1999/xlink" x="0px" y="0px"
	 viewBox="0 0 18 20" style="enable-background:new 0 0 18 20;" xml:space="preserve">
<style type="text/css">
	.st0{fill:#D11B25;}
</style>
<path class="st0" d="M9.2,15.7c-3.6,0-6.5-3-6.5-6.8s2.9-6.8,6.5-6.8s6.5,3,6.5,6.8S12.7,15.7,9.2,15.7z M9.2,3.2
	c-3,0-5.4,2.6-5.4,5.7s2.4,5.7,5.4,5.7s5.4-2.6,5.4-5.7S12.1,3.2,9.2,3.2z"/>
<rect x="4.5" y="4.9" class="st0" width="9.8" height="1.1"/>
<rect x="3.7" y="11.3" class="st0" width="10.5" height="1.1"/>
<rect x="3" y="8.3" class="st0" width="12.3" height="1.1"/>
<path class="st0" d="M8.6,15.5c-0.1,0-0.3-0.1-0.4-0.2C4.8,11.9,4.8,6,8.2,2.5c0.2-0.2,0.6-0.2,0.8,0C9.2,2.7,9.2,3,9,3.2
	c-2.9,3-2.9,8.4,0,11.4c0.2,0.2,0.2,0.6,0,0.8C8.8,15.5,8.7,15.5,8.6,15.5z"/>
<path class="st0" d="M9.7,15.5c-0.1,0-0.3-0.1-0.4-0.2c-0.2-0.2-0.2-0.6,0-0.8c2.6-2.7,3.2-8,0-11.4C9.1,3,9.1,2.7,9.3,2.5
	c0.2-0.2,0.6-0.2,0.8,0c3.3,3.4,3.3,9.5,0,12.9C10,15.5,9.8,15.5,9.7,15.5z"/>
</svg>
