<?xml version="1.0" encoding="utf-8"?>
<!-- Generator: Adobe Illustrator 23.0.6, SVG Export Plug-In . SVG Version: 6.00 Build 0)  -->
<svg version="1.1" id="Layer_1" xmlns="http://www.w3.org/2000/svg" xmlns:xlink="http://www.w3.org/1999/xlink" x="0px" y="0px"
	 viewBox="0 0 23 26" style="enable-background:new 0 0 23 26;" xml:space="preserve">
<style type="text/css">
	.st0{fill:url(#SVGID_1_);}
	.st1{fill:url(#SVGID_2_);}
	.st2{fill:url(#SVGID_3_);}
	.st3{fill:url(#SVGID_4_);}
	.st4{opacity:0.2;enable-background:new    ;}
	.st5{opacity:0.12;enable-background:new    ;}
	.st6{opacity:0.25;fill:#FFFFFF;enable-background:new    ;}
</style>
<linearGradient id="SVGID_1_" gradientUnits="userSpaceOnUse" x1="11.9198" y1="25.3373" x2="-4.7961" y2="8.6214" gradientTransform="matrix(1 0 0 -1 0 26.9449)">
	<stop  offset="0" style="stop-color:#00A0FF"/>
	<stop  offset="6.574450e-03" style="stop-color:#00A1FF"/>
	<stop  offset="0.2601" style="stop-color:#00BEFF"/>
	<stop  offset="0.5122" style="stop-color:#00D2FF"/>
	<stop  offset="0.7604" style="stop-color:#00DFFF"/>
	<stop  offset="1" style="stop-color:#00E3FF"/>
</linearGradient>
<path class="st0" d="M0.6,0.4C0.3,0.7,0.1,1.1,0.1,1.7v22.1c0,0.6,0.2,1.1,0.5,1.4l0.1,0.1L13,12.9v-0.1v-0.1L0.6,0.4z"/>
<linearGradient id="SVGID_2_" gradientUnits="userSpaceOnUse" x1="23.7759" y1="14.1125" x2="-0.1596" y2="14.1125" gradientTransform="matrix(1 0 0 -1 0 26.9449)">
	<stop  offset="0" style="stop-color:#FFE000"/>
	<stop  offset="0.4087" style="stop-color:#FFBD00"/>
	<stop  offset="0.7754" style="stop-color:#FFA500"/>
	<stop  offset="1" style="stop-color:#FF9C00"/>
</linearGradient>
<path class="st1" d="M17.1,17L13,13v-0.2v-0.1L17,8.6l0.1,0l4.8,2.9c1.4,0.8,1.4,2.1,0,2.9L17.1,17z"/>
<linearGradient id="SVGID_3_" gradientUnits="userSpaceOnUse" x1="14.8655" y1="11.841" x2="-7.6789" y2="-10.7034" gradientTransform="matrix(1 0 0 -1 0 26.9449)">
	<stop  offset="0" style="stop-color:#FF3A44"/>
	<stop  offset="1" style="stop-color:#C31162"/>
</linearGradient>
<path class="st2" d="M17.1,17L13,12.8L0.6,25.2c0.5,0.5,1.2,0.6,2.1,0.2L17.1,17z"/>
<linearGradient id="SVGID_4_" gradientUnits="userSpaceOnUse" x1="-2.569" y1="33.8183" x2="7.5385" y2="23.7109" gradientTransform="matrix(1 0 0 -1 0 26.9449)">
	<stop  offset="0" style="stop-color:#32A071"/>
	<stop  offset="6.850000e-02" style="stop-color:#2DA771"/>
	<stop  offset="0.4762" style="stop-color:#15CF74"/>
	<stop  offset="0.8009" style="stop-color:#06E775"/>
	<stop  offset="1" style="stop-color:#00F076"/>
</linearGradient>
<path class="st3" d="M17.1,8.6L2.7,0.3C1.8-0.2,1.1-0.1,0.6,0.4L13,12.8L17.1,8.6z"/>
<path class="st4" d="M17.1,17L2.7,25.1c-0.8,0.5-1.5,0.4-2,0l-0.1,0.1l0.1,0.1c0.5,0.4,1.2,0.5,2,0L17.1,17z"/>
<path class="st5" d="M0.5,25.2c-0.3-0.3-0.4-0.8-0.4-1.4v0.1c0,0.6,0.2,1,0.6,1.3L0.5,25.2L0.5,25.2z"/>
<path class="st5" d="M22,14.3l-5,2.6l0.1,0.1l4.9-2.6c0.7-0.4,1-0.9,1-1.4C23,13.5,22.6,13.9,22,14.3z"/>
<path class="st6" d="M2.7,0.4L22,11.5c0.6,0.4,1,0.8,1,1.3c0-0.5-0.3-1-1-1.4L2.7,0.3C1.3-0.5,0.2,0.2,0.2,1.8v0.1
	C0.2,0.3,1.3-0.4,2.7,0.4z"/>
</svg>
