<svg width="23" height="26" viewBox="0 0 23 26" fill="none" xmlns="http://www.w3.org/2000/svg">
<path fill-rule="evenodd" clip-rule="evenodd" d="M0.460693 0.33252C0.458279 0.334934 0.455872 0.337361 0.45347 0.339801L0.460693 0.33252ZM0.40564 25.174C0.423584 25.1942 0.441943 25.2138 0.460693 25.2325L0.459319 25.2311C0.441046 25.2128 0.423145 25.1937 0.40564 25.174ZM0.960693 2.23709L11.644 12.835L0.960693 23.5183V2.23709Z" fill="#EAEAEA"/>
<path fill-rule="evenodd" clip-rule="evenodd" d="M17.2006 9.90698L14.2251 12.8825L17.2412 15.8986L21.5743 13.5588C22.0844 13.2645 22.1109 13.0196 22.1109 12.9825C22.1109 12.9452 22.0841 12.6975 21.5647 12.4008L17.2006 9.90698Z" fill="#EAEAEA"/>
<path fill-rule="evenodd" clip-rule="evenodd" d="M3.42725 23.7804L12.9609 14.2468L15.5308 16.8168L3.42725 23.7804Z" fill="#EAEAEA"/>
<path fill-rule="evenodd" clip-rule="evenodd" d="M3.44775 1.98706L12.9579 11.4211L15.5257 8.85329L3.44775 1.98706Z" fill="#EAEAEA"/>
</svg>
