<svg width="28" height="30" viewBox="0 0 28 30" fill="none" xmlns="http://www.w3.org/2000/svg">
<g clip-path="url(#clip0)">
<path d="M11.4904 15.2617H8.64691C8.6179 15.2617 8.60339 15.2758 8.58888 15.3041C8.51634 16.563 8.26971 17.9067 7.92152 19.0099C7.92152 19.0241 7.92152 19.0382 7.93603 19.0524C7.95054 19.0665 7.96505 19.0665 7.97955 19.0665H8.95157C8.98059 19.0665 8.9951 19.0524 8.9951 19.0382C9.27075 18.1896 9.48836 17.0863 9.57541 16.1528H10.5039V19.0241C10.5039 19.0524 10.5329 19.0806 10.5619 19.0806H11.4904C11.5194 19.0806 11.5485 19.0524 11.5485 19.0241V15.3041C11.5485 15.2758 11.5194 15.2617 11.4904 15.2617ZM23.5174 15.2617H22.5889C22.5599 15.2617 22.5309 15.29 22.5309 15.3183V18.1896C22.3277 18.2461 22.1246 18.2744 21.8925 18.2744C21.2832 18.2744 21.1381 18.0906 21.1381 17.2985V15.3183C21.1381 15.29 21.1091 15.2617 21.0801 15.2617H20.1661C20.1371 15.2617 20.1081 15.29 20.1081 15.3183V17.3975C20.1081 18.6988 20.5578 19.1938 21.7039 19.1938C22.3568 19.1938 23.0967 19.0241 23.5319 18.8685C23.5464 18.8543 23.5609 18.8402 23.5609 18.8261V15.3183C23.5754 15.2758 23.5464 15.2617 23.5174 15.2617ZM3.84484 15.2617H2.90183C2.87282 15.2617 2.85831 15.2758 2.85831 15.3041C2.71323 15.8699 2.40857 16.8317 2.00235 17.836L1.05935 15.3041C1.04484 15.29 1.03033 15.2758 1.01582 15.2758H0.0583104C0.0438026 15.2758 0.0292949 15.29 0.0147871 15.3041C0.000279307 15.3183 0.000279307 15.3324 0.0147871 15.3466L1.43655 19.1372C1.29147 19.4343 1.1609 19.6747 1.03033 19.901C0.928777 20.0707 0.84173 20.2405 0.754683 20.4102C0.740176 20.4244 0.740176 20.4385 0.754683 20.4526C0.769191 20.4668 0.783699 20.4809 0.798207 20.4809H1.82826C1.84277 20.4809 1.87178 20.4668 1.87178 20.4526C2.04588 20.1273 2.26349 19.6747 2.4666 19.2079C3.07593 17.8218 3.55468 16.5205 3.91738 15.3324C3.91738 15.3183 3.91738 15.3041 3.90287 15.29C3.87385 15.2617 3.85935 15.2617 3.84484 15.2617ZM7.22515 18.1896C7.22515 18.1754 7.21064 18.1613 7.19613 18.1613H7.15261C6.92049 18.2461 6.49976 18.3027 6.20961 18.3027C5.55676 18.3027 5.25209 18.133 5.25209 17.1712C5.25209 16.3932 5.35365 16.0396 6.20961 16.0396C6.45624 16.0396 6.67385 16.0679 6.96401 16.1528C6.99303 16.1528 7.00753 16.1528 7.02204 16.1245C7.1236 15.9265 7.25417 15.686 7.39924 15.389V15.3466C7.39924 15.3324 7.38474 15.3183 7.37023 15.3183C6.99303 15.2051 6.54328 15.1344 6.13707 15.1344C4.78784 15.1344 4.17852 15.7567 4.17852 17.157C4.17852 18.5715 4.78784 19.2079 6.13707 19.2079C6.47075 19.2079 7.15261 19.1372 7.47178 19.0099C7.5008 18.9958 7.51531 18.9675 7.5008 18.9392L7.22515 18.1896ZM16.0604 15.2617H15.1174C15.0884 15.2617 15.0739 15.2758 15.0739 15.3041C14.9288 15.884 14.6241 16.8317 14.2179 17.836L13.2749 15.3041C13.2604 15.29 13.2459 15.2758 13.2314 15.2758H12.2739C12.2593 15.2758 12.2448 15.29 12.2303 15.3041C12.2158 15.3183 12.2158 15.3324 12.2303 15.3466L13.6521 19.1372C13.507 19.4343 13.3764 19.6747 13.2459 19.901C13.1443 20.0707 13.0573 20.2405 12.9702 20.4244C12.9557 20.4385 12.9557 20.4526 12.9702 20.4668C12.9847 20.4809 12.9992 20.4951 13.0138 20.4951H14.0438C14.0583 20.4951 14.0873 20.4809 14.0873 20.4668C14.2614 20.1415 14.479 19.6889 14.6821 19.2221C15.277 17.836 15.7702 16.5347 16.1329 15.3466C16.1329 15.3324 16.1329 15.3183 16.1184 15.3041C16.0894 15.2617 16.0749 15.2617 16.0604 15.2617ZM19.5422 15.2617H16.8003C16.7713 15.2617 16.7422 15.29 16.7422 15.3183V19.0382C16.7422 19.0665 16.7713 19.0948 16.8003 19.0948H17.7288C17.7578 19.0948 17.7868 19.0665 17.7868 19.0382V16.1669H19.2231C19.2376 16.1669 19.2666 16.1528 19.2666 16.1386C19.3827 15.884 19.4842 15.6153 19.6003 15.3466V15.3041C19.5713 15.2617 19.5568 15.2617 19.5422 15.2617Z" fill="#EF4058"/>
<path d="M4.94715 9.54733C3.61244 9.54733 3.09016 10.1131 3.09016 11.5417C3.09016 12.9985 3.61244 13.5643 4.94715 13.5643C6.29637 13.5643 6.81865 12.9985 6.81865 11.5417C6.81865 10.099 6.29637 9.54733 4.94715 9.54733ZM4.94715 12.7298C4.33782 12.7298 4.14922 12.5742 4.14922 11.5558C4.14922 10.4809 4.35233 10.3818 4.94715 10.3818C5.55648 10.3818 5.75959 10.4809 5.75959 11.5558C5.75959 12.5742 5.57098 12.7298 4.94715 12.7298ZM10.5326 12.5742C10.5326 12.5601 10.5181 12.5459 10.5036 12.5459H10.4601C10.228 12.6308 9.80725 12.6874 9.5171 12.6874C8.86425 12.6874 8.55959 12.5176 8.55959 11.5558C8.55959 10.7779 8.66114 10.4243 9.5171 10.4243C9.76373 10.4243 9.98135 10.4526 10.2715 10.5374C10.3005 10.5374 10.315 10.5374 10.3295 10.5091C10.4311 10.3111 10.5617 10.0707 10.7067 9.77364V9.73121C10.7067 9.71706 10.6922 9.70292 10.6777 9.70292C10.3005 9.58976 9.85078 9.51904 9.44456 9.51904C8.09534 9.51904 7.48601 10.1414 7.48601 11.5417C7.48601 12.9561 8.09534 13.5926 9.44456 13.5926C9.77824 13.5926 10.4601 13.5219 10.7793 13.3946C10.8083 13.3804 10.8228 13.3521 10.8083 13.3239L10.5326 12.5742ZM2.8 9.64634H0.0580311C0.0290155 9.64634 0 9.67463 0 9.70292V13.4229C0 13.4512 0.0290155 13.4794 0.0580311 13.4794H0.986529C1.01554 13.4794 1.04456 13.4512 1.04456 13.4229V10.5374H2.46632C2.48083 10.5374 2.50984 10.5233 2.50984 10.5091C2.62591 10.2545 2.72746 9.9858 2.84352 9.71706V9.67463C2.82902 9.66049 2.81451 9.64634 2.8 9.64634Z" fill="#1466AC"/>
<path d="M27.8537 18.6846V18.628C27.8537 18.5997 27.8537 18.5573 27.8683 18.529C27.9118 18.0057 27.9408 17.3692 27.9698 16.6337V16.5771C27.9843 16.082 27.9988 15.5446 27.9988 14.9929C27.9988 14.4413 27.9843 13.9038 27.9698 13.4088V13.3522C27.9408 12.6308 27.9118 11.9802 27.8683 11.4569C27.8683 11.4286 27.8682 11.3861 27.8537 11.3579V11.3013C27.8537 11.2447 27.8392 11.2023 27.8392 11.1457V11.0891C27.7957 10.5375 27.7667 10.198 27.7522 10.1697C27.7522 10.1132 27.7377 10.0566 27.7377 10.0141V9.97171C27.7232 9.8727 27.7087 9.78784 27.6796 9.68883C27.6796 9.67468 27.6796 9.66054 27.6651 9.64639C27.4185 8.50071 26.7657 7.24187 25.9532 6.2942C25.6341 5.92645 25.3004 5.60113 24.9522 5.34653C24.9232 5.31825 24.517 5.03536 23.8786 4.59689C23.1387 4.10184 22.0796 3.40877 20.8755 2.72984C18.7284 1.49929 16.8278 0.636492 16.5667 0.537482C16.5522 0.537482 16.5522 0.523338 16.5522 0.523338C15.9864 0.282885 15.3045 0.113154 14.5646 0.0424328C14.4195 0.0282885 14.2745 0.0141443 14.1294 0.0141443C13.9843 0 13.8537 0 13.7232 0H13.5201C12.5335 0.0282885 11.6195 0.19802 10.8942 0.523338C10.7926 0.565771 8.86307 1.42857 6.6724 2.68741L6.58535 2.72984C4.33665 4.01697 2.5812 5.28996 2.50867 5.34653C1.95737 5.74257 1.46411 6.25177 1.01437 6.9024C0.912811 7.04385 0.912811 7.4116 1.34804 7.4116H2.46514C2.9439 7.4116 3.05996 7.12871 3.59675 6.74682C4.19157 6.32249 5.3667 5.47383 7.51385 4.22914C9.06618 3.33805 10.517 2.63083 11.2278 2.30552C11.2423 2.30552 11.2569 2.29137 11.2714 2.29137C11.2714 2.29137 11.2859 2.29137 11.2859 2.27723C11.2859 2.27723 11.3004 2.27723 11.3004 2.26308C11.3149 2.26308 11.3294 2.24894 11.3294 2.24894C11.3439 2.24894 11.3584 2.23479 11.3729 2.23479C11.547 2.14993 11.6631 2.1075 11.6631 2.1075C12.1563 1.89533 12.8527 1.75389 13.5926 1.73975H13.8828C14.1004 1.73975 14.318 1.75389 14.5211 1.78218C14.9708 1.83876 15.3771 1.92362 15.7107 2.06506C15.7398 2.07921 15.7833 2.09335 15.8123 2.1075C15.8123 2.1075 15.8268 2.12164 15.8703 2.13579C16.204 2.27723 18.003 3.11174 19.9615 4.22914C21.1221 4.89392 22.1522 5.5587 22.8631 6.0396C23.4869 6.46393 23.8641 6.73267 23.8786 6.74682C24.1543 6.94484 24.4299 7.22772 24.691 7.5389C25.3439 8.35926 25.8807 9.47666 25.9677 10.3395C25.9677 10.3536 26.0113 10.6931 26.0548 11.273C26.0548 11.3154 26.0548 11.3437 26.0693 11.3861V11.471C26.0693 11.5276 26.0838 11.57 26.0838 11.6266V11.6832C26.0838 11.7115 26.0838 11.7539 26.0983 11.7822C26.0983 11.8529 26.1128 11.9236 26.1128 11.9943C26.1128 12.0368 26.1128 12.0792 26.1273 12.1216V12.1499C26.1273 12.2065 26.1273 12.2489 26.1418 12.3055V12.4187C26.1853 13.1542 26.2144 14.0311 26.2144 14.9505C26.2144 15.8699 26.1853 16.7468 26.1418 17.4823V17.5955C26.1418 17.6521 26.1418 17.6945 26.1273 17.7511V17.7793C26.1273 17.8218 26.1273 17.8642 26.1128 17.9066C26.1128 17.9774 26.0983 18.0481 26.0983 18.1188C26.0983 18.1612 26.0983 18.1895 26.0838 18.2178V18.2744C26.0838 18.331 26.0693 18.3734 26.0693 18.43V18.5149C26.0693 18.5573 26.0693 18.5997 26.0548 18.628C26.0113 19.2079 25.9677 19.5615 25.9677 19.5615C25.8807 20.4243 25.3439 21.5417 24.691 22.3621C24.4299 22.6874 24.1543 22.9562 23.8786 23.1542C23.8641 23.1542 23.4869 23.4371 22.8631 23.8614C22.1522 24.3423 21.1076 25.0071 19.9615 25.6719C18.003 26.8034 16.1895 27.6238 15.8703 27.7652L15.8123 27.7935C15.7833 27.8076 15.7398 27.8218 15.7107 27.8359C15.3771 27.9632 14.9708 28.0622 14.5211 28.1188C14.318 28.1471 14.1004 28.1612 13.8828 28.1612H13.5926C12.8527 28.1471 12.1563 28.0198 11.6631 27.7935C11.6631 27.7935 11.5615 27.7511 11.3729 27.6662C11.3584 27.6521 11.3294 27.6521 11.3149 27.6379C11.3004 27.6238 11.2859 27.6238 11.2714 27.6096C11.2569 27.6096 11.2569 27.5955 11.2423 27.5955C11.2278 27.5955 11.2133 27.5813 11.1988 27.5813C11.1843 27.5672 11.1698 27.5672 11.1408 27.553H11.1263C10.3864 27.2702 8.99364 26.5912 7.51385 25.7426C5.35219 24.512 4.19157 23.6492 3.59675 23.2249C3.05996 22.843 2.9439 22.5601 2.46514 22.5601H1.34804C0.912811 22.5601 0.912811 22.9279 1.01437 23.0693C1.46411 23.7199 1.95737 24.2291 2.50867 24.6252C2.5812 24.6818 4.35115 25.9547 6.58535 27.2419C6.70141 27.3126 6.81747 27.3833 6.94804 27.4399C9.02266 28.5997 10.8071 29.3918 10.9087 29.4484C11.6195 29.7595 12.548 29.9434 13.5346 29.9717H13.7377C13.8683 29.9717 13.9988 29.9717 14.1294 29.9576C14.2745 29.9576 14.4195 29.9434 14.5646 29.9293C15.3045 29.8586 16.0009 29.6888 16.5522 29.4484C16.5522 29.4484 16.5667 29.4484 16.5667 29.4342C16.8133 29.3211 18.7284 28.4583 20.861 27.2419C22.0651 26.5488 23.1242 25.8699 23.8641 25.3748C24.5024 24.9363 24.9087 24.6535 24.9377 24.6252C25.2859 24.3706 25.6195 24.0453 25.9387 23.6775C26.7512 22.7298 27.404 21.471 27.6506 20.3253C27.6506 20.3112 27.6506 20.297 27.6651 20.2829C27.6796 20.1839 27.7087 20.0849 27.7232 20V19.9576C27.7377 19.901 27.7377 19.8444 27.7377 19.802C27.7377 19.7737 27.7812 19.4342 27.8247 18.8826V18.826C27.8537 18.7836 27.8537 18.7412 27.8537 18.6846Z" fill="url(#paint0_linear)"/>
</g>
<defs>
<linearGradient id="paint0_linear" x1="14.4784" y1="0" x2="14.4784" y2="29.9976" gradientUnits="userSpaceOnUse">
<stop offset="0.398" stop-color="#1466AC"/>
<stop offset="0.659" stop-color="#EF4058"/>
</linearGradient>
<clipPath id="clip0">
<rect width="28" height="30" fill="white"/>
</clipPath>
</defs>
</svg>
