<svg width="42" height="40" viewBox="0 0 42 40" fill="none" xmlns="http://www.w3.org/2000/svg">
<path d="M37 2H29V38H37V2Z" fill="#F6D1D3"/>
<path fill-rule="evenodd" clip-rule="evenodd" d="M14.5 26C14.5 25.1716 13.8284 24.5 13 24.5H5C4.17157 24.5 3.5 25.1716 3.5 26V38C3.5 38.8284 4.17157 39.5 5 39.5H13C13.8284 39.5 14.5 38.8284 14.5 38V26ZM11.5 27.5V36.5H6.5V27.5H11.5Z" fill="#D11B25"/>
<path fill-rule="evenodd" clip-rule="evenodd" d="M30.5 10C30.5 9.17157 29.8284 8.5 29 8.5H21C20.1716 8.5 19.5 9.17157 19.5 10V38C19.5 38.8284 20.1716 39.5 21 39.5H29C29.8284 39.5 30.5 38.8284 30.5 38V10ZM27.5 11.5V36.5H22.5V11.5H27.5Z" fill="#D11B25"/>
<path fill-rule="evenodd" clip-rule="evenodd" d="M22.5 20C22.5 19.1716 21.8284 18.5 21 18.5H13C12.1716 18.5 11.5 19.1716 11.5 20V38C11.5 38.8284 12.1716 39.5 13 39.5H21C21.8284 39.5 22.5 38.8284 22.5 38V20ZM19.5 21.5V36.5H14.5V21.5H19.5Z" fill="#D11B25"/>
<path fill-rule="evenodd" clip-rule="evenodd" d="M27.5 2C27.5 1.17157 28.1716 0.5 29 0.5H37C37.8284 0.5 38.5 1.17157 38.5 2V38C38.5 38.8284 37.8284 39.5 37 39.5H29C28.1716 39.5 27.5 38.8284 27.5 38V2ZM30.5 3.5V36.5H35.5V3.5H30.5Z" fill="#D11B25"/>
<path fill-rule="evenodd" clip-rule="evenodd" d="M42 38C42 38.8284 41.3284 39.5 40.5 39.5H1.5C0.671574 39.5 0 38.8284 0 38C0 37.1716 0.671574 36.5 1.5 36.5H40.5C41.3284 36.5 42 37.1716 42 38Z" fill="#D11B25"/>
</svg>
