<?xml version="1.0" encoding="utf-8"?>
<!-- Generator: Adobe Illustrator 23.0.6, SVG Export Plug-In . SVG Version: 6.00 Build 0)  -->
<svg version="1.1" id="Layer_1" xmlns="http://www.w3.org/2000/svg" xmlns:xlink="http://www.w3.org/1999/xlink" x="0px" y="0px"
	 viewBox="0 0 1253 884.9" style="enable-background:new 0 0 1253 884.9;" xml:space="preserve">
<style type="text/css">
	
		.st0{opacity:0.1;fill:#D11B25;stroke:#D11B25;stroke-width:18;stroke-linecap:round;stroke-linejoin:round;enable-background:new    ;}
	.st1{fill:none;}
</style>
<path class="st0" d="M870.9-19.6l-1.3-115.9L654.4-84L630.8,32.9l82.7,44.4l127.4-48.2c8.9-3.4,16.6-9.9,22-18.6
	C868.2,1.7,871.1-8.8,870.9-19.6z"/>
<path class="st0" d="M770,163.4L721,23.1L483-31.5l19.4,128l117.6,98.1l133.6,10.9C772.7,207.1,779.3,190.1,770,163.4z"/>
<path class="st0" d="M357.4,670.4l107.4-65.8c0,0-225.6-76.9-236-71.4S16.7,611.4,16.4,627.9C16,644.4,88.5,760.4,124.9,738.2
	s51.7-92.8,75.7-93.9C224.7,643.1,357.4,670.4,357.4,670.4z"/>
<path class="st0" d="M899.3,287.8l-73.5,108.9l33.4,103.8L990.6,457l17.8-112.8L899.3,287.8z"/>
<path class="st0" d="M270.3,79l-42.5,63l19.3,60l76-25.2l10.3-65.2L270.3,79z"/>
<path class="st0" d="M348.7,161l-70.8,105L310,366l126.6-42l17.2-108.7L348.7,161z"/>
<path class="st0" d="M617.8,498.5l-60.4,54.9l27.4,39.4l99.5-82.7L659,435.2L617.8,498.5z"/>
<path class="st0" d="M651.7-297L170,198.9l235.4,640.3l807.4-232.7L1322.3,4.2L651.7-297z"/>
<path class="st0" d="M1478.5,147.8l-74.9-315L871.2-209l10,296.6l244,189.8l304.1-23.4C1472.7,250.5,1492.6,207.6,1478.5,147.8z"/>
<path class="st0" d="M844.5,368.9l-96.2-244.5L280.9,29.5l38.1,223l231.2,170.8l262.4,19C849.9,445,863.1,415.3,844.5,368.9z"/>
<path class="st0" d="M1384.5,606.7l141.3-142.8c0,0-610.9,108.2-625.7,121.2c-14.8,13-353.9,235.8-330.5,251
	c23.4,15.2,353.5,61.6,401.4,13.2c47.8-48.3-21.8-123.2,29.4-143.1C1051.5,686.2,1384.5,606.7,1384.5,606.7z"/>
<path class="st0" d="M1352.8,347.6l-203,106.9L1070,728.5l193.4,126.9l146.1-207.6L1352.8,347.6z"/>
<path class="st0" d="M477.6-297.8L318.5-92.8l72.3,195.3l284.5-82l38.6-212.2L477.6-297.8z"/>
<path class="st0" d="M372,434L259.5,578.5l51.1,137.7l201.1-57.8L539,508.8L372,434z"/>
<rect x="179" y="184" class="st1" width="720" height="471"/>
</svg>
