<?xml version="1.0" encoding="utf-8"?>
<!-- Generator: Adobe Illustrator 23.0.6, SVG Export Plug-In . SVG Version: 6.00 Build 0)  -->
<svg version="1.1" id="Layer_1" xmlns="http://www.w3.org/2000/svg" xmlns:xlink="http://www.w3.org/1999/xlink" x="0px" y="0px"
	 viewBox="0 0 35 36" style="enable-background:new 0 0 35 36;" xml:space="preserve">
<style type="text/css">
	.st0{fill:#F6D1D3;}
	.st1{fill-rule:evenodd;clip-rule:evenodd;fill:#D11B25;}
</style>
<path class="st0" d="M20,32.8c0,1.7-1.3,3-3,3s-3-1.3-3-3c0-1.7,1.3-3,3-3S20,31.1,20,32.8z"/>
<path class="st0" d="M1.6,21.6h4.8C6.7,21.6,7,21.3,7,21v-7.8c0-0.3-0.3-0.6-0.6-0.6H1.6c-0.3,0-0.6,0.3-0.6,0.6V21
	C1,21.3,1.3,21.6,1.6,21.6z"/>
<path class="st0" d="M28.6,21.6h4.8c0.3,0,0.6-0.3,0.6-0.6v-7.8c0-0.3-0.3-0.6-0.6-0.6h-4.8c-0.3,0-0.6,0.3-0.6,0.6V21
	C28,21.3,28.3,21.6,28.6,21.6z"/>
<path class="st1" d="M31.6,21.2c0.5,0.2,0.7,0.7,0.5,1.2c-2.3,6.2-7.1,10.8-12.9,10.8c-0.5,0,0-0.4,0-0.9s-0.5-0.9,0-0.9
	c4.7,0,9-3.7,11.1-9.6C30.6,21.2,31.1,21,31.6,21.2z"/>
<path class="st1" d="M17.4,1.8c-5.8,0-11.9,4.8-11.9,11.1c0,0.5-0.4,0.2-0.9,0.2c-0.5,0-0.9,0.3-0.9-0.2C3.6,5.4,10.8,0,17.4,0
	c6.6,0,13.9,4.9,13.9,12.9c0,0.5-0.4,0-0.9,0s-0.9,0.5-0.9,0C29.5,6.2,23.2,1.8,17.4,1.8z"/>
<path class="st1" d="M0.5,12.1c0.2-0.2,0.6-0.5,1.1-0.5h5c0.5,0,0.8,0.2,1.1,0.5C7.8,12.3,8,12.7,8,13.1v7.9c0,0.5-0.2,0.8-0.5,1.1
	c-0.2,0.2-0.6,0.5-1.1,0.5h-5c-0.5,0-0.8-0.2-1.1-0.5C0.2,21.9,0,21.5,0,21.1v-7.9C0,12.7,0.2,12.3,0.5,12.1z M1.8,13.5v7.3h4.3
	v-7.3H1.8z"/>
<path class="st1" d="M27.5,12.1c0.2-0.2,0.6-0.5,1.1-0.5h5c0.5,0,0.8,0.2,1.1,0.5s0.5,0.6,0.5,1.1v7.9c0,0.5-0.2,0.8-0.5,1.1
	c-0.2,0.2-0.6,0.5-1.1,0.5h-5c-0.5,0-0.8-0.2-1.1-0.5c-0.2-0.2-0.5-0.6-0.5-1.1v-7.9C27,12.7,27.2,12.3,27.5,12.1z M28.8,13.5v7.3
	h4.3v-7.3H28.8z"/>
<path class="st1" d="M17,34.2c0.8,0,1.4-0.6,1.4-1.4c0-0.8-0.6-1.4-1.4-1.4c-0.8,0-1.4,0.6-1.4,1.4C15.6,33.5,16.2,34.2,17,34.2z
	 M17,36c1.8,0,3.2-1.4,3.2-3.2c0-1.8-1.4-3.2-3.2-3.2c-1.8,0-3.2,1.4-3.2,3.2C13.8,34.6,15.2,36,17,36z"/>
</svg>
