<svg width="15" height="18" viewBox="0 0 15 18" fill="none" xmlns="http://www.w3.org/2000/svg">
<path d="M0.75 3.96702C0.75 3.8692 0.807046 3.78037 0.895994 3.73968L7.15503 0.876214C7.2223 0.845441 7.29974 0.846035 7.36652 0.877834L13.3575 3.73052C13.4445 3.77198 13.5 3.85981 13.5 3.95624V17C13.5 17.1381 13.3881 17.25 13.25 17.25H1C0.861928 17.25 0.75 17.1381 0.75 17V3.96702Z" stroke="#D11B25" stroke-width="1.5" stroke-linejoin="round"/>
<mask id="path-3-inside-1" fill="white">
<rect x="7.5" y="5.25" width="4.5" height="4.5" rx="1"/>
</mask>
<rect x="7.5" y="5.25" width="4.5" height="4.5" rx="1" stroke="#D11B25" stroke-width="3" mask="url(#path-3-inside-1)"/>
<mask id="path-4-inside-2" fill="white">
<rect x="7.5" y="11.25" width="4.5" height="6.75" rx="1"/>
</mask>
<rect x="7.5" y="11.25" width="4.5" height="6.75" rx="1" stroke="#D11B25" stroke-width="3" mask="url(#path-4-inside-2)"/>
<mask id="path-5-inside-3" fill="white">
<rect x="2.25" y="5.25" width="4.5" height="4.5" rx="1"/>
</mask>
<rect x="2.25" y="5.25" width="4.5" height="4.5" rx="1" stroke="#D11B25" stroke-width="3" mask="url(#path-5-inside-3)"/>
<mask id="path-6-inside-4" fill="white">
<rect x="2.25" y="11.25" width="4.5" height="4.5" rx="1"/>
</mask>
<rect x="2.25" y="11.25" width="4.5" height="4.5" rx="1" stroke="#D11B25" stroke-width="3" mask="url(#path-6-inside-4)"/>
</svg>
