<svg width="20" height="20" viewBox="0 0 20 20" fill="none" xmlns="http://www.w3.org/2000/svg">
<path fill-rule="evenodd" clip-rule="evenodd" d="M9.5782 0.121774C9.76822 -0.0323998 10.0358 -0.0409996 10.235 0.100661L18.9431 6.29114C19.0894 6.39512 19.1765 6.56489 19.1765 6.74603V18.8889C19.1765 19.1957 18.9312 19.4444 18.6286 19.4444H12.0444C11.7418 19.4444 11.4965 19.1957 11.4965 18.8889V12.8118H8.22483V18.8889C8.22483 19.1957 7.97953 19.4444 7.67693 19.4444H1.09575C0.793155 19.4444 0.547852 19.1957 0.547852 18.8889V6.71542C0.547852 6.54667 0.623494 6.38707 0.75344 6.28164L9.5782 0.121774ZM9.94221 1.24947L1.64365 6.9824V18.3333H7.12903V12.2562C7.12903 11.9494 7.37433 11.7007 7.67693 11.7007H12.0444C12.347 11.7007 12.5923 11.9494 12.5923 12.2562V18.3333H18.0807V7.03503L9.94221 1.24947Z" fill="#000000"/>
</svg>
