<svg width="58" height="58" viewBox="0 0 58 58" fill="none" xmlns="http://www.w3.org/2000/svg">
<style type="text/css">
	.st0{fill:#D11B25;}
</style>
<path class="st0" d="M14.4,45.2l0.4,1.4L14.4,45.2z M33.9,39.9l-0.4-1.4L33.9,39.9z M34.5,40.2L33,40.6L34.5,40.2z M37.2,50.4
	l-1.5,0.4L37.2,50.4z M36.9,51l0.4,1.4L36.9,51z M17.4,56.3L17,54.8L17.4,56.3z M16.8,56l-1.5,0.4l0,0L16.8,56z M14.1,45.7l1.5-0.4
	L14.1,45.7z M23.1,42.8l0.4,1.4l0.1,0l0.1,0L23.1,42.8z M18,44.2l0.2,1.5l0.1,0l0.1,0L18,44.2z M17.5,43.8l1.5-0.2l0-0.1l0-0.1
	L17.5,43.8z M12.5,24.9l1.5-0.4l0-0.1l0-0.1L12.5,24.9z M12.7,24.3l-0.4-1.4l-0.1,0l-0.1,0L12.7,24.3z M18.6,22.7l-0.4-1.4
	L18.6,22.7z M20.5,22.8l1.5-0.2l0-0.1l0-0.1L20.5,22.8z M23.3,42.2l-1.5,0.2l0,0.2l0.1,0.1L23.3,42.2z M38.2,5.5L37.9,4L38.2,5.5z
	 M43.2,4.1l0.4,1.4L43.2,4.1z M43.8,4.4l-1.5,0.4l0,0L43.8,4.4z M45.5,11l1.5-0.4L45.5,11z M45.2,11.5l-0.4-1.4L45.2,11.5z
	 M40.2,12.9l0.4,1.4L40.2,12.9z M39.7,12.6L38.2,13L39.7,12.6z M37.9,6l1.5-0.4l0,0L37.9,6z M43.2,2.6c-0.8,0.2-1.2,1.1-1,1.9
	c0.2,0.8,1.1,1.2,1.9,1L43.2,2.6z M49,6.5l1.5-0.3l0-0.1l0-0.1L49,6.5z M45.3,9.9c-0.8,0.2-1.3,1-1.1,1.8c0.2,0.8,1,1.3,1.8,1.1
	L45.3,9.9z M49.3,4.9c-0.8,0.2-1.3,1-1.1,1.8c0.2,0.8,1,1.3,1.8,1.1L49.3,4.9z M56.7,6c0.8-0.2,1.3-1,1.1-1.8
	c-0.2-0.8-1-1.3-1.8-1.1L56.7,6z M7.8,13c-0.8,0.2-1.3,1-1.1,1.8c0.2,0.8,1,1.3,1.8,1.1L7.8,13z M12.2,14.9c0.8-0.2,1.3-1,1.1-1.8
	c-0.2-0.8-1-1.3-1.8-1.1L12.2,14.9z M9.2,18.2c-0.8,0.2-1.3,1-1.1,1.8c0.2,0.8,1,1.3,1.8,1.1L9.2,18.2z M13.6,20.1
	c0.8-0.2,1.3-1,1.1-1.8c-0.2-0.8-1-1.3-1.8-1.1L13.6,20.1z M20.5,20.6c-0.8,0.2-1.3,1-1.1,1.8c0.2,0.8,1,1.3,1.8,1.1L20.5,20.6z
	 M25.7,20.8l0.4,1.4L25.7,20.8z M26.3,21.1l1.5-0.4l0,0L26.3,21.1z M27.8,26.8l-1.5,0.4L27.8,26.8z M27.5,27.4l0.4,1.4L27.5,27.4z
	 M21,27.6c-0.8,0.2-1.3,1-1.1,1.8c0.2,0.8,1,1.3,1.8,1.1L21,27.6z M7.4,25.7L7,24.3L7.4,25.7z M5.4,24.6l1.5-0.4L5.4,24.6z
	 M40.3,15.1l-1.5,0.4L40.3,15.1z M39.2,17.1l0.4,1.4L39.2,17.1z M35.3,2.3l-0.4-1.4L35.3,2.3z M37.3,3.5l1.5-0.4L37.3,3.5z M3.5,11
	l0.4,1.4L3.5,11z M2.3,13l-1.5,0.4L2.3,13z M14.8,46.6l19.5-5.3l-0.8-2.9L14,43.7L14.8,46.6z M34.3,41.3c-0.5,0.1-1.1-0.1-1.3-0.8
	l2.9-0.8c-0.3-1.1-1.4-1.6-2.4-1.4L34.3,41.3z M33,40.6l2.7,10.2l2.9-0.8l-2.7-10.2L33,40.6z M36.5,49.5l0.8,2.9
	c1-0.3,1.7-1.3,1.4-2.4C38.6,50,37.9,49.5,36.5,49.5z M36.5,49.5L17,54.8l0.8,2.9l19.5-5.3L36.5,49.5z M18.6,56.8
	c-0.5-0.5-1.4-1.3-2.3-1.3l-0.9,0.8c0.3,1.1,1.4,1.6,2.4,1.4L18.6,56.8z M18.3,55.6l-2.7-10.2l-2.9,0.8l2.7,10.2L18.3,55.6z
	 M15.6,45.4c0.2,0.6-0.2,1.1-0.7,1.3L14,43.7c-1,0.3-1.7,1.3-1.4,2.4L15.6,45.4z M22.7,41.4l-5.1,1.4l0.8,2.9l5.1-1.4L22.7,41.4z
	 M17.8,42.7c0.4,0,0.7,0.1,0.8,0.3l-2,2.2c0.4,0.3,0.9,0.6,1.5,0.5L17.8,42.7z M18.7,43c0.2,0.2,0.3,0.4,0.3,0.5L16,44
	c0.1,0.4,0.3,0.9,0.7,1.2L18.7,43z M18.9,43.4l-5-18.8l-2.9,0.8l5,18.8L18.9,43.4z M13.9,24.4c0.1,0.2,0.1,0.4,0,0.6l-2.8-0.9
	c-0.2,0.5-0.1,1,0,1.4L13.9,24.4z M13.9,25c-0.1,0.2-0.3,0.5-0.6,0.6l-1.2-2.7c-0.5,0.2-0.9,0.7-1,1.2L13.9,25z M13.1,25.7l5.8-1.6
	l-0.8-2.9l-5.8,1.6L13.1,25.7z M19,24.2C18.9,24.2,18.9,24.2,19,24.2c0,0,0.1,0,0.2,0c0.2,0,0.4,0,0.5,0c0.2,0,0.3,0,0.4,0
	c0,0-0.1,0-0.2-0.1c-0.1,0-0.2-0.1-0.3-0.2c-0.1-0.1-0.3-0.4-0.4-0.7l2.9-0.8c-0.2-0.7-0.8-1-0.9-1.1c-0.2-0.1-0.5-0.1-0.6-0.2
	c-0.3,0-0.6,0-0.9,0c-0.3,0-0.5,0-0.8,0.1c-0.2,0-0.4,0.1-0.6,0.1L19,24.2z M19,23l2.8,19.4l3-0.4L22,22.5L19,23z M21.9,42.7
	c-0.1-0.2-0.1-0.4,0-0.6l2.8,0.9c0.2-0.5,0.1-1,0-1.4L21.9,42.7z M21.9,42.1c0.1-0.2,0.3-0.5,0.6-0.6l1.2,2.7c0.5-0.2,0.9-0.7,1-1.2
	L21.9,42.1z M38.6,6.9l5-1.4l-0.8-2.9l-5,1.4L38.6,6.9z M43.6,5.6c-0.6,0.1-1.2-0.2-1.3-0.8L45.2,4c-0.3-1.1-1.4-1.6-2.4-1.4
	L43.6,5.6z M42.3,4.8l1.7,6.6l2.9-0.8L45.2,4L42.3,4.8z M44,11.4c-0.2-0.6,0.2-1.2,0.7-1.3l0.8,2.9c1-0.3,1.6-1.3,1.4-2.4L44,11.4z
	 M44.8,10.1l-5,1.4l0.8,2.9l5-1.4L44.8,10.1z M39.8,11.4c0.6-0.1,1.2,0.2,1.3,0.8L38.2,13c0.3,1.1,1.4,1.6,2.4,1.4L39.8,11.4z
	 M41.1,12.2l-1.7-6.6l-2.9,0.8l1.7,6.6L41.1,12.2z M39.4,5.6c0.2,0.6-0.2,1.2-0.7,1.3L37.9,4c-1,0.3-1.6,1.3-1.4,2.4L39.4,5.6z
	 M44.1,5.4c0.8-0.2,1.5-0.2,2.2,0.1l1.3-2.7c-1.4-0.6-2.9-0.7-4.4-0.3L44.1,5.4z M46.3,5.6c0.6,0.3,1.1,0.8,1.3,1.4l2.9-0.9
	c-0.5-1.4-1.5-2.6-2.9-3.2L46.3,5.6z M47.5,6.8c0.1,0.6,0,1.3-0.4,1.9l2.5,1.7c0.9-1.2,1.2-2.7,0.9-4.2L47.5,6.8z M47.1,8.7
	c-0.4,0.6-1.1,1-1.8,1.2l0.7,2.9c1.5-0.3,2.8-1.2,3.6-2.4L47.1,8.7z M50.1,7.8L56.7,6l-0.8-2.9l-6.6,1.8L50.1,7.8z M8.6,15.9l3.6-1
	L11.4,12l-3.6,1L8.6,15.9z M9.9,21.1l3.6-1l-0.8-2.9l-3.6,1L9.9,21.1z M21.3,23.5l4.9-1.3l-0.8-2.9l-4.9,1.3L21.3,23.5z M26.1,22.2
	c-0.5,0.1-1.1-0.1-1.2-0.7l2.9-0.8c-0.3-1.1-1.4-1.7-2.5-1.4L26.1,22.2z M24.9,21.5l1.5,5.7l2.9-0.8l-1.5-5.7L24.9,21.5z M26.4,27.2
	c-0.1-0.6,0.2-1.1,0.7-1.2l0.8,2.9c1-0.3,1.7-1.3,1.4-2.4L26.4,27.2z M27.1,26L21,27.6l0.8,2.9l6.1-1.6L27.1,26z M25.9,4.9l3.9,14.8
	l2.9-0.8L28.8,4.1L25.9,4.9z M3.9,12.4l31.8-8.6l-0.8-2.9L3.1,9.5L3.9,12.4z M35.8,3.8l3.1,11.7l2.9-0.8L38.7,3.1L35.8,3.8z
	 M38.8,15.7L7,24.3l0.8,2.9l31.8-8.6L38.8,15.7z M6.9,24.2L3.8,12.6l-2.9,0.8L4,25L6.9,24.2z M7,24.3c0,0-0.1,0-0.1,0c0,0,0,0,0,0
	L4,25c0.4,1.7,2.2,2.6,3.8,2.2L7,24.3z M38.9,15.5C38.9,15.5,38.9,15.5,38.9,15.5c0,0.1-0.1,0.1-0.1,0.2l0.8,2.9
	c1.6-0.4,2.7-2.1,2.2-3.8L38.9,15.5z M35.7,3.8c0,0,0.1,0,0.1,0c0,0,0,0,0,0l2.9-0.8c-0.4-1.7-2.2-2.6-3.8-2.2L35.7,3.8z M3.1,9.5
	c-1.6,0.4-2.7,2.1-2.2,3.8l2.9-0.8c0,0,0,0,0-0.1c0,0,0.1-0.1,0.1-0.1L3.1,9.5z"/>
</svg>
