<svg width="24" height="21" viewBox="0 0 24 21" fill="none" xmlns="http://www.w3.org/2000/svg">
<path d="M0.800006 0C0.358163 0 0 0.35258 0 0.7875C0 1.22242 0.358163 1.575 0.800006 1.575H3.45837C4.78244 4.80309 6.08664 8.03708 7.40006 11.2711L6.19173 14.134C6.0905 14.3727 6.11898 14.6605 6.26509 14.8754C6.41122 15.0904 6.67064 15.2261 6.93339 15.225H20.2668C20.6895 15.2308 21.0782 14.8536 21.0782 14.4375C21.0782 14.0214 20.6895 13.6441 20.2668 13.65H8.1334L8.82508 12.0258L21.6668 11.0168C22.003 10.9908 22.3072 10.733 22.3835 10.4097L23.9835 3.58477C24.0882 3.12507 23.6787 2.62346 23.2002 2.625H5.60836L4.74169 0.492187C4.62302 0.203485 4.31641 1.05e-05 4.00003 0H0.800006ZM6.25005 4.2H22.1919L20.9502 9.49922L8.79175 10.4508L6.25005 4.2ZM9.60008 15.75C8.13678 15.75 6.93339 16.9346 6.93339 18.375C6.93339 19.8154 8.13678 21 9.60008 21C11.0634 21 12.2668 19.8154 12.2668 18.375C12.2668 16.9346 11.0634 15.75 9.60008 15.75ZM17.6001 15.75C16.1368 15.75 14.9335 16.9346 14.9335 18.375C14.9335 19.8154 16.1368 21 17.6001 21C19.0634 21 20.2668 19.8154 20.2668 18.375C20.2668 16.9346 19.0634 15.75 17.6001 15.75ZM9.60008 17.325C10.1987 17.325 10.6668 17.7858 10.6668 18.375C10.6668 18.9642 10.1987 19.425 9.60008 19.425C9.00154 19.425 8.5334 18.9642 8.5334 18.375C8.5334 17.7858 9.00154 17.325 9.60008 17.325ZM17.6001 17.325C18.1987 17.325 18.6668 17.7858 18.6668 18.375C18.6668 18.9642 18.1987 19.425 17.6001 19.425C17.0015 19.425 16.5335 18.9642 16.5335 18.375C16.5335 17.7858 17.0015 17.325 17.6001 17.325Z" fill="#D11B25"/>
</svg>
