<svg width="54" height="45" viewBox="0 0 54 45" fill="none" xmlns="http://www.w3.org/2000/svg">
<path fill-rule="evenodd" clip-rule="evenodd" d="M5.16242 2.85484L9.73205 41.3952H27.7679L32.3376 2.85484H5.16242ZM2.25 2.57728C2.25 1.14146 3.40586 0 4.84365 0H32.6564C34.0941 0 35.25 1.14146 35.25 2.57728C35.25 2.63317 35.2467 2.689 35.2401 2.7445L30.6127 41.7723C30.5607 43.161 29.4253 44.25 28.0209 44.25H9.4791C8.07472 44.25 6.93932 43.161 6.88731 41.7723L2.25988 2.7445C2.2533 2.689 2.25 2.63317 2.25 2.57728Z" fill="#D11B25"/>
<path fill-rule="evenodd" clip-rule="evenodd" d="M37.899 20.8147L37.8954 20.8162L37.899 20.8147ZM37.6488 20.918L33.7239 22.5363L41.8492 41.332L45.7742 39.7137L37.6488 20.918ZM33.6026 22.2563C33.6034 22.258 33.6041 22.2597 33.6048 22.2614L33.6026 22.2563ZM40.2092 19.6004C39.6563 18.2429 38.0737 17.6528 36.7627 18.207L32.3945 20.0081C31.0229 20.538 30.3813 22.0854 30.9668 23.399L39.2888 42.6496C39.8417 44.0071 41.4243 44.5972 42.7353 44.043L47.1214 42.2345C48.4324 41.6944 49.135 40.2047 48.5312 38.8509L40.2092 19.6004Z" fill="#D11B25"/>
<path fill-rule="evenodd" clip-rule="evenodd" d="M44.0419 18.703L51.0565 35.9793L47.4579 37.547L40.4433 20.2706L44.0419 18.703ZM46.5803 17.3401C46.0615 16.0176 44.5761 15.4053 43.2706 15.9467C43.2627 15.95 43.2548 15.9533 43.247 15.9567L39.029 17.7942C37.679 18.363 37.2101 19.8616 37.6736 21.063L37.6826 21.0858L44.9196 38.9099C45.4384 40.2324 46.9237 40.8447 48.2293 40.3033C48.2372 40.3 48.245 40.2967 48.2529 40.2933L52.4709 38.4558C53.8208 37.8868 54.2972 36.3583 53.8191 35.1688L46.5803 17.3401Z" fill="#D11B25"/>
<path fill-rule="evenodd" clip-rule="evenodd" d="M48.1398 21.1305C48.4422 21.8613 48.1024 22.702 47.3809 23.0083L41.7145 25.4136C40.993 25.7198 40.1629 25.3757 39.8605 24.6449C39.5581 23.9141 39.8978 23.0734 40.6194 22.7672L46.2857 20.3619C47.0073 20.0556 47.8374 20.3997 48.1398 21.1305ZM50.2646 26.7428C50.5671 27.4736 50.2273 28.3143 49.5057 28.6206L43.8394 31.0258C43.1179 31.3321 42.2878 30.988 41.9854 30.2572C41.6829 29.5264 42.0227 28.6857 42.7443 28.3794L48.4106 25.9742C49.1321 25.6679 49.9622 26.012 50.2646 26.7428ZM52.3895 32.3551C52.6919 33.0859 52.3522 33.9266 51.6306 34.2328L45.9643 36.6381C45.2427 36.9444 44.4126 36.6003 44.1102 35.8695C43.8078 35.1387 44.1476 34.298 44.8691 33.9917L50.5355 31.5864C51.257 31.2802 52.0871 31.6243 52.3895 32.3551Z" fill="#D11B25"/>
<path fill-rule="evenodd" clip-rule="evenodd" d="M1.41346 4.5C2.19409 4.5 2.82692 5.11991 2.82692 5.88462C2.82692 13.4287 9.67376 19.7308 18.375 19.7308C27.0762 19.7308 33.9231 13.4287 33.9231 5.88462C33.9231 5.11991 34.5559 4.5 35.3365 4.5C36.1172 4.5 36.75 5.11991 36.75 5.88462C36.75 15.1814 28.3993 22.5 18.375 22.5C8.3507 22.5 0 15.1814 0 5.88462C0 5.11991 0.632828 4.5 1.41346 4.5Z" fill="#D11B25"/>
</svg>
