<svg width="18" height="18" viewBox="0 0 18 18" fill="none" xmlns="http://www.w3.org/2000/svg">
<path fill-rule="evenodd" clip-rule="evenodd" d="M4 0.25C4.34107 0.25 4.61833 0.523199 4.62488 0.8627L4.625 0.875V1.5H13.375V0.875C13.375 0.529822 13.6548 0.25 14 0.25C14.3411 0.25 14.6183 0.523199 14.6249 0.8627L14.625 0.875V1.5H15.25C16.6307 1.5 17.75 2.61929 17.75 4V15.25C17.75 16.6307 16.6307 17.75 15.25 17.75H2.75C1.36929 17.75 0.25 16.6307 0.25 15.25V4C0.25 2.61929 1.36929 1.5 2.75 1.5H3.375V0.875C3.375 0.529822 3.65482 0.25 4 0.25ZM15.25 5.875C15.875 5.875 16.5 6.5 16.5 7.125V15.25C16.5 15.9404 15.9404 16.5 15.25 16.5H2.75C2.05964 16.5 1.5 15.9404 1.5 15.25V7.125C1.5 6.5 2.125 5.875 2.75 5.875H15.25ZM11.5 8.0625C11.5 8.58027 11.0803 9 10.5625 9C10.0447 9 9.625 8.58027 9.625 8.0625C9.625 7.54473 10.0447 7.125 10.5625 7.125C11.0803 7.125 11.5 7.54473 11.5 8.0625ZM13.6875 9C14.2053 9 14.625 8.58027 14.625 8.0625C14.625 7.54473 14.2053 7.125 13.6875 7.125C13.1697 7.125 12.75 7.54473 12.75 8.0625C12.75 8.58027 13.1697 9 13.6875 9ZM11.5 11.1875C11.5 11.7053 11.0803 12.125 10.5625 12.125C10.0447 12.125 9.625 11.7053 9.625 11.1875C9.625 10.6697 10.0447 10.25 10.5625 10.25C11.0803 10.25 11.5 10.6697 11.5 11.1875ZM13.6875 12.125C14.2053 12.125 14.625 11.7053 14.625 11.1875C14.625 10.6697 14.2053 10.25 13.6875 10.25C13.1697 10.25 12.75 10.6697 12.75 11.1875C12.75 11.7053 13.1697 12.125 13.6875 12.125ZM5.25 11.1875C5.25 11.7053 4.83027 12.125 4.3125 12.125C3.79473 12.125 3.375 11.7053 3.375 11.1875C3.375 10.6697 3.79473 10.25 4.3125 10.25C4.83027 10.25 5.25 10.6697 5.25 11.1875ZM7.4375 12.125C7.95527 12.125 8.375 11.7053 8.375 11.1875C8.375 10.6697 7.95527 10.25 7.4375 10.25C6.91973 10.25 6.5 10.6697 6.5 11.1875C6.5 11.7053 6.91973 12.125 7.4375 12.125ZM5.25 14.3125C5.25 14.8303 4.83027 15.25 4.3125 15.25C3.79473 15.25 3.375 14.8303 3.375 14.3125C3.375 13.7947 3.79473 13.375 4.3125 13.375C4.83027 13.375 5.25 13.7947 5.25 14.3125ZM7.4375 15.25C7.95527 15.25 8.375 14.8303 8.375 14.3125C8.375 13.7947 7.95527 13.375 7.4375 13.375C6.91973 13.375 6.5 13.7947 6.5 14.3125C6.5 14.8303 6.91973 15.25 7.4375 15.25ZM11.5 14.3125C11.5 14.8303 11.0803 15.25 10.5625 15.25C10.0447 15.25 9.625 14.8303 9.625 14.3125C9.625 13.7947 10.0447 13.375 10.5625 13.375C11.0803 13.375 11.5 13.7947 11.5 14.3125Z" fill="#000000"/>
</svg>
