<svg width="170" height="215" viewBox="0 0 170 215" fill="none" xmlns="http://www.w3.org/2000/svg">
<path fill-rule="evenodd" clip-rule="evenodd" d="M59.6389 50.3906C59.6389 46.68 62.4495 43.6719 65.9167 43.6719H160.083C163.55 43.6719 166.361 46.68 166.361 50.3906C166.361 54.1013 163.55 57.1094 160.083 57.1094H65.9167C62.4495 57.1094 59.6389 54.1013 59.6389 50.3906Z" fill="#000000"/>
<path fill-rule="evenodd" clip-rule="evenodd" d="M0 6.71875C0 3.00809 2.81066 0 6.27778 0H219.722C223.189 0 226 3.00809 226 6.71875C226 10.4294 223.189 13.4375 219.722 13.4375H6.27778C2.81066 13.4375 0 10.4294 0 6.71875Z" fill="#000000"/>
<path fill-rule="evenodd" clip-rule="evenodd" d="M59.6389 90.7031C59.6389 86.9925 62.4495 83.9844 65.9167 83.9844H160.083C163.55 83.9844 166.361 86.9925 166.361 90.7031C166.361 94.4138 163.55 97.4219 160.083 97.4219H65.9167C62.4495 97.4219 59.6389 94.4138 59.6389 90.7031Z" fill="#000000"/>
<path fill-rule="evenodd" clip-rule="evenodd" d="M22.1485 151.172C22.1485 147.461 25.8742 144.453 30.4702 144.453H192.743C197.339 144.453 201.065 147.461 201.065 151.172C201.065 154.883 197.339 157.891 192.743 157.891H30.4702C25.8742 157.891 22.1485 154.883 22.1485 151.172Z" fill="#000000"/>
<path fill-rule="evenodd" clip-rule="evenodd" d="M30.4237 0C34.994 0 34.704 4.01078 34.704 8.95833V199.883L75.5096 189.805C76.8293 189.484 78.2015 189.519 79.5059 189.906L115.298 199.883L152.412 188.125C153.774 187.721 155.209 187.701 156.58 188.067L191.648 198.203V12.4915C191.648 7.54391 191.359 0 195.929 0C200.499 0 204.204 4.01078 204.204 8.95833V206.042C204.204 208.795 203.034 211.396 201.032 213.094C199.03 214.792 196.417 215.399 193.948 214.739L153.601 203.971L117.485 214.682C116.053 215.106 114.543 215.106 113.112 214.682L76.9047 203.944L32.2336 214.783C29.7818 215.378 27.213 214.735 25.2516 213.035C23.2901 211.334 22.1485 208.762 22.1485 206.042V8.95833C22.1485 4.01078 25.8534 0 30.4237 0Z" fill="#000000"/>
</svg>
