<svg width="54" height="43" viewBox="0 0 54 43" fill="none" xmlns="http://www.w3.org/2000/svg">
<style type="text/css">
	.st0{fill-rule:evenodd;clip-rule:evenodd;fill:#D11B25;}
</style>
<path class="st0" d="M11.1,34.8c-6.4-2.4-11-9-11.1-16.7C-0.2,8.5,6.8,0.2,15.9,0s16.4,7.9,16.5,17.6c0.1,7.4-3.9,14-9.9,16.8
	l-0.8-2.8c4.6-2.4,7.9-7.7,7.8-14C29.4,9.1,23.2,2.7,16,2.8C8.7,2.9,2.7,9.6,2.9,18.1c0.1,6.6,3.9,12,9,14L11.1,34.8z"/>
<path class="st0" d="M12.9,32.3v2.8H20v-2.8H12.9z M10.4,30.2c0.3-0.3,0.7-0.7,1.4-0.7h9.4c0.6,0,1.1,0.3,1.4,0.7
	c0.3,0.3,0.4,0.7,0.4,1.1v4.8c0,0.4-0.1,0.8-0.4,1.1s-0.7,0.7-1.4,0.7h-9.4c-0.6,0-1.1-0.3-1.4-0.7c-0.3-0.3-0.4-0.7-0.4-1.1v-4.8
	C10,30.9,10.1,30.5,10.4,30.2z"/>
<path class="st0" d="M7.9,37.9V40H25v-2.1H7.9z M5.2,36c0.1-0.2,0.5-0.9,1.4-0.9h19.6c0.9,0,1.3,0.7,1.4,0.9
	c0.2,0.3,0.2,0.7,0.2,0.9v4c0,0.3-0.1,0.6-0.2,0.9c-0.1,0.2-0.5,0.9-1.4,0.9H6.7c-0.9,0-1.3-0.7-1.4-0.9c-0.2-0.3-0.2-0.7-0.2-0.9
	v-4C5,36.6,5.1,36.3,5.2,36z"/>
<path class="st0" d="M17.8,6.9c0.6,0.5,0.6,1.4,0.1,2L10,17.2c-0.5,0.6-1.4,0.6-2,0.1s-0.6-1.4-0.1-2L15.8,7
	C16.3,6.4,17.2,6.4,17.8,6.9z"/>
<path class="st0" d="M22.1,10.4c0.6,0.5,0.6,1.4,0.1,2L11.5,23.5c-0.5,0.6-1.4,0.6-2,0.1s-0.6-1.4-0.1-2l10.7-11.1
	C20.6,9.9,21.5,9.9,22.1,10.4z"/>
<path class="st0" d="M42.1,21.9l1,18.1H46l1-18.1H42.1z M40.9,19.1c-0.2,0-0.5,0-0.7,0.1s-0.4,0.2-0.6,0.4c-0.2,0.2-0.3,0.4-0.4,0.6
	c-0.1,0.2-0.1,0.4-0.1,0.7l0,0l1.1,20.2c0,0.4,0.2,0.8,0.5,1.2c0.3,0.3,0.8,0.5,1.3,0.5l0,0h5c0.5,0,0.9-0.2,1.3-0.5
	c0.3-0.3,0.5-0.7,0.5-1.1L49.9,21l0,0c0-0.2,0-0.4-0.1-0.6s-0.2-0.4-0.4-0.6s-0.4-0.3-0.6-0.4c-0.2-0.1-0.5-0.1-0.7-0.1h-7.2
	C40.9,19.1,40.9,19.1,40.9,19.1z"/>
<path class="st0" d="M42,15.6v3.5h5v-3.5H42z M39.2,14.6c0-0.9,0.8-1.8,1.8-1.8h7.1c1.1,0,1.8,0.9,1.8,1.8v5.5
	c0,0.9-0.8,1.8-1.8,1.8H41c-1.1,0-1.8-0.9-1.8-1.8V14.6z"/>
<path class="st0" d="M53,4.6c0.7,0.3,1,1.2,0.7,1.9l-3.8,7.7c-0.1,0.3-0.3,0.7-0.5,0.9c-0.4,0.3-0.8,0.5-1.4,0.5l0,0h-6.9
	c-0.5,0-1-0.2-1.4-0.6c-0.3-0.2-0.4-0.6-0.5-0.9l-3.8-7.7c-0.3-0.7,0-1.5,0.7-1.9c0.7-0.3,1.6,0,1.9,0.6l3.8,7.6h5.6l3.8-7.6
	C51.5,4.5,52.3,4.2,53,4.6z"/>
<path class="st0" d="M44.6,3c-1.3,0-2.6,0.3-3.8,0.9s-2.2,1.5-2.9,2.5c-0.4,0.6-1.3,0.8-2,0.4s-0.8-1.3-0.4-1.9
	c1-1.5,2.3-2.6,3.9-3.5c1.6-0.8,3.4-1.2,5.2-1.2s3.6,0.5,5.1,1.3c1.6,0.8,2.9,2,3.9,3.5c0.4,0.7,0.2,1.6-0.4,2
	c-0.7,0.4-1.5,0.2-2-0.4c-0.7-1.1-1.7-2-2.8-2.6C47.2,3.4,45.9,3.1,44.6,3z"/>
</svg>
