<svg width="17" height="20" viewBox="0 0 17 20" fill="none" xmlns="http://www.w3.org/2000/svg">
<path d="M16 1L0.999999 0.999999" stroke="#D11B25" stroke-width="2" stroke-linecap="round"/>
<path d="M9.5 7C9.5 6.44771 9.05229 6 8.5 6C7.94772 6 7.5 6.44771 7.5 7L9.5 7ZM8.5 19L7.79289 19.7071C8.18342 20.0976 8.81658 20.0976 9.20711 19.7071L8.5 19ZM14.4571 14.4571C14.8476 14.0666 14.8476 13.4334 14.4571 13.0429C14.0666 12.6524 13.4334 12.6524 13.0429 13.0429L14.4571 14.4571ZM3.95711 13.0429C3.56658 12.6524 2.93342 12.6524 2.54289 13.0429C2.15237 13.4334 2.15237 14.0666 2.54289 14.4571L3.95711 13.0429ZM7.5 7L7.5 19L9.5 19L9.5 7L7.5 7ZM9.20711 19.7071L14.4571 14.4571L13.0429 13.0429L7.79289 18.2929L9.20711 19.7071ZM9.20711 18.2929L3.95711 13.0429L2.54289 14.4571L7.79289 19.7071L9.20711 18.2929Z" fill="#D11B25"/>
</svg>
