<svg width="18" height="18" viewBox="0 0 18 18" fill="none" xmlns="http://www.w3.org/2000/svg">
<path d="M4.26946 10.7305C4.26946 10.7305 13.4544 1.55418 13.9185 1.08147C14.3826 0.608754 17.1494 3.2649 16.6271 3.78998C16.1047 4.31507 6.97798 13.4391 6.97798 13.4391L5.62372 12.0848L4.26946 10.7305Z" fill="#BEBEBE"/>
<path d="M4.26946 10.7305C4.26946 10.7305 13.4544 1.55418 13.9185 1.08147C14.3826 0.608754 17.1494 3.2649 16.6271 3.78998C16.1047 4.31507 6.97798 13.4391 6.97798 13.4391M4.26946 10.7305L2.35426 15.3543L6.97798 13.4391M4.26946 10.7305L5.62372 12.0848L6.97798 13.4391M11.4766 3.52442C11.9407 3.0517 14.7075 5.70785 14.1852 6.23293" stroke="#BEBEBE" stroke-linejoin="round"/>
</svg>
