<svg width="24" height="23" viewBox="0 0 24 23" fill="none" xmlns="http://www.w3.org/2000/svg">
<path d="M13 4H3C1.89543 4 1 4.89543 1 6V20C1 21.1046 1.89543 22 3 22H17C18.1046 22 19 21.1046 19 20V13" stroke="#D0D0D0" stroke-width="1.5" stroke-linecap="round"/>
<path d="M8.67815 13.274C8.67815 13.274 19.0113 2.9506 19.5334 2.4188C20.0555 1.887 23.1681 4.87516 22.5805 5.46588C21.9928 6.0566 11.7252 16.3211 11.7252 16.3211M8.67815 13.274L6.52354 18.4757L11.7252 16.3211M8.67815 13.274L10.2017 14.7976L11.7252 16.3211M16.7862 5.16712C17.3084 4.63532 20.421 7.62348 19.8333 8.2142" stroke="#D0D0D0" stroke-width="1.5" stroke-linejoin="round"/>
</svg>
