<svg width="22" height="13" viewBox="0 0 22 13" fill="none" xmlns="http://www.w3.org/2000/svg">
<path d="M5.61538 8V4L1 8L5.61538 12V8Z" fill="#C9C9C9"/>
<path d="M22 1C22 0.447715 21.5523 0 21 0C20.4477 0 20 0.447715 20 1H22ZM5.61538 4H6.61538C6.61538 3.60848 6.3869 3.25298 6.03076 3.09035C5.67461 2.92772 5.25632 2.98789 4.96045 3.24431L5.61538 4ZM5.61538 12L4.96045 12.7557C5.25632 13.0121 5.67461 13.0723 6.03076 12.9097C6.3869 12.747 6.61538 12.3915 6.61538 12H5.61538ZM1 8L0.345069 7.24431C0.125907 7.43425 0 7.70998 0 8C0 8.29002 0.125907 8.56575 0.345069 8.75569L1 8ZM20 1V6H22V1H20ZM19 7H5.61538V9H19V7ZM6.61538 8V4H4.61538V8H6.61538ZM4.61538 4V12H6.61538V4H4.61538ZM6.27032 11.2443L1.65493 7.24431L0.345069 8.75569L4.96045 12.7557L6.27032 11.2443ZM1.65493 8.75569L6.27032 4.75569L4.96045 3.24431L0.345069 7.24431L1.65493 8.75569ZM6.61538 12V8H4.61538V12H6.61538ZM20 6C20 6.55228 19.5523 7 19 7V9C20.6569 9 22 7.65685 22 6H20Z" fill="#C9C9C9"/>
</svg>
