<svg width="129" height="208" viewBox="0 0 129 208" fill="none" xmlns="http://www.w3.org/2000/svg">
<g opacity="0.6">
<path d="M37.3603 159H112.42M112.42 179H37.3603" stroke="#000000" stroke-width="7" stroke-linecap="round"/>
<path d="M112.42 179C112.42 192.807 95.6175 204 74.8903 204C54.163 204 37.3603 192.807 37.3603 179" stroke="#000000" stroke-width="7"/>
<path d="M73.5 4C35.1162 4 4 33.2857 4 69.4114C4 89.5814 16.8821 107.619 32.131 119.618L38.75 136.5H108.25L114.869 119.618C130.118 107.619 143 89.5814 143 69.4114C143 33.2857 111.884 4 73.5 4Z" stroke="#000000" stroke-width="7" stroke-linejoin="round"/>
<path d="M51.2603 86.4999L62.3803 100.667V129" stroke="#000000" stroke-width="7" stroke-linecap="round" stroke-linejoin="round"/>
<path d="M95.74 86.4999L84.62 100.667V129" stroke="#000000" stroke-width="7" stroke-linecap="round" stroke-linejoin="round"/>
<path d="M23.4603 71.4999C23.4603 45.2664 45.8639 23.9999 73.5003 23.9999" stroke="#000000" stroke-width="7" stroke-linecap="round" stroke-linejoin="round"/>
</g>
</svg>
