<?xml version="1.0" encoding="utf-8"?>
<!-- Generator: Adobe Illustrator 23.0.6, SVG Export Plug-In . SVG Version: 6.00 Build 0)  -->
<svg version="1.1" id="Layer_1" xmlns="http://www.w3.org/2000/svg" xmlns:xlink="http://www.w3.org/1999/xlink" x="0px" y="0px"
	 viewBox="0 0 121 88" style="enable-background:new 0 0 121 88;" xml:space="preserve">
<style type="text/css">
	.st0{fill:none;stroke:#EAEAEA;stroke-width:4;stroke-linecap:round;}
	.st1{fill:#EAEAEA;stroke:#EAEAEA;stroke-width:4;}
	.st2{fill:none;stroke:#EAEAEA;stroke-width:4;stroke-linejoin:round;}
	.st3{fill:none;stroke:#EAEAEA;stroke-width:4;stroke-linecap:round;stroke-linejoin:round;}
</style>
<g>
	<g>
		<path class="st0" d="M46.7,68h29.8"/>
		<path class="st1" d="M76.6,74.6c0,6-6.7,10.8-14.9,10.8c-8.2,0-14.9-4.8-14.9-10.8H76.6z"/>
		<path class="st2" d="M61,2.6c-15.1,0-27.3,12.9-27.3,28.9c0,8.9,5.1,16.9,11,22.2l2.6,7.5h27.3l2.6-7.5c6-5.3,11-13.3,11-22.2
			C88.3,15.5,76.1,2.6,61,2.6z"/>
		<path class="st3" d="M52.3,38.9l4.5,6.2v12.5"/>
		<path class="st3" d="M69.7,38.9l-4.5,6.2v12.5"/>
		<path class="st3" d="M41.6,32.1c0-11.3,8.6-20.4,19.1-20.4"/>
	</g>
</g>
</svg>
