<svg width="18" height="9" viewBox="0 0 18 9" fill="none" xmlns="http://www.w3.org/2000/svg">
<path fill-rule="evenodd" clip-rule="evenodd" d="M2.09361 0.550153C2.09369 0.550268 2.09353 0.550038 2.09361 0.550153C1.86171 0.219118 1.42304 0.151591 1.11381 0.399825C0.804418 0.648191 0.741524 1.11826 0.973333 1.44975L1.53354 1.00004C0.973333 1.44975 0.973279 1.44968 0.973333 1.44975L0.974519 1.45144L0.976509 1.45427L0.982884 1.46328L1.00511 1.49429C1.02411 1.52059 1.0514 1.55795 1.08667 1.60512C1.15719 1.69944 1.25974 1.8332 1.39168 1.99643C1.56438 2.21008 1.78822 2.47518 2.05727 2.76903L1.61095 3.3687C1.36992 3.69255 1.41955 4.16444 1.72181 4.42269C2.02407 4.68094 2.4645 4.62776 2.70554 4.30391L3.0833 3.79634C3.48485 4.16379 3.9368 4.5384 4.43105 4.88764L3.95545 6.44186C3.835 6.83546 4.03517 7.25915 4.40253 7.38819C4.76988 7.51724 5.16533 7.30278 5.28577 6.90918L5.6715 5.64864C6.45983 6.05898 7.33113 6.37269 8.25918 6.48531V8.00004C8.25918 8.41426 8.57259 8.75004 8.95918 8.75004C9.34578 8.75004 9.65918 8.41426 9.65918 8.00004V6.49472C10.4521 6.40897 11.2042 6.17525 11.8988 5.85863L12.3307 7.10187C12.4655 7.49007 12.8686 7.68764 13.2309 7.54316C13.5932 7.39867 13.7776 6.96685 13.6427 6.57865L13.153 5.1688C13.8354 4.72929 14.4481 4.22999 14.9723 3.74559L15.3612 4.29141C15.5958 4.62066 16.035 4.68382 16.3423 4.43248C16.6496 4.18114 16.7086 3.71049 16.474 3.38124L15.9963 2.71073C16.288 2.38915 16.5238 2.10463 16.6955 1.88806C16.8 1.75625 16.8811 1.64926 16.9369 1.57399C16.9648 1.53635 16.9864 1.5066 17.0015 1.48562L17.0193 1.4608L17.0244 1.45352L17.0261 1.45119L17.0266 1.45036C17.0267 1.45022 17.0271 1.44975 16.4669 1.00004L17.0266 1.45036C17.2584 1.11887 17.196 0.648191 16.8866 0.399825C16.5773 0.151513 16.1387 0.218815 15.9068 0.550117M15.9068 0.550117L15.9045 0.553345L15.8927 0.569867C15.8817 0.585246 15.8643 0.609199 15.8408 0.640886C15.7938 0.704279 15.7224 0.798497 15.6286 0.916842C15.4407 1.15378 15.1637 1.48601 14.8122 1.86047C14.7408 1.93657 14.6665 2.01418 14.5894 2.0929C14.5852 2.09716 14.5809 2.10147 14.5768 2.10582C13.8925 2.80332 12.9935 3.58572 11.9627 4.16636C11.0391 4.68661 10.0355 5.03053 9.0002 5.03053L8.9642 5.03039C7.78306 5.02133 6.64456 4.56622 5.6236 3.91831C4.79222 3.3907 4.06097 2.74916 3.47838 2.16135C3.03859 1.71762 2.68876 1.30984 2.44997 1.01443C2.33073 0.866918 2.23964 0.747986 2.17931 0.667297C2.14915 0.626969 2.12672 0.596243 2.11234 0.576333L2.09687 0.55475L2.09361 0.550153" fill="#777777"/>
</svg>
