<svg width="100" height="82" viewBox="0 0 100 82" fill="none" xmlns="http://www.w3.org/2000/svg">
<path d="M96.673 12.7754C94.6768 10.5966 91.9201 9.30918 88.7832 9.30918H73.0038V9.11111C73.0038 6.63527 72.0532 4.25845 70.4372 2.67391C68.8212 0.990338 66.6349 0 64.2585 0H35.7414C33.2699 0 31.0836 0.990338 29.4676 2.67391C27.8517 4.35749 26.9011 6.63527 26.9011 9.11111V9.30918H11.2167C8.07979 9.30918 5.32314 10.5966 3.32694 12.7754C1.33075 14.8551 -5.34058e-05 17.8261 -5.34058e-05 20.9952V70.314C-5.34058e-05 73.5821 1.23569 76.4541 3.32694 78.5338C5.32314 80.6135 8.17485 82 11.2167 82H88.7832C91.9201 82 94.6768 80.7126 96.673 78.5338C98.6691 76.4541 99.9999 73.4831 99.9999 70.314V20.9952C99.9999 17.7271 98.7642 14.8551 96.673 12.7754ZM95.057 70.314H94.9619C94.9619 72.0966 94.2965 73.6812 93.1558 74.8696C92.0152 76.058 90.4942 76.7512 88.7832 76.7512H11.2167C9.50565 76.7512 7.98474 76.058 6.84405 74.8696C5.70337 73.6812 5.03797 72.0966 5.03797 70.314V20.9952C5.03797 19.2126 5.70337 17.628 6.84405 16.4396C7.98474 15.2512 9.50565 14.558 11.2167 14.558H29.5627C30.9885 14.558 32.1292 13.3696 32.1292 11.8841V9.01208C32.1292 7.9227 32.5095 6.93237 33.1749 6.23913C33.8403 5.54589 34.7908 5.14976 35.8364 5.14976H64.2585C65.3041 5.14976 66.2547 5.54589 66.9201 6.23913C67.5855 6.93237 67.9657 7.9227 67.9657 9.01208V11.8841C67.9657 13.3696 69.1064 14.558 70.5323 14.558H88.8783C90.5893 14.558 92.1102 15.2512 93.2509 16.4396C94.3916 17.628 95.057 19.2126 95.057 20.9952V70.314Z" fill="white"/>
<path d="M49.9982 21.292C43.5343 21.292 37.6408 24.0649 33.4583 28.4224C29.1807 32.879 26.6141 38.92 26.6141 45.6543C26.6141 52.3887 29.2757 58.5288 33.4583 62.8863C37.7358 67.3428 43.5343 70.0167 49.9982 70.0167C56.4621 70.0167 62.3556 67.2438 66.5381 62.8863C70.8157 58.4297 73.3822 52.3887 73.3822 45.6543C73.3822 38.92 70.7206 32.7799 66.5381 28.4224C62.3556 24.0649 56.4621 21.292 49.9982 21.292ZM62.926 59.222C59.599 62.5892 55.0362 64.7679 49.9982 64.7679C44.9602 64.7679 40.3974 62.5892 37.0704 59.222C33.7434 55.7558 31.7472 51.0022 31.7472 45.7534C31.7472 40.5046 33.8385 35.751 37.0704 32.2848C40.3974 28.8186 44.9602 26.7389 49.9982 26.7389C55.0362 26.7389 59.599 28.9176 62.926 32.2848C66.253 35.751 68.2492 40.5046 68.2492 45.7534C68.3442 51.0022 66.253 55.7558 62.926 59.222Z" fill="white"/>
<path d="M83.8431 30.8977C86.4155 30.8977 88.5009 28.7251 88.5009 26.045C88.5009 23.365 86.4155 21.1924 83.8431 21.1924C81.2707 21.1924 79.1853 23.365 79.1853 26.045C79.1853 28.7251 81.2707 30.8977 83.8431 30.8977Z" fill="white"/>
</svg>
