<svg width="20" height="20" viewBox="0 0 20 20" fill="none" xmlns="http://www.w3.org/2000/svg">
<style type="text/css">
	.st0{fill-rule:evenodd;clip-rule:evenodd;fill:#000000;}
</style>
<path class="st0" d="M15.1,10.3c0.5-1.2,0.8-2.3,0.8-3.1c0-3.1-2.6-5.6-5.8-5.6C6.8,1.8,4.3,4.2,4.3,7.3c0,0.7,0.2,1.9,0.7,3.1
	s1.1,2.5,1.9,3.6c0.7,1.2,2.7,3.9,3.2,3.9c0.5,0,2.4-2.7,3.2-3.9C13.8,13,14.6,11.6,15.1,10.3z M9.9,19.1L9.9,19.1L9.9,19.1z
	 M10.1,19.9c1.6,0,7.3-8.9,7.3-12.8S14.1,0,10,0S2.6,3.2,2.6,7.1S8.1,19.9,10.1,19.9z"/>
<path class="st0" d="M10,10.2c1.5,0,2.8-1.2,2.8-2.6c0-1.4-1.3-2.6-2.8-2.6S7.4,6.1,7.4,7.6S8.5,10.2,10,10.2z M10,11.4
	c2.3,0,4.2-1.8,4.2-3.9S12.3,3.6,10,3.6S5.8,5.3,5.8,7.5S7.7,11.4,10,11.4z"/>
</svg>
