<?xml version="1.0" encoding="utf-8"?>
<!-- Generator: Adobe Illustrator 23.0.6, SVG Export Plug-In . SVG Version: 6.00 Build 0)  -->
<svg version="1.1" id="Layer_1" xmlns="http://www.w3.org/2000/svg" xmlns:xlink="http://www.w3.org/1999/xlink" x="0px" y="0px"
	 viewBox="0 0 121 88" style="enable-background:new 0 0 121 88;" xml:space="preserve">
<style type="text/css">
	.st0{fill:none;stroke:#EAEAEA;stroke-width:4;stroke-linecap:round;stroke-linejoin:round;}
	.st1{fill:#EAEAEA;stroke:#EAEAEA;stroke-width:4;stroke-linecap:round;stroke-linejoin:round;}
</style>
<g>
	<g>
		<path class="st0" d="M29.5,51.9c0-13.1,24.1-41.8,30.1-48.8c0.7-0.8,2-0.9,2.8-0.1c6,6.6,29.6,33,30.1,47.7
			C93,67.5,80.2,85.5,61,85.5C41.8,85.5,29.5,66.9,29.5,51.9z"/>
		<path class="st1" d="M62.6,40.1c-0.6-0.5-1.5-0.5-2.2,0C56.8,43,45.3,52.7,45.3,61.4c0,10.3,6.3,14.7,16.3,14.7
			c9.9,0,16.3-5,16.3-15.2C77.8,52.3,66.3,42.9,62.6,40.1z"/>
	</g>
</g>
</svg>
