<svg width="95" height="91" viewBox="0 0 95 91" fill="none" xmlns="http://www.w3.org/2000/svg">
<path d="M23.5096 29.7972C25.709 29.4564 28.3953 29.4425 31.9559 29.4425H51.2939L77.7255 29.4425L78.3701 17.8L51.295 17.8001L31.697 17.8001C28.4638 17.7997 24.913 17.7993 21.7387 18.2912C18.4248 18.8047 14.7218 19.9592 11.814 22.916C9.00583 25.7715 7.85658 29.3859 7.34052 32.0097C6.8145 34.6842 6.81474 37.0446 6.81484 37.9647V44.499C6.81484 44.499 9.41239 44.5 12.6166 44.5H18.4184V38.0002C18.4184 37.2022 18.4257 35.7833 18.7245 34.2638C19.0403 32.6585 19.5546 31.621 20.0736 31.0932C20.493 30.6667 21.3649 30.1296 23.5096 29.7972Z" stroke="#EAEAEA" stroke-width="4" stroke-linecap="round" stroke-linejoin="round"/>
<path d="M22.9873 44.2747L1.99975 44.2747V52.5121L22.9873 52.5121L22.9873 44.2747Z" stroke="#EAEAEA" stroke-width="4"/>
<path d="M93 9L93 37C93 38.6569 91.6569 40 90 40L82 40C80.3431 40 79 38.6569 79 37L79 26.2692L79 9C79 7.34315 80.3431 6 82 6L90 6C91.6569 6 93 7.34315 93 9Z" stroke="#EAEAEA" stroke-width="4"/>
<rect width="16" height="4" transform="matrix(4.46268e-08 -1 -1 -4.28147e-08 42 19)" fill="#EAEAEA"/>
<rect width="18" height="4" rx="2" transform="matrix(-1 0 0 1 49 0)" fill="#EAEAEA"/>
<path d="M19.0457 79.1632C18.5667 77.5897 15.2269 68.969 13.5643 64.6989C13.2331 63.8482 12.0333 63.8486 11.7063 64.7008C10.1678 68.7107 7.15266 76.5853 6.21085 79.1632C4.92737 82.6763 5.56911 89 12.6283 89C19.6874 89 19.6874 81.2711 19.0457 79.1632Z" stroke="#EAEAEA" stroke-width="4"/>
<path d="M43.4363 65.6031C40.1879 60.3774 40.1879 52.1945 43.4363 46.9688C44.1276 45.8579 45.3782 45.6727 46.2452 46.5676C47.1082 47.4575 47.2481 49.0723 46.5568 50.1833C44.499 53.4904 44.499 59.0813 46.5607 62.3987C49.8131 67.6244 49.8131 75.8073 46.5607 81.033C46.1652 81.6707 45.5859 82 44.9985 82C44.5631 82 44.1196 81.8148 43.7519 81.4342C42.8889 80.5443 42.7489 78.9241 43.4402 77.8185C45.502 74.5112 45.502 68.9205 43.4363 65.6031Z" fill="#EAEAEA"/>
<path d="M56.4393 65.6021C53.1869 60.3761 53.1869 52.1927 56.4393 46.9667C57.1264 45.8557 58.3851 45.6756 59.2481 46.5655C60.1111 47.4555 60.2511 49.0757 59.5598 50.1814C57.498 53.4887 57.498 59.0799 59.5637 62.3976C62.8121 67.6235 62.8121 75.8069 59.5637 81.0329C59.1681 81.6706 58.5888 82 58.0015 82C57.566 82 57.1264 81.8148 56.7549 81.4341C55.8918 80.5442 55.7519 78.9293 56.4432 77.8182C58.501 74.5107 58.501 68.9197 56.4393 65.6021Z" fill="#EAEAEA"/>
<path d="M69.4363 65.6058C66.1879 60.3794 66.1879 52.1954 69.4363 46.9689C70.1235 45.8578 71.3782 45.6726 72.2451 46.5677C73.1043 47.4524 73.244 49.0728 72.5568 50.1788C70.499 53.4863 70.499 59.0781 72.5607 62.396C75.8131 67.6224 75.8131 75.8064 72.5607 81.0328C72.1652 81.6706 71.5859 82 70.9985 82C70.5631 82 70.1196 81.8148 69.7519 81.4394C68.8889 80.5494 68.7489 78.929 69.4402 77.8232C71.502 74.5101 71.502 68.9237 69.4363 65.6058Z" fill="#EAEAEA"/>
</svg>
