<svg width="14" height="16" viewBox="0 0 14 16" fill="none" xmlns="http://www.w3.org/2000/svg">
<path fill-rule="evenodd" clip-rule="evenodd" d="M11.9839 16C13.2283 16 13.9556 15.5283 13.9556 14.211H13.9553V7.65155C13.9553 6.33428 12.9463 5.26627 11.702 5.26627H9.83986C10.4976 3.92933 11.5172 0.728887 9.47849 0.029108C8.92698 -0.160223 8.20395 0.546116 6.99504 2.97224C6.38636 4.19379 5.51545 5.19978 4.92903 5.72752C3.89222 6.65987 4.00347 7.65155 4.00347 7.65155V13.6147C4.00347 14.932 5.0124 16 6.2568 16H11.9839ZM1.5 16C2.32838 16 3 15.3568 3 14.5627V8.43732C3 7.64319 2.32838 7 1.5 7C0.671618 7 0 7.64319 0 8.43732V14.5627C0 15.3568 0.671618 16 1.5 16Z" fill="#000000"/>
</svg>
