<svg width="22" height="23" viewBox="0 0 22 23" fill="none" xmlns="http://www.w3.org/2000/svg">
<path d="M1.93208 3.01852C1.45084 3.01852 1.03805 3.39186 1.03805 3.87963V21.1666C1.03805 21.6544 1.45084 22.0278 1.93208 22.0278H15.1092C15.5904 22.0278 16.0032 21.6544 16.0032 21.1666V12.1528C16.0032 11.9655 16.1671 11.7917 16.3972 11.7917C16.6273 11.7917 16.7912 11.9655 16.7912 12.1528V21.1666C16.7912 22.0289 16.0507 22.75 15.1092 22.75H1.93208C0.990572 22.75 0.25 22.0289 0.25 21.1666V3.87963C0.25 3.01738 0.990573 2.2963 1.93208 2.2963H4.73985C4.96999 2.2963 5.13388 2.47017 5.13388 2.65741C5.13388 2.84465 4.96999 3.01852 4.73985 3.01852H1.93208ZM12.2224 2.65741C12.2224 2.47017 12.3863 2.2963 12.6164 2.2963H15.1091C16.0507 2.2963 16.7912 3.01737 16.7912 3.87963V8.02777C16.7912 8.21501 16.6273 8.38888 16.3972 8.38888C16.1671 8.38888 16.0032 8.21501 16.0032 8.02777V3.87963C16.0032 3.39186 15.5904 3.01852 15.1091 3.01852H12.6164C12.3863 3.01852 12.2224 2.84465 12.2224 2.65741Z" fill="#D11B25" stroke="#D11B25" stroke-width="0.5" stroke-linecap="round" stroke-linejoin="round"/>
<path fill-rule="evenodd" clip-rule="evenodd" d="M4.09534 2.83334C4.09534 1.82082 4.96036 1 6.02742 1H11.3279C12.395 1 13.26 1.82081 13.26 2.83334V4.42487C13.26 5.43739 12.395 6.2582 11.3279 6.2582H6.02742C4.96036 6.2582 4.09534 5.43739 4.09534 4.42487V2.83334ZM6.02742 2.22222C5.67173 2.22222 5.38339 2.49583 5.38339 2.83334V4.42487C5.38339 4.76237 5.67173 5.03598 6.02742 5.03598H11.3279C11.6836 5.03598 11.9719 4.76237 11.9719 4.42487V2.83334C11.9719 2.49583 11.6836 2.22222 11.3279 2.22222H6.02742Z" fill="#D11B25" stroke="#D11B25" stroke-width="0.2" stroke-linecap="round" stroke-linejoin="round"/>
<path fill-rule="evenodd" clip-rule="evenodd" d="M3.15027 9.83255C3.15027 9.49504 3.43861 9.22144 3.7943 9.22144H13.2462C13.6019 9.22144 13.8902 9.49504 13.8902 9.83255C13.8902 10.1701 13.6019 10.4437 13.2462 10.4437H3.7943C3.43861 10.4437 3.15027 10.1701 3.15027 9.83255Z" fill="#D11B25" stroke="#D11B25" stroke-width="0.2" stroke-linecap="round"/>
<path fill-rule="evenodd" clip-rule="evenodd" d="M3.15027 13.719C3.15027 13.3815 3.43861 13.1079 3.7943 13.1079H10.4654C10.8211 13.1079 11.1094 13.3815 11.1094 13.719C11.1094 14.0565 10.8211 14.3301 10.4654 14.3301H3.7943C3.43861 14.3301 3.15027 14.0565 3.15027 13.719Z" fill="#D11B25" stroke="#D11B25" stroke-width="0.2" stroke-linecap="round"/>
<path fill-rule="evenodd" clip-rule="evenodd" d="M3.15027 17.4561C3.15027 17.1186 3.43861 16.845 3.7943 16.845H8.52025C8.87594 16.845 9.16428 17.1186 9.16428 17.4561C9.16428 17.7936 8.87594 18.0672 8.52025 18.0672H3.7943C3.43861 18.0672 3.15027 17.7936 3.15027 17.4561Z" fill="#D11B25" stroke="#D11B25" stroke-width="0.2" stroke-linecap="round"/>
<path d="M9.04494 17.1498L9.98573 14.7628L11.7533 16.3338L9.50332 17.5238C9.2416 17.6622 8.93999 17.4161 9.04494 17.1498Z" fill="white"/>
<path fill-rule="evenodd" clip-rule="evenodd" d="M9.83932 14.1677C10.049 14.1211 10.2693 14.177 10.4265 14.3167L12.1941 15.8877C12.3441 16.0211 12.4181 16.2145 12.393 16.4082C12.368 16.6019 12.2469 16.7726 12.0673 16.8676L9.81733 18.0575C9.03218 18.4727 8.12733 17.7346 8.4422 16.9357L9.38298 14.5486C9.45841 14.3572 9.62966 14.2143 9.83932 14.1677ZM9.95552 16.5852L10.6697 16.2075L10.251 15.8354L9.95552 16.5852Z" fill="#D11B25"/>
<path d="M10.9251 14.241L10.7483 14.4177L10.9339 14.585L11.8802 15.4384L12.0659 15.6059L12.2428 15.4292L20.364 7.31523L20.5408 7.13859L20.3552 6.97123L19.4089 6.11783L19.2232 5.95034L19.0463 6.1271L10.9251 14.241ZM9.93374 14.6968C9.77802 14.5564 9.77244 14.3237 9.91923 14.177L18.9274 5.17688C19.0743 5.03015 19.3196 5.02352 19.4754 5.16403L21.3554 6.85943C21.5111 6.99986 21.5167 7.23258 21.3699 7.37923L12.3617 16.3794C12.2148 16.5261 11.9695 16.5328 11.8137 16.3922L9.93374 14.6968Z" fill="#D11B25" stroke="#D11B25" stroke-width="0.5"/>
</svg>
