<svg width="48" height="36" viewBox="0 0 48 36" fill="none" xmlns="http://www.w3.org/2000/svg">
<path d="M47 4.02222V31.9778C47 32.8804 46.5698 33.6907 45.8876 34.2444C45.3084 34.7147 44.5476 35 43.7143 35H4.28572C3.45242 35 2.69158 34.7147 2.11236 34.2444C1.43023 33.6907 1 32.8804 1 31.9778V4.02222M47 4.02222C47 2.3531 45.5289 1 43.7143 1H4.28571C2.47106 1 1 2.35309 1 4.02222M47 4.02222L28.5179 15.3556L26.1302 16.9528C24.8319 17.8213 23.1468 17.8546 21.8152 17.038L19.0714 15.3556L1 4.02222" stroke="#000000" stroke-width="2"/>
</svg>
