<svg width="20" height="20" viewBox="0 0 20 20" fill="none" xmlns="http://www.w3.org/2000/svg">
<path fill-rule="evenodd" clip-rule="evenodd" d="M18.5714 4.0476H1.42857C1.16558 4.0476 0.952381 4.26079 0.952381 4.52379V15.2381C0.952381 15.5011 1.16558 15.7143 1.42857 15.7143H18.5714C18.8344 15.7143 19.0476 15.5011 19.0476 15.2381V4.52379C19.0476 4.26079 18.8344 4.0476 18.5714 4.0476ZM1.42857 3.09521C0.639593 3.09521 0 3.73481 0 4.52379V15.2381C0 16.027 0.639594 16.6666 1.42857 16.6666H18.5714C19.3604 16.6666 20 16.027 20 15.2381V4.52379C20 3.73481 19.3604 3.09521 18.5714 3.09521H1.42857Z" fill="#020202"/>
<path fill-rule="evenodd" clip-rule="evenodd" d="M5.63458 9.88098C6.33589 9.88098 6.90442 9.31245 6.90442 8.61114C6.90442 7.90982 6.33589 7.3413 5.63458 7.3413C4.93326 7.3413 4.36473 7.90982 4.36473 8.61114C4.36473 9.31245 4.93326 9.88098 5.63458 9.88098ZM5.63458 10.8334C6.86188 10.8334 7.8568 9.83844 7.8568 8.61114C7.8568 7.38384 6.86188 6.38892 5.63458 6.38892C4.40728 6.38892 3.41235 7.38384 3.41235 8.61114C3.41235 9.83844 4.40728 10.8334 5.63458 10.8334Z" fill="#020202"/>
<path fill-rule="evenodd" clip-rule="evenodd" d="M7.38087 12.7778C7.38087 11.8135 6.59915 11.0318 5.63484 11.0318C4.67053 11.0318 3.88881 11.8135 3.88881 12.7778C3.88881 13.0408 3.67561 13.254 3.41262 13.254C3.14962 13.254 2.93643 13.0408 2.93643 12.7778C2.93643 11.2875 4.14455 10.0794 5.63484 10.0794C7.12513 10.0794 8.33325 11.2875 8.33325 12.7778C8.33325 13.0408 8.12005 13.254 7.85706 13.254C7.59407 13.254 7.38087 13.0408 7.38087 12.7778Z" fill="#020202"/>
<path fill-rule="evenodd" clip-rule="evenodd" d="M10 9.88097C10 9.61798 10.2132 9.40479 10.4762 9.40479H16.6667C16.9297 9.40479 17.1429 9.61798 17.1429 9.88097C17.1429 10.144 16.9297 10.3572 16.6667 10.3572H10.4762C10.2132 10.3572 10 10.144 10 9.88097Z" fill="#020202"/>
<path fill-rule="evenodd" clip-rule="evenodd" d="M10 12.3809C10 12.118 10.2132 11.9048 10.4762 11.9048H16.6667C16.9297 11.9048 17.1429 12.118 17.1429 12.3809C17.1429 12.6439 16.9297 12.8571 16.6667 12.8571H10.4762C10.2132 12.8571 10 12.6439 10 12.3809Z" fill="#020202"/>
<path fill-rule="evenodd" clip-rule="evenodd" d="M10 7.38098C10 7.11798 10.2132 6.90479 10.4762 6.90479H16.6667C16.9297 6.90479 17.1429 7.11798 17.1429 7.38098C17.1429 7.64397 16.9297 7.85717 16.6667 7.85717H10.4762C10.2132 7.85717 10 7.64397 10 7.38098Z" fill="#020202"/>
</svg>
