<svg width="20" height="20" viewBox="0 0 2020" fill="none" xmlns="http://www.w3.org/2000/svg">
<style type="text/css">
	.st0{fill:none;stroke:#D11B25;stroke-width:2;}
	.st1{fill:#D11B25;}
</style>
<g>
	<path class="st0" d="M16.6,8.5c0.5,0,0.9,0.4,0.9,0.9v8.7c0,0.5-0.4,0.9-0.9,0.9H3.4c-0.5,0-0.9-0.4-0.9-0.9V9.4
			c0-0.5,0.4-0.9,0.9-0.9H16.6z"/>
	<circle class="st1" cx="10" cy="13" r="2"/>
	<path class="st1" d="M9,16c0,0.6,0.4,1,1,1c0.6,0,1-0.4,1-1H9z M9,14v2h2v-2H9z"/>
</g>
<path class="st0" d="M5,8.5V5.6c0-2.5,1.9-4.5,4.2-4.5h1.7c2.3,0,4.2,2,4.2,4.5v2.9"/>
</svg>
