<svg width="80" height="80" viewBox="0 0 80 80" fill="none" xmlns="http://www.w3.org/2000/svg">
<path d="M23.0048 26.8716C23.2547 26.8847 23.4907 26.991 23.666 27.1695L33.2406 36.918C33.6165 37.3007 34.2274 37.3186 34.6251 36.9586L37.4898 34.3656C37.9107 33.9845 37.9303 33.3298 37.5329 32.9243L28.1968 23.3972C28.0649 23.2626 27.9737 23.0935 27.9338 22.9093L26.6085 16.8025C26.5562 16.5612 26.4164 16.3478 26.2161 16.2034L13.4291 6.98422C13.0312 6.69735 12.484 6.74142 12.1371 7.08826L7.08804 12.1373C6.74119 12.4841 6.69711 13.0313 6.98398 13.4292L16.1474 26.1388C16.3246 26.3846 16.6037 26.5368 16.9063 26.5526L23.0048 26.8716Z" stroke="#EAEAEA" stroke-width="4"/>
<path d="M53.4007 9.93371C48.1481 15.1892 50.2696 21.2686 50.8965 22.9559C50.999 23.2316 50.9278 23.5131 50.7198 23.7211L23.7204 50.7256C23.514 50.9321 23.2354 51.003 22.962 50.9008C21.2823 50.2725 15.2087 48.1268 9.93512 53.4002C6.74716 56.5898 5.68668 61.3027 7.10068 65.5012C7.32101 66.1553 8.144 66.2994 8.63218 65.8114L14.7834 59.6621C15.1739 59.2717 15.807 59.2717 16.1975 59.6622L20.3371 63.8016C20.7277 64.1922 20.7277 64.8254 20.3371 65.2159L14.1872 71.3655C13.6993 71.8534 13.8429 72.676 14.4967 72.8964C18.6194 74.2867 23.3401 73.3224 26.5976 70.0618C31.853 64.8098 29.7292 58.7291 29.1018 57.0416C28.9993 56.7659 29.0705 56.4845 29.2785 56.2765L56.2684 29.2829C56.4802 29.071 56.7686 28.9998 57.0494 29.1044C58.7504 29.7383 64.8236 31.8391 70.0631 26.5954C73.2531 23.4074 74.3137 18.6944 72.8979 14.4954C72.6774 13.8414 71.8545 13.6975 71.3664 14.1856L65.2169 20.3348C64.8264 20.7253 64.1933 20.7253 63.8027 20.3348L59.6632 16.1958C59.2726 15.8053 59.2726 15.1722 59.663 14.7816L65.8114 8.63201C66.2997 8.14352 66.155 7.32007 65.5001 7.10046C61.4004 5.72568 56.6839 6.65571 53.4007 9.93371Z" stroke="#EAEAEA" stroke-width="4"/>
<path d="M66.0819 72.8122C65.6937 73.2004 65.065 73.203 64.6735 72.818L39.309 47.8688C38.9056 47.472 38.9115 46.8199 39.3219 46.4304L46.4359 39.6803C46.8291 39.3071 47.448 39.3153 47.8313 39.6986L72.8061 64.6733C73.1967 65.0638 73.1967 65.697 72.8062 66.0875L66.0819 72.8122Z" stroke="#EAEAEA" stroke-width="4"/>
</svg>
