<svg width="20" height="22" viewBox="0 0 20 22" fill="none" xmlns="http://www.w3.org/2000/svg">
<path fill-rule="evenodd" clip-rule="evenodd" d="M5.9283 0.230121C6.22871 0.536955 6.22872 1.03444 5.92832 1.34128L2.62604 4.71435L19.2305 4.71435C19.6554 4.71435 19.9998 5.06612 19.9998 5.50006C19.9998 5.93399 19.6554 6.28576 19.2305 6.28576L2.62607 6.28576L5.92831 9.65872C6.22871 9.96555 6.22871 10.463 5.92831 10.7699C5.62791 11.0767 5.14086 11.0767 4.84045 10.7699L0.225058 6.05563C-0.0753425 5.7488 -0.0753454 5.25132 0.225052 4.94448L4.84045 0.230134C5.14085 -0.0767064 5.6279 -0.0767121 5.9283 0.230121Z" fill="#D11B25"/>
<path fill-rule="evenodd" clip-rule="evenodd" d="M14.0713 21.7699C13.7709 21.463 13.7709 20.9656 14.0713 20.6587L17.3736 17.2857L0.769112 17.2856C0.344279 17.2856 -0.000117813 16.9339 -0.000117775 16.4999C-0.000117737 16.066 0.344279 15.7142 0.769112 15.7142L17.3736 15.7142L14.0713 12.3413C13.7709 12.0344 13.7709 11.537 14.0713 11.2301C14.3717 10.9233 14.8588 10.9233 15.1592 11.2301L19.7746 15.9444C20.075 16.2512 20.075 16.7487 19.7746 17.0555L15.1592 21.7699C14.8588 22.0767 14.3717 22.0767 14.0713 21.7699Z" fill="#D11B25"/>
</svg>
