<svg width="25" height="25" viewBox="0 0 25 25" fill="none" xmlns="http://www.w3.org/2000/svg">
<path d="M5.07669 18.8696H2.72594C2.20663 18.8696 1.78564 18.4283 1.78564 17.884L1.78565 2.77126C1.78565 2.22692 2.20663 1.78564 2.72594 1.78564L21.8453 1.78565C22.3647 1.78565 22.7856 2.22692 22.7856 2.77126V17.884C22.7856 18.4283 22.3647 18.8696 21.8453 18.8696L12.3562 18.8696C10.9918 18.8696 9.6682 19.3346 8.6036 20.1879L5.4479 22.7174C5.23743 22.8861 4.93459 22.722 4.94429 22.4444L5.06398 19.0169" stroke="#D11B25" stroke-width="2" stroke-linecap="round"/>
<circle cx="12" cy="14" r="1" fill="#D11B25"/>
<path d="M10 7.81034C10 5.39655 14 5.39655 14 7.81035C14 9.44827 12 9.27586 12 11" stroke="#D11B25" stroke-width="1.6" stroke-linecap="round" stroke-linejoin="round"/>
</svg>
