<svg width="14" height="10" viewBox="0 0 14 10" fill="none" xmlns="http://www.w3.org/2000/svg">
<path d="M1.36749 5.30382C1.18025 5.10086 0.863922 5.08812 0.660961 5.27536C0.457999 5.46261 0.445259 5.77893 0.632505 5.9819L1.36749 5.30382ZM4 8.89464L3.63251 9.23368C3.72969 9.33902 3.8674 9.39759 4.01068 9.39453C4.15397 9.39147 4.28905 9.32706 4.38165 9.21767L4 8.89464ZM11.4869 0.823027C11.6653 0.61225 11.6391 0.296757 11.4283 0.118354C11.2175 -0.0600488 10.902 -0.0338041 10.7236 0.176973L11.4869 0.823027ZM0.632505 5.9819L3.63251 9.23368L4.36749 8.5556L1.36749 5.30382L0.632505 5.9819ZM4.38165 9.21767L11.4869 0.823027L10.7236 0.176973L3.61835 8.57162L4.38165 9.21767Z" fill="#D11B25"/>
<path d="M6.31117 9.16707C6.12722 9.37303 6.14506 9.68911 6.35102 9.87306C6.55697 10.057 6.87305 10.0392 7.057 9.83321L6.31117 9.16707ZM13.3728 2.76178C13.5567 2.55582 13.5389 2.23974 13.3329 2.05579C13.127 1.87185 12.8109 1.88969 12.627 2.09564L13.3728 2.76178ZM7.057 9.83321L13.3728 2.76178L12.627 2.09564L6.31117 9.16707L7.057 9.83321Z" fill="#D11B25"/>
</svg>
