<svg width="34" height="34" viewBox="0 0 34 34" fill="none" xmlns="http://www.w3.org/2000/svg">
<path d="M29.9338 1H20.6749C20.2945 1.00164 19.9181 1.07824 19.5674 1.22541C19.2167 1.37259 18.8985 1.58744 18.631 1.85768L1.8504 18.5927C1.30557 19.1431 1 19.8861 1 20.6603C1 21.4345 1.30557 22.1774 1.8504 22.7279L11.2729 32.142C11.5444 32.4139 11.8669 32.6297 12.222 32.777C12.5772 32.9242 12.9579 33 13.3423 33C13.7268 33 14.1075 32.9242 14.4626 32.777C14.8177 32.6297 15.1403 32.4139 15.4118 32.142L32.1413 15.4172C32.4182 15.142 32.6369 14.814 32.7844 14.4527C32.9319 14.0913 33.0051 13.704 32.9997 13.3138L32.8567 3.87935C32.8459 3.11197 32.5332 2.37966 31.9863 1.84082C31.4393 1.30198 30.702 0.999925 29.9338 1V1ZM27.5629 8.66807C27.1609 8.66794 26.7678 8.54936 26.4329 8.32714C26.0979 8.10493 25.836 7.78897 25.6799 7.41879C25.5239 7.04861 25.4805 6.64066 25.5553 6.24598C25.6301 5.85131 25.8198 5.48745 26.1005 5.19993C26.3813 4.91241 26.7407 4.714 27.1338 4.62954C27.5268 4.54507 27.9361 4.5783 28.3103 4.72506C28.6846 4.87182 29.0072 5.1256 29.2378 5.45464C29.4684 5.78368 29.5968 6.17336 29.6068 6.57492C29.6136 6.84736 29.5658 7.1184 29.4662 7.37209C29.3665 7.62577 29.217 7.85695 29.0265 8.05202C28.8361 8.24708 28.6084 8.40209 28.3571 8.50789C28.1057 8.61369 27.8357 8.66815 27.5629 8.66807Z" stroke="#000000" stroke-width="2"/>
<path d="M16.4284 11.7244C16.4204 11.6218 16.3917 11.5218 16.3437 11.43C16.2957 11.3383 16.2295 11.2565 16.1488 11.1895C16.0681 11.1224 15.9745 11.0713 15.8734 11.0392C15.7723 11.0071 15.6656 10.9945 15.5595 11.0022C15.4533 11.0099 15.3498 11.0377 15.2548 11.084C15.1597 11.1304 15.0751 11.1943 15.0057 11.2723C14.9362 11.3502 14.8834 11.4406 14.8501 11.5382C14.8168 11.6359 14.8038 11.7389 14.8118 11.8415L15.6201 22.2797C15.6366 22.4855 15.7369 22.6767 15.899 22.8113C16.0611 22.9459 16.2718 23.013 16.485 22.9979C16.6894 22.9841 16.8808 22.8957 17.0203 22.7508C17.1599 22.6059 17.2372 22.4151 17.2367 22.2172C17.2413 22.1966 17.2413 22.1753 17.2367 22.1547L16.4284 11.7244ZM20.5751 14.0197C20.0954 14.0197 19.6266 14.157 19.2278 14.4144C18.8291 14.6717 18.5182 15.0375 18.3347 15.4655C18.1512 15.8935 18.1031 16.3644 18.1967 16.8187C18.2903 17.2731 18.5212 17.6904 18.8604 18.018C19.1995 18.3455 19.6316 18.5686 20.102 18.659C20.5724 18.7493 21.0599 18.703 21.503 18.5257C21.9461 18.3484 22.3249 18.0482 22.5913 17.663C22.8578 17.2779 23 16.8251 23 16.3618C23 15.7406 22.7445 15.1449 22.2898 14.7057C21.835 14.2664 21.2182 14.0197 20.5751 14.0197ZM20.5751 17.1425C20.4152 17.1425 20.2589 17.0967 20.126 17.011C19.9931 16.9252 19.8895 16.8032 19.8283 16.6606C19.7671 16.5179 19.7511 16.361 19.7823 16.2095C19.8135 16.0581 19.8904 15.919 20.0035 15.8098C20.1165 15.7006 20.2606 15.6262 20.4174 15.5961C20.5742 15.566 20.7367 15.5814 20.8844 15.6405C21.0321 15.6996 21.1583 15.7997 21.2471 15.9281C21.336 16.0565 21.3834 16.2074 21.3834 16.3618C21.3834 16.5689 21.2982 16.7675 21.1466 16.9139C20.995 17.0603 20.7894 17.1425 20.5751 17.1425ZM11.4249 15.0424C10.9453 15.0424 10.4765 15.1798 10.0777 15.4371C9.67894 15.6945 9.36813 16.0603 9.18459 16.4883C9.00105 16.9162 8.95303 17.3872 9.0466 17.8415C9.14016 18.2958 9.37112 18.7132 9.71025 19.0407C10.0494 19.3683 10.4815 19.5913 10.9519 19.6817C11.4223 19.7721 11.9098 19.7257 12.3529 19.5484C12.796 19.3712 13.1748 19.071 13.4412 18.6858C13.7077 18.3006 13.8499 17.8478 13.8499 17.3846C13.8499 16.7634 13.5944 16.1676 13.1396 15.7284C12.6849 15.2892 12.0681 15.0424 11.4249 15.0424ZM11.4249 18.1653C11.2651 18.1653 11.1088 18.1195 10.9759 18.0337C10.8429 17.9479 10.7393 17.826 10.6782 17.6833C10.617 17.5407 10.601 17.3837 10.6322 17.2322C10.6633 17.0808 10.7403 16.9417 10.8534 16.8325C10.9664 16.7233 11.1105 16.649 11.2672 16.6188C11.424 16.5887 11.5866 16.6042 11.7343 16.6633C11.882 16.7224 12.0082 16.8224 12.097 16.9508C12.1859 17.0792 12.2333 17.2301 12.2333 17.3846C12.2333 17.5916 12.1481 17.7902 11.9965 17.9366C11.8449 18.083 11.6393 18.1653 11.4249 18.1653Z" fill="#000000"/>
</svg>
