<svg width="34" height="33" viewBox="0 0 34 33" fill="none" xmlns="http://www.w3.org/2000/svg">
<path d="M16.0489 1.92705C16.3483 1.00574 17.6517 1.00574 17.9511 1.92705L21.0413 11.4377C21.1751 11.8497 21.5591 12.1287 21.9923 12.1287H31.9924C32.9611 12.1287 33.3639 13.3683 32.5802 13.9377L24.4899 19.8156C24.1395 20.0702 23.9928 20.5216 24.1267 20.9336L27.2169 30.4443C27.5162 31.3656 26.4617 32.1317 25.678 31.5623L17.5878 25.6844C17.2373 25.4298 16.7627 25.4298 16.4122 25.6844L8.32198 31.5623C7.53826 32.1317 6.48378 31.3656 6.78314 30.4443L9.87333 20.9336C10.0072 20.5216 9.86055 20.0702 9.51006 19.8156L1.41982 13.9377C0.636108 13.3683 1.03889 12.1287 2.00761 12.1287H12.0077C12.4409 12.1287 12.8249 11.8497 12.9587 11.4377L16.0489 1.92705Z" stroke="#000000" stroke-width="2"/>
</svg>
