<svg width="54" height="54" viewBox="0 0 54 54" fill="none" xmlns="http://www.w3.org/2000/svg">
<path fill-rule="evenodd" clip-rule="evenodd" d="M36.2283 3.06706C39.1403 0.131815 43.3533 -0.66282 46.9903 0.54105L46.9931 0.541975C48.602 1.07822 48.7484 3.02496 47.7666 4.00671L43.5068 8.26609L45.7262 10.4853L49.9753 6.23667C50.9766 5.20147 52.9258 5.38799 53.4518 7.0017C54.7083 10.709 53.7763 14.9128 50.9494 17.7396C46.7562 21.9324 41.9455 20.82 40.0293 20.1792L20.172 40.0348C20.8163 41.9577 21.9304 46.7538 17.7502 50.9358C14.8693 53.8402 10.6555 54.6954 6.99812 53.4365C5.39736 52.8961 5.25349 50.9546 6.23344 49.9747L10.4932 45.7153L8.27372 43.4961L4.0246 47.7449C3.02317 48.78 1.07394 48.5933 0.548161 46.9795C-0.70826 43.2723 0.223716 39.0685 3.05062 36.2419C7.23367 32.0592 12.0316 33.1737 13.9549 33.8181L33.8062 13.9685C33.1618 12.0455 32.0477 7.24922 36.2283 3.06706ZM44.8212 2.93263C42.4818 2.57427 40.019 3.28042 38.2443 5.07046L38.2399 5.07482C34.8648 8.44963 36.2074 12.3155 36.6672 13.5277L36.6775 13.5548L36.6866 13.5823C36.895 14.2072 36.8053 15.0368 36.186 15.6081L15.5679 36.2244C15.0335 36.7587 14.274 36.9335 13.5687 36.6985L13.5412 36.6893L13.5141 36.679C12.3018 36.2192 8.4354 34.8767 5.06021 38.2516C3.3204 39.9913 2.56497 42.4617 2.93306 44.8171L6.75663 40.9939C7.59497 40.1556 8.95247 40.1556 9.79082 40.9939L12.9954 44.1982C13.8338 45.0366 13.8338 46.3941 12.9954 47.2325L9.16634 51.0612C11.4978 51.4392 13.9657 50.7164 15.7339 48.9328L15.7383 48.9284C19.1134 45.5536 17.7708 41.6877 17.311 40.4756L17.3007 40.4484L17.2915 40.4209C17.0832 39.796 17.1729 38.9665 17.7923 38.3951L38.4103 17.7788C38.9641 17.2251 39.7526 17.0786 40.4313 17.3048L40.4588 17.3139L40.4859 17.3242C41.6901 17.781 45.5613 19.1079 48.9398 15.7298C50.6796 13.9901 51.435 11.5197 51.0669 9.16428L47.2434 12.9876C46.405 13.8258 45.0475 13.8258 44.2092 12.9876L41.0045 9.78323C40.1661 8.94489 40.1661 7.58729 41.0045 6.74895L42.0093 7.75383L41.0045 6.74895L44.8212 2.93263Z" fill="#D11B25"/>
<path fill-rule="evenodd" clip-rule="evenodd" d="M8.02173 0.431963L17.6355 7.52728C18.3301 7.99038 18.5996 8.78087 18.548 9.44461L18.2202 14.4958L25.6441 21.6383L25.6593 21.6539C26.4876 22.5013 26.5426 23.9536 25.5641 24.8212L25.5583 24.8264L24.4715 25.7794L24.4478 25.7985C23.6641 26.4286 22.3707 26.5371 21.522 25.6186L14.4228 18.2259H13.2995V18.2036H9.85707C9.17614 18.2036 8.50791 17.8825 8.09858 17.275L1.12768 7.39632C0.507131 6.54957 0.582658 5.37843 1.32841 4.61542L5.21487 0.639034L6.23114 1.63231M22.7976 22.8436L23.1227 23.1822L23.1367 23.1699L22.7976 22.8436ZM15.4441 15.3615C15.3731 15.1169 15.3437 14.8549 15.3663 14.5854L15.6883 9.62254L6.81177 3.07131L3.75856 6.19517L10.2268 15.3615H15.4441ZM8.02173 0.431963C7.13651 -0.246533 5.92419 -0.0866974 5.21487 0.639034L6.23114 1.63231" fill="#D11B25"/>
<path fill-rule="evenodd" clip-rule="evenodd" d="M32.5383 27.9837L27.9915 32.3429L46.6092 50.8676L50.8835 46.5287L32.5383 27.9837ZM51.3544 46.0507L51.3523 46.0528C51.353 46.0521 51.3537 46.0514 51.3544 46.0507ZM34.0893 25.5104L53.3749 45.0059C54.208 45.8481 54.2085 47.2053 53.3763 48.048C53.3758 48.0485 53.3753 48.049 53.3749 48.0494L48.1433 53.3602L48.1412 53.3623C47.3008 54.2119 45.9345 54.2136 45.0921 53.3673L25.4976 33.8709L25.4936 33.8669C24.66 33.0242 24.66 31.6437 25.4936 30.8011L25.5069 30.7877L31.069 25.4551L31.076 25.4486C31.9139 24.6667 33.2533 24.6653 34.0893 25.5104Z" fill="#D11B25"/>
</svg>
