<svg width="34" height="34" viewBox="0 0 34 34" fill="none" xmlns="http://www.w3.org/2000/svg">
<path d="M21.6559 1.65362C15.7119 -0.109755 9.02389 1.75848 4.90489 6.48966C0.285888 11.793 -0.305112 19.7903 3.50489 25.7289C7.01689 31.2023 13.5729 33.8861 19.8489 32.7387C27.4209 31.354 32.8319 24.7322 32.9999 16.9508C32.8479 9.89117 28.3769 3.64708 21.6559 1.65362ZM16.4029 32.5727C8.34689 32.1909 1.95689 25.0753 1.95689 16.9498C1.95689 8.42204 9.04489 1.02544 17.5589 1.42861C25.7319 1.81652 31.8299 8.92397 32.0039 17.0516C31.8219 25.5752 25.0439 32.982 16.4029 32.5727Z" stroke="#000000" stroke-width="2"/>
<path d="M20.0119 19.1545C19.2917 18.7216 18.5715 18.2892 17.8514 17.8564C17.5727 17.6893 16.9466 17.4406 16.798 17.2237C16.6642 17.0292 16.7995 16.6301 16.7995 16.4159C16.7995 15.8137 16.7995 15.2116 16.7995 14.6094C16.7995 13.7334 16.7995 12.8578 16.7995 11.9817C16.7995 11.865 16.0569 11.8946 16.0569 12.0316C16.0569 12.9076 16.0569 13.7832 16.0569 14.6593C16.0569 15.2614 16.0569 15.8636 16.0569 16.4657C16.0569 16.6848 15.9231 17.0921 16.0658 17.2982C16.1921 17.481 16.727 17.7014 16.9504 17.8357C17.6489 18.2555 18.3474 18.6754 19.0459 19.0948C20.1225 19.7418 21.199 20.3884 22.2756 21.0355C22.434 21.1307 23.1153 21.0198 22.9831 20.9403C21.9932 20.3449 21.0026 19.7499 20.0119 19.1545Z" stroke="#000000" stroke-width="2"/>
</svg>
