<svg width="20" height="18" viewBox="0 0 20 18" fill="none" xmlns="http://www.w3.org/2000/svg">
<mask id="path-1-inside-1" fill="white">
<path d="M0 2C0 0.89543 0.895431 0 2 0H18C19.1046 0 20 0.895431 20 2V13C20 14.1046 19.1046 15 18 15H10L7.5 18L5.5 15H2C0.895431 15 0 14.1046 0 13V2Z"/>
</mask>
<path d="M7.5 18L6.66795 18.5547C6.84296 18.8172 7.1316 18.9817 7.44666 18.9986C7.76172 19.0154 8.06624 18.8826 8.26822 18.6402L7.5 18ZM10 15V14C9.70322 14 9.42177 14.1318 9.23178 14.3598L10 15ZM5.5 15L6.33205 14.4453C6.14658 14.1671 5.83435 14 5.5 14V15ZM2 1H18V-1H2V1ZM19 2V13H21V2H19ZM1 13V2H-1V13H1ZM18 14H10V16H18V14ZM9.23178 14.3598L6.73178 17.3598L8.26822 18.6402L10.7682 15.6402L9.23178 14.3598ZM8.33205 17.4453L6.33205 14.4453L4.66795 15.5547L6.66795 18.5547L8.33205 17.4453ZM5.5 14H2V16H5.5V14ZM-1 13C-1 14.6569 0.343146 16 2 16V14C1.44772 14 1 13.5523 1 13H-1ZM19 13C19 13.5523 18.5523 14 18 14V16C19.6569 16 21 14.6569 21 13H19ZM18 1C18.5523 1 19 1.44772 19 2H21C21 0.343146 19.6569 -1 18 -1V1ZM2 -1C0.343146 -1 -1 0.343146 -1 2H1C1 1.44772 1.44772 1 2 1V-1Z" fill="black" mask="url(#path-1-inside-1)"/>
</svg>
