<svg width="82" height="84" viewBox="0 0 82 84" fill="none" xmlns="http://www.w3.org/2000/svg">
<path d="M17.2174 6.02954H6C3.79086 6.02954 2 7.82041 2 10.0295V78C2 80.2092 3.79087 82 6.00001 82H56.5285C58.7376 82 60.5285 80.2092 60.5285 78V67.6117V10.0295C60.5285 7.8204 58.7376 6.02954 56.5285 6.02954H46.4817" stroke="#EAEAEA" stroke-width="4" stroke-linecap="round" stroke-linejoin="round"/>
<path d="M42.4825 2H21.2183C19.0091 2 17.2183 3.79086 17.2183 6V13.5394C17.2183 15.7486 19.0091 17.5394 21.2183 17.5394H40.337H42.4825C44.6917 17.5394 46.4825 15.7486 46.4825 13.5394V6C46.4825 3.79086 44.6916 2 42.4825 2Z" stroke="#EAEAEA" stroke-width="4" stroke-linecap="round" stroke-linejoin="round"/>
<path d="M13.7075 33.6543H48.8246" stroke="#EAEAEA" stroke-width="4" stroke-linecap="round"/>
<path d="M13.7075 48.6184H48.8246" stroke="#EAEAEA" stroke-width="4" stroke-linecap="round"/>
<path d="M13.7075 63.0067H31.2661" stroke="#EAEAEA" stroke-width="4" stroke-linecap="round"/>
<path d="M34.9481 50.5195L36.3375 49.0809C35.824 48.6013 35.0919 48.4222 34.4092 48.6089C33.7264 48.7957 33.1931 49.321 33.0043 49.9927L34.9481 50.5195ZM30.175 67.5007L28.2312 66.9739L27.0764 71.0823L31.0155 69.3027L30.175 67.5007ZM45.6466 60.511L46.4872 62.313C47.0956 62.0382 47.5259 61.4845 47.6359 60.8352C47.7459 60.1859 47.5211 59.5255 47.036 59.0725L45.6466 60.511ZM33.0043 49.9927L28.2312 66.9739L32.1187 68.0275L36.8918 51.0463L33.0043 49.9927ZM31.0155 69.3027L46.4872 62.313L44.806 58.7091L29.3344 65.6987L31.0155 69.3027ZM33.5587 51.9581L44.2572 61.9496L47.036 59.0725L36.3375 49.0809L33.5587 51.9581Z" fill="#EAEAEA"/>
<path d="M36.4777 50.9077L70.463 15.72L79.1452 23.8337L45.16 59.0214L36.4777 50.9077Z" fill="white" stroke="#EAEAEA" stroke-width="4"/>
</svg>
