<svg width="33" height="45" viewBox="0 0 33 45" fill="none" xmlns="http://www.w3.org/2000/svg">
<path d="M9.0432 3.16547H5.00003C2.79089 3.16547 1.00003 4.95633 1.00003 7.16547V40C1.00003 42.2091 2.79089 44 5.00003 44H27.9353C30.1444 44 31.9353 42.2091 31.9353 40V36.2662V7.16547C31.9353 4.95633 30.1444 3.16547 27.9353 3.16547H24.5108" stroke="#000000" stroke-width="2" stroke-linecap="round" stroke-linejoin="round"/>
<path d="M20.5109 1H13.0433C10.8342 1 9.04329 2.79086 9.04329 5V5.35252C9.04329 7.56166 10.8342 9.35252 13.0433 9.35252H21.2627C23.0566 9.35252 24.5109 7.89825 24.5109 6.10432V5C24.5109 2.79086 22.7201 1 20.5109 1Z" stroke="#000000" stroke-width="2" stroke-linecap="round" stroke-linejoin="round"/>
<path d="M7.18721 18.0144H25.7484" stroke="#000000" stroke-width="2" stroke-linecap="round"/>
<path d="M7.18721 26.0575H25.7484" stroke="#000000" stroke-width="2" stroke-linecap="round"/>
<path d="M7 34H26" stroke="#000000" stroke-width="2" stroke-linecap="round"/>
</svg>
