<svg width="34" height="34" viewBox="0 0 34 34" fill="none" xmlns="http://www.w3.org/2000/svg">
<path d="M9.48277 18.475L17.0001 25.9923L24.5093 18.475L24.5579 18.4345C25.5936 17.3987 26.1115 16.0393 26.1115 14.6799C26.1115 13.3205 25.5936 11.961 24.5579 10.9172C22.4783 8.84566 19.0797 10.9285 17.0001 13C14.9286 10.9285 11.5138 8.84565 9.44231 10.9172C8.40656 11.961 7.88867 13.3204 7.88867 14.6799C7.88867 16.0393 8.40656 17.3987 9.44231 18.4345L9.48277 18.475L17.0001 25.9923L24.5093 18.475" stroke="#000000" stroke-width="2" stroke-miterlimit="10" stroke-linecap="round" stroke-linejoin="round"/>
<path d="M17 33C25.8366 33 33 25.8366 33 17C33 8.16344 25.8366 1 17 1C8.16344 1 1 8.16344 1 17C1 25.8366 8.16344 33 17 33Z" stroke="#000000" stroke-width="2" stroke-miterlimit="10" stroke-linecap="round" stroke-linejoin="round"/>
</svg>
