<svg width="56" height="56" viewBox="0 0 56 56" fill="none" xmlns="http://www.w3.org/2000/svg">
<rect x="1.5" y="1.5" width="53" height="53" rx="26.5" fill="white" stroke="#D11B25" stroke-width="3"/>
<path d="M32.064 14.944L31.128 30.28H25.512L24.576 14.944H32.064ZM28.32 33.304C29.352 33.304 30.228 33.676 30.948 34.42C31.668 35.14 32.028 36.004 32.028 37.012C32.028 38.02 31.668 38.896 30.948 39.64C30.228 40.36 29.352 40.72 28.32 40.72C27.288 40.72 26.412 40.36 25.692 39.64C24.972 38.896 24.612 38.02 24.612 37.012C24.612 36.004 24.972 35.14 25.692 34.42C26.412 33.676 27.288 33.304 28.32 33.304Z" fill="#D11B25"/>
</svg>
