<svg width="48" height="48" viewBox="0 0 48 48" fill="none" xmlns="http://www.w3.org/2000/svg">
<rect x="13" y="23" width="4" height="11" fill="#F6D1D3"/>
<path fill-rule="evenodd" clip-rule="evenodd" d="M27.5867 14.0101C27.0585 14.5728 26.3725 15.5978 25.472 17.2894C24.5066 19.103 23.1327 20.5901 22.1887 21.3853C21.5348 21.9357 21.2659 22.481 21.1521 22.8624C21.0942 23.0565 21.0747 23.2143 21.0689 23.3159C21.066 23.3666 21.0665 23.4028 21.0672 23.422C21.0674 23.4276 21.0677 23.4318 21.0678 23.4343L21.0719 23.4681V31.8849C21.0719 33.3366 22.2528 34.4682 23.6519 34.4682H32.2425C33.1031 34.4682 33.6189 34.3109 33.9143 34.0792C34.1757 33.8743 34.4 33.5023 34.4 32.7223L34.3996 23.5119C34.3996 22.0603 33.2186 20.9286 31.8196 20.9286H27.7284L28.3118 19.8185C28.7784 18.9307 29.3624 17.437 29.4747 16.0895C29.5307 15.4172 29.4634 14.8464 29.266 14.4177C29.0821 14.0186 28.7732 13.7098 28.2299 13.5352C28.2261 13.534 28.2258 13.534 28.2236 13.5342C28.2188 13.5345 28.1931 13.5371 28.1435 13.559C28.0347 13.6071 27.8499 13.7297 27.5867 14.0101ZM28.7389 12.083C27.8404 11.7943 27.0428 12.2978 26.3965 12.9863C25.7223 13.7047 24.9594 14.8789 24.0464 16.5939C23.1859 18.2105 21.9472 19.5484 21.132 20.2352C20.2306 20.9939 19.8052 21.7996 19.6136 22.4417C19.5188 22.7593 19.4828 23.0315 19.4713 23.2319C19.4656 23.3322 19.4659 23.415 19.4683 23.477C19.4692 23.5027 19.4705 23.525 19.4719 23.5434V31.8849C19.4719 34.1324 21.3177 36 23.6519 36H32.2425C33.2485 36 34.2114 35.8262 34.9281 35.2643C35.6788 34.6757 36 33.7918 36 32.7222L35.9996 23.5119C35.9996 21.2644 34.1537 19.3968 31.8196 19.3968H30.2528C30.6298 18.4672 30.9771 17.321 31.0696 16.2113C31.137 15.4027 31.0749 14.5485 30.7299 13.7996C30.3713 13.0211 29.7246 12.3998 28.7389 12.083ZM12 23.4906C12 22.7856 12.597 22.2141 13.3333 22.2141H16.5333C17.2697 22.2141 17.8667 22.7856 17.8667 23.4906V33.7024C17.8667 34.4073 17.2697 34.9788 16.5333 34.9788H13.3333C12.597 34.9788 12 34.4073 12 33.7024V23.4906ZM13.5 23.5V33.7024H16.6098V23.477L13.5 23.5Z" fill="#D11B25"/>
</svg>
