<svg width="48" height="48" viewBox="0 0 48 48" fill="none" xmlns="http://www.w3.org/2000/svg">
<path d="M30.4445 12.6538H17.5556C17.0647 12.6538 16.6667 13.0442 16.6667 13.5257V30.9641C16.6667 31.4457 17.0647 31.8361 17.5556 31.8361H24.0001H30.4445C30.9354 31.8361 31.3334 31.4457 31.3334 30.9641V13.5257C31.3334 13.0442 30.9354 12.6538 30.4445 12.6538Z" fill="#F6D1D3"/>
<path fill-rule="evenodd" clip-rule="evenodd" d="M16 13.5259C16 12.6832 16.6964 12 17.5556 12H30.4444C31.3036 12 32 12.6832 32 13.5259V30.9643C32 31.807 31.3036 32.4901 30.4444 32.4901H17.5556C16.6964 32.4901 16 31.807 16 30.9643V13.5259ZM17.5556 13.3079C17.4328 13.3079 17.3333 13.4055 17.3333 13.5259V30.9643C17.3333 31.0847 17.4328 31.1823 17.5556 31.1823H30.4444C30.5672 31.1823 30.6667 31.0847 30.6667 30.9643V13.5259C30.6667 13.4055 30.5672 13.3079 30.4444 13.3079H17.5556Z" fill="#D11B25" stroke="#D11B25" stroke-width="0.2"/>
<path d="M21.2745 15.943L30.1634 13.0366C30.739 12.8484 31.3334 13.2687 31.3334 13.8638V30.9875C31.3334 31.3441 31.112 31.6648 30.7744 31.7971L21.8855 35.2821C21.3017 35.511 20.6667 35.0892 20.6667 34.4725V16.7702C20.6667 16.3949 20.9116 16.0617 21.2745 15.943Z" fill="white"/>
<path fill-rule="evenodd" clip-rule="evenodd" d="M30.6667 13.8639C30.6667 13.7152 30.5181 13.6101 30.3742 13.6572L21.4853 16.5636C21.3945 16.5932 21.3333 16.6765 21.3333 16.7703V34.4726C21.3333 34.6268 21.4921 34.7323 21.638 34.675L30.5269 31.1901C30.6113 31.157 30.6667 31.0768 30.6667 30.9876V13.8639ZM29.9525 12.4164C30.9598 12.087 32 12.8225 32 13.8639V30.9876C32 31.6117 31.6126 32.1729 31.0218 32.4045L22.1329 35.8895C21.1112 36.2901 20 35.552 20 34.4726V16.7703C20 16.1136 20.4284 15.5305 21.0636 15.3228L21.2745 15.9432L21.0636 15.3228L29.9525 12.4164Z" fill="#D11B25" stroke="#D11B25" stroke-width="0.2"/>
</svg>
