<svg width="48" height="48" viewBox="0 0 48 48" fill="none" xmlns="http://www.w3.org/2000/svg">
<path d="M33.6354 25.664C33.5478 25.5764 33.4602 25.4888 33.3726 25.4013L33.1974 25.3137L33.0222 25.2261C32.9346 25.2261 32.7595 25.3137 32.6719 25.3137C32.4967 25.4013 32.4091 25.5764 32.3215 25.8392C31.7083 28.3793 30.0441 30.3939 27.6791 31.5326C27.6791 31.3574 27.6791 31.2698 27.6791 31.0947C27.5915 30.9195 27.5039 30.7443 27.2411 30.6567C26.8908 30.4815 26.3652 30.6567 26.19 31.0071L25.4893 32.4961C25.4017 32.6713 25.4017 32.9341 25.4893 33.1092C25.5769 33.2844 25.6645 33.4596 25.9272 33.5472L27.4163 34.2479C27.5039 34.3355 27.6791 34.3355 27.7667 34.3355C28.0295 34.3355 28.3798 34.1603 28.4674 33.8976C28.6426 33.5472 28.555 33.1968 28.2922 33.0216C31.0952 31.7954 33.1974 29.2552 33.8982 26.2772C33.723 26.0144 33.723 25.8392 33.6354 25.664Z" fill="#D11B25"/>
<path d="M21.5471 14.4526L20.0581 13.7518C19.7077 13.5766 19.1821 13.7518 19.0069 14.1022C18.9194 14.2774 18.9194 14.4526 19.0069 14.7153C19.0945 14.8905 19.1821 15.0657 19.3573 15.1533C18.2186 15.6788 17.2551 16.3795 16.4668 17.343C15.3281 18.5693 14.6273 20.1459 14.1894 21.8102C14.1018 21.9854 14.1894 22.2481 14.277 22.4233C14.3645 22.5985 14.5397 22.6861 14.8025 22.7737C14.8901 22.7737 14.8901 22.7737 14.9777 22.7737C15.3281 22.7737 15.6784 22.5109 15.766 22.1605C16.1164 20.7591 16.7295 19.4452 17.6931 18.3941C18.3062 17.6934 18.9194 17.1679 19.7077 16.7299C19.7077 16.8175 19.7077 16.9051 19.7077 16.9051C19.7953 17.0803 19.8829 17.2555 20.1456 17.343C20.496 17.5182 21.0216 17.343 21.1968 16.9927L21.8975 15.5036C22.0727 15.0657 21.8975 14.6277 21.5471 14.4526Z" fill="#D11B25"/>
<path fill-rule="evenodd" clip-rule="evenodd" d="M35.3872 17.6932V19.3575C35.3872 19.5326 35.212 19.7078 35.0368 19.7078H34.3361C34.1609 19.7078 34.0733 19.7954 33.9857 19.9706C33.8981 20.321 33.7229 20.5837 33.6353 20.9341C33.5477 21.0217 33.5477 21.1969 33.7229 21.2845L34.2485 21.81C34.3361 21.8976 34.3361 22.1604 34.2485 22.248L33.1098 23.3866C33.0222 23.4742 32.7594 23.4742 32.6718 23.3866L32.1463 22.8611C32.0587 22.7735 31.8835 22.7735 31.7959 22.7735C31.5331 22.9487 31.1827 23.0363 30.8324 23.1239C30.6572 23.1239 30.5696 23.299 30.5696 23.4742V24.175C30.5696 24.3501 30.3944 24.5253 30.2192 24.5253H28.555C28.3798 24.5253 28.2046 24.3501 28.2046 24.175V23.4742C28.2046 23.299 28.117 23.2115 27.9418 23.1239C27.5915 23.0363 27.3287 22.8611 26.9783 22.7735C26.8907 22.6859 26.7155 22.6859 26.6279 22.8611L26.1024 23.3866C26.0148 23.4742 25.752 23.4742 25.6644 23.3866L24.6133 22.1604C24.5257 22.0728 24.5257 21.81 24.6133 21.7224L25.1389 21.1969C25.2265 21.1093 25.2265 20.9341 25.2265 20.8465C25.0513 20.5837 24.9637 20.2334 24.8761 19.883C24.8761 19.7078 24.7009 19.6202 24.5257 19.6202H23.825C23.6498 19.6202 23.4746 19.4451 23.4746 19.2699V17.6932C23.4746 17.5181 23.6498 17.3429 23.825 17.3429H24.5257C24.7009 17.3429 24.7885 17.2553 24.8761 17.0801C24.9637 16.7297 25.1389 16.467 25.2265 16.1166C25.3141 16.029 25.3141 15.8538 25.1389 15.7662L24.6133 15.2407C24.5257 15.1531 24.5257 14.8903 24.6133 14.8027L25.752 13.7517C25.8396 13.6641 26.1024 13.6641 26.19 13.7517L26.7155 14.2772C26.8031 14.3648 26.9783 14.3648 27.0659 14.3648C27.3287 14.1896 27.679 14.102 28.0294 14.0144C28.2046 14.0144 28.2922 13.8393 28.2922 13.6641V12.8758C28.2922 12.7006 28.3798 12.5254 28.555 12.5254H30.2192C30.3944 12.5254 30.5696 12.7006 30.5696 12.8758V13.5765C30.5696 13.7517 30.6572 13.8393 30.8324 13.9268C31.1827 14.0144 31.4455 14.1896 31.7959 14.2772C31.8835 14.3648 32.0587 14.3648 32.1463 14.1896L32.6718 13.6641C32.7594 13.5765 33.0222 13.5765 33.1098 13.6641L34.2485 14.8027C34.3361 14.8903 34.3361 15.1531 34.2485 15.2407L33.7229 15.7662C33.6353 15.8538 33.6353 16.029 33.6353 16.1166C33.8105 16.3794 33.8981 16.7297 33.9857 17.0801C33.9857 17.2553 34.1609 17.3429 34.3361 17.3429H35.0368C35.212 17.4305 35.3872 17.5181 35.3872 17.6932ZM31.0076 18.6567C31.0076 19.6202 30.2192 20.4086 29.2557 20.4086C28.2922 20.4086 27.5039 19.6202 27.5039 18.6567C27.5039 17.6932 28.2922 16.9049 29.2557 16.9049C30.2192 16.9049 31.0076 17.6932 31.0076 18.6567Z" fill="#F6D1D3"/>
<path d="M24.2629 27.5037H23.7374C23.6498 27.3285 23.5622 27.0658 23.4746 26.8906L23.825 26.5402C24.0002 26.365 24.0878 26.1023 24.0878 25.8395C24.0878 25.5767 24.0002 25.3139 23.825 25.1388L22.6863 24.0001C22.3359 23.6497 21.6352 23.6497 21.2848 24.0001L20.9344 24.3504C20.7592 24.2629 20.4965 24.1753 20.3213 24.0877V23.5621C20.3213 23.0366 19.8833 22.5986 19.3578 22.5986H17.7811C17.2555 22.5986 16.8176 23.0366 16.8176 23.5621V24.0877C16.6424 24.1753 16.3796 24.2629 16.2044 24.3504L15.8541 24.0001C15.6789 23.8249 15.4161 23.7373 15.1533 23.7373C14.8906 23.7373 14.6278 23.8249 14.4526 24.0001L13.3139 25.1388C13.1387 25.3139 13.0511 25.5767 13.0511 25.8395C13.0511 26.1023 13.1387 26.365 13.3139 26.5402L13.6643 26.8906C13.5767 27.0658 13.4891 27.3285 13.4015 27.5037H12.9635C12.438 27.5037 12 27.9417 12 28.4672V30.1314C12 30.657 12.438 31.0949 12.9635 31.0949H13.4891C13.5767 31.2701 13.6643 31.5329 13.7518 31.7081L13.4015 32.0584C13.2263 32.2336 13.1387 32.4964 13.1387 32.7592C13.1387 33.0219 13.2263 33.2847 13.4015 33.4599L14.5402 34.5986C14.7154 34.7737 14.9781 34.8613 15.2409 34.8613C15.5037 34.8613 15.7665 34.7737 15.9417 34.5986L16.292 34.2482C16.4672 34.3358 16.73 34.4234 16.9052 34.511V35.0365C16.9052 35.5621 17.3431 36 17.8687 36H19.533C20.0585 36 20.4965 35.5621 20.4965 35.0365V34.511C20.6717 34.4234 20.9344 34.3358 21.1096 34.2482L21.46 34.5986C21.8104 34.9489 22.5111 34.9489 22.8615 34.5986L24.0002 33.4599C24.1754 33.2847 24.2629 33.0219 24.2629 32.7592C24.2629 32.4964 24.1754 32.2336 24.0002 32.0584L23.6498 31.7081C23.7374 31.5329 23.825 31.2701 23.9126 31.0949H24.4381C24.9637 31.0949 25.4017 30.657 25.4017 30.1314V28.4672C25.2265 27.9417 24.7885 27.5037 24.2629 27.5037ZM23.9126 29.7811H23.5622C23.1242 29.7811 22.7739 30.0438 22.5987 30.4818C22.5111 30.7446 22.4235 31.0073 22.2483 31.2701C22.0731 31.6205 22.0731 32.146 22.4235 32.4088L22.6863 32.6716L21.9855 33.3723L21.7228 33.1095C21.46 32.8467 20.9344 32.7591 20.5841 32.9343C20.3213 33.1095 20.0585 33.1971 19.7957 33.2847C19.3578 33.3723 19.095 33.8102 19.095 34.2482V34.5986H18.1315V34.2482C18.1315 33.8102 17.8687 33.4599 17.4307 33.2847C17.168 33.1971 16.9052 33.1095 16.6424 32.9343C16.292 32.7591 15.7665 32.7592 15.5037 33.1095L15.2409 33.3723L14.5402 32.6716L14.803 32.4088C15.1533 32.0584 15.1533 31.6205 14.9781 31.2701C14.803 31.0073 14.7154 30.7446 14.6278 30.4818C14.5402 30.0438 14.1022 29.7811 13.6643 29.7811H13.3139V28.8176H13.6643C14.1022 28.8176 14.4526 28.5548 14.6278 28.1168C14.7154 27.8541 14.803 27.5913 14.9781 27.3285C15.1533 26.9782 15.1533 26.4526 14.803 26.1899L14.5402 25.9271L15.2409 25.2264L15.5037 25.4891C15.8541 25.8395 16.292 25.8395 16.6424 25.6643C16.9052 25.4891 17.168 25.4015 17.4307 25.3139C17.8687 25.1388 18.1315 24.7884 18.1315 24.3504V24.0001H19.095V24.3504C19.095 24.7884 19.3578 25.1388 19.7957 25.3139C20.0585 25.4015 20.3213 25.4891 20.5841 25.6643C20.9344 25.8395 21.46 25.8395 21.7228 25.4891L21.9855 25.2264L22.6863 25.9271L22.4235 26.1899C22.1607 26.4526 22.0731 26.9782 22.2483 27.3285C22.4235 27.5913 22.5111 27.8541 22.5987 28.1168C22.6863 28.5548 23.1242 28.8176 23.5622 28.8176H23.9126V29.7811Z" fill="#D11B25"/>
<path d="M18.5695 26.7153C17.168 26.7153 16.0293 27.854 16.0293 29.2555C16.0293 30.6569 17.168 31.7956 18.5695 31.7956C19.971 31.7956 21.1097 30.6569 21.1097 29.2555C21.1097 27.854 20.0586 26.7153 18.5695 26.7153ZM18.5695 30.5693C17.8687 30.5693 17.3432 30.0438 17.3432 29.3431C17.3432 28.6423 17.8687 28.1168 18.5695 28.1168C19.2702 28.1168 19.7958 28.6423 19.7958 29.3431C19.7958 30.0438 19.2702 30.5693 18.5695 30.5693Z" fill="#D11B25"/>
<path d="M34.9489 16.9051H34.4234C34.3358 16.7299 34.2482 16.4671 34.1606 16.2919L34.511 15.9416C34.6862 15.7664 34.7737 15.5036 34.7737 15.2409C34.7737 14.9781 34.6862 14.7153 34.511 14.5401L33.3723 13.4015C33.0219 13.0511 32.3212 13.0511 31.9708 13.4015L31.6204 13.7518C31.4452 13.6642 31.1825 13.5766 31.0073 13.489V12.9635C31.0073 12.438 30.5693 12 30.0438 12H28.3795C27.8539 12 27.416 12.438 27.416 12.9635V13.489C27.2408 13.5766 26.978 13.6642 26.8028 13.7518L26.5401 13.4015C26.3649 13.2263 26.1021 13.1387 25.8393 13.1387C25.5765 13.1387 25.3138 13.2263 25.1386 13.4015L23.9999 14.5401C23.8247 14.7153 23.7371 14.9781 23.7371 15.2409C23.7371 15.5036 23.8247 15.7664 23.9999 15.9416L24.3502 16.2919C24.2626 16.4671 24.1751 16.7299 24.0875 16.9051H23.5619C23.0364 16.9051 22.5984 17.343 22.5984 17.8686V19.5328C22.5984 20.0583 23.0364 20.4963 23.5619 20.4963H24.0875C24.1751 20.6715 24.2626 20.9342 24.3502 21.1094L23.9999 21.3722C23.8247 21.5474 23.7371 21.8102 23.7371 22.0729C23.7371 22.3357 23.8247 22.5985 23.9999 22.7737L25.1386 23.9123C25.3138 24.0875 25.5765 24.1751 25.8393 24.1751C26.1021 24.1751 26.3649 24.0875 26.5401 23.9123L26.8904 23.562C27.0656 23.6496 27.3284 23.7372 27.5036 23.8247V24.3503C27.5036 24.8758 27.9415 25.3138 28.4671 25.3138H30.1313C30.6569 25.3138 31.0949 24.8758 31.0949 24.3503V23.8247C31.27 23.7372 31.5328 23.6496 31.708 23.562L32.0584 23.9123C32.4087 24.2627 33.1095 24.2627 33.4599 23.9123L34.5986 22.7737C34.7737 22.5985 34.8613 22.3357 34.8613 22.0729C34.8613 21.8102 34.7737 21.5474 34.5986 21.3722L34.2482 21.0218C34.3358 20.8467 34.4234 20.5839 34.511 20.4087H35.0365C35.5621 20.4087 36 19.9708 36 19.4452V17.8686C35.9124 17.343 35.4745 16.9051 34.9489 16.9051ZM34.5986 19.0948H34.2482C33.8102 19.0948 33.4599 19.3576 33.2847 19.7956C33.1971 20.0583 33.1095 20.3211 32.9343 20.5839C32.7591 20.9342 32.7591 21.4598 33.1095 21.7226L33.3723 21.9853L32.6715 22.6861L32.4087 22.4233C32.146 22.1605 31.6204 22.0729 31.27 22.2481C31.0073 22.4233 30.7445 22.5109 30.4817 22.5985C30.0438 22.6861 29.781 23.124 29.781 23.562V23.9123H28.8175V23.562C28.8175 23.124 28.5547 22.7737 28.1167 22.5985C27.8539 22.5109 27.5912 22.4233 27.3284 22.2481C26.978 22.0729 26.4525 22.0729 26.1897 22.4233L25.9269 22.6861L25.2262 21.9853L25.4889 21.7226C25.8393 21.3722 25.8393 20.9342 25.6641 20.5839C25.4889 20.3211 25.4013 20.0583 25.3138 19.7956C25.2262 19.3576 24.7882 19.0948 24.3502 19.0948H23.9999V18.2189H24.3502C24.7882 18.2189 25.1386 17.9562 25.3138 17.5182C25.4013 17.2554 25.4889 16.9927 25.6641 16.7299C25.8393 16.3795 25.8393 15.854 25.4889 15.5912L25.2262 15.3284L25.9269 14.6277L26.1897 14.8905C26.5401 15.2409 26.978 15.2409 27.3284 15.0657C27.5912 14.8905 27.8539 14.8029 28.1167 14.7153C28.5547 14.6277 28.8175 14.1898 28.8175 13.7518V13.3139H29.781V13.6642C29.781 14.1022 30.0438 14.4525 30.4817 14.6277C30.7445 14.7153 31.0073 14.8029 31.27 14.9781C31.6204 15.1533 32.146 15.1533 32.4087 14.8029L32.6715 14.5401L33.3723 15.2409L33.1095 15.5036C32.7591 15.7664 32.7591 16.2919 32.9343 16.6423C33.1095 16.9051 33.1971 17.1678 33.2847 17.4306C33.3723 17.8686 33.8102 18.1313 34.2482 18.1313H34.5986V19.0948Z" fill="#D11B25"/>
<path d="M29.2553 16.1167C27.8538 16.1167 26.7151 17.2554 26.7151 18.6568C26.7151 20.0583 27.8538 21.197 29.2553 21.197C30.6567 21.197 31.7955 20.0583 31.7955 18.6568C31.7955 17.2554 30.6567 16.1167 29.2553 16.1167ZM29.2553 19.8831C28.5545 19.8831 28.029 19.3576 28.029 18.6568C28.029 17.9561 28.5545 17.4306 29.2553 17.4306C29.956 17.4306 30.4816 17.9561 30.4816 18.6568C30.4816 19.3576 29.956 19.8831 29.2553 19.8831Z" fill="#D11B25"/>
</svg>
