<svg width="48" height="48" viewBox="0 0 48 48" fill="none" xmlns="http://www.w3.org/2000/svg">
<path fill-rule="evenodd" clip-rule="evenodd" d="M20.8828 28.3943C20.7548 28.4004 20.6261 28.4035 20.4966 28.4035C16.1088 28.4035 12.5518 24.8546 12.5518 20.4769C12.5518 16.0992 16.1088 12.5503 20.4966 12.5503C24.8844 12.5503 28.4414 16.0992 28.4414 20.4769C28.4414 22.507 27.6765 24.3589 26.4185 25.7612H21.7656C21.278 25.7612 20.8828 26.1555 20.8828 26.642V28.3943Z" fill="#F6D1D3"/>
<path d="M34.5655 25.211H31.5498C32.4391 23.1389 32.7276 20.8593 32.3825 18.6316C32.3602 18.4873 32.2813 18.3578 32.1633 18.2715C32.0452 18.1852 31.8977 18.1493 31.753 18.1716C31.6084 18.1939 31.4786 18.2725 31.3921 18.3903C31.3057 18.5081 31.2696 18.6553 31.292 18.7996C31.3776 19.3547 31.4207 19.9155 31.4207 20.4771C31.426 22.1166 31.0562 23.7357 30.3393 25.211H27.5452C28.49 23.8123 28.9942 22.1638 28.9931 20.4771C28.9931 15.8028 25.1816 12 20.4966 12C15.8115 12 12 15.8028 12 20.4771C12 25.0961 15.7222 28.8637 20.331 28.952V31.3741C18.9421 31.3563 17.5695 31.0724 16.2878 30.5379C16.1528 30.4816 16.0009 30.4811 15.8655 30.5365C15.7301 30.5919 15.6223 30.6987 15.5659 30.8334C15.5094 30.9681 15.5089 31.1197 15.5644 31.2548C15.62 31.3899 15.7271 31.4974 15.8621 31.5537C17.2785 32.1446 18.7959 32.4574 20.331 32.4751V34.5688C20.3315 34.9482 20.4827 35.312 20.7517 35.5803C21.0206 35.8486 21.3852 35.9996 21.7655 36H34.5655C34.9458 35.9996 35.3104 35.8486 35.5794 35.5803C35.8483 35.312 35.9996 34.9482 36 34.5688V26.6422C35.9996 26.2628 35.8483 25.899 35.5794 25.6307C35.3104 25.3624 34.9458 25.2114 34.5655 25.211ZM34.8966 26.6422V27.4128H21.4345V26.6422C21.4346 26.5546 21.4695 26.4707 21.5315 26.4088C21.5936 26.3468 21.6777 26.312 21.7655 26.3119H34.5655C34.6533 26.312 34.7374 26.3468 34.7995 26.4088C34.8616 26.4707 34.8965 26.5546 34.8966 26.6422ZM34.8966 29.2294H21.4345V28.5138H34.8966V29.2294ZM13.1034 20.4771C13.1031 19.7689 13.2053 19.0643 13.4069 18.3853H16.5347C16.3737 19.7752 16.3737 21.1789 16.5347 22.5688H13.4069C13.2053 21.8898 13.1031 21.1853 13.1034 20.4771ZM17.5172 20.4771C17.5162 19.7779 17.5588 19.0793 17.6447 18.3853H23.3484C23.4343 19.0793 23.4769 19.7779 23.4759 20.4771C23.4764 21.1763 23.4334 21.8749 23.347 22.5688H17.6447C17.5588 21.8749 17.5162 21.1763 17.5172 20.4771ZM20.4966 13.1009C21.5261 13.1009 22.6414 14.7181 23.1677 17.2844H17.8254C18.3517 14.7181 19.467 13.1009 20.4966 13.1009ZM27.8897 20.4771C27.8896 21.1852 27.7874 21.8897 27.5862 22.5688H24.4573C24.5387 21.8745 24.5795 21.1761 24.5793 20.4771C24.5797 19.7781 24.5394 19.0796 24.4585 18.3853H27.5862C27.7878 19.0643 27.89 19.7689 27.8897 20.4771ZM23.1658 23.6697C23.0609 24.1925 22.9203 24.7074 22.7449 25.211H21.7655C21.3852 25.2114 21.0206 25.3624 20.7517 25.6307C20.4827 25.899 20.3315 26.2628 20.331 26.6422V27.839C19.3496 27.6773 18.3236 26.0991 17.8254 23.6697H23.1658ZM23.9072 25.211C24.0649 24.7052 24.1926 24.1905 24.2897 23.6697H27.1617C26.8952 24.2229 26.5604 24.7407 26.1651 25.211H23.9072ZM27.1606 17.2844H24.2916C24.1292 16.3783 23.8629 15.4939 23.4979 14.6485C23.3198 14.2413 23.1036 13.8518 22.8524 13.4849C23.7874 13.801 24.65 14.2998 25.3897 14.9522C26.1294 15.6045 26.7314 16.3974 27.1606 17.2844ZM18.1407 13.4849C17.8895 13.8518 17.6733 14.2413 17.4952 14.6485C17.1303 15.4939 16.8641 16.3783 16.7017 17.2844H13.8327C14.2619 16.3974 14.8639 15.6046 15.6035 14.9522C16.3432 14.2999 17.2057 13.801 18.1407 13.4849ZM13.8325 23.6697H16.7015C16.8639 24.5758 17.1303 25.4602 17.4952 26.3056C17.6734 26.7128 17.8895 27.1024 18.1407 27.4692C17.2057 27.1531 16.3431 26.6543 15.6034 26.002C14.8637 25.3496 14.2617 24.5568 13.8325 23.6697ZM34.5655 34.8991H21.7655C21.6777 34.899 21.5936 34.8642 21.5315 34.8022C21.4695 34.7403 21.4346 34.6564 21.4345 34.5688V30.3303H34.8966V34.5688C34.8965 34.6564 34.8616 34.7403 34.7995 34.8022C34.7374 34.8642 34.6533 34.899 34.5655 34.8991Z" fill="#D11B25"/>
<path d="M31.5498 25.211H34.5655C34.9458 25.2114 35.3104 25.3624 35.5794 25.6307C35.8483 25.899 35.9996 26.2628 36 26.6422V34.5688C35.9996 34.9482 35.8483 35.312 35.5794 35.5803C35.3104 35.8486 34.9458 35.9996 34.5655 36H21.7655C21.3852 35.9996 21.0206 35.8486 20.7517 35.5803C20.4827 35.312 20.3315 34.9482 20.331 34.5688V32.4751C18.7959 32.4574 17.2785 32.1446 15.8621 31.5537C15.7271 31.4974 15.62 31.3899 15.5644 31.2548C15.5089 31.1197 15.5094 30.9681 15.5659 30.8334C15.6223 30.6987 15.7301 30.5919 15.8655 30.5365C16.0009 30.4811 16.1528 30.4816 16.2878 30.5379C17.5695 31.0724 18.9421 31.3563 20.331 31.3741V28.952C15.7222 28.8637 12 25.0961 12 20.4771C12 15.8028 15.8115 12 20.4966 12C25.1816 12 28.9931 15.8028 28.9931 20.4771C28.9942 22.1638 28.49 23.8123 27.5452 25.211H30.3393M31.5498 25.211C32.4391 23.1389 32.7276 20.8593 32.3825 18.6316C32.3602 18.4873 32.2813 18.3578 32.1633 18.2715C32.0452 18.1852 31.8977 18.1493 31.753 18.1716C31.6084 18.1939 31.4786 18.2725 31.3921 18.3903C31.3057 18.5081 31.2696 18.6553 31.292 18.7996C31.3776 19.3547 31.4207 19.9155 31.4207 20.4771C31.426 22.1166 31.0562 23.7357 30.3393 25.211M31.5498 25.211H30.3393M34.8966 26.6422V27.4128H21.4345V26.6422C21.4346 26.5546 21.4695 26.4707 21.5315 26.4088C21.5936 26.3468 21.6777 26.312 21.7655 26.3119H34.5655C34.6533 26.312 34.7374 26.3468 34.7995 26.4088C34.8616 26.4707 34.8965 26.5546 34.8966 26.6422ZM34.8966 29.2294H21.4345V28.5138H34.8966V29.2294ZM13.1034 20.4771C13.1031 19.7689 13.2053 19.0643 13.4069 18.3853H16.5347C16.3737 19.7752 16.3737 21.1789 16.5347 22.5688H13.4069C13.2053 21.8898 13.1031 21.1853 13.1034 20.4771ZM17.5172 20.4771C17.5162 19.7779 17.5588 19.0793 17.6447 18.3853H23.3484C23.4343 19.0793 23.4769 19.7779 23.4759 20.4771C23.4764 21.1763 23.4334 21.8749 23.347 22.5688H17.6447C17.5588 21.8749 17.5162 21.1763 17.5172 20.4771ZM20.4966 13.1009C21.5261 13.1009 22.6414 14.7181 23.1677 17.2844H17.8254C18.3517 14.7181 19.467 13.1009 20.4966 13.1009ZM27.8897 20.4771C27.8896 21.1852 27.7874 21.8897 27.5862 22.5688H24.4573C24.5387 21.8745 24.5795 21.1761 24.5793 20.4771C24.5797 19.7781 24.5394 19.0796 24.4585 18.3853H27.5862C27.7878 19.0643 27.89 19.7689 27.8897 20.4771ZM23.1658 23.6697C23.0609 24.1925 22.9203 24.7074 22.7449 25.211H21.7655C21.3852 25.2114 21.0206 25.3624 20.7517 25.6307C20.4827 25.899 20.3315 26.2628 20.331 26.6422V27.839C19.3496 27.6773 18.3236 26.0991 17.8254 23.6697H23.1658ZM23.9072 25.211C24.0649 24.7052 24.1926 24.1905 24.2897 23.6697H27.1617C26.8952 24.2229 26.5604 24.7407 26.1651 25.211H23.9072ZM27.1606 17.2844H24.2916C24.1292 16.3783 23.8629 15.4939 23.4979 14.6485C23.3198 14.2413 23.1036 13.8518 22.8524 13.4849C23.7874 13.801 24.65 14.2998 25.3897 14.9522C26.1294 15.6045 26.7314 16.3974 27.1606 17.2844ZM18.1407 13.4849C17.8895 13.8518 17.6733 14.2413 17.4952 14.6485C17.1303 15.4939 16.8641 16.3783 16.7017 17.2844H13.8327C14.2619 16.3974 14.8639 15.6046 15.6035 14.9522C16.3432 14.2999 17.2057 13.801 18.1407 13.4849ZM13.8325 23.6697H16.7015C16.8639 24.5758 17.1303 25.4602 17.4952 26.3056C17.6734 26.7128 17.8895 27.1024 18.1407 27.4692C17.2057 27.1531 16.3431 26.6543 15.6034 26.002C14.8637 25.3496 14.2617 24.5568 13.8325 23.6697ZM34.5655 34.8991H21.7655C21.6777 34.899 21.5936 34.8642 21.5315 34.8022C21.4695 34.7403 21.4346 34.6564 21.4345 34.5688V30.3303H34.8966V34.5688C34.8965 34.6564 34.8616 34.7403 34.7995 34.8022C34.7374 34.8642 34.6533 34.899 34.5655 34.8991Z" stroke="#D11B25" stroke-width="0.2"/>
<path d="M27.1723 31.3213H22.7033C22.557 31.3213 22.4167 31.3793 22.3132 31.4825C22.2097 31.5857 22.1516 31.7258 22.1516 31.8717C22.1516 32.0177 22.2097 32.1578 22.3132 32.261C22.4167 32.3642 22.557 32.4222 22.7033 32.4222H27.1723C27.3186 32.4222 27.459 32.3642 27.5624 32.261C27.6659 32.1578 27.724 32.0177 27.724 31.8717C27.724 31.7258 27.6659 31.5857 27.5624 31.4825C27.459 31.3793 27.3186 31.3213 27.1723 31.3213Z" fill="#D11B25"/>
</svg>
