<svg width="48" height="48" viewBox="0 0 48 48" fill="none" xmlns="http://www.w3.org/2000/svg">
<path d="M34.0435 15.2563C30.7004 15.2563 27.4856 14.3007 24.747 12.4933L24 12L23.253 12.4929C20.5144 14.3007 17.2996 15.2563 13.9565 15.2563C13.429 15.2563 13 15.6608 13 16.1582V22.2587C13 28.2364 16.9806 33.6826 22.9043 35.8097C23.2558 35.936 23.6246 36 24 36C24.3754 36 24.7442 35.936 25.0957 35.8097C31.0194 33.6821 35 28.2364 35 22.2587V16.1582C35 15.6608 34.571 15.2563 34.0435 15.2563ZM34.0435 22.2587C34.0435 27.8644 30.3107 32.9714 24.7552 34.9669C24.2702 35.1414 23.7298 35.1414 23.2453 34.9669C17.6893 32.9714 13.9565 27.8644 13.9565 22.2587V16.1582C17.4966 16.1582 20.9013 15.1463 23.8015 13.232L24 13.1012L24.1985 13.2324C27.0987 15.1463 30.5034 16.1582 34.0435 16.1582V22.2587Z" fill="#D11B25" stroke="#D11B25" stroke-width="0.5"/>
<path d="M27.8667 21H20.1333C20.0597 21 20 20.9463 20 20.88V18.12C20 18.0537 20.0597 18 20.1333 18H27.8667C27.9403 18 28 18.0537 28 18.12V20.88C28 20.9463 27.9403 21 27.8667 21Z" fill="#F6D1D3"/>
<path d="M27.8667 30H20.1333C20.0597 30 20 29.9463 20 29.88V27.12C20 27.0537 20.0597 27 20.1333 27H27.8667C27.9403 27 28 27.0537 28 27.12V29.88C28 29.9463 27.9403 30 27.8667 30Z" fill="#F6D1D3"/>
<path fill-rule="evenodd" clip-rule="evenodd" d="M27.6812 19.5H20.3056V28.6448H27.6812V19.5ZM20 18C19.4477 18 19 18.4477 19 19V29C19 29.5523 19.4477 30 20 30H28C28.5523 30 29 29.5523 29 29V19C29 18.4477 28.5523 18 28 18H20Z" fill="#D11B25"/>
<path d="M19 21H29V22.5H19V21Z" fill="#D11B25"/>
<path d="M19 25.5H29V27H19V25.5Z" fill="#D11B25"/>
</svg>
