<svg width="48" height="48" viewBox="0 0 48 48" fill="none" xmlns="http://www.w3.org/2000/svg">
<style type="text/css">
	.st0{fill:#F6D1D3;}
	.st1{fill-rule:evenodd;clip-rule:evenodd;fill:#D11B25;}
</style>
<path class="st0" d="M27.7,34.8l-2,1.1c-0.3,0.2-0.8,0-1-0.3l-3.6-5.7l3.4-1.8l3.5,5.8C28.1,34.3,28,34.7,27.7,34.8z"/>
<path class="st0" d="M25.2,28.4l-3.3,1.9c-1.1,0.5-2.5,0.2-3.1-0.9l-2.2-3.9c-0.6-1.1-0.2-2.5,0.9-3l3.3-1.9L25.2,28.4z"/>
<path class="st1" d="M24.4,12.7c0.5-0.9,1.8-0.9,2.3,0l8.1,14.6c0.5,0.9-0.2,2-1.2,2L24.8,29l-4.7-8.5L24.4,12.7z M25.6,13.3l-4,7.2
	l4,7.2l8.1,0.2L25.6,13.3z"/>
<path class="st1" d="M14.6,26.4c-0.3,0.2-0.4,0.5-0.2,0.8l1.7,3c0.2,0.3,0.5,0.4,0.8,0.2l1.8-1l-2.3-4.1L14.6,26.4z M13.2,27.9
	c-0.5-0.9-0.2-2.1,0.7-2.6l2.1-1.2l3.7,6.4l-2.3,1.1c-0.9,0.5-2.1,0.2-2.6-0.7L13.2,27.9z"/>
<path class="st1" d="M25.4,34.6l-2.6-4.1l1.4-0.8l2.5,4.2L25.4,34.6z M24.5,28.1l3.5,5.8c0.2,0.3,0.1,0.7-0.2,0.9l-2,1.1
	c-0.3,0.1-1,0.1-1.3-0.4L21,30L24.5,28.1z"/>
<path class="st1" d="M17.8,23c-0.8,0.4-1.1,1.3-0.6,2.1l2.2,3.9c0.4,0.8,1.4,1.1,2.2,0.7l2.8-1.6l-3.7-6.7L17.8,23z M17.2,21.8
	c-1.5,0.7-1.9,2.5-1.2,3.9l2.2,3.9c0.8,1.4,2.5,1.9,3.9,1.2l3.9-2.2l-5-9L17.2,21.8z"/>
</svg>
