<svg width="48" height="48" viewBox="0 0 48 48" fill="none" xmlns="http://www.w3.org/2000/svg">
<style type="text/css">
	.st0{fill:#F6D1D3;}
	.st1{fill:#D11B25;}
	.st2{fill:none;stroke:#D11B25;stroke-width:0.2;}
</style>
<path class="st0" d="M29.2,17.9l4.7,5.9l2.6-2.2l-4.4-5.6L29.2,17.9z"/>
<path class="st0" d="M19.3,17.9l-5.2,6.3L11.5,22l4.8-5.9L19.3,17.9z"/>
<path class="st1" d="M36.9,21.4l-4.4-5.6c-0.2-0.2-0.5-0.3-0.7-0.1l-2.8,1.8h-3.7c0,0-0.1,0-0.1,0l-2.8,0.8l-2.9-0.8l-2.9-1.8
	c-0.2-0.1-0.5-0.1-0.7,0.1l-4.8,5.9c-0.2,0.2-0.1,0.5,0.1,0.7l2.5,2.2l2.3,3c-0.7,0.7-0.6,1.8,0,2.5c0.3,0.3,0.7,0.5,1.1,0.5
	c0,0.1,0,0.2,0,0.3c0,0.5,0.2,0.9,0.5,1.3c0.3,0.3,0.8,0.5,1.3,0.5c0,0,0,0,0,0c0,0,0,0,0,0c0,0.5,0.2,0.9,0.5,1.3
	c0.3,0.3,0.8,0.5,1.3,0.5c0.1,0,0.2,0,0.3,0c0,0.4,0.2,0.8,0.5,1.1c0.4,0.3,0.8,0.5,1.3,0.5c0.5,0,0.9-0.2,1.3-0.5l0.3-0.3l0.1,0.1
	c0.3,0.3,0.8,0.5,1.3,0.5c0.5,0,0.9-0.2,1.3-0.5c0.4-0.4,0.5-0.8,0.5-1.3c0.5,0,0.9-0.2,1.3-0.5c0.4-0.4,0.5-0.8,0.5-1.3
	c0.5,0,1-0.2,1.3-0.5c0.4-0.4,0.5-0.8,0.5-1.3c0.5,0,0.9-0.2,1.3-0.5c0.6-0.6,0.7-1.5,0.2-2.2l1.7-3.4l2.5-2.1
	C37,21.9,37.1,21.6,36.9,21.4z M16.4,16.7l2.1,1.3L14,23.4l-1.8-1.5L16.4,16.7z M16.7,28.2l0.6-0.6c0,0,0,0,0.1-0.1
	c0.1-0.1,0.3-0.2,0.4-0.2c0,0,0,0,0,0c0,0,0,0,0.1,0c0.2,0,0.4,0.1,0.6,0.2c0.3,0.3,0.3,0.8,0,1.1l-0.6,0.6c-0.3,0.3-0.8,0.3-1.1,0
	C16.4,29,16.4,28.5,16.7,28.2z M18.3,31.4c-0.1-0.1-0.2-0.3-0.2-0.5c0-0.2,0.1-0.4,0.2-0.5l1.2-1.2c0.2-0.2,0.6-0.3,0.9-0.2
	c0.3,0.1,0.5,0.5,0.4,0.8c0,0.2-0.1,0.3-0.2,0.5l-1.2,1.2c-0.1,0.1-0.3,0.2-0.6,0.2C18.7,31.6,18.5,31.5,18.3,31.4z M20.1,33.2
	c-0.1-0.1-0.2-0.3-0.2-0.5s0.1-0.4,0.2-0.5l1.2-1.2c0.2-0.2,0.6-0.3,0.9-0.1c0.3,0.2,0.4,0.5,0.4,0.8c0,0.2-0.1,0.3-0.2,0.5
	l-1.2,1.2c-0.1,0.1-0.3,0.2-0.6,0.2C20.5,33.4,20.3,33.3,20.1,33.2z M22.2,34.8c-0.3-0.3-0.3-0.8,0-1.1l0.6-0.6c0,0,0,0,0.1-0.1
	c0,0,0,0,0,0c0.1-0.1,0.2-0.1,0.3-0.2c0,0,0,0,0,0c0,0,0,0,0.1,0c0,0,0,0,0,0c0,0,0,0,0.1,0c0.2,0,0.4,0.1,0.6,0.2c0,0,0,0,0.1,0.1
	c0.2,0.3,0.2,0.8-0.1,1l-0.6,0.6C23,35.1,22.5,35.1,22.2,34.8z M31.7,29.1c-0.3,0.3-0.8,0.3-1.1,0c0,0,0,0,0,0l-3.3-3.3
	c-0.2-0.2-0.5-0.2-0.7,0c-0.2,0.2-0.2,0.5,0,0.7l3.3,3.3c0,0,0,0,0,0c0.3,0.3,0.3,0.8,0,1.1c-0.1,0.1-0.3,0.2-0.6,0.2
	c-0.2,0-0.4-0.1-0.6-0.2l-2.2-2.2c-0.2-0.2-0.5-0.2-0.7,0c-0.2,0.2-0.2,0.5,0,0.7l2.2,2.2c0,0,0,0,0,0c0.3,0.3,0.3,0.8,0,1.1
	c-0.3,0.3-0.8,0.3-1.1,0l-1.2-1.2c-0.2-0.2-0.5-0.2-0.7,0c-0.2,0.2-0.2,0.5,0,0.7l1.2,1.2c0,0,0,0,0,0c0.3,0.3,0.3,0.8,0,1.1
	c-0.3,0.3-0.8,0.3-1.1,0c0,0-0.1-0.1-0.1-0.1c0,0,0,0,0-0.1c0,0,0-0.1,0.1-0.1c0,0,0-0.1,0-0.1c0.1-0.2,0.1-0.5,0.1-0.8
	c-0.1-0.5-0.3-0.9-0.8-1.2c-0.2-0.2-0.5-0.3-0.8-0.3c0.1-0.6,0-1.2-0.4-1.6c-0.3-0.4-0.8-0.6-1.3-0.6c0,0,0,0-0.1,0
	c0-0.5-0.2-0.9-0.5-1.3c-0.3-0.4-0.8-0.6-1.3-0.6c-0.1,0-0.3,0-0.4,0c-0.1-0.4-0.3-0.8-0.6-1.1c-0.3-0.3-0.7-0.4-1.2-0.4
	c-0.5,0-0.9,0.2-1.2,0.5l-2-2.6l4.7-5.7l1.5,0.4l-2,3.4c-0.2,0.4-0.3,0.9-0.2,1.4c0.1,0.5,0.4,0.8,0.8,1.1c0,0,0.1,0,0.1,0
	c0,0,0,0,0,0c0.1,0,0.1,0.1,0.2,0.1c0.3,0.1,0.7,0.1,1.1,0c0.5-0.1,0.8-0.4,1.1-0.8l1.3-2.2l2.3,0.2l6.1,6
	C32,28.3,32,28.8,31.7,29.1z M31.9,26.8l-5.7-5.6c0,0,0,0,0,0C26.1,21.1,26,21,25.9,21l-2.8-0.2c-0.2,0-0.4,0.1-0.5,0.3l-1.4,2.5
	c-0.1,0.2-0.3,0.3-0.5,0.4c-0.2,0.1-0.4,0-0.6-0.1c-0.2-0.1-0.3-0.3-0.4-0.5c-0.1-0.2,0-0.4,0.1-0.6l1.9-3.3l0.8-0.2c0,0,0,0,0,0
	l2.9-0.8H29l4.4,5.5L31.9,26.8z M34,23.1L30,18l2.1-1.3l3.8,4.9L34,23.1z"/>
<path class="st1" d="M26.8,16.5c0.1,0,0.3,0,0.4-0.1l3.5-3.5c0.2-0.2,0.2-0.5,0-0.7c-0.2-0.2-0.5-0.2-0.7,0l-3.5,3.5
	c-0.2,0.2-0.2,0.5,0,0.7C26.5,16.4,26.6,16.5,26.8,16.5z"/>
<path class="st1" d="M20.9,16.3c0.1,0.1,0.2,0.1,0.4,0.1c0.1,0,0.3,0,0.4-0.1c0.2-0.2,0.2-0.5,0-0.7l-3.5-3.5
	c-0.2-0.2-0.5-0.2-0.7,0c-0.2,0.2-0.2,0.5,0,0.7L20.9,16.3z"/>
<path class="st1" d="M24,16.5c0.3,0,0.5-0.2,0.5-0.5v-2.9c0-0.3-0.2-0.5-0.5-0.5c-0.3,0-0.5,0.2-0.5,0.5V16
	C23.5,16.2,23.7,16.5,24,16.5z"/>
<path class="st2" d="M36.9,21.4l-4.4-5.6c-0.2-0.2-0.5-0.3-0.7-0.1l-2.8,1.8h-3.7c0,0-0.1,0-0.1,0l-2.8,0.8l-2.9-0.8l-2.9-1.8
	c-0.2-0.1-0.5-0.1-0.7,0.1l-4.8,5.9c-0.2,0.2-0.1,0.5,0.1,0.7l2.5,2.2l2.3,3c-0.7,0.7-0.6,1.8,0,2.5c0.3,0.3,0.7,0.5,1.1,0.5
	c0,0.1,0,0.2,0,0.3c0,0.5,0.2,0.9,0.5,1.3c0.3,0.3,0.8,0.5,1.3,0.5c0,0,0,0,0,0c0,0,0,0,0,0c0,0.5,0.2,0.9,0.5,1.3
	c0.3,0.3,0.8,0.5,1.3,0.5c0.1,0,0.2,0,0.3,0c0,0.4,0.2,0.8,0.5,1.1c0.4,0.3,0.8,0.5,1.3,0.5c0.5,0,0.9-0.2,1.3-0.5l0.3-0.3l0.1,0.1
	c0.3,0.3,0.8,0.5,1.3,0.5c0.5,0,0.9-0.2,1.3-0.5c0.4-0.4,0.5-0.8,0.5-1.3c0.5,0,0.9-0.2,1.3-0.5c0.4-0.4,0.5-0.8,0.5-1.3
	c0.5,0,1-0.2,1.3-0.5c0.4-0.4,0.5-0.8,0.5-1.3c0.5,0,0.9-0.2,1.3-0.5c0.6-0.6,0.7-1.5,0.2-2.2l1.7-3.4l2.5-2.1
	C37,21.9,37.1,21.6,36.9,21.4z M16.4,16.7l2.1,1.3L14,23.4l-1.8-1.5L16.4,16.7z M16.7,28.2l0.6-0.6c0,0,0,0,0.1-0.1
	c0.1-0.1,0.3-0.2,0.4-0.2c0,0,0,0,0,0c0,0,0,0,0.1,0c0.2,0,0.4,0.1,0.6,0.2c0.3,0.3,0.3,0.8,0,1.1l-0.6,0.6c-0.3,0.3-0.8,0.3-1.1,0
	C16.4,29,16.4,28.5,16.7,28.2z M18.3,31.4c-0.1-0.1-0.2-0.3-0.2-0.5c0-0.2,0.1-0.4,0.2-0.5l1.2-1.2c0.2-0.2,0.6-0.3,0.9-0.2
	c0.3,0.1,0.5,0.5,0.4,0.8c0,0.2-0.1,0.3-0.2,0.5l-1.2,1.2c-0.1,0.1-0.3,0.2-0.6,0.2C18.7,31.6,18.5,31.5,18.3,31.4z M20.1,33.2
	c-0.1-0.1-0.2-0.3-0.2-0.5s0.1-0.4,0.2-0.5l1.2-1.2c0.2-0.2,0.6-0.3,0.9-0.1c0.3,0.2,0.4,0.5,0.4,0.8c0,0.2-0.1,0.3-0.2,0.5
	l-1.2,1.2c-0.1,0.1-0.3,0.2-0.6,0.2C20.5,33.4,20.3,33.3,20.1,33.2z M22.2,34.8c-0.3-0.3-0.3-0.8,0-1.1l0.6-0.6c0,0,0,0,0.1-0.1
	c0,0,0,0,0,0c0.1-0.1,0.2-0.1,0.3-0.2c0,0,0,0,0,0c0,0,0,0,0.1,0c0,0,0,0,0,0c0,0,0,0,0.1,0c0.2,0,0.4,0.1,0.6,0.2c0,0,0,0,0.1,0.1
	c0.2,0.3,0.2,0.8-0.1,1l-0.6,0.6C23,35.1,22.5,35.1,22.2,34.8z M31.7,29.1c-0.3,0.3-0.8,0.3-1.1,0c0,0,0,0,0,0l-3.3-3.3
	c-0.2-0.2-0.5-0.2-0.7,0c-0.2,0.2-0.2,0.5,0,0.7l3.3,3.3c0,0,0,0,0,0c0.3,0.3,0.3,0.8,0,1.1c-0.1,0.1-0.3,0.2-0.6,0.2
	c-0.2,0-0.4-0.1-0.6-0.2l-2.2-2.2c-0.2-0.2-0.5-0.2-0.7,0c-0.2,0.2-0.2,0.5,0,0.7l2.2,2.2c0,0,0,0,0,0c0.3,0.3,0.3,0.8,0,1.1
	c-0.3,0.3-0.8,0.3-1.1,0l-1.2-1.2c-0.2-0.2-0.5-0.2-0.7,0c-0.2,0.2-0.2,0.5,0,0.7l1.2,1.2c0,0,0,0,0,0c0.3,0.3,0.3,0.8,0,1.1
	c-0.3,0.3-0.8,0.3-1.1,0c0,0-0.1-0.1-0.1-0.1c0,0,0,0,0-0.1c0,0,0-0.1,0.1-0.1c0,0,0-0.1,0-0.1c0.1-0.2,0.1-0.5,0.1-0.8
	c-0.1-0.5-0.3-0.9-0.8-1.2c-0.2-0.2-0.5-0.3-0.8-0.3c0.1-0.6,0-1.2-0.4-1.6c-0.3-0.4-0.8-0.6-1.3-0.6c0,0,0,0-0.1,0
	c0-0.5-0.2-0.9-0.5-1.3c-0.3-0.4-0.8-0.6-1.3-0.6c-0.1,0-0.3,0-0.4,0c-0.1-0.4-0.3-0.8-0.6-1.1c-0.3-0.3-0.7-0.4-1.2-0.4
	c-0.5,0-0.9,0.2-1.2,0.5l-2-2.6l4.7-5.7l1.5,0.4l-2,3.4c-0.2,0.4-0.3,0.9-0.2,1.4c0.1,0.5,0.4,0.8,0.8,1.1c0,0,0.1,0,0.1,0
	c0,0,0,0,0,0c0.1,0,0.1,0.1,0.2,0.1c0.3,0.1,0.7,0.1,1.1,0c0.5-0.1,0.8-0.4,1.1-0.8l1.3-2.2l2.3,0.2l6.1,6
	C32,28.3,32,28.8,31.7,29.1z M31.9,26.8l-5.7-5.6c0,0,0,0,0,0C26.1,21.1,26,21,25.9,21l-2.8-0.2c-0.2,0-0.4,0.1-0.5,0.3l-1.4,2.5
	c-0.1,0.2-0.3,0.3-0.5,0.4c-0.2,0.1-0.4,0-0.6-0.1c-0.2-0.1-0.3-0.3-0.4-0.5c-0.1-0.2,0-0.4,0.1-0.6l1.9-3.3l0.8-0.2c0,0,0,0,0,0
	l2.9-0.8H29l4.4,5.5L31.9,26.8z M34,23.1L30,18l2.1-1.3l3.8,4.9L34,23.1z"/>
<path class="st2" d="M26.8,16.5c0.1,0,0.3,0,0.4-0.1l3.5-3.5c0.2-0.2,0.2-0.5,0-0.7c-0.2-0.2-0.5-0.2-0.7,0l-3.5,3.5
	c-0.2,0.2-0.2,0.5,0,0.7C26.5,16.4,26.6,16.5,26.8,16.5z"/>
<path class="st2" d="M20.9,16.3c0.1,0.1,0.2,0.1,0.4,0.1c0.1,0,0.3,0,0.4-0.1c0.2-0.2,0.2-0.5,0-0.7l-3.5-3.5
	c-0.2-0.2-0.5-0.2-0.7,0c-0.2,0.2-0.2,0.5,0,0.7L20.9,16.3z"/>
<path class="st2" d="M24,16.5c0.3,0,0.5-0.2,0.5-0.5v-2.9c0-0.3-0.2-0.5-0.5-0.5c-0.3,0-0.5,0.2-0.5,0.5V16
	C23.5,16.2,23.7,16.5,24,16.5z"/>
</svg>
