<svg width="24" height="23" viewBox="0 0 24 23" fill="none" xmlns="http://www.w3.org/2000/svg">
<path fill-rule="evenodd" clip-rule="evenodd" d="M11.9259 0C5.35029 0 -0.00108249 5.15902 0 11.5C0.000346197 13.5271 0.579583 15.5051 1.63139 17.2535L0.0474817 21.8355C-0.0621447 22.1533 0.0237143 22.5035 0.269299 22.7403C0.514884 22.9771 0.87809 23.0599 1.20764 22.9542L5.96923 21.4234C7.77836 22.4373 9.82495 22.9989 11.925 23C18.5013 23.0033 23.8519 17.8408 23.8519 11.5C23.8519 5.15921 18.5016 0 11.9259 0ZM11.9259 1.76924C17.51 1.76924 22.0171 6.11536 22.0171 11.5C22.0171 16.8846 17.5103 21.2337 11.9268 21.2308C10.0221 21.2298 8.15522 20.7024 6.54439 19.7172C6.31148 19.5751 6.02463 19.5415 5.76318 19.6256L2.36691 20.7176L3.49572 17.453C3.58302 17.2008 3.54815 16.9242 3.40075 16.6996C2.3788 15.1437 1.83507 13.3409 1.83476 11.4999C1.83384 6.1155 6.34186 1.76919 11.9259 1.76919V1.76924ZM8.33587 11.5418C8.33588 11.9426 8.17073 12.3271 7.87677 12.6106C7.58281 12.894 7.18411 13.0533 6.76838 13.0533C6.35265 13.0533 5.95395 12.894 5.65999 12.6106C5.36603 12.3271 5.20089 11.9426 5.20089 11.5418C5.2009 10.707 5.90269 10.0303 6.76838 10.0303C7.63407 10.0303 8.33586 10.707 8.33587 11.5418ZM13.0777 12.6106C13.3716 12.3271 13.5368 11.9426 13.5368 11.5418C13.5367 10.707 12.835 10.0303 11.9693 10.0303C11.1036 10.0303 10.4018 10.707 10.4018 11.5418C10.4018 11.9426 10.5669 12.3271 10.8609 12.6106C11.1548 12.894 11.5535 13.0533 11.9693 13.0533C12.385 13.0533 12.7837 12.894 13.0777 12.6106ZM17.1702 13.0533C17.5859 13.0533 17.9846 12.894 18.2785 12.6106C18.5725 12.3271 18.7377 11.9426 18.7377 11.5418C18.7376 10.707 18.0359 10.0303 17.1702 10.0303C16.3045 10.0303 15.6027 10.707 15.6027 11.5418C15.6027 11.9426 15.7678 12.3271 16.0618 12.6106C16.3557 12.894 16.7544 13.0533 17.1702 13.0533Z" fill="#D11B25"/>
</svg>
