<svg width="16" height="20" viewBox="0 0 16 20" fill="none" xmlns="http://www.w3.org/2000/svg">
<path fill-rule="evenodd" clip-rule="evenodd" d="M1.3715 1.39542V18.6046H14.6285V6.97674H10.7427C9.8591 6.97674 9.14276 6.24791 9.14276 5.34884V1.39542H1.3715ZM10.5142 2.38205L13.6587 5.58139H10.7427C10.6165 5.58139 10.5142 5.47727 10.5142 5.34884V2.38205ZM1.21128 7.35449e-05C1.06511 -0.00151066 0.91841 0.0224965 0.778918 0.0723179C0.637384 0.122869 0.502943 0.200169 0.385723 0.303878C0.268314 0.407753 0.16953 0.537078 0.100985 0.687301C0.0334502 0.835308 -0.00195581 0.997787 8.34014e-05 1.16425V18.8358C-0.00195586 19.0022 0.0334499 19.1647 0.100985 19.3127C0.169532 19.4629 0.268318 19.5922 0.385723 19.6961C0.502939 19.7998 0.637379 19.8771 0.778918 19.9277C0.918429 19.9775 1.06515 20.0015 1.21132 19.9999H14.7887C14.9349 20.0015 15.0816 19.9775 15.2211 19.9277C15.3626 19.8771 15.4971 19.7998 15.6143 19.6961C15.7317 19.5922 15.8305 19.4629 15.899 19.3127C15.9666 19.1647 16.002 19.0022 15.9999 18.8357V5.99008L10.1125 7.35449e-05H1.21128ZM3.6571 6.27907C3.6571 5.89375 3.96411 5.58139 4.34281 5.58139H7.31421C7.69291 5.58139 7.99992 5.89375 7.99992 6.27907C7.99992 6.66438 7.69291 6.97674 7.31421 6.97674H4.34281C3.96411 6.97674 3.6571 6.66438 3.6571 6.27907ZM3.6571 10.4651C3.6571 10.0798 3.96411 9.76744 4.34281 9.76744H11.657C12.0357 9.76744 12.3427 10.0798 12.3427 10.4651C12.3427 10.8504 12.0357 11.1628 11.657 11.1628H4.34281C3.96411 11.1628 3.6571 10.8504 3.6571 10.4651ZM3.6571 14.6512C3.6571 14.2658 3.96411 13.9535 4.34281 13.9535H11.657C12.0357 13.9535 12.3427 14.2658 12.3427 14.6512C12.3427 15.0365 12.0357 15.3488 11.657 15.3488H4.34281C3.96411 15.3488 3.6571 15.0365 3.6571 14.6512Z" fill="#D11B25"/>
</svg>
