<svg width="16" height="16" viewBox="0 0 16 16" fill="none" xmlns="http://www.w3.org/2000/svg">
<path d="M11.3819 0H4.61805C2.06538 0 0 2.06303 0 4.60284V11.3489C0 13.8932 2.06985 15.9517 4.61805 15.9517H11.3819C13.9346 15.9517 16 13.8887 16 11.3489V4.60729C16.0045 2.06303 13.9346 0 11.3819 0ZM14.5292 11.4692C14.5292 13.158 13.1567 14.5259 11.4624 14.5259H4.53758C2.84325 14.5259 1.4708 13.158 1.4708 11.4692V4.56719C1.4708 2.87844 2.84325 1.51051 4.53758 1.51051H11.4624C13.1567 1.51051 14.5292 2.87844 14.5292 4.56719V11.4692Z" fill="#000000"/>
<path d="M8.00225 3.87646C5.70887 3.87646 3.84913 5.73008 3.84913 8.0159C3.84913 10.3017 5.70887 12.1553 8.00225 12.1553C10.2956 12.1553 12.1554 10.3017 12.1554 8.0159C12.1554 5.73008 10.2956 3.87646 8.00225 3.87646ZM8.00225 10.6983C6.51356 10.6983 5.311 9.49522 5.311 8.0159C5.311 6.53212 6.51804 5.33351 8.00225 5.33351C9.49093 5.33351 10.6935 6.53657 10.6935 8.0159C10.6935 9.49968 9.48646 10.6983 8.00225 10.6983Z" fill="white"/>
<path d="M12.2939 4.6832C12.8272 4.6832 13.2596 4.2523 13.2596 3.72075C13.2596 3.18921 12.8272 2.7583 12.2939 2.7583C11.7606 2.7583 11.3283 3.18921 11.3283 3.72075C11.3283 4.2523 11.7606 4.6832 12.2939 4.6832Z" fill="#000000"/>
</svg>
