<svg width="36" height="36" viewBox="0 0 36 36" fill="none" xmlns="http://www.w3.org/2000/svg">
<g clip-path="url(#clip0)">
<path d="M36.0005 8.35988V9.93178C36.0005 10.5594 35.5332 11.1025 34.9145 11.1951C34.6357 11.2361 34.3505 11.2773 34.0628 11.3151C33.9178 11.7977 33.7236 12.265 33.4851 12.709C33.6608 12.9386 33.8348 13.1698 34.0024 13.3962C34.3747 13.8998 34.3207 14.6136 33.8776 15.0576L32.7657 16.1686C32.3226 16.6126 31.6079 16.6665 31.1044 16.2935C30.8772 16.126 30.6467 15.9519 30.4171 15.7771C29.9732 16.0156 29.5059 16.2097 29.0241 16.3539C28.9854 16.6423 28.9451 16.9276 28.9032 17.2055C28.8106 17.8251 28.2675 18.2916 27.6407 18.2916H26.0688C25.4412 18.2916 24.8981 17.8251 24.8055 17.2055C24.7644 16.9276 24.7233 16.6416 24.6855 16.3539C24.2028 16.2097 23.7355 16.0155 23.2916 15.7771C23.0619 15.9519 22.8315 16.126 22.6044 16.2935C22.1008 16.6665 21.387 16.6126 20.943 16.1686L19.8319 15.0576C19.388 14.6136 19.334 13.8998 19.7062 13.3962C19.8746 13.1698 20.0479 12.9386 20.2235 12.709C19.985 12.265 19.7916 11.7977 19.6467 11.3151C19.3582 11.2772 19.073 11.2361 18.795 11.1951C18.1754 11.1024 17.709 10.5594 17.709 9.93178V8.35988C17.709 7.73304 18.1755 7.19002 18.795 7.09734C19.073 7.05544 19.359 7.01515 19.6467 6.97648C19.7917 6.4947 19.9851 6.0274 20.2235 5.58345C20.0479 5.35303 19.8746 5.12262 19.7071 4.89621C19.334 4.39263 19.388 3.67798 19.8319 3.23487L20.943 2.12302C21.387 1.67991 22.1008 1.62591 22.6044 1.99814C22.8315 2.16654 23.062 2.33979 23.2916 2.51543C23.7355 2.27693 24.2028 2.0828 24.6855 1.93774C24.7234 1.65009 24.7644 1.36491 24.8055 1.08612C24.898 0.467297 25.441 0 26.0687 0H27.6406C28.2675 0 28.8105 0.467297 28.9032 1.08605C28.9451 1.36484 28.9854 1.65002 29.024 1.93767C29.5058 2.08273 29.9731 2.27686 30.4171 2.51536C30.6467 2.33972 30.8771 2.16647 31.1051 1.99807C31.6079 1.62584 32.3225 1.67984 32.7657 2.12295L33.8776 3.2348C34.3207 3.67791 34.3747 4.39256 34.0024 4.8953C33.8349 5.12248 33.6608 5.35296 33.4851 5.58337C33.7236 6.02733 33.9178 6.49463 34.0628 6.97641C34.3505 7.01508 34.6357 7.05537 34.9145 7.09727C35.5332 7.19002 36.0005 7.73304 36.0005 8.35988ZM34.4697 9.71346V8.57904C34.2167 8.54276 33.9588 8.50732 33.7002 8.4735C33.1894 8.40663 32.7705 8.04326 32.6343 7.54854C32.5038 7.07477 32.3144 6.61795 32.0711 6.18933C31.8173 5.74298 31.8568 5.19026 32.171 4.78097C32.3297 4.57474 32.4868 4.36767 32.6399 4.16222L31.8383 3.36059C31.6321 3.5145 31.425 3.67158 31.2195 3.8295C30.8102 4.14373 30.2575 4.18317 29.8112 3.92941C29.3825 3.68606 28.9257 3.49678 28.452 3.36621C27.9565 3.23002 27.5939 2.81109 27.527 2.2995C27.4932 2.04166 27.4577 1.78383 27.4215 1.53084H26.287C26.2508 1.78383 26.2153 2.04166 26.1815 2.30027C26.1146 2.81109 25.752 3.23002 25.2565 3.36621C24.7828 3.49671 24.326 3.68606 23.8982 3.92941C23.451 4.18324 22.8983 4.14373 22.489 3.8295C22.2836 3.67158 22.0765 3.5145 21.8703 3.36059L21.0687 4.16222C21.2217 4.36767 21.3789 4.57474 21.5376 4.78097C21.8526 5.19026 21.8912 5.74298 21.6375 6.18933C21.3941 6.61795 21.2049 7.07477 21.0743 7.54854C20.9381 8.04326 20.5199 8.40663 20.0083 8.4735C19.7497 8.50732 19.4919 8.54276 19.2397 8.57904V9.71346C19.4919 9.74974 19.7497 9.78518 20.0083 9.819C20.5199 9.88587 20.9381 10.2485 21.0743 10.744C21.2048 11.2177 21.3941 11.6745 21.6375 12.1023C21.8912 12.5495 21.8526 13.1022 21.5384 13.5107C21.3789 13.7169 21.2218 13.9248 21.0687 14.1294L21.8704 14.9319C22.0766 14.778 22.2837 14.6209 22.49 14.463C22.8985 14.148 23.4511 14.1093 23.8983 14.3631C24.3262 14.6064 24.7838 14.7957 25.2567 14.9263C25.7522 15.0625 26.1148 15.4814 26.1816 15.9922C26.2155 16.2508 26.2509 16.5087 26.2872 16.7609H27.4216C27.4579 16.5087 27.4933 16.2509 27.5271 15.9922C27.594 15.4814 27.9565 15.0625 28.4521 14.9263C28.9259 14.7958 29.3827 14.6064 29.8105 14.3631C30.2577 14.1093 30.8103 14.148 31.2196 14.463C31.4251 14.6209 31.6329 14.778 31.8384 14.9319L32.64 14.1294C32.4869 13.9248 32.3298 13.7169 32.1711 13.5107C31.8568 13.1022 31.8174 12.5495 32.0712 12.1023C32.3145 11.6745 32.5038 11.2177 32.6344 10.744C32.7706 10.2485 33.1895 9.88587 33.7003 9.819C33.9588 9.78518 34.2167 9.74967 34.4697 9.71346Z" fill="#D11B25"/>
<path d="M34.4683 8.57908V9.7135C34.2153 9.74978 33.9575 9.78522 33.6989 9.81904C33.1881 9.88591 32.7692 10.2485 32.633 10.744C32.5025 11.2178 32.3131 11.6746 32.0698 12.1024C31.816 12.5496 31.8554 13.1022 32.1697 13.5107C32.3284 13.717 32.4855 13.9249 32.6386 14.1295L31.837 14.932C31.6315 14.778 31.4237 14.621 31.2182 14.463C30.8089 14.148 30.2562 14.1094 29.8091 14.3631C29.3812 14.6065 28.9244 14.7958 28.4507 14.9263C27.9552 15.0625 27.5926 15.4814 27.5257 15.9923C27.4919 16.2509 27.4565 16.5087 27.4202 16.7609H26.2858C26.2495 16.5087 26.2141 16.2509 26.1802 15.9923C26.1134 15.4814 25.7508 15.0625 25.2553 14.9263C24.7824 14.7958 24.3247 14.6065 23.8969 14.3631C23.4497 14.1094 22.8971 14.148 22.4885 14.463C22.2823 14.621 22.0753 14.778 21.869 14.932L21.0673 14.1295C21.2204 13.9248 21.3775 13.717 21.537 13.5107C21.8512 13.1022 21.8899 12.5496 21.6361 12.1024C21.3927 11.6745 21.2034 11.2177 21.0729 10.744C20.9367 10.2485 20.5185 9.88591 20.0069 9.81904C19.7483 9.78522 19.4905 9.74978 19.2383 9.7135V8.57908C19.4905 8.5428 19.7483 8.50736 20.0069 8.47354C20.5185 8.40667 20.9367 8.0433 21.0729 7.54858C21.2034 7.07481 21.3927 6.61799 21.6361 6.18937C21.8898 5.74303 21.8512 5.1903 21.5362 4.78101C21.3775 4.57478 21.2203 4.36771 21.0673 4.16226L21.8689 3.36063C22.0751 3.51454 22.2822 3.67162 22.4876 3.82954C22.8969 4.14377 23.4497 4.18321 23.8968 3.92945C24.3246 3.6861 24.7814 3.49682 25.2551 3.36625C25.7506 3.23006 26.1132 2.81113 26.1801 2.30031C26.2139 2.0417 26.2494 1.78387 26.2856 1.53088H27.4201C27.4563 1.78387 27.4918 2.0417 27.5256 2.29954C27.5925 2.81113 27.9551 3.23013 28.4506 3.36625C28.9243 3.49675 29.3811 3.6861 29.8098 3.92945C30.2561 4.18328 30.8088 4.14377 31.2181 3.82954C31.4236 3.67162 31.6307 3.51454 31.8369 3.36063L32.6385 4.16226C32.4854 4.36771 32.3283 4.57478 32.1696 4.78101C31.8554 5.1903 31.8159 5.74303 32.0697 6.18937C32.313 6.61799 32.5023 7.07481 32.6329 7.54858C32.7691 8.0433 33.188 8.40667 33.6988 8.47354C33.9575 8.50736 34.2153 8.5428 34.4683 8.57908ZM30.1151 9.14629C30.1151 7.34721 28.652 5.88407 26.8529 5.88407C25.0538 5.88407 23.5907 7.34721 23.5907 9.14629C23.5907 10.9454 25.0538 12.4085 26.8529 12.4085C28.652 12.4085 30.1151 10.9454 30.1151 9.14629Z" fill="#F6D1D3"/>
<path d="M26.854 5.88391C28.6531 5.88391 30.1162 7.34704 30.1162 9.14613C30.1162 10.9452 28.6531 12.4083 26.854 12.4083C25.0549 12.4083 23.5918 10.9452 23.5918 9.14613C23.5918 7.34704 25.0549 5.88391 26.854 5.88391ZM28.666 9.1462C28.666 8.14713 27.8531 7.33418 26.854 7.33418C25.8549 7.33418 25.042 8.14713 25.042 9.1462C25.042 10.1453 25.8549 10.9582 26.854 10.9582C27.8531 10.9582 28.666 10.1453 28.666 9.1462Z" fill="#D11B25"/>
<path d="M23.7365 20.3534C24.0201 21.0383 23.7559 21.8423 23.1218 22.2234C22.7447 22.4498 22.3564 22.6786 21.9664 22.9034C22.0575 23.6801 22.0575 24.4681 21.9664 25.2464C22.3547 25.4704 22.7431 25.6992 23.1218 25.9264C23.7559 26.3075 24.0202 27.1116 23.7365 27.7964L22.9091 29.7945C22.6247 30.4802 21.8697 30.8621 21.1511 30.6832C20.7241 30.5768 20.2882 30.4633 19.8531 30.3473C19.3681 30.962 18.8113 31.5187 18.1974 32.0038C18.3142 32.4412 18.4278 32.8771 18.5333 33.301C18.7122 34.0196 18.3303 34.7746 17.6454 35.0582L15.6473 35.8865C14.9617 36.1701 14.1576 35.9058 13.7765 35.2717C13.5485 34.8923 13.3197 34.5039 13.0965 34.1164C12.319 34.2074 11.5318 34.2074 10.7535 34.1164C10.528 34.5079 10.2991 34.8971 10.0735 35.2717C9.79559 35.7342 9.29279 36.0001 8.77557 36.0001C8.58298 36.0001 8.38885 35.9631 8.20351 35.8865L6.20459 35.0582C5.51975 34.7746 5.13788 34.0197 5.31669 33.301C5.42307 32.8747 5.53585 32.4381 5.65264 32.003C5.0379 31.518 4.48116 30.9612 3.99615 30.3473C3.56105 30.4641 3.12519 30.5769 2.69895 30.6832C1.98029 30.8621 1.22534 30.4802 0.941702 29.7953L0.113421 27.7972C-0.170149 27.1116 0.0940851 26.3075 0.728163 25.9264C1.10525 25.6992 1.49358 25.4712 1.88354 25.2464C1.79248 24.4689 1.79248 23.6817 1.88354 22.9034C1.49436 22.6794 1.10602 22.4506 0.728163 22.2234C0.0940851 21.8423 -0.17022 21.0383 0.113421 20.3534L0.940858 18.3553C1.22527 17.6697 1.98022 17.2877 2.69811 17.4666C3.12434 17.573 3.56098 17.6858 3.99692 17.8025C4.48194 17.1878 5.03867 16.6311 5.65264 16.146C5.53662 15.7126 5.42384 15.2767 5.31669 14.8489C5.13781 14.1302 5.51975 13.3752 6.20459 13.0916L8.20273 12.2633C8.88835 11.9798 9.69244 12.244 10.0735 12.8781C10.2999 13.2543 10.5287 13.6426 10.7535 14.0334C11.531 13.9424 12.3182 13.9424 13.0965 14.0334C13.3205 13.6443 13.5493 13.2559 13.7765 12.8781C14.1576 12.244 14.9617 11.9797 15.6473 12.2633L17.6454 13.0916C18.3303 13.3752 18.7121 14.1301 18.5333 14.8489C18.4269 15.2759 18.3134 15.7117 18.1974 16.1468C18.8121 16.6318 19.3688 17.1886 19.8539 17.8025C20.2881 17.6857 20.7248 17.5729 21.1511 17.4666C21.8697 17.2877 22.6247 17.6696 22.9083 18.3545L23.7366 20.3526C23.7365 20.3534 23.7365 20.3534 23.7365 20.3534ZM22.2138 20.8892L21.4532 19.0522C21.0439 19.1554 20.6258 19.2633 20.2092 19.3761C19.6203 19.534 18.9991 19.3277 18.6268 18.8484C18.1982 18.2989 17.7027 17.8034 17.1516 17.3748C16.673 17.0018 16.4652 16.3797 16.6239 15.7916C16.7359 15.3751 16.8447 14.9569 16.9478 14.5468L15.1108 13.7862C14.8932 14.1488 14.6741 14.5218 14.4598 14.8948C14.1552 15.4234 13.5703 15.7167 12.9668 15.6409C12.2739 15.5547 11.573 15.5547 10.8817 15.6409C10.2807 15.7159 9.69413 15.4226 9.39038 14.8941C9.17445 14.5202 8.95613 14.148 8.73936 13.7862L6.90237 14.5468C7.00552 14.9577 7.1143 15.3758 7.22623 15.7908C7.38415 16.3797 7.17786 17.0009 6.69931 17.3731C6.14905 17.8018 5.65355 18.2973 5.22486 18.8484C4.85185 19.3269 4.2298 19.5348 3.6417 19.3761C3.22433 19.2633 2.80618 19.1545 2.39689 19.0522L1.63632 20.8892C1.99969 21.1067 2.37193 21.3259 2.74494 21.5402C3.27348 21.8447 3.56675 22.4305 3.49102 23.0332C3.40482 23.7252 3.40482 24.427 3.49102 25.1183C3.56598 25.7201 3.2727 26.3059 2.74416 26.6096C2.37116 26.8248 1.99892 27.0431 1.63632 27.2606L2.39689 29.0976C2.80618 28.9953 3.22433 28.8865 3.64086 28.7737C4.2298 28.6158 4.85101 28.8221 5.22324 29.3014C5.65187 29.8509 6.14736 30.3464 6.69847 30.7751C7.17708 31.1481 7.38408 31.7701 7.22616 32.3582C7.11338 32.7756 7.00461 33.1937 6.9023 33.603L8.73929 34.3636C8.95522 34.0034 9.17354 33.6304 9.39031 33.255C9.69483 32.7264 10.2798 32.434 10.8833 32.5089C11.5753 32.5951 12.2771 32.5951 12.9684 32.5089C13.5702 32.4348 14.156 32.7272 14.4597 33.2557C14.674 33.6271 14.8923 33.9994 15.1107 34.3636L16.9477 33.603C16.8454 33.1953 16.7366 32.778 16.6238 32.3591C16.4659 31.7701 16.6722 31.1489 17.1508 30.7767C17.7003 30.348 18.1965 29.8526 18.6252 29.3014C18.9982 28.8228 19.6194 28.6158 20.2084 28.7737C20.6249 28.8858 21.0431 28.9945 21.4532 29.0976L22.2138 27.2606C21.8504 27.0431 21.4774 26.8239 21.1051 26.6096C20.5766 26.3051 20.2842 25.7193 20.3591 25.1167C20.4453 24.4246 20.4453 23.7228 20.3591 23.0315C20.2841 22.4297 20.5774 21.844 21.1059 21.5402C21.4789 21.3251 21.852 21.1059 22.2138 20.8892Z" fill="#D11B25"/>
<path d="M16.9988 21.9737C17.2823 22.6586 17.4169 23.3692 17.4169 24.0686C17.4169 26.2238 16.1391 28.2735 14.0266 29.1484C13.349 29.4296 12.6376 29.5698 11.9254 29.5698C11.2132 29.5698 10.5017 29.4296 9.82415 29.1484C8.46895 28.5877 7.41271 27.5322 6.85197 26.1762C5.69259 23.3789 7.02599 20.1601 9.82415 19.0015C12.6215 17.8421 15.8402 19.1755 16.9988 21.9737ZM13.4102 27.6603C15.3874 26.8408 16.3293 24.5664 15.5107 22.59C14.8919 21.0971 13.4441 20.1947 11.9205 20.1947C11.4266 20.1947 10.9247 20.2897 10.4404 20.4896C8.46325 21.309 7.52142 23.5835 8.33999 25.5598C8.73719 26.5178 9.4825 27.2631 10.4404 27.6603C11.3984 28.0567 12.4531 28.0567 13.4102 27.6603Z" fill="#D11B25"/>
</g>
<defs>
<clipPath id="clip0">
<rect width="36" height="36" fill="white"/>
</clipPath>
</defs>
</svg>
