<svg width="73" height="74" viewBox="0 0 73 74" fill="none" xmlns="http://www.w3.org/2000/svg">
<path d="M1.94775 38.9474H20.4478C20.4478 43.7963 16.3161 47.7105 11.1978 47.7105C6.07942 47.7105 1.94775 43.7963 1.94775 38.9474Z" fill="#F6D1D3"/>
<path d="M70.1057 38.9474C70.1057 43.7963 65.974 47.7105 60.8557 47.7105C55.7374 47.7105 51.6057 43.7963 51.6057 38.9474H70.1057Z" fill="#F6D1D3"/>
<path fill-rule="evenodd" clip-rule="evenodd" d="M8.76369 14.6053C8.76369 13.5298 9.63556 12.6579 10.7111 12.6579H61.3426C62.4181 12.6579 63.29 13.5298 63.29 14.6053C63.29 15.6808 62.4181 16.5526 61.3426 16.5526H10.7111C9.63556 16.5526 8.76369 15.6808 8.76369 14.6053Z" fill="#D11B25"/>
<path fill-rule="evenodd" clip-rule="evenodd" d="M9.98782 12.7972C10.9864 12.3977 12.1197 12.8834 12.5191 13.882L22.256 38.2241C22.6554 39.2227 22.1697 40.356 21.1711 40.7555C20.1726 41.1549 19.0392 40.6692 18.6398 39.6706L8.90297 15.3285C8.50354 14.3299 8.98924 13.1966 9.98782 12.7972Z" fill="#D11B25"/>
<path fill-rule="evenodd" clip-rule="evenodd" d="M11.3707 12.773C12.3826 13.1373 12.9076 14.2529 12.5433 15.2649L3.78015 39.607C3.41586 40.6189 2.30021 41.1439 1.28829 40.7796C0.276361 40.4153 -0.248649 39.2997 0.115644 38.2878L8.8788 13.9457C9.2431 12.9337 10.3587 12.4087 11.3707 12.773Z" fill="#D11B25"/>
<path fill-rule="evenodd" clip-rule="evenodd" d="M0.00053045 38.9474C0.00053045 37.8719 0.872397 37 1.9479 37H20.4479C21.5234 37 22.3953 37.8719 22.3953 38.9474C22.3953 44.9697 17.2912 49.6579 11.1979 49.6579C5.10461 49.6579 0.00053045 44.9697 0.00053045 38.9474ZM4.19909 40.8947C5.084 43.6667 7.81244 45.7632 11.1979 45.7632C14.5834 45.7632 17.3118 43.6667 18.1967 40.8947H4.19909Z" fill="#D11B25"/>
<path fill-rule="evenodd" clip-rule="evenodd" d="M49.6584 38.9474C49.6584 37.8719 50.5303 37 51.6058 37H70.1058C71.1813 37 72.0532 37.8719 72.0532 38.9474C72.0532 44.9697 66.9491 49.6579 60.8558 49.6579C54.7625 49.6579 49.6584 44.9697 49.6584 38.9474ZM53.857 40.8947C54.7419 43.6667 57.4703 45.7632 60.8558 45.7632C64.2412 45.7632 66.9697 43.6667 67.8546 40.8947H53.857Z" fill="#D11B25"/>
<path fill-rule="evenodd" clip-rule="evenodd" d="M60.683 12.773C61.695 12.4087 62.8106 12.9337 63.1749 13.9457L71.938 38.2878C72.3023 39.2997 71.7773 40.4153 70.7654 40.7796C69.7535 41.1439 68.6378 40.6189 68.2735 39.607L59.5104 15.2649C59.1461 14.2529 59.6711 13.1373 60.683 12.773Z" fill="#D11B25"/>
<path fill-rule="evenodd" clip-rule="evenodd" d="M62.0659 12.7972C63.0645 13.1966 63.5502 14.3299 63.1507 15.3285L53.4139 39.6706C53.0145 40.6692 51.8811 41.1549 50.8826 40.7555C49.884 40.356 49.3983 39.2227 49.7977 38.2241L59.5346 13.882C59.934 12.8834 61.0673 12.3977 62.0659 12.7972Z" fill="#D11B25"/>
<path fill-rule="evenodd" clip-rule="evenodd" d="M49.6584 38.9474C49.6584 37.8719 50.5303 37 51.6058 37H69.1321C70.2076 37 71.0795 37.8719 71.0795 38.9474C71.0795 40.0229 70.2076 40.8947 69.1321 40.8947H51.6058C50.5303 40.8947 49.6584 40.0229 49.6584 38.9474Z" fill="#D11B25"/>
<path fill-rule="evenodd" clip-rule="evenodd" d="M30.1847 2.98781C30.1847 0.919533 32.1045 0 33.4563 0H38.5974C39.9492 0 41.869 0.919533 41.869 2.98781V65.1701C41.869 67.2384 39.9492 68.1579 38.5974 68.1579H33.4563C32.1045 68.1579 30.1847 67.2384 30.1847 65.1701V2.98781ZM34.0795 3.89474V64.2632H37.9742V3.89474H34.0795Z" fill="#D11B25"/>
<path fill-rule="evenodd" clip-rule="evenodd" d="M13.6321 67.6711C13.6321 65.7777 15.1466 64.2632 17.04 64.2632H55.0137C56.9071 64.2632 58.4216 65.7777 58.4216 67.6711V70.5921C58.4216 72.4855 56.9071 74 55.0137 74H17.04C15.1466 74 13.6321 72.4855 13.6321 70.5921V67.6711ZM17.5268 68.1579V70.1053H54.5268V68.1579H17.5268Z" fill="#D11B25"/>
</svg>
