<svg width="18" height="18" viewBox="0 0 18 18" xmlns="http://www.w3.org/2000/svg" >
<path d="M14.4,5.6c-0.2,0-0.4-0.2-0.3-0.4c0.2-0.5,0.3-1.1,0.3-1.6c0-0.6,0-1.2-0.2-1.8c-0.3-0.6-0.8-1.4-2-1.4
	c-0.5,0-1,0.2-1.3,0.6c-0.5,0.5-1,1.4-1.6,2.6C8.8,4.8,8,5.7,7.5,6.2c-0.7,0.6-1,1.2-1.1,1.7C6.3,8.1,6.3,8.3,6.3,8.5
	c0,0.1,0,0.2,0,0.2v5.8c0,1.8,1.5,3.4,3.4,3.4H15c0.7,0,1.4-0.2,1.9-0.6c0.6-0.5,0.8-1.2,0.8-2V8.9C17.7,7.1,16.2,5.6,14.4,5.6z
	 M16.3,15.2c-0.1,0.5-0.2,0.7-0.3,0.8c-0.2,0.1-0.4,0.2-1,0.2H9.3c-0.8,0-1.5-0.7-1.5-1.6v-6V8.5c0-0.1,0-0.2,0-0.3
	C7.9,8,8,7.6,8.4,7.3c0.6-0.6,1.5-1.7,2.2-3C11.2,3.1,11.7,2.4,12,2c0.2-0.1,0.3-0.2,0.4-0.2c0.3,0.1,0.4,0.3,0.5,0.5
	C13,2.6,13,2.9,13,3.4c-0.1,0.9-0.5,2-0.8,2.6l-0.5,1.1h3.1c0.8,0,1.5,0.7,1.5,1.6V15.2z"/>
<path d="M2.6,7.2c-1.3,0-2.3,1-2.3,2.2v6.1c0,1.3,1,2.2,2.3,2.2s2.3-1,2.3-2.2V9.4C4.9,8.1,3.9,7.2,2.6,7.2z M3.3,15.5
	c0,0.4-0.3,0.7-0.8,0.7s-0.8-0.4-0.8-0.7V9.4c0-0.4,0.4-0.7,0.8-0.7s0.8,0.4,0.8,0.7V15.5z"/>
</svg>
