<svg xmlns="http://www.w3.org/2000/svg" width="48" height="48" viewBox="0 0 48 48">
<style type="text/css">
	.st0{fill-rule:evenodd;clip-rule:evenodd;fill:#F6D1D3;}
	.st1{fill-rule:evenodd;clip-rule:evenodd;fill:#D11B25;}
</style>
<rect x="16" y="13" class="st0" width="16.1" height="3.8"/>
<path class="st1" d="M21,20.7c0-0.4,0.4-0.8,0.8-0.8h4.4c0.5,0,0.8,0.3,0.8,0.8s-0.4,0.8-0.8,0.8h-4.4C21.4,21.4,21,21.1,21,20.7z"
	/>
<path class="st1" d="M19,24.3c0-0.4,0.4-0.8,0.8-0.8h8.4c0.4,0,0.8,0.3,0.8,0.8s-0.4,0.8-0.8,0.8h-8.4C19.4,25.1,19,24.7,19,24.3z"
	/>
<path class="st1" d="M19,28c0-0.4,0.4-0.8,0.8-0.8h8.4c0.4,0,0.8,0.3,0.8,0.8s-0.4,0.8-0.8,0.8h-8.4C19.4,28.8,19,28.4,19,28z"/>
<path class="st1" d="M18.9,31.7c0-0.4,0.4-0.8,0.8-0.8h8.4c0.4,0,0.8,0.3,0.8,0.8s-0.4,0.8-0.8,0.8h-8.4
	C19.2,32.4,18.9,32.1,18.9,31.7z"/>
<path class="st1" d="M15.3,17c0-0.4,0.3-0.8,0.8-0.8h16c0.4,0,0.8,0.3,0.8,0.8c0,0.4-0.3,0.8-0.8,0.8H16
	C15.6,17.8,15.3,17.4,15.3,17z"/>
<path class="st1" d="M16.5,13.5v21h15v-21H16.5z M16,12c-0.5,0-1,0.4-1,1v22c0,0.6,0.4,1,1,1h16c0.6,0,1-0.4,1-1V13c0-0.6-0.4-1-1-1
	H16z"/>
</svg>
