<svg width="24" height="25" viewBox="0 0 24 25" fill="none" xmlns="http://www.w3.org/2000/svg">
<path d="M5.23981 2.14197H5C2.79086 2.14197 1 3.93283 1 6.14197V19.6671C1 21.8763 2.79086 23.6671 5 23.6671H13.307C15.5161 23.6671 17.307 21.8763 17.307 19.6671V19.5904V6.05564C17.307 3.89418 15.5547 2.14197 13.3933 2.14197V2.14197" stroke="white" stroke-width="1.5" stroke-linecap="round" stroke-linejoin="round"/>
<path d="M11.1914 1H7.44082C6.225 1 5.23938 1.98562 5.23938 3.20144C5.23938 4.41726 6.225 5.40288 7.44082 5.40288H11.6806C12.6263 5.40288 13.3929 4.63629 13.3929 3.69065V3.20144C13.3929 1.98562 12.4072 1 11.1914 1Z" stroke="white" stroke-width="1.5" stroke-linecap="round" stroke-linejoin="round"/>
<path d="M4.26099 9.96887H14.0452" stroke="white" stroke-width="1.5" stroke-linecap="round"/>
<path d="M4.26099 14.2085H14.0452" stroke="white" stroke-width="1.5" stroke-linecap="round"/>
<path d="M4.26099 18.2854H9.15307" stroke="white" stroke-width="1.5" stroke-linecap="round"/>
<path d="M9.8548 17.5265L10.6698 15.3471L12.4995 17.061L10.5665 18.1384C10.1602 18.3648 9.69184 17.9622 9.8548 17.5265Z" fill="#4F4F4F"/>
<path d="M10.6698 15.3471L11.1825 14.7997C10.9995 14.6283 10.7429 14.5597 10.4988 14.6169C10.2546 14.6741 10.0552 14.8495 9.96734 15.0844L10.6698 15.3471ZM9.8548 17.5265L9.15232 17.2638L9.15232 17.2638L9.8548 17.5265ZM10.5665 18.1384L10.9317 18.7935L10.5665 18.1384ZM12.4995 17.061L12.8647 17.7161C13.0739 17.5995 13.2148 17.3901 13.244 17.1524C13.2731 16.9147 13.187 16.6773 13.0123 16.5136L12.4995 17.061ZM9.96734 15.0844L9.15232 17.2638L10.5573 17.7892L11.3723 15.6098L9.96734 15.0844ZM10.9317 18.7935L12.8647 17.7161L12.1344 16.4059L10.2014 17.4832L10.9317 18.7935ZM10.1571 15.8945L11.9868 17.6084L13.0123 16.5136L11.1825 14.7997L10.1571 15.8945ZM9.15232 17.2638C8.74491 18.3531 9.91572 19.3597 10.9317 18.7935L10.2014 17.4832C10.4046 17.37 10.6388 17.5713 10.5573 17.7892L9.15232 17.2638Z" fill="white"/>
<path d="M11.9213 15.8488C11.4178 15.3703 11.3972 14.5729 11.8695 14.0757L19.3579 6.1909C19.8305 5.69339 20.6283 5.67313 21.132 6.15187C21.6355 6.63038 21.656 7.4277 21.1838 7.92496L13.6953 15.8097C13.2228 16.3072 12.425 16.3275 11.9213 15.8488Z" fill="#4F4F4F" stroke="white" stroke-width="1.5"/>
</svg>
