<?xml version="1.0" encoding="utf-8"?>
<!-- Generator: Adobe Illustrator 23.0.6, SVG Export Plug-In . SVG Version: 6.00 Build 0)  -->
<svg version="1.1" id="Layer_1" xmlns="http://www.w3.org/2000/svg" xmlns:xlink="http://www.w3.org/1999/xlink" x="0px" y="0px"
	 viewBox="0 0 24 24" style="enable-background:new 0 0 24 24;" xml:space="preserve">
<style type="text/css">
	.st0{fill-rule:evenodd;clip-rule:evenodd;fill:#F6D1D3;}
	.st1{fill-rule:evenodd;clip-rule:evenodd;fill:#D11B25;}
</style>
<rect x="4" y="1" class="st0" width="16.1" height="3.8"/>
<path class="st1" d="M9,8.7c0-0.4,0.4-0.8,0.8-0.8h4.4c0.5,0,0.8,0.3,0.8,0.8s-0.4,0.8-0.8,0.8H9.8C9.4,9.4,9,9.1,9,8.7z"/>
<path class="st1" d="M7,12.3c0-0.4,0.4-0.8,0.8-0.8h8.4c0.4,0,0.8,0.3,0.8,0.8s-0.4,0.8-0.8,0.8H7.8C7.4,13.1,7,12.7,7,12.3z"/>
<path class="st1" d="M7,16c0-0.4,0.4-0.8,0.8-0.8h8.4c0.4,0,0.8,0.3,0.8,0.8s-0.4,0.8-0.8,0.8H7.8C7.4,16.8,7,16.4,7,16z"/>
<path class="st1" d="M6.9,19.7c0-0.4,0.4-0.8,0.8-0.8h8.4c0.4,0,0.8,0.3,0.8,0.8s-0.4,0.8-0.8,0.8H7.7C7.2,20.4,6.9,20.1,6.9,19.7z"
	/>
<path class="st1" d="M3.3,5c0-0.4,0.3-0.8,0.8-0.8h16c0.4,0,0.8,0.3,0.8,0.8c0,0.4-0.3,0.8-0.8,0.8H4C3.6,5.8,3.3,5.4,3.3,5z"/>
<path class="st1" d="M4.5,1.5v21h15v-21H4.5z M4,0C3.5,0,3,0.4,3,1v22c0,0.6,0.4,1,1,1h16c0.6,0,1-0.4,1-1V1c0-0.6-0.4-1-1-1H4z"/>
</svg>
