<svg width="20" height="20" viewBox="0 0 20 20" fill="none" xmlns="http://www.w3.org/2000/svg">
<path fill-rule="evenodd" clip-rule="evenodd" d="M19.75 17C19.75 18.5188 18.5188 19.75 17 19.75L7.5 19.75C5.98122 19.75 4.75 18.5188 4.75 17L4.75 15.1531C4.75 14.7389 5.08579 14.4031 5.5 14.4031C5.91421 14.4031 6.25 14.7389 6.25 15.1531L6.25 17C6.25 17.6904 6.80964 18.25 7.5 18.25L17 18.25C17.6904 18.25 18.25 17.6904 18.25 17L18.25 3C18.25 2.30964 17.6904 1.75 17 1.75L7.5 1.75C6.80965 1.75 6.25 2.30964 6.25 3L6.25 5.00033C6.25 5.41455 5.91422 5.75033 5.5 5.75033C5.08579 5.75033 4.75 5.41455 4.75 5.00033L4.75 3C4.75 1.48122 5.98122 0.249999 7.5 0.249999L17 0.25C18.5188 0.25 19.75 1.48122 19.75 3L19.75 17Z" fill="black"/>
<path fill-rule="evenodd" clip-rule="evenodd" d="M9.66987 7.18806C9.98023 6.91374 10.4542 6.94295 10.7285 7.2533L12.8119 9.61037C13.0717 9.90426 13.0612 10.3487 12.7877 10.6299L10.7043 12.7728C10.4156 13.0698 9.94076 13.0765 9.64377 12.7878C9.34678 12.499 9.3401 12.0242 9.62884 11.7272L10.4748 10.8571L1 10.8571C0.585787 10.8571 0.25 10.5213 0.25 10.1071C0.25 9.69287 0.585786 9.35709 1 9.35709L10.5861 9.35708L9.60463 8.24671C9.33031 7.93636 9.35952 7.46239 9.66987 7.18806Z" fill="black"/>
</svg>
