<?xml version="1.0" encoding="utf-8"?>
<!-- Generator: Adobe Illustrator 23.0.6, SVG Export Plug-In . SVG Version: 6.00 Build 0)  -->
<svg version="1.1" id="Layer_1" xmlns="http://www.w3.org/2000/svg" xmlns:xlink="http://www.w3.org/1999/xlink" x="0px" y="0px"
	 viewBox="0 0 580 109" style="enable-background:new 0 0 580 109;" xml:space="preserve">
<style type="text/css">
	.st0{fill:#BF1B25;}
</style>
<path class="st0" d="M422.5,0l0,15h-36.2l-0.1,12.7c0,0,0.6-0.3,0.9-0.5c3.8-2.1,7.9-3.5,12.2-3.9c9.5-0.9,17.8,1.7,25,8.1
	c5.9,5.3,9.4,11.9,10.4,19.8c2.2,17.6-9.8,32.5-25.5,35.6c-17.4,3.5-34.3-7.7-37.9-25c-0.4-2.2-0.6-4.3-0.6-6.5c0-8,0-55.4,0-55.4
	L422.5,0z M419.4,55.4c0-9.1-7.5-16.7-16.6-16.6c-9.8,0-16.7,8.1-16.7,16.7c0,8.5,6.8,16.6,16.6,16.6
	C412.4,72,419.4,64.1,419.4,55.4z"/>
<path class="st0" d="M0,24h15c0,0,0,21.3,0,31.5c0,6.1,2.7,10.8,8,13.8c9.5,5.4,23.1-0.3,24.9-11.2c0.2-1,0.2-2,0.2-3
	c0-10,0-31,0-31s0,0.4,0,0c5.2,0,14.8,0,14.8,0v85H10.7V94.1l37.2,0L48,82.8c0,0-0.6,0.3-0.8,0.4c-3.6,1.9-7.5,3.2-11.6,3.5
	C23.6,87.6,13,83.3,6,73.7c-3.3-4.5-5.1-9.7-5.6-15.4c-0.1-0.8-0.2-1.6-0.4-2.4C0,45.2,0,24,0,24z"/>
<path class="st0" d="M580,0c0,0,0,14.4,0,15c-20.8,0-62,0-62,0V0L580,0z"/>
<path class="st0" d="M541.3,86V39.6h-7.9V86H518V24c0,0,41.2,0,62,0c0,20.7,0,62,0,62h-15.3c0,0,0-30.9,0-46.5c-2.7,0-5.2,0-7.9,0
	c0,15.5,0,46.5,0,46.5H541.3z"/>
<path class="st0" d="M356.9,24c0,0,0,13.3,0,19.4c0,2.7-0.5,5.3-1.5,7.8c-0.1,0.2-0.1,0.3-0.2,0.6c0.2,0.2,0.4,0.4,0.7,0.6
	c4.1,3.8,6.1,8.5,6.2,14.1c0,3-0.4,5.9-1.7,8.6c-3,6.3-8,9.9-14.9,10.9c-0.7,0.1-1.5,0.1-2.2,0.1c-14,0-43.3,0-43.3,0V24H356.9z
	 M315.4,71c0,0,18.5,0,27.1,0c0.4,0,0.8,0,1.2-0.1c1.7-0.3,3-1.6,3.2-3.3c0.3-2.4-0.5-4.1-2.3-4.8c-0.3-0.1-0.6-0.2-0.9-0.2
	c-0.4,0-1.1,0-1.1,0h-27.2V71z M315.4,47.7c0,0,17.2,0,22.5,0c2.2,0,4-2.1,3.8-4.2c0-0.4,0-4.4,0-4.4l-26.4,0V47.7z"/>
<path class="st0" d="M165.6,82.2c0,9.3,0,17.6,0,26.8c-5.2,0-10.3,0-15.5,0c0-28.6,0-85,0-85h15.4c0,0,0,2,0,3.2
	c9.8-5.4,19.7-6.2,29.9-1.8c6.3,2.7,11.2,7.2,14.6,13.1c7,11.9,5.5,27-3.6,37.4c-3.3,3.8-7.3,6.7-12,8.6c-4.7,1.9-9.6,2.7-14.7,2.3
	C174.8,86.4,170.1,84.9,165.6,82.2z M198.9,54.7c0-9.1-7.4-16.7-16.6-16.7c-9.2,0-16.7,7.5-16.7,16.6c0,8.9,7,16.7,16.7,16.7
	C191.9,71.4,198.9,63.6,198.9,54.7z"/>
<path class="st0" d="M271.8,27.3c0-1.2,0-2.2,0-3.3c5.2,0,15.5,0,15.5,0l0,61.9l-15.5,0c0,0,0-2.4,0-3.7c-0.4,0.2-0.7,0.3-0.9,0.4
	c-3,1.7-6.2,3-9.7,3.6c-10.8,1.9-20.3-0.8-28.4-8.3c-5.5-5.1-8.7-11.4-9.7-18.8c-2.4-17.4,9.1-32.4,24.8-35.9
	c8-1.8,15.6-0.6,22.7,3.3C271.1,26.8,271.3,27,271.8,27.3z M271.7,54.8c0-9.2-7.5-16.7-16.6-16.7c-9.1,0-16.6,7.4-16.7,16.6
	c-0.1,8.5,6.7,16.7,16.6,16.7C264.7,71.4,271.7,63.5,271.7,54.8z"/>
<polygon class="st0" points="90.4,86 75,86 75,24 137.2,24 137.2,86 121.7,86 121.7,39.5 90.5,39.5 "/>
<path class="st0" d="M507.7,54.7c0,17.6-14,32.2-32.1,32.2c-18,0-32.2-14.5-32.2-32.2c0-17.8,14.3-32.1,32.2-32.1
	C493.5,22.6,507.6,37.1,507.7,54.7z M458.8,54.8c0.1,9.4,7.6,16.7,16.8,16.6c9.2,0,16.6-7.4,16.6-16.7c0-9.4-7.7-16.7-16.8-16.6
	C466.4,38.2,458.9,45.4,458.8,54.8z"/>
</svg>
