<svg width="71" height="60" viewBox="0 0 71 60" fill="none" xmlns="http://www.w3.org/2000/svg">
<path d="M67.5435 22H3.45652C2.64087 22 2 21.3714 2 20.5714L7.82609 3.42857C7.82609 2.62857 8.46696 2 9.28261 2H61.7174C62.533 2 63.1739 2.62857 63.1739 3.42857L69 20.5714C69 21.3714 68.3591 22 67.5435 22Z" fill="#F6D1D3"/>
<path fill-rule="evenodd" clip-rule="evenodd" d="M9.54241 3.75C9.52847 3.81378 9.51119 3.87688 9.49063 3.93903L3.97006 20.625H67.0299L61.5094 3.93903C61.4888 3.87688 61.4715 3.81378 61.4576 3.75H9.54241ZM5.86766 2.9886C6.04376 1.30513 7.4437 0 9.17963 0H61.8204C63.5563 0 64.9562 1.30512 65.1323 2.9886L70.9048 20.436C70.9679 20.6265 71 20.826 71 21.0268C71 22.8803 69.5271 24.375 67.6693 24.375H3.33066C1.47294 24.375 0 22.8803 0 21.0268C0 20.826 0.0321365 20.6265 0.0951816 20.436L5.86766 2.9886Z" fill="#D11B25"/>
<path fill-rule="evenodd" clip-rule="evenodd" d="M6.53947 22.5C6.53947 21.4645 7.37599 20.625 8.4079 20.625H62.5921C63.624 20.625 64.4605 21.4645 64.4605 22.5V58.125C64.4605 59.1605 63.624 60 62.5921 60H8.4079C7.37599 60 6.53947 59.1605 6.53947 58.125V22.5ZM10.2763 24.375V56.25H60.7237V24.375H10.2763Z" fill="#D11B25"/>
<path fill-rule="evenodd" clip-rule="evenodd" d="M36.4342 22.5C37.4661 22.5 38.3026 23.3395 38.3026 24.375V57.1875C38.3026 58.223 37.4661 59.0625 36.4342 59.0625C35.4023 59.0625 34.5658 58.223 34.5658 57.1875V24.375C34.5658 23.3395 35.4023 22.5 36.4342 22.5Z" fill="#D11B25"/>
<path fill-rule="evenodd" clip-rule="evenodd" d="M25.6106 27.7367C26.3403 28.4689 26.3403 29.6561 25.6106 30.3883L16.2685 39.7633C15.5389 40.4956 14.3559 40.4956 13.6262 39.7633C12.8965 39.0311 12.8965 37.8439 13.6262 37.1117L22.9683 27.7367C23.698 27.0044 24.881 27.0044 25.6106 27.7367Z" fill="#D11B25"/>
<path fill-rule="evenodd" clip-rule="evenodd" d="M52.7028 27.7367C53.4324 28.4689 53.4324 29.6561 52.7028 30.3883L43.3606 39.7633C42.631 40.4956 41.448 40.4956 40.7183 39.7633C39.9886 39.0311 39.9886 37.8439 40.7183 37.1117L50.0604 27.7367C50.7901 27.0044 51.9731 27.0044 52.7028 27.7367Z" fill="#D11B25"/>
<path fill-rule="evenodd" clip-rule="evenodd" d="M30.2817 34.2992C31.0114 35.0314 31.0114 36.2186 30.2817 36.9508L16.2685 51.0133C15.5389 51.7456 14.3559 51.7456 13.6262 51.0133C12.8965 50.2811 12.8965 49.0939 13.6262 48.3617L27.6394 34.2992C28.369 33.5669 29.552 33.5669 30.2817 34.2992Z" fill="#D11B25"/>
<path fill-rule="evenodd" clip-rule="evenodd" d="M57.3738 34.2992C58.1035 35.0314 58.1035 36.2186 57.3738 36.9508L43.3606 51.0133C42.631 51.7456 41.448 51.7456 40.7183 51.0133C39.9886 50.2811 39.9886 49.0939 40.7183 48.3617L54.7315 34.2992C55.4611 33.5669 56.6441 33.5669 57.3738 34.2992Z" fill="#D11B25"/>
</svg>
