<svg width="24" height="16" viewBox="0 0 24 16" fill="none" xmlns="http://www.w3.org/2000/svg">
<path fill-rule="evenodd" clip-rule="evenodd" d="M0 2.13333C0 0.833479 1.26208 0 2.50549 0H21.4945C22.7379 0 24 0.833479 24 2.13333V13.8667C24 14.5571 23.6204 15.1383 23.0975 15.5082C22.6535 15.8223 22.0905 16 21.4945 16H2.5055C1.90953 16 1.34651 15.8223 0.902534 15.5082C0.379636 15.1383 0 14.5571 0 13.8667V2.13333ZM2.14533 1.8001L10.0876 6.14093L11.5016 6.89654C11.796 7.05388 12.1588 7.04738 12.4466 6.8796L13.7032 6.14703L21.845 1.79603C21.7474 1.75584 21.629 1.72973 21.4945 1.72973H2.50549C2.36656 1.72973 2.24473 1.75761 2.14533 1.8001ZM22.1538 3.62228L14.6485 7.63314L13.4219 8.34824C12.5585 8.85157 11.4702 8.87107 10.5869 8.39905L9.16514 7.63926L1.84615 3.6391V13.8667C1.84615 13.934 1.88092 14.0329 2.01506 14.1278C2.12899 14.2084 2.29883 14.2703 2.5055 14.2703H21.4945C21.7012 14.2703 21.871 14.2084 21.9849 14.1278C22.1191 14.0329 22.1538 13.934 22.1538 13.8667V3.62228Z" fill="#000000"/>
</svg>
