<svg width="18" height="16" viewBox="0 0 18 16" fill="none" xmlns="http://www.w3.org/2000/svg">
<path fill-rule="evenodd" clip-rule="evenodd" d="M4.20502 7.05088C4.47839 6.7697 4.92161 6.7697 5.19497 7.05088L8.28257 10.2267L16.7732 0.245886C17.0278 -0.053372 17.47 -0.083697 17.7609 0.178154C18.0519 0.440005 18.0814 0.894873 17.8268 1.19413L8.84347 11.7541C8.71589 11.9041 8.53359 11.993 8.33996 11.9996C8.14633 12.0062 7.95869 11.93 7.82169 11.7891L4.20502 8.06911C3.93166 7.78794 3.93166 7.33206 4.20502 7.05088Z" fill="#D11B25"/>
<path fill-rule="evenodd" clip-rule="evenodd" d="M7.5 14.5938C10.8655 14.5938 13.5938 11.8655 13.5938 8.5C13.5938 5.13451 10.8655 2.40625 7.5 2.40625C4.13451 2.40625 1.40625 5.13451 1.40625 8.5C1.40625 11.8655 4.13451 14.5938 7.5 14.5938ZM7.5 16C11.6421 16 15 12.6421 15 8.5C15 4.35786 11.6421 1 7.5 1C3.35786 1 0 4.35786 0 8.5C0 12.6421 3.35786 16 7.5 16Z" fill="#D11B25"/>
</svg>
