<svg width="21" height="16" viewBox="0 0 21 16" fill="none" xmlns="http://www.w3.org/2000/svg">
<path d="M6.31579 13.7143C6.89714 13.7143 7.36842 14.226 7.36842 14.8571C7.36842 15.4883 6.89714 16 6.31579 16H1.05263C0.471279 16 0 15.4883 0 14.8571C0 14.226 0.471279 13.7143 1.05263 13.7143H6.31579ZM11.5789 6.85714C12.1603 6.85714 12.6316 7.36882 12.6316 8C12.6316 8.63118 12.1603 9.14286 11.5789 9.14286H1.05263C0.471279 9.14286 0 8.63118 0 8C0 7.36882 0.471279 6.85714 1.05263 6.85714H11.5789ZM18.9474 0C19.5287 0 20 0.511675 20 1.14286C20 1.77404 19.5287 2.28571 18.9474 2.28571H1.05263C0.471279 2.28571 0 1.77404 0 1.14286C0 0.511675 0.471279 0 1.05263 0H18.9474Z" fill="#D11B25"/>
<path d="M15 15L20 15" stroke="#D11B25" stroke-width="2" stroke-linecap="round"/>
<path d="M16.75 12C16.75 12.4142 17.0858 12.75 17.5 12.75C17.9142 12.75 18.25 12.4142 18.25 12H16.75ZM17.5 6L18.0431 5.48276C17.9015 5.33412 17.7053 5.25 17.5 5.25C17.2947 5.25 17.0985 5.33412 16.9569 5.48276L17.5 6ZM14.4569 8.10776C14.1712 8.40771 14.1828 8.88244 14.4828 9.1681C14.7827 9.45377 15.2574 9.44219 15.5431 9.14224L14.4569 8.10776ZM19.4569 9.14224C19.7426 9.44219 20.2173 9.45377 20.5172 9.1681C20.8172 8.88244 20.8288 8.40771 20.5431 8.10776L19.4569 9.14224ZM18.25 12V6H16.75V12H18.25ZM16.9569 5.48276L14.4569 8.10776L15.5431 9.14224L18.0431 6.51724L16.9569 5.48276ZM16.9569 6.51724L19.4569 9.14224L20.5431 8.10776L18.0431 5.48276L16.9569 6.51724Z" fill="#D11B25"/>
</svg>
