<svg width="14" height="14" viewBox="0 0 14 14" fill="none" xmlns="http://www.w3.org/2000/svg">
<path fill-rule="evenodd" clip-rule="evenodd" d="M0.516259 0.468662C0.809708 0.176327 1.28458 0.17723 1.57692 0.47068L7.00001 5.91444L12.4231 0.470694C12.7154 0.177244 13.1903 0.176341 13.4837 0.468676C13.7772 0.761012 13.7781 1.23588 13.4858 1.52933L8.05866 6.97712L13.5313 12.4707C13.8237 12.7641 13.8228 13.239 13.5293 13.5313C13.2359 13.8237 12.761 13.8228 12.4687 13.5293L7.00001 8.03981L1.53134 13.5293C1.239 13.8228 0.764129 13.8237 0.47068 13.5313C0.17723 13.239 0.176327 12.7641 0.468662 12.4707L5.94136 6.97712L0.514241 1.52932C0.221906 1.23587 0.222809 0.760998 0.516259 0.468662Z" fill="#D11B25"/>
</svg>
