<svg width="16" height="12" viewBox="0 0 16 12" fill="none" xmlns="http://www.w3.org/2000/svg">
<path fill-rule="evenodd" clip-rule="evenodd" d="M2.05564e-08 1.25C-2.25062e-08 0.835788 0.335786 0.500001 0.75 0.500001L15.25 0.5C15.6642 0.5 16 0.835786 16 1.25C16 1.66421 15.6642 2 15.25 2L0.75 2C0.335787 2 6.3619e-08 1.66421 2.05564e-08 1.25Z" fill="#D11B25"/>
<path fill-rule="evenodd" clip-rule="evenodd" d="M1.18926e-08 6.25C-2.63853e-08 5.83579 0.335786 5.5 0.75 5.5L15.25 5.5C15.6642 5.5 16 5.83579 16 6.25C16 6.66421 15.6642 7 15.25 7L0.75 7C0.335786 7 5.01704e-08 6.66421 1.18926e-08 6.25Z" fill="#D11B25"/>
<path fill-rule="evenodd" clip-rule="evenodd" d="M0 11.25C-3.17097e-08 10.8358 0.335786 10.5 0.75 10.5L15.25 10.5C15.6642 10.5 16 10.8358 16 11.25C16 11.6642 15.6642 12 15.25 12L0.75 12C0.335786 12 3.17097e-08 11.6642 0 11.25Z" fill="#D11B25"/>
</svg>
