<svg width="48" height="48" viewBox="0 0 48 48" fill="none" xmlns="http://www.w3.org/2000/svg">
<style type="text/css">
	.st0{fill:#F6D1D3;}
	.st1{fill-rule:evenodd;clip-rule:evenodd;fill:#D11B25;}
</style>
<path class="st0" d="M24,36.3c-5,0-9-2.7-9-6h18C33,33.6,29,36.3,24,36.3z"/>
<path class="st1" d="M24,34.9c5.6,0,10.7-5,10.7-10.7S29.6,13.6,24,13.6s-10.7,5-10.7,10.7S18.4,34.9,24,34.9z M24,36.3
	c6.6,0,12-5.4,12-12s-5.4-12-12-12s-12,5.3-12,12S17.4,36.3,24,36.3z"/>
<path class="st1" d="M24,25.8c0.8,0,1.4-0.7,1.4-1.5c0-0.8-0.6-1.5-1.4-1.5s-1.4,0.7-1.4,1.5C22.6,25.1,23.2,25.8,24,25.8z"/>
<path class="st1" d="M27.3,21.2c0.3,0.3,0.3,0.7,0,0.9L25.4,24c-0.3,0.3-0.7,0.3-0.9,0c-0.2-0.3-0.3-0.7,0-0.9l1.9-1.9
	C26.6,21,27,21,27.3,21.2z"/>
<path class="st1" d="M34,30.3c0,0.6-0.4,1-0.9,1H14.9c-0.5,0-0.9-0.4-0.9-1s0.4-1,0.9-1h18.2C33.6,29.3,34,29.7,34,30.3z"/>
<path class="st1" d="M16,24.3c0,0.6-0.3,1-0.6,1h-1.8c-0.3,0-0.6-0.4-0.6-1s0.3-1,0.6-1h1.8C15.7,23.3,16,23.7,16,24.3z"/>
<path class="st1" d="M24,16.3c-0.6,0-1-0.3-1-0.6v-1.8c0-0.3,0.4-0.6,1-0.6s1,0.3,1,0.6v1.8C25,16,24.6,16.3,24,16.3z"/>
<path class="st1" d="M30.1,18.9c-0.3-0.3-0.3-0.7,0-0.9l1.4-1.4c0.3-0.3,0.7-0.3,0.9,0c0.3,0.3,0.3,0.7,0,0.9L31,18.9
	C30.8,19.2,30.4,19.2,30.1,18.9z"/>
<path class="st1" d="M17.8,18.9c0.3-0.3,0.3-0.7,0-0.9l-1.4-1.4c-0.3-0.3-0.7-0.3-0.9,0c-0.3,0.3-0.3,0.7,0,0.9l1.4,1.4
	C17.1,19.2,17.6,19.2,17.8,18.9z"/>
<path class="st1" d="M35,24.3c0,0.6-0.3,1-0.6,1h-1.8c-0.3,0-0.6-0.4-0.6-1s0.3-1,0.6-1h1.8C34.7,23.3,35,23.7,35,24.3z"/>
</svg>
