<?xml version="1.0" encoding="utf-8"?>
<!-- Generator: Adobe Illustrator 23.0.6, SVG Export Plug-In . SVG Version: 6.00 Build 0)  -->
<svg version="1.1" id="Layer_1" xmlns="http://www.w3.org/2000/svg" xmlns:xlink="http://www.w3.org/1999/xlink" x="0px" y="0px"
	 viewBox="0 0 24 24" style="enable-background:new 0 0 24 24;" xml:space="preserve">
<style type="text/css">
	.st0{fill:#F6D1D3;}
	.st1{fill-rule:evenodd;clip-rule:evenodd;fill:#D11B25;}
</style>
<path class="st0" d="M12,24c-5,0-9-2.7-9-6h18C21,21.3,17,24,12,24z"/>
<path class="st1" d="M12,22.6c5.6,0,10.7-5,10.7-10.7S17.6,1.3,12,1.3S1.3,6.3,1.3,12S6.4,22.6,12,22.6z M12,24c6.6,0,12-5.4,12-12
	S18.6,0,12,0S0,5.3,0,12S5.4,24,12,24z"/>
<path class="st1" d="M12,13.5c0.8,0,1.4-0.7,1.4-1.5s-0.6-1.5-1.4-1.5s-1.4,0.7-1.4,1.5S11.2,13.5,12,13.5z"/>
<path class="st1" d="M15.3,8.9c0.3,0.3,0.3,0.7,0,0.9l-1.9,1.9c-0.3,0.3-0.7,0.3-0.9,0s-0.3-0.7,0-0.9l1.9-1.9
	C14.6,8.7,15,8.7,15.3,8.9z"/>
<path class="st1" d="M22,18c0,0.6-0.4,1-0.9,1H2.9C2.4,19,2,18.6,2,18s0.4-1,0.9-1h18.2C21.6,17,22,17.4,22,18z"/>
<path class="st1" d="M4,12c0,0.6-0.3,1-0.6,1H1.6C1.3,13,1,12.6,1,12s0.3-1,0.6-1h1.8C3.7,11,4,11.4,4,12z"/>
<path class="st1" d="M12,4c-0.6,0-1-0.3-1-0.6V1.6C11,1.3,11.4,1,12,1s1,0.3,1,0.6v1.8C13,3.7,12.6,4,12,4z"/>
<path class="st1" d="M18.1,6.6c-0.3-0.3-0.3-0.7,0-0.9l1.4-1.4c0.3-0.3,0.7-0.3,0.9,0c0.3,0.3,0.3,0.7,0,0.9L19,6.6
	C18.8,6.9,18.4,6.9,18.1,6.6z"/>
<path class="st1" d="M5.8,6.6c0.3-0.3,0.3-0.7,0-0.9L4.4,4.3C4.1,4,3.7,4,3.5,4.3C3.2,4.6,3.2,5,3.5,5.2l1.4,1.4
	C5.1,6.9,5.6,6.9,5.8,6.6z"/>
<path class="st1" d="M23,12c0,0.6-0.3,1-0.6,1h-1.8c-0.3,0-0.6-0.4-0.6-1s0.3-1,0.6-1h1.8C22.7,11,23,11.4,23,12z"/>
</svg>
