<svg width="20" height="20" viewBox="0 0 20 20" fill="none" xmlns="http://www.w3.org/2000/svg">
<path fill-rule="evenodd" clip-rule="evenodd" d="M10 18.8889C14.7046 18.8889 18.8889 14.7046 18.8889 10C18.8889 5.29535 14.7046 1.11111 10 1.11111C5.29535 1.11111 1.11111 5.29535 1.11111 10C1.11111 14.7046 5.29535 18.8889 10 18.8889ZM10 20C15.5228 20 20 15.5228 20 10C20 4.47715 15.5228 0 10 0C4.47715 0 0 4.47715 0 10C0 15.5228 4.47715 20 10 20Z" fill="#020202"/>
<path d="M11.1114 10.1389C11.1114 10.7526 10.6139 11.2501 10.0003 11.2501C9.38662 11.2501 8.88916 10.7526 8.88916 10.1389C8.88916 9.52529 9.38662 9.02783 10.0003 9.02783C10.6139 9.02783 11.1114 9.52529 11.1114 10.1389Z" fill="#020202"/>
<path fill-rule="evenodd" clip-rule="evenodd" d="M10.0003 9.76857C9.79572 9.76857 9.6299 9.93439 9.6299 10.1389C9.6299 10.3435 9.79572 10.5093 10.0003 10.5093C10.2048 10.5093 10.3706 10.3435 10.3706 10.1389C10.3706 9.93439 10.2048 9.76857 10.0003 9.76857ZM10.0003 11.2501C10.6139 11.2501 11.1114 10.7526 11.1114 10.1389C11.1114 9.52529 10.6139 9.02783 10.0003 9.02783C9.38662 9.02783 8.88916 9.52529 8.88916 10.1389C8.88916 10.7526 9.38662 11.2501 10.0003 11.2501Z" fill="#020202"/>
<path fill-rule="evenodd" clip-rule="evenodd" d="M12.7236 7.4724C12.9385 7.68731 12.9385 8.03577 12.7236 8.25068L11.167 9.80726C10.9521 10.0222 10.6037 10.0222 10.3888 9.80726C10.1738 9.59234 10.1738 9.24389 10.3888 9.02897L11.9453 7.4724C12.1602 7.25748 12.5087 7.25748 12.7236 7.4724Z" fill="#020202"/>
<path fill-rule="evenodd" clip-rule="evenodd" d="M18.3335 15.1388C18.3335 15.4456 17.9963 15.6944 17.5804 15.6944H2.14213C1.72622 15.6944 1.38905 15.4456 1.38905 15.1388C1.38905 14.832 1.72622 14.5833 2.14213 14.5833L17.5804 14.5833C17.9963 14.5833 18.3335 14.832 18.3335 15.1388Z" fill="#020202"/>
<path fill-rule="evenodd" clip-rule="evenodd" d="M3.3335 10.1388C3.3335 10.4456 3.08477 10.6944 2.77794 10.6944H1.11127C0.804449 10.6944 0.555718 10.4456 0.555718 10.1388C0.555718 9.83198 0.804449 9.58325 1.11127 9.58325H2.77794C3.08477 9.58325 3.3335 9.83198 3.3335 10.1388Z" fill="#020202"/>
<path fill-rule="evenodd" clip-rule="evenodd" d="M10.0001 3.19434C9.69328 3.19434 9.44455 2.94561 9.44455 2.63878L9.44455 0.972113C9.44455 0.665288 9.69328 0.416557 10.0001 0.416557C10.3069 0.416557 10.5557 0.665288 10.5557 0.972113L10.5557 2.63878C10.5557 2.94561 10.3069 3.19434 10.0001 3.19434Z" fill="#020202"/>
<path fill-rule="evenodd" clip-rule="evenodd" d="M15.1155 5.5515C14.8985 5.33454 14.8985 4.98278 15.1155 4.76583L16.294 3.58731C16.5109 3.37036 16.8627 3.37036 17.0796 3.58731C17.2966 3.80427 17.2966 4.15603 17.0796 4.37299L15.9011 5.5515C15.6842 5.76846 15.3324 5.76846 15.1155 5.5515Z" fill="#020202"/>
<path fill-rule="evenodd" clip-rule="evenodd" d="M4.85719 5.5515C5.07415 5.33454 5.07415 4.98278 4.85719 4.76582L3.67868 3.58731C3.46172 3.37036 3.10997 3.37036 2.89301 3.58731C2.67605 3.80427 2.67605 4.15603 2.89301 4.37299L4.07152 5.5515C4.28848 5.76846 4.64023 5.76846 4.85719 5.5515Z" fill="#020202"/>
<path fill-rule="evenodd" clip-rule="evenodd" d="M19.4443 9.86122C19.4443 10.168 19.2205 10.4168 18.9443 10.4168H17.4443C17.1682 10.4168 16.9443 10.168 16.9443 9.86122C16.9443 9.5544 17.1682 9.30566 17.4443 9.30566H18.9443C19.2205 9.30566 19.4443 9.5544 19.4443 9.86122Z" fill="#020202"/>
</svg>
