<svg width="18" height="17" viewBox="0 0 18 17" fill="none" xmlns="http://www.w3.org/2000/svg">
<path d="M16.4743 1.43702C14.5015 -0.479372 11.3477 -0.478955 9.37539 1.43796L1.10337 9.65045C-0.392373 11.1704 -0.363787 13.6064 1.16722 15.0914C2.67304 16.552 5.07795 16.552 6.58377 15.0914L14.0742 7.65487C15.048 6.68812 15.048 5.12066 14.0742 4.1539C13.1004 3.18714 11.5216 3.18714 10.5478 4.1539L3.38306 11.2671C3.13316 11.5239 3.14033 11.9333 3.39909 12.1814C3.65151 12.4235 4.05166 12.4235 4.30408 12.1814L11.4688 5.06826C11.9439 4.61638 12.6981 4.63249 13.1532 5.10418C13.5946 5.56162 13.5946 6.28308 13.1532 6.74052L5.66278 14.177C4.65089 15.1673 3.02191 15.1557 2.0244 14.1511C1.03697 13.1567 1.03697 11.5593 2.0244 10.5648L10.2964 2.35232C11.7699 0.888941 14.1592 0.888524 15.6332 2.35133C17.1072 3.81414 17.1076 6.18631 15.6342 7.64968L7.36214 15.8622C7.08892 16.0945 7.05709 16.5027 7.29107 16.774C7.52506 17.0452 7.93625 17.0768 8.20947 16.8445C8.23496 16.8228 8.2587 16.7993 8.28053 16.774L16.5526 8.56146C18.5126 6.57267 18.4776 3.38292 16.4743 1.43702Z" fill="#777777"/>
</svg>
