<svg width="334" height="326" viewBox="0 0 334 326" fill="none" xmlns="http://www.w3.org/2000/svg">
<path opacity="0.2" d="M285.996 108.108L160.634 70.6722L82.6186 96.7719C74.9296 99.3443 69.1629 105.775 67.4406 113.698L45.5596 214.351L187.454 214.806L262.228 224.872C277.565 215.067 285.996 108.108 285.996 108.108Z" fill="#56CCF2"/>
<path d="M143.793 144L265 213.048L163.737 289L47 202.69L143.793 144Z" fill="#5F555D"/>
<path d="M138.353 151L246 213.607L160.053 275L63 204.069L138.353 151Z" fill="#A19694"/>
<path d="M127 120.68L161.213 98L191 117.385L157.041 140L127 120.68Z" fill="#4668C2"/>
<path d="M127 120L157 139.739V143L127 123.433V120Z" fill="#45539E"/>
<path d="M161 99L190 116.78L187.687 118L161.356 101.789L161 99Z" fill="#444B9B"/>
<path d="M157 139.916L191 118V121.409L157 143V139.916Z" fill="#423070"/>
<path d="M130 120.762L160.661 99L161 101.831L132.033 122L130 120.762Z" fill="#3E256A"/>
<path d="M130.165 126L157 143.682L155.683 202L130 185.848L130.165 126Z" fill="#434D95"/>
<path d="M157.308 143.782L190 122L186.737 183.685L156 201L157.308 143.782Z" fill="#3E2C68"/>
<path d="M132 136L135 137.63V145L132 143.398V136Z" fill="#56CCF2"/>
<path d="M131 135L132 135.49V143H131V135Z" fill="#513B5F"/>
<path d="M130 143.476L131.538 143L136 147.048L134.923 148L130 143.476Z" fill="#4687FD"/>
<path d="M131 143H132.043L135 145H133.957L131 143Z" fill="#4884FC"/>
<path d="M130 144.96V144L135 147.04V148L130 144.96Z" fill="#337AB7"/>
<path d="M132 154L135 155.811V164L132 162.22V154Z" fill="#56CCF2"/>
<path d="M131 154L132 154.49V162H131V154Z" fill="#513B5F"/>
<path d="M130 162.381L131.538 162L136 165.238L134.923 166L130 162.381Z" fill="#4687FD"/>
<path d="M131 162H132.043L135 164H133.957L131 162Z" fill="#4884FC"/>
<path d="M130 163.2V162L135 165.8V167L130 163.2Z" fill="#337AB7"/>
<path d="M135 167V165.2L136 164V166.1L135 167Z" fill="#3E348B"/>
<path d="M166 165L165 166.449V173L166 171.576V165Z" fill="#56CCF2"/>
<path d="M169 164L166 164.367V170H169V164Z" fill="#513B5F"/>
<path d="M170 170.381L168.462 170L164 173.238L165.077 174L170 170.381Z" fill="#402862"/>
<path d="M169 170H167.957L165 173H166.043L169 170Z" fill="#402E62"/>
<path d="M170 171.72V171L165 173.28V174L170 171.72Z" fill="#3D2861"/>
<path d="M165 174V173.4L164 173V173.7L165 174Z" fill="#3E2962"/>
<path d="M166 179L165 180.449V187L166 185.576V179Z" fill="#56CCF2"/>
<path d="M169 179L166 179.367V185H169V179Z" fill="#513B5F"/>
<path d="M170 185.381L168.462 185L164 188.238L165.077 189L170 185.381Z" fill="#402862"/>
<path d="M169 185H167.957L165 187H166.043L169 185Z" fill="#402E62"/>
<path d="M170 185.96V185L165 188.04V189L170 185.96Z" fill="#3D2861"/>
<path d="M165 189V188.4L164 188V188.7L165 189Z" fill="#3E2962"/>
<path d="M175 161L172 162.449V169L175 167.576V161Z" fill="#56CCF2"/>
<path d="M177 167.286L175.718 167L172 169.429L172.897 170L177 167.286Z" fill="#402862"/>
<path d="M175 167H174.217L172 169H172.783L175 167Z" fill="#402E62"/>
<path d="M177 168.48V168L173 169.52V170L177 168.48Z" fill="#3D2861"/>
<path d="M173 170V169.4L172 169V169.7L173 170Z" fill="#3E2962"/>
<path d="M175 175L172 176.449V183L175 181.576V175Z" fill="#56CCF2"/>
<path d="M177 181.381L175.718 181L172 184.238L172.897 185L177 181.381Z" fill="#402862"/>
<path d="M175 181H174.217L172 183H172.783L175 181Z" fill="#402E62"/>
<path d="M177 182.72V182L173 184.28V185L177 182.72Z" fill="#3D2861"/>
<path d="M173 185V184.4L172 184V184.7L173 185Z" fill="#3E2962"/>
<path d="M182 157L180 158.268V164L182 162.754V157Z" fill="#56CCF2"/>
<path d="M185 164.19L183.462 164L179 165.619L180.077 166L185 164.19Z" fill="#402862"/>
<path d="M185 164.72V164L180 166.28V167L185 164.72Z" fill="#3D2861"/>
<path d="M180 167V165.8L179 165V166.4L180 167Z" fill="#3E2962"/>
<path d="M182 171L180 172.449V179L182 177.576V171Z" fill="#56CCF2"/>
<path d="M185 177.286L183.462 177L179 179.429L180.077 180L185 177.286Z" fill="#402862"/>
<path d="M182 177H181.478L180 179H180.522L182 177Z" fill="#402E62"/>
<path d="M185 178.48V178L180 179.52V180L185 178.48Z" fill="#3D2861"/>
<path d="M180 180V179.4L179 179V179.7L180 180Z" fill="#3E2962"/>
<path d="M132 169L135 170.811V179L132 177.22V169Z" fill="#56CCF2"/>
<path d="M131 169L132 169.429V176H131V169Z" fill="#513B5F"/>
<path d="M130 176.381L131.538 176L136 179.238L134.923 180L130 176.381Z" fill="#4687FD"/>
<path d="M131 176H132.043L135 179H133.957L131 176Z" fill="#4884FC"/>
<path d="M130 177.96V177L135 180.04V181L130 177.96Z" fill="#337AB7"/>
<path d="M135 181V179.8L136 179V180.4L135 181Z" fill="#3E348B"/>
<path d="M141 141L145 142.811V151L141 149.22V141Z" fill="#56CCF2"/>
<path d="M140 140L141 140.49V148H140V140Z" fill="#513B5F"/>
<path d="M139 148.571L140.538 148L145 152.857L143.923 154L139 148.571Z" fill="#4687FD"/>
<path d="M140 148H141.304L145 151H143.696L140 148Z" fill="#4884FC"/>
<path d="M139 149.44V148L145 152.56V154L139 149.44Z" fill="#337AB7"/>
<path d="M141 159L145 160.811V169L141 167.22V159Z" fill="#56CCF2"/>
<path d="M140 158L141 158.551V167H140V158Z" fill="#513B5F"/>
<path d="M139 167.286L140.538 167L145 169.429L143.923 170L139 167.286Z" fill="#4687FD"/>
<path d="M140 167H141.304L145 169H143.696L140 167Z" fill="#4884FC"/>
<path d="M139 168.2V167L145 170.8V172L139 168.2Z" fill="#337AB7"/>
<path d="M141 174L145 175.811V184L141 182.22V174Z" fill="#56CCF2"/>
<path d="M140 174L141 174.49V182H140V174Z" fill="#513B5F"/>
<path d="M139 182.286L140.538 182L145 184.429L143.923 185L139 182.286Z" fill="#4687FD"/>
<path d="M140 182H141.304L145 184H143.696L140 182Z" fill="#4884FC"/>
<path d="M139 183.96V183L145 186.04V187L139 183.96Z" fill="#337AB7"/>
<path d="M151 148L154 149.811V158L151 156.22V148Z" fill="#56CCF2"/>
<path d="M150 148L151 148.429V155H150V148Z" fill="#513B5F"/>
<path d="M148 155.381L149.795 155L155 158.238L153.744 159L148 155.381Z" fill="#4687FD"/>
<path d="M150 155H151.043L154 158H152.957L150 155Z" fill="#4884FC"/>
<path d="M148 156.2V155L154 158.8V160L148 156.2Z" fill="#337AB7"/>
<path d="M154 160V158.8L155 158V159.4L154 160Z" fill="#3E348B"/>
<path d="M151 165L154 166.63V174L151 172.398V165Z" fill="#56CCF2"/>
<path d="M150 164L151 164.551V173H150V164Z" fill="#513B5F"/>
<path d="M148 173.286L149.795 173L155 175.429L153.744 176L148 173.286Z" fill="#4687FD"/>
<path d="M150 173H151.043L154 174H152.957L150 173Z" fill="#4884FC"/>
<path d="M148 174.2V173L154 176.8V178L148 174.2Z" fill="#337AB7"/>
<path d="M154 178V176.8L155 176V177.4L154 178Z" fill="#3E348B"/>
<path d="M151 180L154 181.63V189L151 187.398V180Z" fill="#56CCF2"/>
<path d="M150 179L151 179.612V189H150V179Z" fill="#513B5F"/>
<path d="M148 189.19L149.795 189L155 190.619L153.744 191L148 189.19Z" fill="#4687FD"/>
<path d="M148 189.96V189L154 192.04V193L148 189.96Z" fill="#337AB7"/>
<path d="M154 193V191.8L155 191V192.4L154 193Z" fill="#3E348B"/>
<path d="M164 146.646L185 133V146.646L164 161V146.646Z" fill="#56CCF2"/>
<path d="M192.046 189L233 214.543L205.189 235L164 207.03L192.046 189Z" fill="#219653"/>
<path opacity="0.2" fill-rule="evenodd" clip-rule="evenodd" d="M184 199.5C184 198.671 185.791 198 188 198C190.209 198 192 198.671 192 199.5C192 200.328 190.209 201 188 201C185.791 201 184 200.328 184 199.5Z" fill="#007DFF"/>
<path d="M184 193.038V193.316C184 193.783 184.438 194.178 185.012 193.916C185.343 193.765 187 193 187 193" stroke="#777777" stroke-width="1.25" stroke-linecap="round"/>
<path d="M191 191V191.555C191 191.829 190.765 192.222 189.633 191.843C188.585 191.492 188 191.312 188 191.312" stroke="#777777" stroke-width="1.25" stroke-linecap="round"/>
<path fill-rule="evenodd" clip-rule="evenodd" d="M188 190V198.748C188 198.887 187.776 199 187.5 199C187.224 199 187 198.887 187 198.748V190" fill="#806262"/>
<path fill-rule="evenodd" clip-rule="evenodd" d="M191.36 187C192.266 187 193 187.895 193 189C193 190.105 192.266 191 191.36 191C190.794 191 190.295 190.65 190 190.118" fill="url(#paint0_linear)"/>
<path fill-rule="evenodd" clip-rule="evenodd" d="M184.035 187.099C184.012 186.944 184 186.786 184 186.625V184.375C184 182.519 185.575 181 187.5 181C189.425 181 191 182.519 191 184.375V186.625C191 188.481 189.425 190 187.5 190C187.001 190 186.525 189.898 186.095 189.714" fill="url(#paint1_linear)"/>
<path fill-rule="evenodd" clip-rule="evenodd" d="M186 190C186 191.657 184.881 193 183.5 193C182.119 193 181 191.657 181 190C181 188.343 182.119 187 183.5 187C184.881 187 186 188.343 186 190Z" fill="url(#paint2_linear)"/>
<path opacity="0.2" fill-rule="evenodd" clip-rule="evenodd" d="M198 202.5C198 201.119 199.791 200 202 200C204.209 200 206 201.119 206 202.5C206 203.881 204.209 205 202 205C199.791 205 198 203.881 198 202.5Z" fill="#007DFF"/>
<path d="M198 196.076V196.631C198 197.567 198.438 198.357 199.012 197.832C199.343 197.53 201 196 201 196" stroke="#777777" stroke-width="1.25" stroke-linecap="round"/>
<path d="M206 194V194.555C206 194.829 205.687 195.222 204.177 194.843C202.779 194.492 202 194.312 202 194.312" stroke="#777777" stroke-width="1.25" stroke-linecap="round"/>
<path fill-rule="evenodd" clip-rule="evenodd" d="M202 193V202.72C202 202.874 201.776 203 201.5 203C201.224 203 201 202.874 201 202.72V193" fill="#806262"/>
<path fill-rule="evenodd" clip-rule="evenodd" d="M204.813 190C206.021 190 207 190.895 207 192C207 193.105 206.021 194 204.813 194C204.058 194 203.393 193.65 203 193.118" fill="url(#paint3_linear)"/>
<path fill-rule="evenodd" clip-rule="evenodd" d="M199.035 190.422C199.012 190.284 199 190.143 199 190V188C199 186.35 200.575 185 202.5 185C204.425 185 206 186.35 206 188V190C206 191.65 204.425 193 202.5 193C202.001 193 201.525 192.909 201.095 192.746" fill="url(#paint4_linear)"/>
<path fill-rule="evenodd" clip-rule="evenodd" d="M201 193.5C201 194.88 199.881 196 198.5 196C197.119 196 196 194.88 196 193.5C196 192.119 197.119 191 198.5 191C199.881 191 201 192.119 201 193.5Z" fill="url(#paint5_linear)"/>
<path opacity="0.2" fill-rule="evenodd" clip-rule="evenodd" d="M198 210C198 208.895 199.791 208 202 208C204.209 208 206 208.895 206 210C206 211.104 204.209 212 202 212C199.791 212 198 211.104 198 210Z" fill="#007DFF"/>
<path d="M198 202.076V202.631C198 203.567 198.438 204.357 199.012 203.832C199.343 203.53 201 202 201 202" stroke="#777777" stroke-width="1.25" stroke-linecap="round"/>
<path d="M206 200V201.109C206 201.658 205.687 202.445 204.177 201.687C202.779 200.985 202 200.625 202 200.625" stroke="#777777" stroke-width="1.25" stroke-linecap="round"/>
<path fill-rule="evenodd" clip-rule="evenodd" d="M202 199V208.72C202 208.874 201.776 209 201.5 209C201.224 209 201 208.874 201 208.72V199" fill="#806262"/>
<path fill-rule="evenodd" clip-rule="evenodd" d="M204.813 196C206.021 196 207 196.895 207 198C207 199.105 206.021 200 204.813 200C204.058 200 203.393 199.65 203 199.118" fill="url(#paint6_linear)"/>
<path fill-rule="evenodd" clip-rule="evenodd" d="M199.035 196.422C199.012 196.284 199 196.143 199 196V194C199 192.35 200.575 191 202.5 191C204.425 191 206 192.35 206 194V196C206 197.65 204.425 199 202.5 199C202.001 199 201.525 198.909 201.095 198.746" fill="url(#paint7_linear)"/>
<path fill-rule="evenodd" clip-rule="evenodd" d="M201 200C201 201.104 199.881 202 198.5 202C197.119 202 196 201.104 196 200C196 198.895 197.119 198 198.5 198C199.881 198 201 198.895 201 200Z" fill="url(#paint8_linear)"/>
<path opacity="0.2" fill-rule="evenodd" clip-rule="evenodd" d="M206 213C206 211.895 208.015 211 210.5 211C212.985 211 215 211.895 215 213C215 214.104 212.985 215 210.5 215C208.015 215 206 214.104 206 213Z" fill="#007DFF"/>
<path d="M206 207.038V207.316C206 207.783 206.438 208.178 207.012 207.916C207.343 207.765 209 207 209 207" stroke="#777777" stroke-width="1.25" stroke-linecap="round"/>
<path d="M213 204V205.109C213 205.658 212.687 206.445 211.177 205.687C209.779 204.985 209 204.625 209 204.625" stroke="#777777" stroke-width="1.25" stroke-linecap="round"/>
<path fill-rule="evenodd" clip-rule="evenodd" d="M212.813 200C214.021 200 215 200.895 215 202C215 203.105 214.021 204 212.813 204C212.058 204 211.393 203.65 211 203.118" fill="url(#paint9_linear)"/>
<path fill-rule="evenodd" clip-rule="evenodd" d="M206.035 201.099C206.012 200.944 206 200.786 206 200.625V198.375C206 196.519 207.575 195 209.5 195C211.425 195 213 196.519 213 198.375V200.625C213 202.481 211.425 204 209.5 204C209.001 204 208.525 203.898 208.095 203.714" fill="url(#paint10_linear)"/>
<path fill-rule="evenodd" clip-rule="evenodd" d="M208 203.5C208 205.433 206.657 207 205 207C203.343 207 202 205.433 202 203.5C202 201.567 203.343 200 205 200C206.657 200 208 201.567 208 203.5Z" fill="url(#paint11_linear)"/>
<path opacity="0.2" fill-rule="evenodd" clip-rule="evenodd" d="M184 206C184 204.895 185.791 204 188 204C190.209 204 192 204.895 192 206C192 207.104 190.209 208 188 208C185.791 208 184 207.104 184 206Z" fill="#007DFF"/>
<path d="M184 199.038V199.316C184 199.783 184.438 200.178 185.012 199.916C185.343 199.765 187 199 187 199" stroke="#777777" stroke-width="1.25" stroke-linecap="round"/>
<path d="M191 198V198.555C191 198.829 190.765 199.222 189.633 198.843C188.585 198.492 188 198.312 188 198.312" stroke="#777777" stroke-width="1.25" stroke-linecap="round"/>
<path fill-rule="evenodd" clip-rule="evenodd" d="M188 196V205.72C188 205.874 187.776 206 187.5 206C187.224 206 187 205.874 187 205.72V196" fill="#806262"/>
<path fill-rule="evenodd" clip-rule="evenodd" d="M191.36 193C192.266 193 193 194.119 193 195.5C193 196.881 192.266 198 191.36 198C190.794 198 190.295 197.563 190 196.898" fill="url(#paint12_linear)"/>
<path fill-rule="evenodd" clip-rule="evenodd" d="M184.035 193.744C184.012 193.623 184 193.5 184 193.375V191.625C184 190.181 185.575 189 187.5 189C189.425 189 191 190.181 191 191.625V193.375C191 194.819 189.425 196 187.5 196C187.001 196 186.525 195.921 186.095 195.778" fill="url(#paint13_linear)"/>
<path fill-rule="evenodd" clip-rule="evenodd" d="M186 196.5C186 197.88 184.881 199 183.5 199C182.119 199 181 197.88 181 196.5C181 195.119 182.119 194 183.5 194C184.881 194 186 195.119 186 196.5Z" fill="url(#paint14_linear)"/>
<path opacity="0.2" fill-rule="evenodd" clip-rule="evenodd" d="M194 201C194 199.895 195.567 199 197.5 199C199.433 199 201 199.895 201 201C201 202.104 199.433 203 197.5 203C195.567 203 194 202.104 194 201Z" fill="#007DFF"/>
<path d="M194 194.038V194.316C194 194.783 194.438 195.178 195.012 194.916C195.343 194.765 197 194 197 194" stroke="#777777" stroke-width="1.25" stroke-linecap="round"/>
<path d="M201 192V193.109C201 193.658 200.765 194.445 199.633 193.687C198.585 192.985 198 192.625 198 192.625" stroke="#777777" stroke-width="1.25" stroke-linecap="round"/>
<path fill-rule="evenodd" clip-rule="evenodd" d="M198 191V199.748C198 199.887 197.776 200 197.5 200C197.224 200 197 199.887 197 199.748V191" fill="#806262"/>
<path fill-rule="evenodd" clip-rule="evenodd" d="M200.813 189C202.021 189 203 189.672 203 190.5C203 191.328 202.021 192 200.813 192C200.058 192 199.393 191.738 199 191.339" fill="url(#paint15_linear)"/>
<path fill-rule="evenodd" clip-rule="evenodd" d="M195.03 188.422C195.01 188.284 195 188.143 195 188V186C195 184.35 196.35 183 198 183C199.65 183 201 184.35 201 186V188C201 189.65 199.65 191 198 191C197.572 191 197.164 190.909 196.796 190.746" fill="url(#paint16_linear)"/>
<path fill-rule="evenodd" clip-rule="evenodd" d="M196 191.5C196 192.88 194.881 194 193.5 194C192.119 194 191 192.88 191 191.5C191 190.119 192.119 189 193.5 189C194.881 189 196 190.119 196 191.5Z" fill="url(#paint17_linear)"/>
<path opacity="0.2" fill-rule="evenodd" clip-rule="evenodd" d="M207 204.5C207 203.119 209.015 202 211.5 202C213.985 202 216 203.119 216 204.5C216 205.881 213.985 207 211.5 207C209.015 207 207 205.881 207 204.5Z" fill="#007DFF"/>
<path d="M207 198.038V198.316C207 198.783 207.583 199.178 208.35 198.916C208.791 198.765 211 198 211 198" stroke="#777777" stroke-width="1.25" stroke-linecap="round"/>
<path d="M215 195V196.664C215 197.487 214.843 198.667 214.088 197.53C213.39 196.477 213 195.937 213 195.937" stroke="#777777" stroke-width="1.25" stroke-linecap="round"/>
<path fill-rule="evenodd" clip-rule="evenodd" d="M213 194V203.72C213 203.874 212.552 204 212 204C211.448 204 211 203.874 211 203.72V194" fill="#806262"/>
<path fill-rule="evenodd" clip-rule="evenodd" d="M216.36 191C217.266 191 218 191.895 218 193C218 194.105 217.266 195 216.36 195C215.794 195 215.295 194.65 215 194.118" fill="url(#paint18_linear)"/>
<path fill-rule="evenodd" clip-rule="evenodd" d="M208.035 191.422C208.012 191.284 208 191.143 208 191V189C208 187.35 209.575 186 211.5 186C213.425 186 215 187.35 215 189V191C215 192.65 213.425 194 211.5 194C211.001 194 210.525 193.909 210.095 193.746" fill="url(#paint19_linear)"/>
<path fill-rule="evenodd" clip-rule="evenodd" d="M211 195C211 196.657 209.881 198 208.5 198C207.119 198 206 196.657 206 195C206 193.343 207.119 192 208.5 192C209.881 192 211 193.343 211 195Z" fill="url(#paint20_linear)"/>
<path opacity="0.2" fill-rule="evenodd" clip-rule="evenodd" d="M201 211.5C201 210.119 202.791 209 205 209C207.209 209 209 210.119 209 211.5C209 212.881 207.209 214 205 214C202.791 214 201 212.881 201 211.5Z" fill="#007DFF"/>
<path d="M201 204.076V204.631C201 205.567 201.438 206.357 202.012 205.832C202.343 205.53 204 204 204 204" stroke="#777777" stroke-width="1.25" stroke-linecap="round"/>
<path d="M208 202V203.109C208 203.658 207.843 204.445 207.088 203.687C206.39 202.985 206 202.625 206 202.625" stroke="#777777" stroke-width="1.25" stroke-linecap="round"/>
<path fill-rule="evenodd" clip-rule="evenodd" d="M206 201V211.692C206 211.862 205.552 212 205 212C204.448 212 204 211.862 204 211.692V201" fill="#806262"/>
<path fill-rule="evenodd" clip-rule="evenodd" d="M208.267 198C209.776 198 211 198.895 211 200C211 201.105 209.776 202 208.267 202C207.323 202 206.491 201.65 206 201.118" fill="url(#paint21_linear)"/>
<path fill-rule="evenodd" clip-rule="evenodd" d="M201.035 198.422C201.012 198.284 201 198.143 201 198V196C201 194.35 202.575 193 204.5 193C206.425 193 208 194.35 208 196V198C208 199.65 206.425 201 204.5 201C204.001 201 203.525 200.909 203.095 200.746" fill="url(#paint22_linear)"/>
<path fill-rule="evenodd" clip-rule="evenodd" d="M203 201.5C203 202.88 201.881 204 200.5 204C199.119 204 198 202.88 198 201.5C198 200.119 199.119 199 200.5 199C201.881 199 203 200.119 203 201.5Z" fill="url(#paint23_linear)"/>
<path opacity="0.2" fill-rule="evenodd" clip-rule="evenodd" d="M201 218C201 216.895 202.791 216 205 216C207.209 216 209 216.895 209 218C209 219.104 207.209 220 205 220C202.791 220 201 219.104 201 218Z" fill="#007DFF"/>
<path d="M201 211.076V211.631C201 212.567 201.438 213.357 202.012 212.832C202.343 212.53 204 211 204 211" stroke="#777777" stroke-width="1.25" stroke-linecap="round"/>
<path d="M208 209V209.555C208 209.829 207.843 210.222 207.088 209.843C206.39 209.492 206 209.312 206 209.312" stroke="#777777" stroke-width="1.25" stroke-linecap="round"/>
<path fill-rule="evenodd" clip-rule="evenodd" d="M206 209V217.748C206 217.887 205.552 218 205 218C204.448 218 204 217.887 204 217.748V209" fill="#806262"/>
<path fill-rule="evenodd" clip-rule="evenodd" d="M208.267 205C209.776 205 211 205.895 211 207C211 208.105 209.776 209 208.267 209C207.323 209 206.491 208.65 206 208.118" fill="url(#paint24_linear)"/>
<path fill-rule="evenodd" clip-rule="evenodd" d="M201.035 205.777C201.012 205.605 201 205.429 201 205.25V202.75C201 200.687 202.575 199 204.5 199C206.425 199 208 200.687 208 202.75V205.25C208 207.313 206.425 209 204.5 209C204.001 209 203.525 208.887 203.095 208.682" fill="url(#paint25_linear)"/>
<path fill-rule="evenodd" clip-rule="evenodd" d="M203 208.5C203 209.88 201.881 211 200.5 211C199.119 211 198 209.88 198 208.5C198 207.119 199.119 206 200.5 206C201.881 206 203 207.119 203 208.5Z" fill="url(#paint26_linear)"/>
<path opacity="0.2" fill-rule="evenodd" clip-rule="evenodd" d="M208 222C208 220.895 210.015 220 212.5 220C214.985 220 217 220.895 217 222C217 223.104 214.985 224 212.5 224C210.015 224 208 223.104 208 222Z" fill="#007DFF"/>
<path d="M208 215.038V215.316C208 215.783 208.438 216.178 209.012 215.916C209.343 215.765 211 215 211 215" stroke="#777777" stroke-width="1.25" stroke-linecap="round"/>
<path d="M216 213V214.109C216 214.658 215.765 215.445 214.633 214.687C213.585 213.985 213 213.625 213 213.625" stroke="#777777" stroke-width="1.25" stroke-linecap="round"/>
<path fill-rule="evenodd" clip-rule="evenodd" d="M213 212V221.72C213 221.874 212.552 222 212 222C211.448 222 211 221.874 211 221.72V212" fill="#806262"/>
<path fill-rule="evenodd" clip-rule="evenodd" d="M216.36 209C217.266 209 218 209.895 218 211C218 212.105 217.266 213 216.36 213C215.794 213 215.295 212.65 215 212.118" fill="url(#paint27_linear)"/>
<path fill-rule="evenodd" clip-rule="evenodd" d="M209.035 209.422C209.012 209.284 209 209.143 209 209V207C209 205.35 210.575 204 212.5 204C214.425 204 216 205.35 216 207V209C216 210.65 214.425 212 212.5 212C212.001 212 211.525 211.909 211.095 211.746" fill="url(#paint28_linear)"/>
<path fill-rule="evenodd" clip-rule="evenodd" d="M211 212C211 213.657 209.881 215 208.5 215C207.119 215 206 213.657 206 212C206 210.343 207.119 209 208.5 209C209.881 209 211 210.343 211 212Z" fill="url(#paint29_linear)"/>
<path opacity="0.2" fill-rule="evenodd" clip-rule="evenodd" d="M211 212.5C211 211.119 212.791 210 215 210C217.209 210 219 211.119 219 212.5C219 213.881 217.209 215 215 215C212.791 215 211 213.881 211 212.5Z" fill="#007DFF"/>
<path d="M211 206.076V206.631C211 207.567 211.583 208.357 212.35 207.832C212.791 207.53 215 206 215 206" stroke="#777777" stroke-width="1.25" stroke-linecap="round"/>
<path d="M218 204V205.109C218 205.658 217.765 206.445 216.633 205.687C215.585 204.985 215 204.625 215 204.625" stroke="#777777" stroke-width="1.25" stroke-linecap="round"/>
<path fill-rule="evenodd" clip-rule="evenodd" d="M218.813 199C220.021 199 221 200.119 221 201.5C221 202.881 220.021 204 218.813 204C218.058 204 217.393 203.563 217 202.898" fill="url(#paint30_linear)"/>
<path fill-rule="evenodd" clip-rule="evenodd" d="M211.035 200.777C211.012 200.605 211 200.429 211 200.25V197.75C211 195.687 212.575 194 214.5 194C216.425 194 218 195.687 218 197.75V200.25C218 202.313 216.425 204 214.5 204C214.001 204 213.525 203.887 213.095 203.682" fill="url(#paint31_linear)"/>
<path fill-rule="evenodd" clip-rule="evenodd" d="M215 203C215 204.657 213.209 206 211 206C208.791 206 207 204.657 207 203C207 201.343 208.791 200 211 200C213.209 200 215 201.343 215 203Z" fill="url(#paint32_linear)"/>
<path opacity="0.2" fill-rule="evenodd" clip-rule="evenodd" d="M191 210C191 208.895 192.791 208 195 208C197.209 208 199 208.895 199 210C199 211.104 197.209 212 195 212C192.791 212 191 211.104 191 210Z" fill="#007DFF"/>
<path d="M191 203.038V203.316C191 203.783 191.729 204.178 192.687 203.916C193.238 203.765 196 203 196 203" stroke="#777777" stroke-width="1.25" stroke-linecap="round"/>
<path d="M199 200V201.109C199 201.658 198.765 202.445 197.633 201.687C196.585 200.985 196 200.625 196 200.625" stroke="#777777" stroke-width="1.25" stroke-linecap="round"/>
<path fill-rule="evenodd" clip-rule="evenodd" d="M198.813 197C200.021 197 201 197.672 201 198.5C201 199.328 200.021 200 198.813 200C198.058 200 197.393 199.738 197 199.339" fill="url(#paint33_linear)"/>
<path fill-rule="evenodd" clip-rule="evenodd" d="M192.035 197.099C192.012 196.944 192 196.786 192 196.625V194.375C192 192.519 193.575 191 195.5 191C197.425 191 199 192.519 199 194.375V196.625C199 198.481 197.425 200 195.5 200C195.001 200 194.525 199.898 194.095 199.714" fill="url(#paint34_linear)"/>
<path fill-rule="evenodd" clip-rule="evenodd" d="M194 200.5C194 201.88 192.657 203 191 203C189.343 203 188 201.88 188 200.5C188 199.119 189.343 198 191 198C192.657 198 194 199.119 194 200.5Z" fill="url(#paint35_linear)"/>
<path opacity="0.2" fill-rule="evenodd" clip-rule="evenodd" d="M190 211.5C190 210.119 191.791 209 194 209C196.209 209 198 210.119 198 211.5C198 212.881 196.209 214 194 214C191.791 214 190 212.881 190 211.5Z" fill="#007DFF"/>
<path d="M190 204.076V204.631C190 205.567 190.583 206.357 191.35 205.832C191.791 205.53 194 204 194 204" stroke="#777777" stroke-width="1.25" stroke-linecap="round"/>
<path d="M197 202V203.109C197 203.658 196.922 204.445 196.544 203.687C196.195 202.985 196 202.625 196 202.625" stroke="#777777" stroke-width="1.25" stroke-linecap="round"/>
<path fill-rule="evenodd" clip-rule="evenodd" d="M196 201V211.692C196 211.862 195.552 212 195 212C194.448 212 194 211.862 194 211.692V201" fill="#806262"/>
<path fill-rule="evenodd" clip-rule="evenodd" d="M197.36 198C198.266 198 199 198.895 199 200C199 201.105 198.266 202 197.36 202C196.794 202 196.295 201.65 196 201.118" fill="url(#paint36_linear)"/>
<path fill-rule="evenodd" clip-rule="evenodd" d="M191.03 198.422C191.01 198.284 191 198.143 191 198V196C191 194.35 192.35 193 194 193C195.65 193 197 194.35 197 196V198C197 199.65 195.65 201 194 201C193.572 201 193.164 200.909 192.796 200.746" fill="url(#paint37_linear)"/>
<path fill-rule="evenodd" clip-rule="evenodd" d="M193 201.5C193 202.88 191.657 204 190 204C188.343 204 187 202.88 187 201.5C187 200.119 188.343 199 190 199C191.657 199 193 200.119 193 201.5Z" fill="url(#paint38_linear)"/>
<path opacity="0.2" fill-rule="evenodd" clip-rule="evenodd" d="M190 218C190 216.895 191.791 216 194 216C196.209 216 198 216.895 198 218C198 219.104 196.209 220 194 220C191.791 220 190 219.104 190 218Z" fill="#007DFF"/>
<path d="M190 211.076V211.631C190 212.567 190.583 213.357 191.35 212.832C191.791 212.53 194 211 194 211" stroke="#777777" stroke-width="1.25" stroke-linecap="round"/>
<path d="M197 209V209.555C197 209.829 196.922 210.222 196.544 209.843C196.195 209.492 196 209.312 196 209.312" stroke="#777777" stroke-width="1.25" stroke-linecap="round"/>
<path fill-rule="evenodd" clip-rule="evenodd" d="M196 209V217.748C196 217.887 195.552 218 195 218C194.448 218 194 217.887 194 217.748V209" fill="#806262"/>
<path fill-rule="evenodd" clip-rule="evenodd" d="M197.36 205C198.266 205 199 205.895 199 207C199 208.105 198.266 209 197.36 209C196.794 209 196.295 208.65 196 208.118" fill="url(#paint39_linear)"/>
<path fill-rule="evenodd" clip-rule="evenodd" d="M191.03 205.777C191.01 205.605 191 205.429 191 205.25V202.75C191 200.687 192.35 199 194 199C195.65 199 197 200.687 197 202.75V205.25C197 207.313 195.65 209 194 209C193.572 209 193.164 208.887 192.796 208.682" fill="url(#paint40_linear)"/>
<path fill-rule="evenodd" clip-rule="evenodd" d="M193 208.5C193 209.88 191.657 211 190 211C188.343 211 187 209.88 187 208.5C187 207.119 188.343 206 190 206C191.657 206 193 207.119 193 208.5Z" fill="url(#paint41_linear)"/>
<path opacity="0.2" fill-rule="evenodd" clip-rule="evenodd" d="M197 222C197 220.895 199.015 220 201.5 220C203.985 220 206 220.895 206 222C206 223.104 203.985 224 201.5 224C199.015 224 197 223.104 197 222Z" fill="#007DFF"/>
<path d="M197 215.038V215.316C197 215.783 197.583 216.178 198.35 215.916C198.791 215.765 201 215 201 215" stroke="#777777" stroke-width="1.25" stroke-linecap="round"/>
<path d="M205 213V214.109C205 214.658 204.765 215.445 203.633 214.687C202.585 213.985 202 213.625 202 213.625" stroke="#777777" stroke-width="1.25" stroke-linecap="round"/>
<path fill-rule="evenodd" clip-rule="evenodd" d="M202 212V221.72C202 221.874 201.776 222 201.5 222C201.224 222 201 221.874 201 221.72V212" fill="#806262"/>
<path fill-rule="evenodd" clip-rule="evenodd" d="M204.36 209C205.266 209 206 209.895 206 211C206 212.105 205.266 213 204.36 213C203.794 213 203.295 212.65 203 212.118" fill="url(#paint42_linear)"/>
<path fill-rule="evenodd" clip-rule="evenodd" d="M198.035 209.422C198.012 209.284 198 209.143 198 209V207C198 205.35 199.575 204 201.5 204C203.425 204 205 205.35 205 207V209C205 210.65 203.425 212 201.5 212C201.001 212 200.525 211.909 200.095 211.746" fill="url(#paint43_linear)"/>
<path fill-rule="evenodd" clip-rule="evenodd" d="M200 212C200 213.657 199.105 215 198 215C196.896 215 196 213.657 196 212C196 210.343 196.896 209 198 209C199.105 209 200 210.343 200 212Z" fill="url(#paint44_linear)"/>
<path d="M81 145L124 173.09L123.829 218L81 191.297V145Z" fill="url(#paint45_linear)"/>
<path d="M124.182 173.897L148 158L147.455 202.103L124 218L124.182 173.897Z" fill="url(#paint46_linear)"/>
<path d="M124 217.383L147 201V218.617L124 235V217.383Z" fill="#761A1A"/>
<path d="M81 191L124 217.537V235L81 208.634V191Z" fill="url(#paint47_linear)"/>
<path d="M89 164L92 165.63V173L89 171.398V164Z" fill="#56CCF2"/>
<path d="M86 170.381L87.7949 170L93 173.238L91.7436 174L86 170.381Z" fill="url(#paint48_linear)"/>
<path d="M89 170H89.7826L92 173H91.2174L89 170Z" fill="url(#paint49_linear)"/>
<path d="M86 171.96V171L92 174.04V175L86 171.96Z" fill="#D11B25"/>
<path d="M92 175V174.4L93 174V174.7L92 175Z" fill="#020202"/>
<path d="M132 198L130 199.811V208L132 206.22V198Z" fill="#56CCF2"/>
<path d="M134 198L132 198.49V206H134V198Z" fill="url(#paint50_linear)"/>
<path d="M134 206H132.957L130 208H131.043L134 206Z" fill="url(#paint51_linear)"/>
<path d="M132 179L130 180.63V188L132 186.398V179Z" fill="#56CCF2"/>
<path d="M134 178L132 178.49V186H134V178Z" fill="url(#paint52_linear)"/>
<path d="M134 186H132.957L130 188H131.043L134 186Z" fill="url(#paint53_linear)"/>
<path d="M140 193L139 194.449V201L140 199.576V193Z" fill="#56CCF2"/>
<path d="M141 192L140 192.49V200H141V192Z" fill="url(#paint54_linear)"/>
<path d="M141 200H140.478L139 201H139.522L141 200Z" fill="url(#paint55_linear)"/>
<path d="M140 173L139 174.63V182L140 180.398V173Z" fill="#56CCF2"/>
<path d="M141 172L140 172.49V180H141V172Z" fill="url(#paint56_linear)"/>
<path d="M141 180H140.478L139 182H139.522L141 180Z" fill="url(#paint57_linear)"/>
<path d="M89 183L92 184.449V191L89 189.576V183Z" fill="#56CCF2"/>
<path d="M86 190.381L87.7949 190L93 193.238L91.7436 194L86 190.381Z" fill="url(#paint58_linear)"/>
<path d="M89 190H89.7826L92 191H91.2174L89 190Z" fill="url(#paint59_linear)"/>
<path d="M86 191.72V191L92 193.28V194L86 191.72Z" fill="#D11B25"/>
<path d="M92 194V193.4L93 193V193.7L92 194Z" fill="#020202"/>
<path d="M100 170L104 171.63V179L100 177.398V170Z" fill="#56CCF2"/>
<path d="M99 169L100 169.551V178H99V169Z" fill="url(#paint60_linear)"/>
<path d="M98 178.286L99.7949 178L105 180.429L103.744 181L98 178.286Z" fill="url(#paint61_linear)"/>
<path d="M99 178H100.304L104 179H102.696L99 178Z" fill="url(#paint62_linear)"/>
<path d="M98 179.96V179L104 182.04V183L98 179.96Z" fill="#D11B25"/>
<path d="M104 183V181.2L105 180V182.1L104 183Z" fill="#020202"/>
<path d="M100 189L104 190.811V199L100 197.22V189Z" fill="#56CCF2"/>
<path d="M99 189L100 189.551V198H99V189Z" fill="url(#paint63_linear)"/>
<path d="M98 198.19L99.7949 198L105 199.619L103.744 200L98 198.19Z" fill="url(#paint64_linear)"/>
<path d="M99 198H100.304L104 199H102.696L99 198Z" fill="url(#paint65_linear)"/>
<path d="M98 198.72V198L104 200.28V201L98 198.72Z" fill="#D11B25"/>
<path d="M104 201V199.8L105 199V200.4L104 201Z" fill="#020202"/>
<path d="M89 201L91.8235 202.853L92 208L89 206.147V201Z" fill="#56CCF2"/>
<path d="M88 201L89 201.643V207H88V201Z" fill="url(#paint66_linear)"/>
<path d="M88 207.091L89.0435 207L92 207.818L90.9565 208L88 207.091Z" fill="#D11B25"/>
<path d="M99 209L103.706 210.588L104 215L99 213.412V209Z" fill="#56CCF2"/>
<path d="M99 213.182L100.304 213L104 214.636L102.696 215L99 213.182Z" fill="#D11B25"/>
<path d="M110 216L113.765 217.588L114 222L110 220.412V216Z" fill="#56CCF2"/>
<path d="M110 220.182L111.043 220L114 221.636L112.957 222L110 220.182Z" fill="#D11B25"/>
<path d="M112 177L115 178.811V187L112 185.22V177Z" fill="#56CCF2"/>
<path d="M110 176L112 176.551V185H110V176Z" fill="url(#paint67_linear)"/>
<path d="M109 185.381L110.538 185L115 188.238L113.923 189L109 185.381Z" fill="url(#paint68_linear)"/>
<path d="M110 185H111.304L115 187H113.696L110 185Z" fill="url(#paint69_linear)"/>
<path d="M109 185.96V185L114 188.04V189L109 185.96Z" fill="#D11B25"/>
<path d="M112 196L115 197.811V206L112 204.22V196Z" fill="#56CCF2"/>
<path d="M110 195L112 195.551V204H110V195Z" fill="url(#paint70_linear)"/>
<path d="M109 204.381L110.538 204L115 207.238L113.923 208L109 204.381Z" fill="url(#paint71_linear)"/>
<path d="M110 204H111.304L115 206H113.696L110 204Z" fill="url(#paint72_linear)"/>
<path d="M109 205.2V204L114 207.8V209L109 205.2Z" fill="#D11B25"/>
<path d="M114 209V207.8L115 207V208.4L114 209Z" fill="#020202"/>
<path d="M104.327 129L148 157.588L125.024 174L81 145.412L104.327 129Z" fill="#D5323B"/>
<path d="M104.091 136L140 159.568L124.117 171L87 147.784L104.091 136Z" fill="#F43842"/>
<path d="M104 132L143 156.847L139.907 159L104.344 136.804L104 132Z" fill="#FF5962"/>
<path d="M84 145.667L103.672 132L104 136.833L87.7705 148L84 145.667Z" fill="url(#paint73_linear)"/>
<path d="M169.376 183L196 200.952L161.119 225L135 206.71L169.376 183Z" fill="#FEFFF0"/>
<path d="M170.466 185L194 200.3L165.828 218.66L157.926 219L138 206.42L170.466 185Z" fill="#FFFEEA"/>
<path d="M176.146 199L184 203.808L177.341 209L170 203.423L176.146 199Z" fill="#C79A83"/>
<path d="M176.146 199L184 203.327L177.341 208L170 202.981L176.146 199Z" fill="#FFFFED"/>
<path d="M135 206L157 221.688V225L135.165 209.832L135 206Z" fill="#ECD1BA"/>
<path d="M135 210L157 224.561V260L135.361 245.439L135 210Z" fill="#EDD2B7"/>
<path d="M141 219L145 221.045V227L141 225.705V219Z" fill="#56CCF2"/>
<path d="M140 219L141 219.649V225H140V219Z" fill="#8B807E"/>
<path d="M139 225.381L140.538 225L145 228.238L143.923 229L139 225.381Z" fill="#FEFFE0"/>
<path d="M140 225H141.304L145 227H143.696L140 225Z" fill="#FEFFFA"/>
<path d="M139 225.96V225L144 228.04V229L139 225.96Z" fill="#FCF7DA"/>
<path d="M144 229V228.4L145 228V228.7L144 229Z" fill="#A17A6B"/>
<path d="M141 235L145 237.3V244L141 242.544V235Z" fill="#56CCF2"/>
<path d="M140 235L141 235.649V241H140V235Z" fill="#8B807E"/>
<path d="M139 241.381L140.538 241L145 244.238L143.923 245L139 241.381Z" fill="#FEFFE0"/>
<path d="M140 241H141.304L145 244H143.696L140 241Z" fill="#FEFFFA"/>
<path d="M139 241.96V241L144 244.04V245L139 241.96Z" fill="#FCF7DA"/>
<path d="M144 245V244.4L145 244V244.7L144 245Z" fill="#A17A6B"/>
<path d="M150 225L154 227.045V233L150 231.705V225Z" fill="#56CCF2"/>
<path d="M148 231.381L149.795 231L155 234.238L153.744 235L148 231.381Z" fill="#FEFFE0"/>
<path d="M150 231H151.043L154 233H152.957L150 231Z" fill="#FEFFFA"/>
<path d="M148 231.96V231L154 234.04V235L148 231.96Z" fill="#FCF7DA"/>
<path d="M150 241L154 243.3V250L150 248.544V241Z" fill="#56CCF2"/>
<path d="M148 248.381L149.795 248L155 251.238L153.744 252L148 248.381Z" fill="#FEFFE0"/>
<path d="M150 248H151.043L154 250H152.957L150 248Z" fill="#FEFFFA"/>
<path d="M148 248.96V248L154 251.04V252L148 248.96Z" fill="#FCF7DA"/>
<path d="M154 252V250.8L155 250V251.4L154 252Z" fill="#A17A6B"/>
<path d="M157 221.364L165.83 221L166 224.455L157 225V221.364Z" fill="#A88D82"/>
<path d="M165 221.099L196 200V202.837L165 225V221.099Z" fill="#A88C80"/>
<path d="M165 223.398L196 204V240.771L165 260V223.398Z" fill="#A3877C"/>
<path d="M194 212L188 214.33V221L194 218.88V212Z" fill="#56CCF2"/>
<path d="M196 219.381L193.949 219L188 222.238L189.436 223L196 219.381Z" fill="#A2877E"/>
<path d="M194 219H192.957L190 220H191.043L194 219Z" fill="#706164"/>
<path d="M196 220.44V219L190 223.56V225L196 220.44Z" fill="#9B8276"/>
<path d="M190 225V223.2L188 222V224.1L190 225Z" fill="#706164"/>
<path d="M194 230L188 232.33V239L194 236.88V230Z" fill="#56CCF2"/>
<path d="M196 236.381L193.949 236L188 239.238L189.436 240L196 236.381Z" fill="#A2877E"/>
<path d="M194 236H192.957L190 239H191.043L194 236Z" fill="#706164"/>
<path d="M196 238.96V238L190 241.04V242L196 238.96Z" fill="#9B8276"/>
<path d="M190 242V240.8L188 240V241.4L190 242Z" fill="#706164"/>
<path d="M183 217L180 219.589V227L183 224.645V217Z" fill="#56CCF2"/>
<path d="M185 216L183 216.973V225H185V216Z" fill="#706466"/>
<path d="M186 225.381L184.205 225L179 228.238L180.256 229L186 225.381Z" fill="#A2877E"/>
<path d="M185 225H183.696L180 227H181.304L185 225Z" fill="#706164"/>
<path d="M186 226.2V225L180 228.8V230L186 226.2Z" fill="#9B8276"/>
<path d="M180 230V229.4L179 229V229.7L180 230Z" fill="#706164"/>
<path d="M183 235L180 237.33V244L183 241.88V235Z" fill="#56CCF2"/>
<path d="M185 235L183 235.649V241H185V235Z" fill="#706466"/>
<path d="M186 241.476L184.205 241L179 245.048L180.256 246L186 241.476Z" fill="#A2877E"/>
<path d="M185 241H183.696L180 244H181.304L185 241Z" fill="#706164"/>
<path d="M186 243.44V242L180 246.56V248L186 243.44Z" fill="#9B8276"/>
<path d="M180 248V246.2L179 245V247.1L180 248Z" fill="#706164"/>
<path d="M173 223L170 225.589V233L173 230.645V223Z" fill="#56CCF2"/>
<path d="M175 222L173 222.865V230H175V222Z" fill="#706466"/>
<path d="M176 230.476L174.205 230L169 234.048L170.256 235L176 230.476Z" fill="#A2877E"/>
<path d="M175 230H173.696L170 233H171.304L175 230Z" fill="#706164"/>
<path d="M176 232.2V231L170 234.8V236L176 232.2Z" fill="#9B8276"/>
<path d="M170 236V235.4L169 235V235.7L170 236Z" fill="#706164"/>
<path d="M173 240L170 242.589V250L173 247.645V240Z" fill="#56CCF2"/>
<path d="M175 240L173 240.865V248H175V240Z" fill="#706466"/>
<path d="M176 248.381L174.205 248L169 251.238L170.256 252L176 248.381Z" fill="#A2877E"/>
<path d="M175 248H173.696L170 250H171.304L175 248Z" fill="#706164"/>
<path d="M176 249.44V248L170 252.56V254L176 249.44Z" fill="#9B8276"/>
<path d="M170 254V252.8L169 252V253.4L170 254Z" fill="#706164"/>
<path d="M157 225.493L166 225V260L157 258.357V225.493Z" fill="#A5887C"/>
<path d="M139 205.614L169.656 185L170 186.906L140.378 207L139 205.614Z" fill="#CEA089"/>
<path d="M170 185L193 199.979L191.627 201L170.343 186.872L170 185Z" fill="#FFEDCF"/>
<path d="M179 191L181.864 193.208L182 200L179.273 197.792L179 191Z" fill="#FDE6C6"/>
<path d="M182 193.362L185 192L184.786 198.638L182.214 200L182 193.362Z" fill="#B19182"/>
<path d="M179 190.667L181.743 189L185 192.333L182.333 194L179 190.667Z" fill="#FFFFF3"/>
<path d="M180 190.2L181.5 189L181.75 191L182 193L180 190.2Z" fill="#886C63"/>
<path d="M184.202 192.119L182.308 193.152L182.032 191.804L181.703 189.832L184.202 192.119Z" fill="#EAC8AD"/>
<path d="M183 194L186 196.077V203L183.273 200.792L183 194Z" fill="#FDE6C6"/>
<path d="M186 195.532L190 194L189.714 201.468L186.286 203L186 195.532Z" fill="#B19182"/>
<path d="M183 194.395L186.2 193L190 194.93L186.5 196L183 194.395Z" fill="#FFFFF3"/>
<path d="M184 194.333L185.75 193L186 194V196L184 194.333Z" fill="#886C63"/>
<path d="M188.936 194.763L186.306 195.75L186.346 194.456L186.002 192.734L188.936 194.763Z" fill="#EAC8AD"/>
<defs>
<linearGradient id="paint0_linear" x1="191.5" y1="187" x2="191.5" y2="191" gradientUnits="userSpaceOnUse">
<stop stop-color="#6FCF97"/>
<stop offset="1" stop-color="#10AE52"/>
</linearGradient>
<linearGradient id="paint1_linear" x1="187.5" y1="181" x2="187.5" y2="190" gradientUnits="userSpaceOnUse">
<stop stop-color="#6FCF97"/>
<stop offset="1" stop-color="#13AB53"/>
</linearGradient>
<linearGradient id="paint2_linear" x1="183.5" y1="187" x2="183.5" y2="193" gradientUnits="userSpaceOnUse">
<stop stop-color="#6FCF97"/>
<stop offset="1" stop-color="#14A852"/>
</linearGradient>
<linearGradient id="paint3_linear" x1="205" y1="190" x2="205" y2="194" gradientUnits="userSpaceOnUse">
<stop stop-color="#6FCF97"/>
<stop offset="1" stop-color="#10AE52"/>
</linearGradient>
<linearGradient id="paint4_linear" x1="202.5" y1="185" x2="202.5" y2="193" gradientUnits="userSpaceOnUse">
<stop stop-color="#6FCF97"/>
<stop offset="1" stop-color="#13AB53"/>
</linearGradient>
<linearGradient id="paint5_linear" x1="198.5" y1="191" x2="198.5" y2="196" gradientUnits="userSpaceOnUse">
<stop stop-color="#6FCF97"/>
<stop offset="1" stop-color="#14A852"/>
</linearGradient>
<linearGradient id="paint6_linear" x1="205" y1="196" x2="205" y2="200" gradientUnits="userSpaceOnUse">
<stop stop-color="#6FCF97"/>
<stop offset="1" stop-color="#10AE52"/>
</linearGradient>
<linearGradient id="paint7_linear" x1="202.5" y1="191" x2="202.5" y2="199" gradientUnits="userSpaceOnUse">
<stop stop-color="#6FCF97"/>
<stop offset="1" stop-color="#13AB53"/>
</linearGradient>
<linearGradient id="paint8_linear" x1="198.5" y1="198" x2="198.5" y2="202" gradientUnits="userSpaceOnUse">
<stop stop-color="#6FCF97"/>
<stop offset="1" stop-color="#14A852"/>
</linearGradient>
<linearGradient id="paint9_linear" x1="213" y1="200" x2="213" y2="204" gradientUnits="userSpaceOnUse">
<stop stop-color="#6FCF97"/>
<stop offset="1" stop-color="#10AE52"/>
</linearGradient>
<linearGradient id="paint10_linear" x1="209.5" y1="195" x2="209.5" y2="204" gradientUnits="userSpaceOnUse">
<stop stop-color="#6FCF97"/>
<stop offset="1" stop-color="#13AB53"/>
</linearGradient>
<linearGradient id="paint11_linear" x1="205" y1="200" x2="205" y2="207" gradientUnits="userSpaceOnUse">
<stop stop-color="#6FCF97"/>
<stop offset="1" stop-color="#14A852"/>
</linearGradient>
<linearGradient id="paint12_linear" x1="191.5" y1="193" x2="191.5" y2="198" gradientUnits="userSpaceOnUse">
<stop stop-color="#6FCF97"/>
<stop offset="1" stop-color="#10AE52"/>
</linearGradient>
<linearGradient id="paint13_linear" x1="187.5" y1="189" x2="187.5" y2="196" gradientUnits="userSpaceOnUse">
<stop stop-color="#6FCF97"/>
<stop offset="1" stop-color="#13AB53"/>
</linearGradient>
<linearGradient id="paint14_linear" x1="183.5" y1="194" x2="183.5" y2="199" gradientUnits="userSpaceOnUse">
<stop stop-color="#6FCF97"/>
<stop offset="1" stop-color="#14A852"/>
</linearGradient>
<linearGradient id="paint15_linear" x1="201" y1="189" x2="201" y2="192" gradientUnits="userSpaceOnUse">
<stop stop-color="#6FCF97"/>
<stop offset="1" stop-color="#10AE52"/>
</linearGradient>
<linearGradient id="paint16_linear" x1="198" y1="183" x2="198" y2="191" gradientUnits="userSpaceOnUse">
<stop stop-color="#6FCF97"/>
<stop offset="1" stop-color="#13AB53"/>
</linearGradient>
<linearGradient id="paint17_linear" x1="193.5" y1="189" x2="193.5" y2="194" gradientUnits="userSpaceOnUse">
<stop stop-color="#6FCF97"/>
<stop offset="1" stop-color="#14A852"/>
</linearGradient>
<linearGradient id="paint18_linear" x1="216.5" y1="191" x2="216.5" y2="195" gradientUnits="userSpaceOnUse">
<stop stop-color="#6FCF97"/>
<stop offset="1" stop-color="#10AE52"/>
</linearGradient>
<linearGradient id="paint19_linear" x1="211.5" y1="186" x2="211.5" y2="194" gradientUnits="userSpaceOnUse">
<stop stop-color="#6FCF97"/>
<stop offset="1" stop-color="#13AB53"/>
</linearGradient>
<linearGradient id="paint20_linear" x1="208.5" y1="192" x2="208.5" y2="198" gradientUnits="userSpaceOnUse">
<stop stop-color="#6FCF97"/>
<stop offset="1" stop-color="#14A852"/>
</linearGradient>
<linearGradient id="paint21_linear" x1="208.5" y1="198" x2="208.5" y2="202" gradientUnits="userSpaceOnUse">
<stop stop-color="#6FCF97"/>
<stop offset="1" stop-color="#10AE52"/>
</linearGradient>
<linearGradient id="paint22_linear" x1="204.5" y1="193" x2="204.5" y2="201" gradientUnits="userSpaceOnUse">
<stop stop-color="#6FCF97"/>
<stop offset="1" stop-color="#13AB53"/>
</linearGradient>
<linearGradient id="paint23_linear" x1="200.5" y1="199" x2="200.5" y2="204" gradientUnits="userSpaceOnUse">
<stop stop-color="#6FCF97"/>
<stop offset="1" stop-color="#14A852"/>
</linearGradient>
<linearGradient id="paint24_linear" x1="208.5" y1="205" x2="208.5" y2="209" gradientUnits="userSpaceOnUse">
<stop stop-color="#6FCF97"/>
<stop offset="1" stop-color="#10AE52"/>
</linearGradient>
<linearGradient id="paint25_linear" x1="204.5" y1="199" x2="204.5" y2="209" gradientUnits="userSpaceOnUse">
<stop stop-color="#6FCF97"/>
<stop offset="1" stop-color="#13AB53"/>
</linearGradient>
<linearGradient id="paint26_linear" x1="200.5" y1="206" x2="200.5" y2="211" gradientUnits="userSpaceOnUse">
<stop stop-color="#6FCF97"/>
<stop offset="1" stop-color="#14A852"/>
</linearGradient>
<linearGradient id="paint27_linear" x1="216.5" y1="209" x2="216.5" y2="213" gradientUnits="userSpaceOnUse">
<stop stop-color="#6FCF97"/>
<stop offset="1" stop-color="#10AE52"/>
</linearGradient>
<linearGradient id="paint28_linear" x1="212.5" y1="204" x2="212.5" y2="212" gradientUnits="userSpaceOnUse">
<stop stop-color="#6FCF97"/>
<stop offset="1" stop-color="#13AB53"/>
</linearGradient>
<linearGradient id="paint29_linear" x1="208.5" y1="209" x2="208.5" y2="215" gradientUnits="userSpaceOnUse">
<stop stop-color="#6FCF97"/>
<stop offset="1" stop-color="#14A852"/>
</linearGradient>
<linearGradient id="paint30_linear" x1="219" y1="199" x2="219" y2="204" gradientUnits="userSpaceOnUse">
<stop stop-color="#6FCF97"/>
<stop offset="1" stop-color="#10AE52"/>
</linearGradient>
<linearGradient id="paint31_linear" x1="214.5" y1="194" x2="214.5" y2="204" gradientUnits="userSpaceOnUse">
<stop stop-color="#6FCF97"/>
<stop offset="1" stop-color="#13AB53"/>
</linearGradient>
<linearGradient id="paint32_linear" x1="211" y1="200" x2="211" y2="206" gradientUnits="userSpaceOnUse">
<stop stop-color="#6FCF97"/>
<stop offset="1" stop-color="#14A852"/>
</linearGradient>
<linearGradient id="paint33_linear" x1="199" y1="197" x2="199" y2="200" gradientUnits="userSpaceOnUse">
<stop stop-color="#6FCF97"/>
<stop offset="1" stop-color="#10AE52"/>
</linearGradient>
<linearGradient id="paint34_linear" x1="195.5" y1="191" x2="195.5" y2="200" gradientUnits="userSpaceOnUse">
<stop stop-color="#6FCF97"/>
<stop offset="1" stop-color="#13AB53"/>
</linearGradient>
<linearGradient id="paint35_linear" x1="191" y1="198" x2="191" y2="203" gradientUnits="userSpaceOnUse">
<stop stop-color="#6FCF97"/>
<stop offset="1" stop-color="#14A852"/>
</linearGradient>
<linearGradient id="paint36_linear" x1="197.5" y1="198" x2="197.5" y2="202" gradientUnits="userSpaceOnUse">
<stop stop-color="#6FCF97"/>
<stop offset="1" stop-color="#10AE52"/>
</linearGradient>
<linearGradient id="paint37_linear" x1="194" y1="193" x2="194" y2="201" gradientUnits="userSpaceOnUse">
<stop stop-color="#6FCF97"/>
<stop offset="1" stop-color="#13AB53"/>
</linearGradient>
<linearGradient id="paint38_linear" x1="190" y1="199" x2="190" y2="204" gradientUnits="userSpaceOnUse">
<stop stop-color="#6FCF97"/>
<stop offset="1" stop-color="#14A852"/>
</linearGradient>
<linearGradient id="paint39_linear" x1="197.5" y1="205" x2="197.5" y2="209" gradientUnits="userSpaceOnUse">
<stop stop-color="#6FCF97"/>
<stop offset="1" stop-color="#10AE52"/>
</linearGradient>
<linearGradient id="paint40_linear" x1="194" y1="199" x2="194" y2="209" gradientUnits="userSpaceOnUse">
<stop stop-color="#6FCF97"/>
<stop offset="1" stop-color="#13AB53"/>
</linearGradient>
<linearGradient id="paint41_linear" x1="190" y1="206" x2="190" y2="211" gradientUnits="userSpaceOnUse">
<stop stop-color="#6FCF97"/>
<stop offset="1" stop-color="#14A852"/>
</linearGradient>
<linearGradient id="paint42_linear" x1="204.5" y1="209" x2="204.5" y2="213" gradientUnits="userSpaceOnUse">
<stop stop-color="#6FCF97"/>
<stop offset="1" stop-color="#10AE52"/>
</linearGradient>
<linearGradient id="paint43_linear" x1="201.5" y1="204" x2="201.5" y2="212" gradientUnits="userSpaceOnUse">
<stop stop-color="#6FCF97"/>
<stop offset="1" stop-color="#13AB53"/>
</linearGradient>
<linearGradient id="paint44_linear" x1="198" y1="209" x2="198" y2="215" gradientUnits="userSpaceOnUse">
<stop stop-color="#6FCF97"/>
<stop offset="1" stop-color="#14A852"/>
</linearGradient>
<linearGradient id="paint45_linear" x1="104.765" y1="134.789" x2="115.457" y2="226.764" gradientUnits="userSpaceOnUse">
<stop stop-color="#D5242E"/>
<stop offset="1" stop-color="#AB000B"/>
</linearGradient>
<linearGradient id="paint46_linear" x1="137.264" y1="149.607" x2="150.007" y2="224.043" gradientUnits="userSpaceOnUse">
<stop stop-color="#9C0006"/>
<stop offset="1" stop-color="#940000"/>
</linearGradient>
<linearGradient id="paint47_linear" x1="104.765" y1="184.845" x2="108.683" y2="240.757" gradientUnits="userSpaceOnUse">
<stop stop-color="#9C0006"/>
<stop offset="1" stop-color="#940000"/>
</linearGradient>
<linearGradient id="paint48_linear" x1="89.8688" y1="169.44" x2="90.0683" y2="174.541" gradientUnits="userSpaceOnUse">
<stop stop-color="#9C0006"/>
<stop offset="1" stop-color="#940000"/>
</linearGradient>
<linearGradient id="paint49_linear" x1="90.6581" y1="169.58" x2="90.9191" y2="173.393" gradientUnits="userSpaceOnUse">
<stop stop-color="#9C0006"/>
<stop offset="1" stop-color="#940000"/>
</linearGradient>
<linearGradient id="paint50_linear" x1="132.895" y1="196.881" x2="130.292" y2="206.384" gradientUnits="userSpaceOnUse">
<stop stop-color="#9C0006"/>
<stop offset="1" stop-color="#940000"/>
</linearGradient>
<linearGradient id="paint51_linear" x1="131.789" y1="205.72" x2="131.702" y2="208.271" gradientUnits="userSpaceOnUse">
<stop stop-color="#9C0006"/>
<stop offset="1" stop-color="#940000"/>
</linearGradient>
<linearGradient id="paint52_linear" x1="132.895" y1="176.881" x2="130.292" y2="186.384" gradientUnits="userSpaceOnUse">
<stop stop-color="#9C0006"/>
<stop offset="1" stop-color="#940000"/>
</linearGradient>
<linearGradient id="paint53_linear" x1="131.789" y1="185.72" x2="131.702" y2="188.271" gradientUnits="userSpaceOnUse">
<stop stop-color="#9C0006"/>
<stop offset="1" stop-color="#940000"/>
</linearGradient>
<linearGradient id="paint54_linear" x1="140.447" y1="190.881" x2="136.143" y2="198.739" gradientUnits="userSpaceOnUse">
<stop stop-color="#9C0006"/>
<stop offset="1" stop-color="#940000"/>
</linearGradient>
<linearGradient id="paint55_linear" x1="139.895" y1="199.86" x2="139.851" y2="201.136" gradientUnits="userSpaceOnUse">
<stop stop-color="#9C0006"/>
<stop offset="1" stop-color="#940000"/>
</linearGradient>
<linearGradient id="paint56_linear" x1="140.447" y1="170.881" x2="136.143" y2="178.739" gradientUnits="userSpaceOnUse">
<stop stop-color="#9C0006"/>
<stop offset="1" stop-color="#940000"/>
</linearGradient>
<linearGradient id="paint57_linear" x1="139.895" y1="179.72" x2="139.721" y2="182.262" gradientUnits="userSpaceOnUse">
<stop stop-color="#9C0006"/>
<stop offset="1" stop-color="#940000"/>
</linearGradient>
<linearGradient id="paint58_linear" x1="89.8688" y1="189.44" x2="90.0683" y2="194.541" gradientUnits="userSpaceOnUse">
<stop stop-color="#9C0006"/>
<stop offset="1" stop-color="#940000"/>
</linearGradient>
<linearGradient id="paint59_linear" x1="90.6581" y1="189.86" x2="90.6872" y2="191.136" gradientUnits="userSpaceOnUse">
<stop stop-color="#9C0006"/>
<stop offset="1" stop-color="#940000"/>
</linearGradient>
<linearGradient id="paint60_linear" x1="99.5527" y1="167.741" x2="104.686" y2="176.07" gradientUnits="userSpaceOnUse">
<stop stop-color="#9C0006"/>
<stop offset="1" stop-color="#940000"/>
</linearGradient>
<linearGradient id="paint61_linear" x1="101.869" y1="177.58" x2="101.981" y2="181.408" gradientUnits="userSpaceOnUse">
<stop stop-color="#9C0006"/>
<stop offset="1" stop-color="#940000"/>
</linearGradient>
<linearGradient id="paint62_linear" x1="101.763" y1="177.86" x2="101.781" y2="179.137" gradientUnits="userSpaceOnUse">
<stop stop-color="#9C0006"/>
<stop offset="1" stop-color="#940000"/>
</linearGradient>
<linearGradient id="paint63_linear" x1="99.5527" y1="187.741" x2="104.686" y2="196.07" gradientUnits="userSpaceOnUse">
<stop stop-color="#9C0006"/>
<stop offset="1" stop-color="#940000"/>
</linearGradient>
<linearGradient id="paint64_linear" x1="101.869" y1="197.72" x2="101.919" y2="200.273" gradientUnits="userSpaceOnUse">
<stop stop-color="#9C0006"/>
<stop offset="1" stop-color="#940000"/>
</linearGradient>
<linearGradient id="paint65_linear" x1="101.763" y1="197.86" x2="101.781" y2="199.137" gradientUnits="userSpaceOnUse">
<stop stop-color="#9C0006"/>
<stop offset="1" stop-color="#940000"/>
</linearGradient>
<linearGradient id="paint66_linear" x1="88.5527" y1="200.161" x2="91.2458" y2="206.716" gradientUnits="userSpaceOnUse">
<stop stop-color="#9C0006"/>
<stop offset="1" stop-color="#940000"/>
</linearGradient>
<linearGradient id="paint67_linear" x1="111.105" y1="174.741" x2="114.34" y2="185.237" gradientUnits="userSpaceOnUse">
<stop stop-color="#9C0006"/>
<stop offset="1" stop-color="#940000"/>
</linearGradient>
<linearGradient id="paint68_linear" x1="112.316" y1="184.44" x2="112.549" y2="189.538" gradientUnits="userSpaceOnUse">
<stop stop-color="#9C0006"/>
<stop offset="1" stop-color="#940000"/>
</linearGradient>
<linearGradient id="paint69_linear" x1="112.763" y1="184.72" x2="112.833" y2="187.272" gradientUnits="userSpaceOnUse">
<stop stop-color="#9C0006"/>
<stop offset="1" stop-color="#940000"/>
</linearGradient>
<linearGradient id="paint70_linear" x1="111.105" y1="193.741" x2="114.34" y2="204.237" gradientUnits="userSpaceOnUse">
<stop stop-color="#9C0006"/>
<stop offset="1" stop-color="#940000"/>
</linearGradient>
<linearGradient id="paint71_linear" x1="112.316" y1="203.44" x2="112.549" y2="208.538" gradientUnits="userSpaceOnUse">
<stop stop-color="#9C0006"/>
<stop offset="1" stop-color="#940000"/>
</linearGradient>
<linearGradient id="paint72_linear" x1="112.763" y1="203.72" x2="112.833" y2="206.272" gradientUnits="userSpaceOnUse">
<stop stop-color="#9C0006"/>
<stop offset="1" stop-color="#940000"/>
</linearGradient>
<linearGradient id="paint73_linear" x1="95.0537" y1="129.762" x2="96.1695" y2="150.132" gradientUnits="userSpaceOnUse">
<stop stop-color="#9C0006"/>
<stop offset="1" stop-color="#940000"/>
</linearGradient>
</defs>
</svg>
