<svg width="20" height="20" viewBox="0 0 20 20" fill="none" xmlns="http://www.w3.org/2000/svg">
<path fill-rule="evenodd" clip-rule="evenodd" d="M15.0196 1.11111H5.25794C4.24124 1.11111 3.05545 2.31058 3.05545 3.33333V16.6667C3.05545 17.6894 4.24124 18.8889 5.25793 18.8889H15.0196C16.0363 18.8889 17.2221 17.6894 17.2221 16.6667V3.33333C17.2221 2.31058 16.0363 1.11111 15.0196 1.11111ZM5.25794 0C3.42789 0 1.94434 1.49238 1.94434 3.33333V16.6667C1.94434 18.5076 3.42788 20 5.25793 20H15.0196C16.8497 20 18.3332 18.5076 18.3332 16.6667V3.33333C18.3332 1.49238 16.8497 0 15.0196 0H5.25794Z" fill="#020202"/>
<path fill-rule="evenodd" clip-rule="evenodd" d="M6.11084 5.83339C6.11084 5.52656 6.37038 5.27783 6.69055 5.27783H13.8645C14.1846 5.27783 14.4442 5.52656 14.4442 5.83339C14.4442 6.14021 14.1846 6.38894 13.8645 6.38894H6.69055C6.37038 6.38894 6.11084 6.14021 6.11084 5.83339Z" fill="#020202"/>
<path fill-rule="evenodd" clip-rule="evenodd" d="M6.11084 9.99989C6.11084 9.69307 6.37038 9.44434 6.69055 9.44434H13.8645C14.1846 9.44434 14.4442 9.69307 14.4442 9.99989C14.4442 10.3067 14.1846 10.5554 13.8645 10.5554H6.69055C6.37038 10.5554 6.11084 10.3067 6.11084 9.99989Z" fill="#020202"/>
<path fill-rule="evenodd" clip-rule="evenodd" d="M6.11084 14.1666C6.11084 13.8598 6.37038 13.6111 6.69055 13.6111H13.8645C14.1846 13.6111 14.4442 13.8598 14.4442 14.1666C14.4442 14.4735 14.1846 14.7222 13.8645 14.7222H6.69055C6.37038 14.7222 6.11084 14.4735 6.11084 14.1666Z" fill="#020202"/>
</svg>
