<svg width="32" height="32" viewBox="0 0 32 32" fill="none" xmlns="http://www.w3.org/2000/svg">
<path fill-rule="evenodd" clip-rule="evenodd" d="M24.0325 1.77778H8.41382C6.78711 1.77778 4.88984 3.69693 4.88984 5.33333V26.6667C4.88984 28.3031 6.78711 30.2222 8.41382 30.2222H24.0325C25.6592 30.2222 27.5565 28.3031 27.5565 26.6667V5.33333C27.5565 3.69693 25.6592 1.77778 24.0325 1.77778ZM8.41382 0C5.48574 0 3.11206 2.38782 3.11206 5.33333V26.6667C3.11206 29.6122 5.48574 32 8.41382 32H24.0325C26.9606 32 29.3343 29.6122 29.3343 26.6667V5.33333C29.3343 2.38781 26.9606 0 24.0325 0H8.41382Z" fill="#4F4F4F"/>
<path fill-rule="evenodd" clip-rule="evenodd" d="M9.77783 9.33335C9.77783 8.84243 10.1931 8.44446 10.7054 8.44446H22.1836C22.6959 8.44446 23.1112 8.84243 23.1112 9.33335C23.1112 9.82427 22.6959 10.2222 22.1836 10.2222H10.7054C10.1931 10.2222 9.77783 9.82427 9.77783 9.33335Z" fill="#4F4F4F"/>
<path fill-rule="evenodd" clip-rule="evenodd" d="M9.77783 16C9.77783 15.5091 10.1931 15.1111 10.7054 15.1111H22.1836C22.6959 15.1111 23.1112 15.5091 23.1112 16C23.1112 16.4909 22.6959 16.8889 22.1836 16.8889H10.7054C10.1931 16.8889 9.77783 16.4909 9.77783 16Z" fill="#4F4F4F"/>
<path fill-rule="evenodd" clip-rule="evenodd" d="M9.77783 22.6667C9.77783 22.1758 10.1931 21.7778 10.7054 21.7778H22.1836C22.6959 21.7778 23.1112 22.1758 23.1112 22.6667C23.1112 23.1576 22.6959 23.5556 22.1836 23.5556H10.7054C10.1931 23.5556 9.77783 23.1576 9.77783 22.6667Z" fill="#4F4F4F"/>
</svg>
