<svg width="45" height="45" viewBox="0 0 45 45" fill="none" xmlns="http://www.w3.org/2000/svg">
<path fill-rule="evenodd" clip-rule="evenodd" d="M6.56786 38.8897L28.9363 16.4056C29.757 15.5807 31.0876 15.5807 31.9083 16.4056L38.8285 23.3616V7.33724C38.8285 6.17059 37.8876 5.22483 36.7269 5.22483H7.30532C6.14466 5.22483 5.20377 6.17059 5.20377 7.33724V36.911C5.20377 37.8169 5.77098 38.5895 6.56786 38.8897ZM12.3782 39.0234H36.7263C37.8869 39.0234 38.8278 38.0777 38.8278 36.911V29.3363L30.4216 20.8867L12.3782 39.0234ZM7.30463 1H36.7262C40.2082 1 43.0309 3.83728 43.0309 7.33724V36.911C43.0309 40.411 40.2082 43.2483 36.7262 43.2483H7.30463C3.82268 43.2483 1 40.411 1 36.911V7.33724C1 3.83728 3.82268 1 7.30463 1ZM14.6597 20.0117C11.7581 20.0117 9.40583 17.6473 9.40583 14.7307C9.40583 11.8141 11.7581 9.44966 14.6597 9.44966C17.5613 9.44966 19.9136 11.8141 19.9136 14.7307C19.9136 17.6473 17.5613 20.0117 14.6597 20.0117ZM14.6604 15.7869C15.2407 15.7869 15.7111 15.314 15.7111 14.7307C15.7111 14.1474 15.2407 13.6745 14.6604 13.6745C14.0801 13.6745 13.6096 14.1474 13.6096 14.7307C13.6096 15.314 14.0801 15.7869 14.6604 15.7869Z" fill="#D11B25"/>
<path d="M6.56786 38.8897L6.21531 39.8255L6.8206 40.0536L7.27679 39.595L6.56786 38.8897ZM28.9363 16.4056L29.6452 17.1109V17.1109L28.9363 16.4056ZM31.9083 16.4056L31.1994 17.1109V17.1109L31.9083 16.4056ZM38.8285 23.3616L38.1195 24.0668L39.8285 25.7846V23.3616H38.8285ZM12.3782 39.0234L11.6693 38.3181L9.9728 40.0234H12.3782V39.0234ZM38.8278 29.3363H39.8278V28.9236L39.5367 28.6311L38.8278 29.3363ZM30.4216 20.8867L31.1306 20.1814L30.4216 19.4688L29.7127 20.1814L30.4216 20.8867ZM7.27679 39.595L29.6452 17.1109L28.2274 15.7003L5.85893 38.1844L7.27679 39.595ZM29.6452 17.1109C30.075 16.6789 30.7696 16.6789 31.1994 17.1109L32.6172 15.7003C31.4056 14.4824 29.439 14.4824 28.2274 15.7003L29.6452 17.1109ZM31.1994 17.1109L38.1195 24.0668L39.5374 22.6563L32.6172 15.7003L31.1994 17.1109ZM39.8285 23.3616V7.33724H37.8285V23.3616H39.8285ZM39.8285 7.33724C39.8285 5.62317 38.4447 4.22483 36.7269 4.22483V6.22483C37.3304 6.22483 37.8285 6.718 37.8285 7.33724H39.8285ZM36.7269 4.22483H7.30532V6.22483H36.7269V4.22483ZM7.30532 4.22483C5.58752 4.22483 4.20377 5.62317 4.20377 7.33724H6.20377C6.20377 6.718 6.70181 6.22483 7.30532 6.22483V4.22483ZM4.20377 7.33724V36.911H6.20377V7.33724H4.20377ZM4.20377 36.911C4.20377 38.2441 5.03921 39.3824 6.21531 39.8255L6.92041 37.9539C6.50275 37.7966 6.20377 37.3896 6.20377 36.911H4.20377ZM12.3782 40.0234H36.7263V38.0234H12.3782V40.0234ZM36.7263 40.0234C38.4441 40.0234 39.8278 38.6251 39.8278 36.911H37.8278C37.8278 37.5302 37.3298 38.0234 36.7263 38.0234V40.0234ZM39.8278 36.911V29.3363H37.8278V36.911H39.8278ZM39.5367 28.6311L31.1306 20.1814L29.7127 21.592L38.1189 30.0416L39.5367 28.6311ZM29.7127 20.1814L11.6693 38.3181L13.0872 39.7287L31.1306 21.592L29.7127 20.1814ZM7.30463 2H36.7262V0H7.30463V2ZM36.7262 2C39.6511 2 42.0309 4.38469 42.0309 7.33724H44.0309C44.0309 3.28986 40.7653 0 36.7262 0V2ZM42.0309 7.33724V36.911H44.0309V7.33724H42.0309ZM42.0309 36.911C42.0309 39.8636 39.6511 42.2483 36.7262 42.2483V44.2483C40.7653 44.2483 44.0309 40.9584 44.0309 36.911H42.0309ZM36.7262 42.2483H7.30463V44.2483H36.7262V42.2483ZM7.30463 42.2483C4.37982 42.2483 2 39.8636 2 36.911H0C0 40.9584 3.26554 44.2483 7.30463 44.2483V42.2483ZM2 36.911V7.33724H0V36.911H2ZM2 7.33724C2 4.38469 4.37982 2 7.30463 2V0C3.26554 0 0 3.28987 0 7.33724H2ZM14.6597 19.0117C12.3152 19.0117 10.4058 17.0999 10.4058 14.7307H8.40583C8.40583 18.1947 11.2009 21.0117 14.6597 21.0117V19.0117ZM10.4058 14.7307C10.4058 12.3615 12.3152 10.4497 14.6597 10.4497V8.44966C11.2009 8.44966 8.40583 11.2666 8.40583 14.7307H10.4058ZM14.6597 10.4497C17.0042 10.4497 18.9136 12.3615 18.9136 14.7307H20.9136C20.9136 11.2666 18.1185 8.44966 14.6597 8.44966V10.4497ZM18.9136 14.7307C18.9136 17.0999 17.0042 19.0117 14.6597 19.0117V21.0117C18.1185 21.0117 20.9136 18.1947 20.9136 14.7307H18.9136ZM14.6604 16.7869C15.7978 16.7869 16.7111 15.8614 16.7111 14.7307H14.7111C14.7111 14.7666 14.6836 14.7869 14.6604 14.7869V16.7869ZM16.7111 14.7307C16.7111 13.6 15.7978 12.6745 14.6604 12.6745V14.6745C14.6836 14.6745 14.7111 14.6948 14.7111 14.7307H16.7111ZM14.6604 12.6745C13.5229 12.6745 12.6096 13.6 12.6096 14.7307H14.6096C14.6096 14.6948 14.6372 14.6745 14.6604 14.6745V12.6745ZM12.6096 14.7307C12.6096 15.8614 13.5229 16.7869 14.6604 16.7869V14.7869C14.6372 14.7869 14.6096 14.7666 14.6096 14.7307H12.6096Z" fill="#EAEAEA"/>
</svg>
