<svg width="32" height="32" viewBox="0 0 32 32" fill="none" xmlns="http://www.w3.org/2000/svg">
<path d="M2.66675 21.1598L8.5931 14.9342C8.0136 13.7927 7.94055 12.4876 8.24823 11.2554C8.36973 10.5559 8.85935 9.27782 9.59268 8.46301C11.426 6.42597 14.4177 6.14246 17.1297 7.85188C22.9663 11.5307 18.0214 21.1598 11.2869 17.764L9.94 19.4619H8.5931V20.8768H7.51558V22.0088H6.16868V23.4237L5.09117 24.5556H2.66675V21.1598Z" stroke="#4F4F4F" stroke-width="2" stroke-linecap="round" stroke-linejoin="round"/>
<path d="M21.0481 19.6023C27.0554 18.1838 24.8709 9.67275 19.6828 10.8076C19.5774 11.2456 19.6828 11.6587 19.6828 12.5098C19.6828 13.6446 19.3746 14.1905 19.263 14.6214C19.263 14.6214 19.0099 15.516 18.5905 16.1979C18.2782 16.7058 17.7714 17.3327 17.4983 17.6164C17.3438 17.7769 16.6791 17.9947 16.133 18.7512L12.0371 27.546L13.4024 30.6667L15.5869 29.8156L15.0408 26.6949L15.5869 25.5601L16.9522 26.1275L17.7713 24.1416L16.6791 23.5742L17.4983 21.5883L18.5905 22.1557L19.6828 19.6023C19.6828 19.6023 20.2493 19.791 21.0481 19.6023Z" fill="#F2F2F2" stroke="#4F4F4F" stroke-width="2" stroke-linejoin="round"/>
<ellipse cx="15.0932" cy="10.908" rx="1.8339" ry="1.8339" stroke="#4F4F4F" stroke-width="2" stroke-linejoin="round"/>
<path d="M20.6968 14.3053C21.0095 14.3941 21.3308 14.1975 21.4146 13.8662C21.4984 13.5348 21.3128 13.1943 21.0002 13.1055C20.6875 13.0167 20.3662 13.2133 20.2824 13.5447C20.1986 13.876 20.3842 14.2165 20.6968 14.3053Z" stroke="#4F4F4F" stroke-width="2" stroke-linejoin="round"/>
<path d="M21.4074 13.7593C24.895 13.7593 27.1111 11.1357 27.1111 7.64814C27.1111 4.16056 24.2838 1.33331 20.7963 1.33331C17.3087 1.33331 14.4814 4.16056 14.4814 7.64814C14.4814 9.38366 14.4814 9.27777 14.6851 9.88888" stroke="#4F4F4F" stroke-width="2"/>
</svg>
