<svg width="10" height="16" viewBox="0 0 10 16" fill="none" xmlns="http://www.w3.org/2000/svg">
<path fill-rule="evenodd" clip-rule="evenodd" d="M8.96269 4.09234C8.96269 6.35389 7.10444 8.18465 4.80898 8.18465C2.51351 8.18465 0.655273 6.35389 0.655273 4.09234C0.655273 1.8308 2.51351 0 4.80898 0C7.10444 0 8.96269 1.8308 8.96269 4.09234ZM6.77673 4.09234C6.77673 5.1636 5.89651 6.0308 4.80918 6.0308C3.72185 6.0308 2.84163 5.1636 2.84163 4.09234C2.84163 3.02108 3.72185 2.15386 4.80918 2.15386C5.89651 2.15386 6.77673 3.02108 6.77673 4.09234Z" fill="#000000"/>
<path d="M8.96327 10.9653C9.4005 10.6423 9.72842 10.2115 9.72842 9.67305C9.72842 9.24228 9.50981 8.81151 9.07258 8.59613C8.63534 8.38074 8.19811 8.48844 7.76088 8.70383C6.01195 9.88844 3.71648 9.88844 1.96755 8.70383C1.63962 8.38075 1.09309 8.38074 0.655855 8.59613C0.218623 8.81151 0 9.24228 0 9.67305C0 10.2115 0.327929 10.75 0.765162 10.9653C1.3117 11.3961 1.96755 11.6115 2.6234 11.8269C2.7327 11.8269 2.84202 11.9346 2.95132 11.9346L0.983775 13.7654C0.437234 14.3038 0.437234 15.0577 0.983775 15.5962C1.53032 16.1346 2.29548 16.1346 2.84202 15.5962L4.80956 13.55L6.77711 15.5962C7.32365 16.1346 8.0888 16.1346 8.63534 15.5962C9.18188 15.0577 9.18188 14.3038 8.63534 13.7654L6.6678 11.9346C6.77711 11.9346 6.88641 11.8269 6.99572 11.8269C7.76088 11.6115 8.41673 11.3961 8.96327 10.9653Z" fill="#000000"/>
</svg>
