<svg xmlns="http://www.w3.org/2000/svg" width="48" height="48" viewBox="0 0 48 48">
<style type="text/css">
	.st0{fill:#F6D1D3;}
	.st1{fill-rule:evenodd;clip-rule:evenodd;fill:#D11B25;}
</style>
<path class="st0" d="M19.8,22h-6.5c-0.2,0-0.3-0.1-0.3-0.2v-6.5c0-0.2,0.1-0.3,0.3-0.3h6.5c0.1,0,0.2,0.1,0.2,0.3v6.5
	C20,21.9,19.9,22,19.8,22z"/>
<path class="st1" d="M13.4,15.3v6.1h6.1v-6.1H13.4z M12,14.9c0-0.5,0.4-1,1-1h7c0.5,0,1,0.4,1,1v7c0,0.5-0.4,1-1,1h-7
	c-0.5,0-1-0.4-1-1V14.9z"/>
<path class="st1" d="M13.4,28.5v6.1h6.1v-6.1H13.4z M12,28c0-0.5,0.4-1,1-1h7c0.5,0,1,0.4,1,1v7c0,0.5-0.4,1-1,1h-7
	c-0.5,0-1-0.4-1-1V28z"/>
<path class="st1" d="M23.6,12.3c0.2,0.3,0.2,0.7-0.1,1l-6.9,5.6c-0.3,0.2-0.7,0.2-1-0.1l-3.4-3.7c-0.3-0.3-0.2-0.7,0-1
	c0.3-0.3,0.7-0.2,1,0l3,3.3l6.4-5.2C22.9,11.9,23.4,12,23.6,12.3z"/>
<path class="st1" d="M25.2,18.4c0-0.4,0.3-0.7,0.7-0.7h9.4c0.4-0.1,0.7,0.3,0.7,0.7c0,0.4-0.3,0.7-0.7,0.7h-9.4
	C25.5,19.1,25.2,18.7,25.2,18.4z"/>
<path class="st1" d="M25.2,31.4c0-0.4,0.3-0.7,0.7-0.7h9.4c0.4,0,0.7,0.3,0.7,0.7c0,0.4-0.3,0.7-0.7,0.7h-9.4
	C25.5,32.1,25.2,31.8,25.2,31.4z"/>
</svg>
