<?xml version="1.0" encoding="utf-8"?>
<!-- Generator: Adobe Illustrator 23.0.6, SVG Export Plug-In . SVG Version: 6.00 Build 0)  -->
<svg version="1.1" id="Layer_1" xmlns="http://www.w3.org/2000/svg" xmlns:xlink="http://www.w3.org/1999/xlink" x="0px" y="0px"
	 viewBox="0 0 24 24" style="enable-background:new 0 0 24 24;" xml:space="preserve">
<style type="text/css">
	.st0{fill:#F6D1D3;}
	.st1{fill-rule:evenodd;clip-rule:evenodd;fill:#D11B25;}
</style>
<path class="st0" d="M7.8,10H1.3C1.1,10,1,9.9,1,9.8V3.3C1,3.1,1.1,3,1.3,3h6.5C7.9,3,8,3.1,8,3.3v6.5C8,9.9,7.9,10,7.8,10z"/>
<path class="st1" d="M1.4,3.3v6.1h6.1V3.3C7.5,3.3,1.4,3.3,1.4,3.3z M0,2.9c0-0.5,0.4-1,1-1h7c0.5,0,1,0.4,1,1v7c0,0.5-0.4,1-1,1H1
	c-0.5,0-1-0.4-1-1V2.9z"/>
<path class="st1" d="M1.4,16.5v6.1h6.1v-6.1C7.5,16.5,1.4,16.5,1.4,16.5z M0,16c0-0.5,0.4-1,1-1h7c0.5,0,1,0.4,1,1v7
	c0,0.5-0.4,1-1,1H1c-0.5,0-1-0.4-1-1V16z"/>
<path class="st1" d="M11.6,0.3c0.2,0.3,0.2,0.7-0.1,1L4.6,6.9c-0.3,0.2-0.7,0.2-1-0.1L0.2,3.1c-0.3-0.3-0.2-0.7,0-1
	c0.3-0.3,0.7-0.2,1,0l3,3.3l6.4-5.2C10.9-0.1,11.4,0,11.6,0.3z"/>
<path class="st1" d="M13.2,6.4c0-0.4,0.3-0.7,0.7-0.7h9.4C23.7,5.6,24,6,24,6.4c0,0.4-0.3,0.7-0.7,0.7h-9.4
	C13.5,7.1,13.2,6.7,13.2,6.4z"/>
<path class="st1" d="M13.2,19.4c0-0.4,0.3-0.7,0.7-0.7h9.4c0.4,0,0.7,0.3,0.7,0.7c0,0.4-0.3,0.7-0.7,0.7h-9.4
	C13.5,20.1,13.2,19.8,13.2,19.4z"/>
</svg>
