<svg width="32" height="33" viewBox="0 0 32 33" fill="none" xmlns="http://www.w3.org/2000/svg">
<path fill-rule="evenodd" clip-rule="evenodd" d="M0 3.70674C0 2.07034 1.34666 0.743774 3.00786 0.743774H26.7699C28.4311 0.743774 29.7778 2.07034 29.7778 3.70674V7.85489H28V3.70674C28 2.966 27.5556 2.52155 26.7699 2.52155H3.00786C2.22222 2.52155 1.77778 2.966 1.77778 3.70674V28.003C1.77778 29.1882 2.22222 29.1882 3.00786 29.1882H26.7699C27.5556 29.1882 28 28.7438 28 28.003V22.5216H29.7778V28.003C29.7778 29.6394 28.4311 30.966 26.7699 30.966H3.00786C1.34666 30.966 0 29.6394 0 28.003V3.70674Z" fill="#4F4F4F"/>
<path fill-rule="evenodd" clip-rule="evenodd" d="M16.4599 7.85468C15.4695 7.85468 14.6667 8.63531 14.6667 9.59827V21.2222C14.6667 22.1852 15.4695 22.9658 16.4599 22.9658H30.207C31.1973 22.9658 32.0001 22.1852 32.0001 21.2222V9.59827C32.0001 8.63531 31.1973 7.85468 30.207 7.85468H16.4599Z" fill="#F2F2F2"/>
<path fill-rule="evenodd" clip-rule="evenodd" d="M16.4599 9.70083V21.2222L30.207 21.1196V9.59827L16.4599 9.70083ZM16.4599 7.85468C15.4695 7.85468 14.6667 8.63531 14.6667 9.59827V21.2222C14.6667 22.1852 15.4695 22.9658 16.4599 22.9658H30.207C31.1973 22.9658 32.0001 22.1852 32.0001 21.2222V9.59827C32.0001 8.63531 31.1973 7.85468 30.207 7.85468H16.4599Z" fill="#4F4F4F"/>
<path d="M24.8897 15.4106C24.8897 16.1473 24.2925 16.7444 23.5559 16.7444C22.8193 16.7444 22.2222 16.1473 22.2222 15.4106C22.2222 14.674 22.8193 14.0769 23.5559 14.0769C24.2925 14.0769 24.8897 14.674 24.8897 15.4106Z" fill="#4F4F4F"/>
</svg>
