<svg xmlns="http://www.w3.org/2000/svg" width="48" height="48" viewBox="0 0 48 48">
<style type="text/css">
	.st0{fill:#F6D1D3;}
	.st1{fill-rule:evenodd;clip-rule:evenodd;fill:#D11B25;}
</style>
<path class="st0" d="M22.2,35v-5.8c0-0.1,0.1-0.2,0.2-0.2H26c0.1,0,0.2,0.1,0.2,0.2V35"/>
<path class="st1" d="M20,16.6c0-0.3,0.3-0.6,0.6-0.6h1.7c0.4,0,0.7,0.3,0.7,0.6v1.7c0,0.4-0.3,0.7-0.6,0.7c-0.3,0-0.7-0.3-0.7-0.6
	v-1.1h-1.1C20.3,17.3,20,17,20,16.6z"/>
<path class="st1" d="M20,22.6c0-0.3,0.3-0.6,0.6-0.6h1.7c0.4,0,0.7,0.3,0.7,0.6v1.7c0,0.4-0.3,0.7-0.6,0.7c-0.3,0-0.6-0.3-0.6-0.6
	v-1.1h-1.2C20.3,23.3,20,23,20,22.6z"/>
<path class="st1" d="M25,16.6c0-0.3,0.3-0.6,0.6-0.6h1.7c0.4,0,0.7,0.3,0.7,0.6v1.7c0,0.4-0.3,0.7-0.6,0.7c-0.4,0-0.6-0.3-0.6-0.6
	v-1.1h-1.2C25.3,17.3,25,17,25,16.6z"/>
<path class="st1" d="M25,22.6c0-0.3,0.3-0.6,0.6-0.6h1.7c0.4,0,0.6,0.3,0.6,0.6v1.7c0,0.4-0.3,0.6-0.6,0.6c-0.4,0-0.6-0.3-0.6-0.6
	v-1.1h-1.1C25.3,23.3,25,23,25,22.6z"/>
<path class="st1" d="M22.4,29.4v5.9c0,0.4-0.3,0.7-0.7,0.7S21,35.7,21,35.3V29c0-0.6,0.6-1,1-1h4c0.5,0,1,0.3,1,1v6.3
	c0,0.4-0.3,0.7-0.7,0.7c-0.4,0-0.7-0.3-0.7-0.7v-5.9H22.4z"/>
<path class="st1" d="M17.5,13.4v21.2h13.1V13.4H17.5z M16,13c0-0.7,0.7-1,1.1-1h13.8c0.4,0,1.1,0.3,1.1,1v22c0,0.7-0.7,1-1.1,1H17.1
	c-0.4,0-1.1-0.3-1.1-1V13z"/>
</svg>
