<?xml version="1.0" encoding="utf-8"?>
<!-- Generator: Adobe Illustrator 23.0.6, SVG Export Plug-In . SVG Version: 6.00 Build 0)  -->
<svg version="1.1" id="Layer_1" xmlns="http://www.w3.org/2000/svg" xmlns:xlink="http://www.w3.org/1999/xlink" x="0px" y="0px"
	 viewBox="0 0 24 24" style="enable-background:new 0 0 24 24;" xml:space="preserve">
<style type="text/css">
	.st0{fill:#F6D1D3;}
	.st1{fill-rule:evenodd;clip-rule:evenodd;fill:#D11B25;}
</style>
<path class="st0" d="M8.7,6h7.6c0.1,0,0.2,0.1,0.2,0.2v7.6c0,0.1-0.1,0.2-0.2,0.2H8.7c-0.1,0-0.2-0.1-0.2-0.2V6.2
	C8.5,6.1,8.6,6,8.7,6z"/>
<path class="st1" d="M3.9,1.4v21.2h16.2V1.4H3.9z M2.5,1c0-0.5,0.4-1,0.9-1h17.1c0.6,0,1,0.4,1,1v22c0,0.6-0.4,1-0.9,1H3.4
	c-0.5,0-0.9-0.4-0.9-1V1z"/>
<path class="st1" d="M8.5,6.1v7.1h7V6.1H8.5z M7.1,5.6c0-0.5,0.4-0.9,0.9-0.9h7.9c0.5,0,0.9,0.4,0.9,0.9v8c0,0.5-0.4,0.9-0.9,0.9
	H8.1c-0.5,0-0.9-0.4-0.9-0.9L7.1,5.6L7.1,5.6z"/>
<path class="st1" d="M7.1,18.6c0-0.4,0.3-0.7,0.7-0.7h8.3c0.4,0,0.7,0.3,0.7,0.7c0,0.4-0.3,0.7-0.7,0.7H7.8
	C7.4,19.3,7.1,19,7.1,18.6z"/>
</svg>
