<svg xmlns="http://www.w3.org/2000/svg" width="48" height="48" viewBox="0 0 48 48">
<style type="text/css">
	.st0{fill:#F6D1D3;}
	.st1{fill-rule:evenodd;clip-rule:evenodd;fill:#D11B25;}
</style>
<path class="st0" d="M20.7,18h7.6c0.1,0,0.2,0.1,0.2,0.2v7.6c0,0.1-0.1,0.2-0.2,0.2h-7.6c-0.1,0-0.2-0.1-0.2-0.2v-7.6
	C20.5,18.1,20.6,18,20.7,18z"/>
<path class="st1" d="M15.9,13.4v21.2h16.2V13.4H15.9z M14.5,13c0-0.5,0.4-1,0.9-1h17.1c0.6,0,1,0.4,1,1v22c0,0.6-0.4,1-0.9,1H15.4
	c-0.5,0-0.9-0.4-0.9-1V13z"/>
<path class="st1" d="M20.5,18.1v7.1h7v-7.1H20.5z M19.1,17.6c0-0.5,0.4-0.9,0.9-0.9h7.9c0.5,0,0.9,0.4,0.9,0.9v8
	c0,0.5-0.4,0.9-0.9,0.9h-7.8c-0.5,0-0.9-0.4-0.9-0.9v-8H19.1z"/>
<path class="st1" d="M19.1,30.6c0-0.4,0.3-0.7,0.7-0.7h8.3c0.4,0,0.7,0.3,0.7,0.7c0,0.4-0.3,0.7-0.7,0.7h-8.3
	C19.4,31.3,19.1,31,19.1,30.6z"/>
</svg>
