<svg width="24" height="24" viewBox="0 0 24 24" fill="none" xmlns="http://www.w3.org/2000/svg">
<path d="M17.25 12.0002H14.25C13.8358 12.0002 13.5 12.336 13.5 12.7502V18.7502C13.5 19.1645 13.8358 19.5002 14.25 19.5002H17.25C18.0784 19.5002 18.75 18.8287 18.75 18.0002V13.5002C18.75 12.6718 18.0784 12.0002 17.25 12.0002ZM17.25 18.0002H15V13.5002H17.25V18.0002Z" fill="white"/>
<path d="M24 13.5002V12.0002H20.25C19.8358 12.0002 19.5 12.336 19.5 12.7502V19.5002H21V16.5002H24V15.0002H21V13.5002H24Z" fill="white"/>
<path d="M1.5 21.75V2.25001C1.5 1.83578 1.83576 1.50001 2.25 1.50001H13.5V4.50001C13.5 5.32843 14.1716 6.00001 15 6.00001H18V8.25001H19.5V5.25001C19.5012 5.05065 19.4229 4.85903 19.2825 4.71751L14.7825 0.217512C14.641 0.0771213 14.4494 -0.00111303 14.25 1.19671e-05H2.25C1.00734 1.19671e-05 0 1.0074 0 2.25001V21.75C0 22.9927 1.00734 24 2.25 24H7.5V22.5H2.25C1.83581 22.5 1.5 22.1642 1.5 21.75Z" fill="white"/>
<path d="M11.25 12.0002H8.25C7.83577 12.0002 7.5 12.336 7.5 12.7502V19.5002H9V17.2502H11.25C12.0784 17.2502 12.75 16.5787 12.75 15.7502V13.5002C12.75 12.6718 12.0784 12.0002 11.25 12.0002ZM11.25 15.7502H9V13.5002H11.25V15.7502Z" fill="white"/>
</svg>
