<svg width="22" height="24" viewBox="0 0 22 24" fill="none" xmlns="http://www.w3.org/2000/svg">
<path d="M20.7243 6.59852L14.3713 0.706022V5.65734C14.3713 6.17714 14.7927 6.59852 15.3125 6.59852H20.7243Z" fill="#F6D1D3"/>
<path fill-rule="evenodd" clip-rule="evenodd" d="M4.48803 1.41185V9.17647C4.48803 9.56632 4.172 9.88235 3.78215 9.88235C3.3923 9.88235 3.07627 9.56632 3.07627 9.17647V1.27115C3.07408 1.09742 3.10915 0.926302 3.17793 0.768275C3.24773 0.607908 3.35001 0.466002 3.47569 0.349433C3.60125 0.232974 3.74786 0.143837 3.9055 0.0848117C4.06089 0.0266269 4.22558 -0.00181063 4.39049 8.92539e-05H14.6471L21.429 6.29041V22.7288C21.4312 22.9026 21.3961 23.0737 21.3274 23.2317C21.2576 23.3921 21.1553 23.534 21.0296 23.6506C20.904 23.767 20.7574 23.8562 20.5998 23.9152C20.4444 23.9734 20.2797 24.0018 20.1148 23.9999H4.39049C4.22558 24.0018 4.06088 23.9734 3.90549 23.9152C3.74787 23.8562 3.60125 23.767 3.47569 23.6506C3.35002 23.534 3.24773 23.3921 3.17793 23.2317C3.10915 23.0737 3.07408 22.9026 3.07627 22.7288V20.4706C3.07627 20.0807 3.3923 19.7647 3.78215 19.7647C4.172 19.7647 4.48803 20.0807 4.48803 20.4706V22.5881H20.0173V7.30435H15.3113C14.4017 7.30435 13.6643 6.56693 13.6643 5.65729V1.41185H4.48803ZM15.0761 2.32346L18.9241 5.89258H15.3113C15.1814 5.89258 15.0761 5.78724 15.0761 5.65729V2.32346Z" fill="#D11B25"/>
<path d="M17.6519 8.84216H1.54661C1.25012 8.84216 1.00977 9.11362 1.00977 9.44848V20.3622C1.00977 20.697 1.25012 20.9685 1.54661 20.9685H17.6519C17.9484 20.9685 18.1887 20.697 18.1887 20.3622V9.44848C18.1887 9.11362 17.9484 8.84216 17.6519 8.84216Z" fill="#F6D1D3"/>
<path fill-rule="evenodd" clip-rule="evenodd" d="M1.39919 10.1895V19.6211H16.7903V10.1895H1.39919ZM0 10.0548C0 9.42669 0.506288 8.84216 1.22429 8.84216H16.9652C17.6832 8.84216 18.1895 9.42669 18.1895 10.0548V19.7558C18.1895 20.384 17.6832 20.9685 16.9652 20.9685H1.22429C0.506289 20.9685 0 20.3839 0 19.7558V10.0548Z" fill="#D11B25"/>
<path fill-rule="evenodd" clip-rule="evenodd" d="M4.66397 13.7825V14.2272H5.31697V13.7825H4.66397ZM4.66397 15.5745H5.50351C5.80424 15.5745 6.10476 15.4708 6.33624 15.2687C6.57 15.0646 6.71616 14.7728 6.71616 14.4528V13.5568C6.71616 13.2369 6.57 12.9451 6.33624 12.741C6.10476 12.5389 5.80424 12.4351 5.50351 12.4351H4.16959C4.13313 12.4351 4.09659 12.4372 4.0602 12.4414C4.02887 12.4373 3.99688 12.4351 3.96437 12.4351C3.578 12.4351 3.26478 12.7368 3.26478 13.1088V16.6929C3.26478 17.0649 3.578 17.3665 3.96437 17.3665C4.35075 17.3665 4.66397 17.0649 4.66397 16.6929V15.5745ZM8.76801 13.7825V16.0281H9.28946C9.34796 16.0281 9.39195 16.0072 9.41447 15.9876C9.42495 15.9784 9.42909 15.9712 9.43046 15.9683L9.43127 15.9664V13.8443L9.43046 13.8423C9.42909 13.8394 9.42495 13.8322 9.41447 13.8231C9.39195 13.8034 9.34796 13.7825 9.28946 13.7825H8.76801ZM7.72168 12.7174C7.93585 12.5304 8.21288 12.4351 8.48911 12.4351H9.28946C9.67727 12.4351 10.0613 12.5691 10.3544 12.825C10.6497 13.0829 10.8305 13.4476 10.8305 13.8436V15.9671C10.8305 16.3631 10.6497 16.7278 10.3544 16.9857C10.0613 17.2416 9.67727 17.3755 9.28946 17.3755H8.48911C8.21288 17.3755 7.93585 17.2803 7.72168 17.0933C7.50525 16.9043 7.36882 16.633 7.36882 16.3345V13.4762C7.36882 13.1776 7.50525 12.9064 7.72168 12.7174ZM11.4733 12.4351H14.2251C14.6115 12.4351 14.9247 12.7368 14.9247 13.1088C14.9247 13.4809 14.6115 13.7825 14.2251 13.7825H12.8725V14.2272H14.2251C14.6115 14.2272 14.9247 14.5288 14.9247 14.9009C14.9247 15.273 14.6115 15.5746 14.2251 15.5746H12.8725V16.6929C12.8725 17.0649 12.5593 17.3665 12.1729 17.3665C11.7865 17.3665 11.4733 17.0649 11.4733 16.6929V12.4351Z" fill="#D11B25"/>
</svg>
