<svg width="20" height="20" viewBox="0 0 20 20" fill="none" xmlns="http://www.w3.org/2000/svg">
<path fill-rule="evenodd" clip-rule="evenodd" d="M4.78551 0.270423C4.91184 0.286711 5.13206 0.32508 5.32844 0.455578C5.41248 0.511422 5.47126 0.57447 5.4904 0.595008C5.51951 0.626249 5.54619 0.658253 5.56843 0.686014C5.61343 0.742172 5.66295 0.809433 5.71352 0.880783C5.81581 1.02511 5.94332 1.21585 6.08458 1.43425C6.36809 1.8726 6.72088 2.44392 7.06339 3.02507C7.405 3.6047 7.74244 4.20438 7.99217 4.69709C8.1162 4.94181 8.22547 5.17355 8.30312 5.36971C8.34163 5.467 8.3782 5.57009 8.40422 5.67019C8.42405 5.7465 8.46439 5.91464 8.43756 6.10184C8.41402 6.26604 8.34935 6.39693 8.30298 6.47766C8.25261 6.56535 8.19385 6.64475 8.1389 6.71223C8.02937 6.84673 7.89294 6.98474 7.75518 7.11514C7.51353 7.34388 7.21009 7.60263 6.92143 7.84879C6.88074 7.88349 6.84034 7.91794 6.80045 7.95202C6.46426 8.23923 6.16216 8.50182 5.94905 8.71873C5.89372 8.77504 5.85066 8.82204 5.81805 8.86008C6.0631 9.98939 7.02139 11.2613 8.2323 12.3138C8.85643 12.8563 9.51048 13.3073 10.0927 13.6186C10.571 13.8742 10.9447 14.0052 11.1899 14.0497C11.2354 14.0092 11.2914 13.9565 11.3584 13.8903C11.5503 13.7006 11.7779 13.4549 12.0278 13.1852C12.0698 13.1398 12.1125 13.0937 12.1558 13.0471C12.4456 12.7348 12.7605 12.3993 13.0392 12.1408C13.1776 12.0125 13.326 11.8853 13.4719 11.7858C13.5451 11.7358 13.6328 11.6824 13.7302 11.6393C13.8209 11.5992 13.9667 11.547 14.1438 11.547C14.369 11.547 14.5907 11.6201 14.7444 11.6784C14.9199 11.745 15.1131 11.8351 15.3108 11.9355C15.7072 12.137 16.1758 12.4081 16.6519 12.6933C16.9923 12.8972 17.3349 13.1071 17.6656 13.3097C18.2861 13.6898 18.8645 14.0441 19.307 14.2847L19.5137 14.3971L19.6191 14.6073C19.7272 14.8228 19.7451 15.0551 19.7488 15.2015C19.7531 15.3705 19.7393 15.5523 19.7179 15.7285C19.6747 16.0826 19.5915 16.4853 19.5006 16.8573C19.409 17.2319 19.3049 17.5943 19.2141 17.8729C19.1692 18.0108 19.1244 18.1377 19.0834 18.239C19.0635 18.288 19.0391 18.3448 19.0111 18.3985C18.9975 18.4246 18.9759 18.4638 18.9467 18.5062L18.9456 18.5077C18.9278 18.5335 18.855 18.6392 18.7243 18.7238C17.2388 19.6863 14.716 20.0097 12.0871 19.5309C9.42226 19.0454 6.51512 17.7156 4.23115 15.1952C0.557229 11.141 -0.867783 5.65046 1.20397 1.38285L1.2357 1.3175L1.27938 1.25945C1.41231 1.08278 1.58549 0.961749 1.72364 0.880912C1.87096 0.794712 2.03415 0.722415 2.19583 0.661692C2.51957 0.540102 2.89524 0.443419 3.25612 0.374904C3.61746 0.306303 3.98981 0.261052 4.31084 0.251778C4.47031 0.24717 4.63399 0.250887 4.78551 0.270423ZM5.74447 8.95605C5.74446 8.95605 5.74463 8.95574 5.74501 8.95511L5.74447 8.95605ZM2.49082 2.17002C0.859412 5.70384 1.97777 10.4747 5.34266 14.1879C7.3737 16.4292 9.96693 17.62 12.3559 18.0551C14.6514 18.4733 16.6418 18.1767 17.7328 17.5704C17.749 17.5249 17.7675 17.4706 17.7879 17.4081C17.8663 17.1675 17.9603 16.8415 18.0435 16.5011C18.1274 16.158 18.1958 15.8189 18.2289 15.5471C18.2351 15.4956 18.2398 15.4491 18.2432 15.4074C17.8243 15.166 17.3288 14.8625 16.8303 14.5573C16.5085 14.3603 16.1855 14.1625 15.8811 13.9801C15.4105 13.6982 14.9789 13.4494 14.6313 13.2728C14.468 13.1898 14.335 13.1288 14.2327 13.0888C14.1853 13.1272 14.1275 13.1774 14.0591 13.2408C13.8281 13.455 13.5502 13.7496 13.2553 14.0675C13.2146 14.1113 13.1735 14.1557 13.1322 14.2002C12.8848 14.4674 12.6305 14.742 12.4129 14.9571C12.2866 15.0819 12.1539 15.2057 12.0285 15.3026C11.9662 15.3507 11.8885 15.4058 11.8013 15.452C11.7305 15.4896 11.5698 15.5676 11.3621 15.5676C10.7606 15.5676 10.0508 15.297 9.38558 14.9414C8.69321 14.5713 7.94733 14.0535 7.2483 13.4459C5.88436 12.2605 4.54418 10.5964 4.29738 8.87452C4.26841 8.67235 4.31464 8.5013 4.35593 8.39277C4.39887 8.27987 4.4566 8.18223 4.50866 8.10514C4.61221 7.95183 4.74715 7.80174 4.87906 7.66748C5.14576 7.39602 5.49847 7.09147 5.82611 6.81155C5.8675 6.77619 5.90852 6.74119 5.9491 6.70658C6.24283 6.456 6.51295 6.22557 6.72403 6.02577C6.78857 5.96468 6.84219 5.91145 6.88563 5.8659C6.83219 5.73819 6.75439 5.57287 6.65421 5.37523C6.42493 4.92286 6.10535 4.35379 5.77112 3.78667C5.43778 3.22107 5.0959 2.66763 4.82506 2.24888C4.69018 2.04033 4.5763 1.87045 4.49167 1.7509C4.45323 1.74972 4.40744 1.74961 4.35416 1.75115C4.12989 1.75763 3.8384 1.79115 3.5359 1.84858C3.23295 1.9061 2.94478 1.98271 2.72323 2.06592C2.61898 2.10507 2.54222 2.14096 2.49082 2.17002ZM4.62414 1.76347C4.62396 1.76359 4.62054 1.76297 4.61442 1.76125C4.62126 1.76249 4.62432 1.76335 4.62414 1.76347ZM6.95244 6.04747C6.95658 6.0634 6.95497 6.06207 6.95241 6.04735L6.95244 6.04747ZM18.2456 15.1888C18.2457 15.1887 18.2459 15.1901 18.2463 15.193C18.2458 15.1903 18.2456 15.1888 18.2456 15.1888Z" fill="black"/>
</svg>
