<svg width="30" height="30" viewBox="0 0 30 30" fill="none" xmlns="http://www.w3.org/2000/svg">
<path fill-rule="evenodd" clip-rule="evenodd" d="M8.26495 12.7407C8.50644 9.12735 11.4306 6.25 15 6.25C18.5693 6.25 21.4934 9.12716 21.735 12.7403M8.26495 12.7407C8.15373 14.3829 8.66638 16.0304 9.69192 17.3984C9.6924 17.399 9.69288 17.3997 9.69337 17.4003L14.0347 23.2631L14.0472 23.2782C14.2573 23.5329 14.5938 23.75 15.0197 23.75C15.4456 23.75 15.7821 23.5329 15.9922 23.2782L16.0046 23.2631L20.3488 17.3966L20.3552 17.3878C21.3338 16.0253 21.8461 14.3819 21.735 12.7403M15 7.75C12.2677 7.75 9.95352 9.96698 9.76159 12.841C9.67603 14.1034 10.0687 15.401 10.8933 16.5002L10.8961 16.5039L15.0197 22.0726L19.14 16.5084C19.9316 15.4043 20.324 14.1038 20.2385 12.8418C20.0465 9.96772 17.7323 7.75 15 7.75Z" fill="white"/>
<path fill-rule="evenodd" clip-rule="evenodd" d="M15 11.75C14.3021 11.75 13.75 12.3041 13.75 12.9922C13.75 13.6879 14.3097 14.25 15 14.25C15.6979 14.25 16.25 13.6959 16.25 13.0078C16.25 12.3121 15.6903 11.75 15 11.75ZM12.25 12.9922C12.25 11.4702 13.4792 10.25 15 10.25C16.5284 10.25 17.75 11.4934 17.75 13.0078C17.75 14.5298 16.5208 15.75 15 15.75C13.4716 15.75 12.25 14.5066 12.25 12.9922Z" fill="white"/>
</svg>
