<svg width="20" height="20" viewBox="0 0 20 20" fill="none" xmlns="http://www.w3.org/2000/svg">
<path fill-rule="evenodd" clip-rule="evenodd" d="M2.20741 18.5475C1.90059 18.5475 1.65186 18.2863 1.65186 17.9642L1.65186 12.7419C1.65186 12.4198 1.90059 12.1586 2.20741 12.1586C2.51424 12.1586 2.76297 12.4198 2.76297 12.7419V17.9642C2.76297 18.2863 2.51424 18.5475 2.20741 18.5475Z" fill="#020202"/>
<path fill-rule="evenodd" clip-rule="evenodd" d="M1.65186 12.6389C1.65186 12.3321 1.91302 12.0834 2.23519 12.0834H6.06852C6.39069 12.0834 6.65185 12.3321 6.65185 12.6389C6.65185 12.9458 6.39069 13.1945 6.06852 13.1945H2.23519C1.91302 13.1945 1.65186 12.9458 1.65186 12.6389Z" fill="#020202"/>
<path fill-rule="evenodd" clip-rule="evenodd" d="M5.54053 1.80556C5.54053 1.49873 5.80169 1.25 6.12386 1.25H9.95719C10.2794 1.25 10.5405 1.49873 10.5405 1.80556C10.5405 2.11238 10.2794 2.36111 9.95719 2.36111H6.12386C5.80169 2.36111 5.54053 2.11238 5.54053 1.80556Z" fill="#020202"/>
<path fill-rule="evenodd" clip-rule="evenodd" d="M9.4292 7.91664C9.4292 7.60981 9.69037 7.36108 10.0125 7.36108H13.8459C14.168 7.36108 14.4292 7.60981 14.4292 7.91664C14.4292 8.22347 14.168 8.4722 13.8459 8.4722H10.0125C9.69037 8.4722 9.4292 8.22347 9.4292 7.91664Z" fill="#020202"/>
<path fill-rule="evenodd" clip-rule="evenodd" d="M13.3184 11.8056C13.3184 11.4987 13.5795 11.25 13.9017 11.25H17.735C18.0572 11.25 18.3184 11.4987 18.3184 11.8056C18.3184 12.1124 18.0572 12.3611 17.735 12.3611H13.9017C13.5795 12.3611 13.3184 12.1124 13.3184 11.8056Z" fill="#020202"/>
<path fill-rule="evenodd" clip-rule="evenodd" d="M17.7626 18.5475C17.4558 18.5475 17.207 18.2863 17.207 17.9642V11.9086C17.207 11.5864 17.4558 11.3253 17.7626 11.3253C18.0694 11.3253 18.3181 11.5864 18.3181 11.9086V17.9642C18.3181 18.2863 18.0694 18.5475 17.7626 18.5475Z" fill="#020202"/>
<path fill-rule="evenodd" clip-rule="evenodd" d="M9.98476 18.4722C9.67793 18.4722 9.4292 18.1547 9.4292 17.763V1.95909C9.4292 1.56744 9.67793 1.24994 9.98476 1.24994C10.2916 1.24994 10.5403 1.56744 10.5403 1.95909V17.763C10.5403 18.1547 10.2916 18.4722 9.98476 18.4722Z" fill="#020202"/>
<path fill-rule="evenodd" clip-rule="evenodd" d="M6.09608 18.4722C5.78926 18.4722 5.54053 18.1547 5.54053 17.763L5.54053 1.95909C5.54053 1.56744 5.78926 1.24994 6.09608 1.24994C6.40291 1.24994 6.65164 1.56744 6.65164 1.95909L6.65164 17.763C6.65164 18.1547 6.40291 18.4722 6.09608 18.4722Z" fill="#020202"/>
<path fill-rule="evenodd" clip-rule="evenodd" d="M0 18.5475C0 18.2407 0.261167 17.9919 0.583333 17.9919H19.4167C19.7388 17.9919 20 18.2407 20 18.5475C20 18.8543 19.7388 19.1031 19.4167 19.1031H0.583333C0.261167 19.1031 0 18.8543 0 18.5475Z" fill="#020202"/>
<path fill-rule="evenodd" clip-rule="evenodd" d="M13.8739 18.5475C13.5671 18.5475 13.3184 18.2863 13.3184 17.9642V8.01971C13.3184 7.69754 13.5671 7.43637 13.8739 7.43637C14.1807 7.43637 14.4295 7.69754 14.4295 8.01971V17.9642C14.4295 18.2863 14.1807 18.5475 13.8739 18.5475Z" fill="#020202"/>
</svg>
