<svg xmlns="http://www.w3.org/2000/svg" width="48" height="48" viewBox="0 0 48 48">
<style type="text/css">
	.st0{fill:#F6D1D3;}
	.st1{fill-rule:evenodd;clip-rule:evenodd;fill:#D11B25;}
</style>
<path class="st0" d="M20.3,14.1h7.5c0.1,0,0.3,0.1,0.3,0.2v3.6c0,0.1-0.1,0.2-0.3,0.2h-7.5c-0.2,0-0.3-0.1-0.3-0.2v-3.6
	C20,14.2,20.1,14.1,20.3,14.1z"/>
<path class="st1" d="M13.4,17.3H20c0.4,0,0.7-0.3,0.7-0.7s-0.3-0.7-0.7-0.7h-7.1c-0.5,0-0.9,0.4-0.9,0.9v16.3c0,0.5,0.4,0.9,0.9,0.9
	h22.2c0.5,0,0.9-0.4,0.9-0.9V16.8c0-0.3-0.1-0.5-0.3-0.6c-0.3-0.3-0.6-0.3-0.7-0.3h-6.5c-0.4,0-0.7,0.3-0.7,0.7s0.3,0.7,0.7,0.7h6
	v15.3H13.4V17.3z"/>
<path class="st1" d="M19.3,22.8c-0.6,0-1.2,0.5-1.2,1.2c0,0.6,0.5,1.2,1.2,1.2c0.6,0,1.2-0.5,1.2-1.2C20.5,23.4,19.9,22.8,19.3,22.8
	z M16.7,24c0-1.4,1.2-2.6,2.6-2.6c1.4,0,2.6,1.1,2.6,2.6c0,1.4-1.2,2.6-2.6,2.6C17.9,26.6,16.7,25.4,16.7,24z"/>
<path class="st1" d="M16.6,28.7c-0.3,0.2-0.3,0.4-0.3,0.5v0.3c0,0.4-0.3,0.7-0.7,0.7c-0.4,0-0.8-0.2-0.8-0.6v-0.3
	c0-0.7,0.4-1.3,0.9-1.7c0.6-0.4,1.3-0.6,2-0.6h3.2c0.7,0,1.4,0.2,1.9,0.6s0.9,1,0.9,1.7v0.3c0,0.4-0.3,0.7-0.7,0.7
	c-0.4,0-0.7-0.3-0.7-0.7v-0.3c0-0.2-0.1-0.4-0.3-0.5c-0.3-0.2-0.6-0.3-1.1-0.3h-3.2C17.2,28.4,16.8,28.6,16.6,28.7z"/>
<path class="st1" d="M25.2,22.1c0-0.4,0.3-0.7,0.7-0.7h6.6c0.4,0,0.7,0.3,0.7,0.7s-0.3,0.7-0.7,0.7h-6.6
	C25.5,22.8,25.2,22.5,25.2,22.1z"/>
<path class="st1" d="M25.2,25.9c0-0.4,0.3-0.7,0.7-0.7h6.6c0.4,0,0.7,0.3,0.7,0.7s-0.3,0.7-0.7,0.7h-6.6
	C25.5,26.6,25.2,26.2,25.2,25.9z"/>
<path class="st1" d="M25.2,29.6c0-0.4,0.3-0.7,0.7-0.7h6.6c0.4,0,0.7,0.3,0.7,0.7s-0.3,0.7-0.7,0.7h-6.6
	C25.5,30.3,25.2,30,25.2,29.6z"/>
<path class="st1" d="M20.9,15.4v2.3H27v-2.3H20.9z M19.5,14.9c0-0.6,0.5-0.9,1-0.9h7.1c0.4,0,0.9,0.3,0.9,0.9v3.3
	c0,0.6-0.5,0.9-0.9,0.9h-7.1c-0.5,0-1-0.3-1-0.9V14.9z"/>
</svg>
