<?xml version="1.0" encoding="utf-8"?>
<!-- Generator: Adobe Illustrator 23.0.6, SVG Export Plug-In . SVG Version: 6.00 Build 0)  -->
<svg version="1.1" id="Layer_1" xmlns="http://www.w3.org/2000/svg" xmlns:xlink="http://www.w3.org/1999/xlink" x="0px" y="0px"
	 viewBox="0 0 24 24" style="enable-background:new 0 0 24 24;" xml:space="preserve">
<style type="text/css">
	.st0{fill:#F6D1D3;}
	.st1{fill-rule:evenodd;clip-rule:evenodd;fill:#D11B25;}
</style>
<path class="st0" d="M8.3,2.1h7.5c0.1,0,0.3,0.1,0.3,0.2v3.6c0,0.1-0.1,0.2-0.3,0.2H8.3C8.1,6.1,8,6,8,5.9V2.3
	C8,2.2,8.1,2.1,8.3,2.1z"/>
<path class="st1" d="M1.4,5.3H8c0.4,0,0.7-0.3,0.7-0.7S8.4,3.9,8,3.9H0.9C0.4,3.9,0,4.3,0,4.8v16.3C0,21.6,0.4,22,0.9,22h22.2
	c0.5,0,0.9-0.4,0.9-0.9V4.8c0-0.3-0.1-0.5-0.3-0.6c-0.3-0.3-0.6-0.3-0.7-0.3h-6.5c-0.4,0-0.7,0.3-0.7,0.7s0.3,0.7,0.7,0.7h6v15.3
	H1.4V5.3z"/>
<path class="st1" d="M7.3,10.8c-0.6,0-1.2,0.5-1.2,1.2c0,0.6,0.5,1.2,1.2,1.2c0.6,0,1.2-0.5,1.2-1.2C8.5,11.4,7.9,10.8,7.3,10.8z
	 M4.7,12c0-1.4,1.2-2.6,2.6-2.6s2.6,1.1,2.6,2.6c0,1.4-1.2,2.6-2.6,2.6C5.9,14.6,4.7,13.4,4.7,12z"/>
<path class="st1" d="M4.6,16.7c-0.3,0.2-0.3,0.4-0.3,0.5v0.3c0,0.4-0.3,0.7-0.7,0.7c-0.4,0-0.8-0.2-0.8-0.6v-0.3
	c0-0.7,0.4-1.3,0.9-1.7C4.3,15.2,5,15,5.7,15h3.2c0.7,0,1.4,0.2,1.9,0.6s0.9,1,0.9,1.7v0.3c0,0.4-0.3,0.7-0.7,0.7
	c-0.4,0-0.7-0.3-0.7-0.7v-0.3c0-0.2-0.1-0.4-0.3-0.5c-0.3-0.2-0.6-0.3-1.1-0.3H5.7C5.2,16.4,4.8,16.6,4.6,16.7z"/>
<path class="st1" d="M13.2,10.1c0-0.4,0.3-0.7,0.7-0.7h6.6c0.4,0,0.7,0.3,0.7,0.7s-0.3,0.7-0.7,0.7h-6.6
	C13.5,10.8,13.2,10.5,13.2,10.1z"/>
<path class="st1" d="M13.2,13.9c0-0.4,0.3-0.7,0.7-0.7h6.6c0.4,0,0.7,0.3,0.7,0.7s-0.3,0.7-0.7,0.7h-6.6
	C13.5,14.6,13.2,14.2,13.2,13.9z"/>
<path class="st1" d="M13.2,17.6c0-0.4,0.3-0.7,0.7-0.7h6.6c0.4,0,0.7,0.3,0.7,0.7s-0.3,0.7-0.7,0.7h-6.6
	C13.5,18.3,13.2,18,13.2,17.6z"/>
<path class="st1" d="M8.9,3.4v2.3H15V3.4C15,3.4,8.9,3.4,8.9,3.4z M7.5,2.9C7.5,2.3,8,2,8.5,2h7.1c0.4,0,0.9,0.3,0.9,0.9v3.3
	c0,0.6-0.5,0.9-0.9,0.9H8.5c-0.5,0-1-0.3-1-0.9V2.9z"/>
</svg>
