<?xml version="1.0" encoding="utf-8"?>
<!-- Generator: Adobe Illustrator 23.0.6, SVG Export Plug-In . SVG Version: 6.00 Build 0)  -->
<svg version="1.1" id="Layer_1" xmlns="http://www.w3.org/2000/svg" xmlns:xlink="http://www.w3.org/1999/xlink" x="0px" y="0px"
	 viewBox="0 0 24 24" style="enable-background:new 0 0 24 24;" xml:space="preserve">
<style type="text/css">
	.st0{fill:#F6D1D3;}
	.st1{fill-rule:evenodd;clip-rule:evenodd;fill:#D11B25;}
</style>
<path class="st0" d="M4,6.4c1.6,0,2.8-1.3,2.8-2.8S5.5,0.7,4,0.7S1.2,2,1.2,3.5S2.4,6.4,4,6.4z"/>
<path class="st0" d="M4,14.8c1.6,0,2.8-1.3,2.8-2.8S5.5,9.2,4,9.2S1.2,10.5,1.2,12S2.4,14.8,4,14.8z"/>
<path class="st0" d="M4,23.3c1.6,0,2.8-1.3,2.8-2.8S5.5,17.7,4,17.7s-2.8,1.3-2.8,2.8S2.4,23.3,4,23.3z"/>
<path class="st1" d="M4,1.4c-1.2,0-2.2,1-2.2,2.2s1,2.2,2.2,2.2s2.2-1,2.2-2.2S5.2,1.4,4,1.4z M0.5,3.5C0.5,1.6,2.1,0,4,0
	c1.9,0,3.5,1.6,3.5,3.5C7.5,5.5,5.9,7,4,7C2.1,7,0.5,5.5,0.5,3.5z"/>
<path class="st1" d="M4,9.9c-1.2,0-2.2,1-2.2,2.2s1,2.2,2.2,2.2s2.2-1,2.2-2.2S5.2,9.9,4,9.9z M0.5,12c0-1.9,1.6-3.5,3.5-3.5
	c1.9,0,3.5,1.6,3.5,3.5S5.9,15.5,4,15.5C2.1,15.5,0.5,13.9,0.5,12z"/>
<path class="st1" d="M4,18.3c-1.2,0-2.2,1-2.2,2.2c0,1.2,1,2.2,2.2,2.2s2.2-1,2.2-2.2C6.1,19.3,5.2,18.3,4,18.3z M0.5,20.5
	C0.5,18.6,2.1,17,4,17c1.9,0,3.5,1.6,3.5,3.5S5.9,24,4,24C2.1,24,0.5,22.4,0.5,20.5z"/>
<path class="st1" d="M9,0.7C9,0.3,9.3,0,9.6,0h13.2c0.4,0,0.7,0.3,0.7,0.7v5.7c0,0.4-0.3,0.7-0.7,0.7H9.6C9.3,7,9,6.7,9,6.4V0.7z
	 M10.3,1.4v4.3h11.9V1.4H10.3z"/>
<path class="st1" d="M9,9.2c0-0.4,0.3-0.7,0.7-0.7h13.2c0.4,0,0.7,0.3,0.7,0.7v5.7c0,0.4-0.3,0.7-0.7,0.7H9.6
	c-0.4,0-0.7-0.3-0.7-0.7V9.2z M10.3,9.9v4.3h11.9V9.9H10.3z"/>
<path class="st1" d="M9,17.7C9,17.3,9.3,17,9.6,17h13.2c0.4,0,0.7,0.3,0.7,0.7v5.7c0,0.4-0.3,0.7-0.7,0.7H9.6C9.3,24,9,23.7,9,23.3
	V17.7z M10.3,18.3v4.3h11.9v-4.3H10.3z"/>
</svg>
