<svg width="20" height="20" viewBox="0 0 20 20" fill="none" xmlns="http://www.w3.org/2000/svg">
<path fill-rule="evenodd" clip-rule="evenodd" d="M0 1.66667C0 0.746192 0.746192 2.47258e-07 1.66667 2.47258e-07H6.66666C6.97349 2.47258e-07 7.22222 0.248731 7.22222 0.555555C7.22222 0.86238 6.97349 1.11111 6.66666 1.11111H1.66667C1.35984 1.11111 1.11111 1.35984 1.11111 1.66667V6.66666C1.11111 6.97349 0.86238 7.22222 0.555555 7.22222C0.248731 7.22222 0 6.97349 0 6.66666V1.66667Z" fill="#777777"/>
<path fill-rule="evenodd" clip-rule="evenodd" d="M18.3333 2.18557e-07C19.2538 2.58792e-07 20 0.746192 20 1.66667L20 6.66666C20 6.97349 19.7513 7.22222 19.4444 7.22222C19.1376 7.22222 18.8889 6.97349 18.8889 6.66666L18.8889 1.66667C18.8889 1.35984 18.6402 1.11111 18.3333 1.11111L13.3333 1.11111C13.0265 1.11111 12.7778 0.86238 12.7778 0.555555C12.7778 0.248731 13.0265 -1.34117e-08 13.3333 0L18.3333 2.18557e-07Z" fill="#777777"/>
<path fill-rule="evenodd" clip-rule="evenodd" d="M0 18.3333C0 19.2538 0.746192 20 1.66667 20H6.66666C6.97349 20 7.22222 19.7513 7.22222 19.4444C7.22222 19.1376 6.97349 18.8889 6.66666 18.8889H1.66667C1.35984 18.8889 1.11111 18.6402 1.11111 18.3333V13.3333C1.11111 13.0265 0.86238 12.7778 0.555555 12.7778C0.248731 12.7778 0 13.0265 0 13.3333V18.3333Z" fill="#777777"/>
<path fill-rule="evenodd" clip-rule="evenodd" d="M18.3333 20C19.2538 20 20 19.2538 20 18.3333L20 13.3333C20 13.0265 19.7513 12.7778 19.4444 12.7778C19.1376 12.7778 18.8889 13.0265 18.8889 13.3333L18.8889 18.3333C18.8889 18.6402 18.6402 18.8889 18.3333 18.8889H13.3333C13.0265 18.8889 12.7778 19.1376 12.7778 19.4444C12.7778 19.7513 13.0265 20 13.3333 20H18.3333Z" fill="#777777"/>
<path fill-rule="evenodd" clip-rule="evenodd" d="M3.33333 3.33333V6.66666H6.66666V3.33333H3.33333ZM3.05555 2.22222C2.59532 2.22222 2.22222 2.59532 2.22222 3.05555V6.94444C2.22222 7.40468 2.59532 7.77777 3.05555 7.77777H6.94444C7.40468 7.77777 7.77777 7.40468 7.77777 6.94444V3.05555C7.77777 2.59532 7.40468 2.22222 6.94444 2.22222H3.05555Z" fill="#777777"/>
<path fill-rule="evenodd" clip-rule="evenodd" d="M13.3333 3.33333V6.66666H16.6667V3.33333H13.3333ZM13.0556 2.22222C12.5953 2.22222 12.2222 2.59532 12.2222 3.05555V6.94444C12.2222 7.40468 12.5953 7.77777 13.0556 7.77777H16.9444C17.4047 7.77777 17.7778 7.40468 17.7778 6.94444V3.05555C17.7778 2.59532 17.4047 2.22222 16.9444 2.22222H13.0556Z" fill="#777777"/>
<path fill-rule="evenodd" clip-rule="evenodd" d="M3.33333 13.3333V16.6667H6.66666V13.3333H3.33333ZM3.05555 12.2222C2.59532 12.2222 2.22222 12.5953 2.22222 13.0556V16.9444C2.22222 17.4047 2.59532 17.7778 3.05555 17.7778H6.94444C7.40468 17.7778 7.77777 17.4047 7.77777 16.9444V13.0556C7.77777 12.5953 7.40468 12.2222 6.94444 12.2222H3.05555Z" fill="#777777"/>
<path d="M14.4444 4.44444H15.5556V5.55555H14.4444V4.44444Z" fill="#777777"/>
<path d="M4.44445 4.44444H5.55556V5.55555H4.44445V4.44444Z" fill="#777777"/>
<path d="M4.44445 14.4444H5.55556V15.5556H4.44445V14.4444Z" fill="#777777"/>
<path d="M14.1667 8.88888H15.2778V9.99999H14.1667V8.88888Z" fill="#777777"/>
<path d="M10.8333 7.77778H11.9444V8.88889H10.8333V7.77778Z" fill="#777777"/>
<path d="M14.1667 9.99999H15.2778V11.1111H14.1667V9.99999Z" fill="#777777"/>
<path d="M16.3889 8.88888H17.5V9.99999H16.3889V8.88888Z" fill="#777777"/>
<path d="M9.72223 6.66666H10.8333L10.8333 7.77778L9.72223 7.77777V6.66666Z" fill="#777777"/>
<path d="M8.61112 6.66666H9.72223V7.77777H8.61112V6.66666Z" fill="#777777"/>
<path d="M9.72223 4.44444H10.8333V5.55555H9.72223V4.44444Z" fill="#777777"/>
<path d="M10.8333 13.3333H11.9444V14.4445H10.8333V13.3333Z" fill="#777777"/>
<path d="M13.0556 12.2222H14.1667V13.3333H13.0556V12.2222Z" fill="#777777"/>
<path d="M11.9444 15.5556H13.0556V16.6667H11.9444V15.5556Z" fill="#777777"/>
<path d="M10.8333 15.5556H11.9444V16.6667H10.8333V15.5556Z" fill="#777777"/>
<path d="M11.9444 14.4445L13.0556 14.4444V15.5556H11.9444L11.9444 14.4445Z" fill="#777777"/>
<path d="M13.0556 14.4444H14.1667V15.5556L13.0556 15.5556V14.4444Z" fill="#777777"/>
<path d="M8.61112 15.5556H9.72223V16.6667H8.61112V15.5556Z" fill="#777777"/>
<path d="M8.61112 14.4444H9.72223V15.5556H8.61112V14.4444Z" fill="#777777"/>
<path d="M14.1667 16.6667H15.2778V17.7778H14.1667V16.6667Z" fill="#777777"/>
<path d="M13.0556 16.6667L14.1667 16.6667V17.7778H13.0556L13.0556 16.6667Z" fill="#777777"/>
<path d="M14.1667 15.5556L15.2778 15.5556V16.6667H14.1667V15.5556Z" fill="#777777"/>
<path d="M10.8333 12.2222H11.9444V13.3333H10.8333V12.2222Z" fill="#777777"/>
<path d="M8.61112 8.88888H9.72223V12.2222H8.61112V8.88888Z" fill="#777777"/>
<path d="M11.9444 12.2222H13.0556V13.3333L11.9444 13.3333V12.2222Z" fill="#777777"/>
<path d="M15.2778 12.2222H16.3889V13.3333H15.2778V12.2222Z" fill="#777777"/>
<path d="M9.72223 14.4444L10.8333 14.4445V15.5556H9.72223V14.4444Z" fill="#777777"/>
<path d="M8.61112 12.2222H9.72223V13.3333H8.61112V12.2222Z" fill="#777777"/>
<path d="M9.72223 11.1111H10.8333L10.8333 12.2222L9.72223 12.2222L9.72223 11.1111Z" fill="#777777"/>
<path d="M10.8333 8.88889H11.9444V9.99999H10.8333V8.88889Z" fill="#777777"/>
<path d="M7.50001 10H8.61112V11.1111H7.50001V10Z" fill="#777777"/>
<path d="M14.1667 13.3333H15.2778V14.4445L14.1667 14.4444V13.3333Z" fill="#777777"/>
<path d="M15.2778 13.3333H16.3889V14.4445H15.2778V13.3333Z" fill="#777777"/>
<path d="M16.3889 14.4445L17.5 14.4444V15.5556H16.3889L16.3889 14.4445Z" fill="#777777"/>
<path d="M16.3889 12.2222H17.5V13.3333H16.3889V12.2222Z" fill="#777777"/>
<path d="M15.2778 11.1111L16.3889 11.1111V12.2222H15.2778V11.1111Z" fill="#777777"/>
<path d="M10.8333 9.99999H11.9444V11.1111L10.8333 11.1111L10.8333 9.99999Z" fill="#777777"/>
<path d="M13.0556 10L14.1667 9.99999V11.1111H13.0556V10Z" fill="#777777"/>
<path d="M16.3889 9.99999H17.5V11.1111L16.3889 11.1111L16.3889 9.99999Z" fill="#777777"/>
<path d="M11.9444 8.88889L13.0556 8.88888L13.0556 10L11.9444 9.99999V8.88889Z" fill="#777777"/>
<path d="M5.27777 8.88888H6.38889V9.99999H5.27777V8.88888Z" fill="#777777"/>
<path d="M1.94445 8.88888H3.05556V9.99999H1.94445V8.88888Z" fill="#777777"/>
<path d="M4.16666 10L5.27777 9.99999L5.27777 11.1111H4.16666V10Z" fill="#777777"/>
<path d="M6.38889 9.99999L7.50001 10V11.1111H6.38888L6.38889 9.99999Z" fill="#777777"/>
<path d="M3.05556 8.88888H4.16667L4.16666 10L3.05556 9.99999V8.88888Z" fill="#777777"/>
<path d="M8.61112 5.55556L9.72223 5.55555V6.66666H8.61112V5.55556Z" fill="#777777"/>
<path d="M9.72223 3.33334H10.8333V4.44444H9.72223V3.33334Z" fill="#777777"/>
<path d="M8.61112 2.22222H9.72223L9.72223 3.33334L8.61112 3.33333V2.22222Z" fill="#777777"/>
</svg>
