<?xml version="1.0" encoding="utf-8"?>
<!-- Generator: Adobe Illustrator 23.0.6, SVG Export Plug-In . SVG Version: 6.00 Build 0)  -->
<svg version="1.1" id="Layer_1" xmlns="http://www.w3.org/2000/svg" xmlns:xlink="http://www.w3.org/1999/xlink" x="0px" y="0px"
	 viewBox="0 0 68.1 58.9" style="enable-background:new 0 0 68.1 58.9;" xml:space="preserve">
<style type="text/css">
	.st0{fill:#F6D1D3;}
	.st1{fill-rule:evenodd;clip-rule:evenodd;fill:#D11B25;}
</style>
<circle class="st0" cx="21.2" cy="7.6" r="5.4"/>
<circle class="st0" cx="48.2" cy="7.6" r="5.4"/>
<circle class="st0" cx="56.3" cy="38.7" r="5.4"/>
<circle class="st0" cx="34" cy="31.8" r="5.4"/>
<circle class="st0" cx="11.3" cy="39.2" r="5.4"/>
<path class="st1" d="M56.6,34.8c-2.3,0-4.2,1.9-4.2,4.2c0,2.3,1.9,4.2,4.2,4.2c2.4,0,4.2-1.9,4.2-4.2C60.8,36.7,58.9,34.8,56.6,34.8
	z M49,38.9c0-4.1,3.4-7.4,7.4-7.4s7.4,3.4,7.4,7.4s-3.2,7.6-7.3,7.6S49,43.2,49,38.9z"/>
<path class="st1" d="M52.3,51.8c-2.3,0-4.1,1.9-4.1,4.3v1.1c0,0.9-0.7,1.7-1.7,1.7c-0.9,0-1.7-0.7-1.7-1.7v-1.1c0-4,3.2-7.4,7.3-7.4
	h8.5c4.1,0,7.3,3.4,7.3,7.4v1.1c0,0.9-0.7,1.7-1.7,1.7c-0.9,0-1.7-0.7-1.7-1.7v-1.1c0-2.5-1.9-4.3-4.1-4.3
	C60.7,51.8,52.3,51.8,52.3,51.8z"/>
<path class="st1" d="M48.4,3.2c-2.3,0-4.2,1.9-4.2,4.2s1.9,4.2,4.2,4.2c2.4,0,4.2-1.9,4.2-4.2S50.8,3.2,48.4,3.2z M41,7.4
	C41,3.3,44.4,0,48.4,0s7.4,3.4,7.4,7.4s-3.4,7.4-7.4,7.4S41,11.6,41,7.4z"/>
<path class="st1" d="M43.7,20.2c-2.4,0-4.3,1.9-4.3,4.3v1.1c0,0.9-0.7,1.7-1.7,1.7c-0.9,0-1.7-0.7-1.7-1.7v-1.1
	c0-4.1,3.4-7.4,7.4-7.4h8.8c4.1,0,7.4,3.4,7.4,7.4v1.1c0,0.9-0.7,1.7-1.7,1.7s-1.7-0.7-1.7-1.7v-1.1c0-2.4-2-4.3-4.3-4.3H43.7z"/>
<path class="st1" d="M21.2,3.2c-2.3,0-4.2,1.9-4.2,4.2s1.9,4.2,4.2,4.2s4.2-1.9,4.2-4.2S23.5,3.2,21.2,3.2z M13.7,7.4
	c0-4.1,3.4-7.4,7.4-7.4s7.4,3.4,7.4,7.4s-3.4,7.4-7.4,7.4S13.7,11.6,13.7,7.4z"/>
<path class="st1" d="M17,20.2c-2.3,0-4.1,1.9-4.1,4.3v1.1c0,0.9-0.7,1.7-1.7,1.7c-0.9,0-1.7-0.7-1.7-1.7v-1.1c0-4,3.2-7.4,7.3-7.4
	h8.5c4.1,0,7.3,3.4,7.3,7.4v1.1c0,0.9-0.7,1.7-1.7,1.7s-1.7-0.7-1.7-1.7v-1.1c0-2.5-1.9-4.3-4.1-4.3C25.3,20.2,17,20.2,17,20.2z"/>
<path class="st1" d="M11.7,34.8c-2.3,0-4.2,1.9-4.2,4.2c0,2.3,1.9,4.2,4.2,4.2s4.2-1.9,4.2-4.2C15.9,36.7,14,34.8,11.7,34.8z
	 M4.1,38.9c0-4.1,3.4-7.4,7.4-7.4s7.4,3.4,7.4,7.4s-3.2,7.6-7.3,7.6S4.1,43.2,4.1,38.9z"/>
<path class="st1" d="M7.4,51.8c-2.3,0-4.1,1.9-4.1,4.3v1.1c0,0.9-0.7,1.7-1.7,1.7S0,58.2,0,57.3v-1.1c0-4,3.2-7.4,7.3-7.4h8.5
	c4.1,0,7.3,3.4,7.3,7.4v1.1c0,0.9-0.7,1.7-1.7,1.7s-1.7-0.7-1.7-1.7v-1.1c0-2.5-1.9-4.3-4.1-4.3C15.8,51.8,7.4,51.8,7.4,51.8z"/>
<path class="st1" d="M34.1,27.7c-2.3,0-4.2,1.9-4.2,4.2s1.9,4.2,4.2,4.2c2.4,0,4.2-1.9,4.2-4.2S36.4,27.7,34.1,27.7z M26.6,32
	c0-4.1,3.4-7.4,7.4-7.4s7.4,3.4,7.4,7.4s-3.4,7.4-7.4,7.4S26.6,36,26.6,32z"/>
<path class="st1" d="M30.3,44.9c-2.3,0-3.9,1.8-3.9,3.7v1c0,0.8-0.7,1.7-1.6,1.7s-1.6-0.7-1.6-1.7v-1c0-3.9,3.3-6.9,7.1-6.9h8.3
	c3.8,0,7.1,3,7.1,6.9v1c0,0.8-0.7,1.7-1.6,1.7c-0.8,0-1.6-0.7-1.6-1.7v-1c0-2-1.7-3.7-3.9-3.7H30.3z"/>
</svg>
