<?xml version="1.0" encoding="utf-8"?>
<!-- Generator: Adobe Illustrator 23.0.6, SVG Export Plug-In . SVG Version: 6.00 Build 0)  -->
<svg version="1.1" id="Layer_1" xmlns="http://www.w3.org/2000/svg" xmlns:xlink="http://www.w3.org/1999/xlink" x="0px" y="0px"
	 viewBox="0 0 144 144" style="enable-background:new 0 0 144 144;" xml:space="preserve">
<style type="text/css">
	.st0{fill-rule:evenodd;clip-rule:evenodd;fill:#FFFFFF;}
</style>
<path class="st0" d="M15.8,19.2c0-1.8,1.5-3.3,3.3-3.3h10.6c1.8,0,3.3,1.5,3.3,3.3v10.6c0,1.8-1.5,3.3-3.3,3.3
	c-1.8,0-3.3-1.5-3.3-3.3v-7.3h-7.3C17.3,22.5,15.8,21,15.8,19.2z"/>
<path class="st0" d="M15.8,48c0-1.8,1.5-3.3,3.3-3.3h10.6c1.8,0,3.3,1.5,3.3,3.3v10.6c0,1.8-1.5,3.3-3.3,3.3c-1.8,0-3.3-1.5-3.3-3.3
	v-7.3h-7.3C17.3,51.3,15.8,49.8,15.8,48z"/>
<path class="st0" d="M15.8,76.8c0-1.8,1.5-3.3,3.3-3.3h10.6c1.8,0,3.3,1.5,3.3,3.3v10.6c0,1.8-1.5,3.3-3.3,3.3
	c-1.8,0-3.3-1.5-3.3-3.3v-7.3h-7.3C17.3,80.1,15.8,78.6,15.8,76.8z"/>
<path class="st0" d="M43.2,19.2c0-1.8,1.5-3.3,3.3-3.3h10.6c1.8,0,3.3,1.5,3.3,3.3v10.6c0,1.8-1.5,3.3-3.3,3.3
	c-1.8,0-3.3-1.5-3.3-3.3v-7.3h-7.3C44.7,22.5,43.2,21,43.2,19.2z"/>
<path class="st0" d="M43.2,48c0-1.8,1.5-3.3,3.3-3.3h10.6c1.8,0,3.3,1.5,3.3,3.3v10.6c0,1.8-1.5,3.3-3.3,3.3c-1.8,0-3.3-1.5-3.3-3.3
	v-7.3h-7.3C44.7,51.3,43.2,49.8,43.2,48z"/>
<path class="st0" d="M43.2,76.8c0-1.8,1.5-3.3,3.3-3.3h10.6c1.8,0,3.3,1.5,3.3,3.3v10.6c0,1.8-1.5,3.3-3.3,3.3
	c-1.8,0-3.3-1.5-3.3-3.3v-7.3h-7.3C44.7,80.1,43.2,78.6,43.2,76.8z"/>
<path class="st0" d="M109.4,73.9c0-1.8,1.6-3.3,3.6-3.3h11.5c2,0,3.6,1.5,3.6,3.3v10.6c0,1.8-1.6,3.3-3.6,3.3s-3.6-1.5-3.6-3.3v-7.3
	H113C111.1,77.2,109.4,75.7,109.4,73.9z"/>
<path class="st0" d="M85,73.9c0-1.8,1.6-3.3,3.6-3.3h11.5c2,0,3.6,1.5,3.6,3.3v10.6c0,1.8-1.6,3.3-3.6,3.3c-2,0-3.6-1.5-3.6-3.3
	v-7.3h-7.9C86.6,77.2,85,75.7,85,73.9z"/>
<path class="st0" d="M29.6,110.3v26c0,1.8-1.5,3.3-3.3,3.3c-1.8,0-3.3-1.5-3.3-3.3v-28.2c0-1.6,0.9-2.8,1.8-3.5c0.9-0.7,1.9-1,3-1
	h20.7c1.8,0,4.8,1.2,4.8,4.5v28.2c0,1.8-1.5,3.3-3.3,3.3c-1.8,0-3.3-1.5-3.3-3.3v-26H29.6z"/>
<path class="st0" d="M97.6,110.3v26c0,1.8-1.5,3.3-3.4,3.3c-1.9,0-3.4-1.5-3.4-3.3v-28.2c0-1.6,0.9-2.8,1.9-3.5c0.9-0.7,2-1,3.1-1
	h21.7c1.9,0,5,1.2,5,4.5v28.2c0,1.8-1.5,3.3-3.4,3.3c-1.9,0-3.4-1.5-3.4-3.3v-26H97.6z"/>
<path class="st0" d="M75.9,60.2v77h61.3v-77H75.9z M69.1,58.2c0-2.6,2-4.9,4.8-4.9h65.2c2.8,0,4.8,2.3,4.8,4.9v80.9
	c0,2.6-2,4.9-4.8,4.9H73.9c-2.8,0-4.8-2.3-4.8-4.9V58.2z"/>
<path class="st0" d="M6.9,6.9v130.3h62.4V6.9H6.9z M0,5c0-2.9,2.5-5,5.2-5h66c2.7,0,5.2,2.1,5.2,5V139c0,2.9-2.5,5-5.2,5h-66
	c-2.7,0-5.2-2.1-5.2-5V5z"/>
</svg>
