<?xml version="1.0" encoding="utf-8"?>
<!-- Generator: Adobe Illustrator 23.0.6, SVG Export Plug-In . SVG Version: 6.00 Build 0)  -->
<svg version="1.1" id="Layer_1" xmlns="http://www.w3.org/2000/svg" xmlns:xlink="http://www.w3.org/1999/xlink" x="0px" y="0px"
	 viewBox="0 0 144 144" style="enable-background:new 0 0 144 144;" xml:space="preserve">
<style type="text/css">
	.st0{fill-rule:evenodd;clip-rule:evenodd;fill:#000000;}
</style>
<path class="st0" d="M119.4,90.6c-4.9,0-8.9,4-8.9,8.9s4,8.9,8.9,8.9s8.9-4,8.9-8.9S124.3,90.6,119.4,90.6z M103.6,99.5
	c0-8.7,7.1-15.8,15.8-15.8s15.8,7.1,15.8,15.8s-7.1,15.8-15.8,15.8S103.6,108.3,103.6,99.5z"/>
<path class="st0" d="M110.4,129.2c-4.7,0-8.7,3.9-8.7,9.1v2.3c0,1.9-1.5,3.4-3.4,3.4s-3.4-1.5-3.4-3.4v-2.3
	c0-8.6,6.8-15.8,15.4-15.8h18c8.7,0,15.4,7.2,15.4,15.8v2.3c0,1.9-1.5,3.4-3.4,3.4s-3.4-1.5-3.4-3.4v-2.3c0-5.2-4-9.1-8.7-9.1
	C128.2,129.2,110.4,129.2,110.4,129.2z"/>
<path class="st0" d="M102.2,18.8c-4.9,0-8.9,4-8.9,8.9s4,8.9,8.9,8.9s8.9-4,8.9-8.9S107.1,18.8,102.2,18.8z M86.4,27.7
	c0-8.7,7.1-15.8,15.8-15.8S118,19,118,27.7s-7.1,15.8-15.8,15.8S86.4,36.5,86.4,27.7z"/>
<path class="st0" d="M92.2,57.4c-5,0-9.1,4-9.1,9.1v2.3c0,1.9-1.5,3.4-3.4,3.4s-3.4-1.5-3.4-3.4v-2.3c0-8.7,7.1-15.8,15.8-15.8h18.6
	c8.8,0,15.8,7.1,15.8,15.8v2.3c0,1.9-1.5,3.4-3.4,3.4s-3.4-1.5-3.4-3.4v-2.3c0-5.1-4.1-9.1-9.1-9.1C110.6,57.4,92.2,57.4,92.2,57.4z
	"/>
<path class="st0" d="M44.7,18.8c-4.9,0-8.9,4-8.9,8.9s4,8.9,8.9,8.9s8.9-4,8.9-8.9S49.6,18.8,44.7,18.8z M28.9,27.7
	c0-8.7,7.1-15.8,15.8-15.8S60.5,19,60.5,27.7s-7.1,15.8-15.8,15.8S28.9,36.5,28.9,27.7z"/>
<path class="st0" d="M35.7,57.4c-4.7,0-8.7,3.9-8.7,9.1v2.3c0,1.9-1.5,3.4-3.4,3.4s-3.4-1.5-3.4-3.4v-2.3c0-8.6,6.8-15.8,15.4-15.8
	h18c8.7,0,15.4,7.2,15.4,15.8v2.3c0,1.9-1.5,3.4-3.4,3.4s-3.4-1.5-3.4-3.4v-2.3c0-5.2-4-9.1-8.7-9.1C53.5,57.4,35.7,57.4,35.7,57.4z
	"/>
<path class="st0" d="M24.6,90.6c-4.9,0-8.9,4-8.9,8.9s4,8.9,8.9,8.9s8.9-4,8.9-8.9S29.5,90.6,24.6,90.6z M8.8,99.5
	c0-8.7,7.1-15.8,15.8-15.8s15.8,7.1,15.8,15.8s-7.1,15.8-15.8,15.8S8.8,108.3,8.8,99.5z"/>
<path class="st0" d="M15.6,129.2c-4.7,0-8.7,3.9-8.7,9.1v2.3c0,1.9-1.5,3.4-3.4,3.4s-3.4-1.5-3.4-3.4v-2.3c0-8.6,6.8-15.8,15.4-15.8
	h18c8.7,0,15.4,7.2,15.4,15.8v2.3c0,1.9-1.5,3.4-3.4,3.4s-3.4-1.5-3.4-3.4v-2.3c0-5.2-4-9.1-8.7-9.1
	C33.4,129.2,15.6,129.2,15.6,129.2z"/>
<path class="st0" d="M72,73.4c-4.9,0-8.9,4-8.9,8.9s4,8.9,8.9,8.9s8.9-4,8.9-8.9S76.9,73.4,72,73.4z M56.2,82.3
	c0-8.7,7.1-15.8,15.8-15.8s15.8,7.1,15.8,15.8S80.7,98.1,72,98.1S56.2,91,56.2,82.3z"/>
<path class="st0" d="M64,112c-4.8,0-8.4,3.7-8.4,7.9v2.1c0,1.8-1.5,3.4-3.3,3.4S49,123.9,49,122v-2.1c0-8.3,6.9-14.6,15-14.6h17.4
	c8.1,0,15,6.4,15,14.6v2.1c0,1.8-1.5,3.4-3.3,3.4s-3.3-1.5-3.3-3.4v-2.1c0-4.2-3.6-7.9-8.4-7.9H64z"/>
</svg>
