<?xml version="1.0" encoding="utf-8"?>
<!-- Generator: Adobe Illustrator 23.0.6, SVG Export Plug-In . SVG Version: 6.00 Build 0)  -->
<svg version="1.1" id="Layer_1" xmlns="http://www.w3.org/2000/svg" xmlns:xlink="http://www.w3.org/1999/xlink" x="0px" y="0px"
	 viewBox="0 0 144 144" style="enable-background:new 0 0 144 144;" xml:space="preserve">
<style type="text/css">
	.st0{fill-rule:evenodd;clip-rule:evenodd;fill:#FFFFFF;}
</style>
<path class="st0" d="M9.7,125.7V137h125.6v-11.2H9.7z M2.7,123.7c0-2.6,2-5,5-5h129.7c2.9,0,5,2.4,5,5V139c0,2.6-2,5-5,5H7.6
	c-2.9,0-5-2.4-5-5V123.7z"/>
<path class="st0" d="M12.5,102.6c0-1.9,1.6-3.5,3.5-3.5h114.3c1.9,0,3.5,1.6,3.5,3.5v18.3c0,1.9-1.6,3.5-3.5,3.5H16.1
	c-1.9,0-3.5-1.6-3.5-3.5V102.6z M19.6,106.1v11.2h107.2v-11.2H19.6z"/>
<path class="st0" d="M23.8,43.6c0-1.9,1.6-3.5,3.5-3.5h62.1c1.9,0,3.5,1.6,3.5,3.5v59c0,1.9-1.6,3.5-3.5,3.5H27.4
	c-1.9,0-3.5-1.6-3.5-3.5V43.6z M30.9,47.1v52h55v-52H30.9z"/>
<path class="st0" d="M53.5,43.6c0-1.9,1.6-3.5,3.5-3.5h60.7c1.9,0,3.5,1.6,3.5,3.5v59c0,1.9-1.6,3.5-3.5,3.5H57
	c-1.9,0-3.5-1.6-3.5-3.5V43.6z M60.5,47.1v52h53.6v-52H60.5z"/>
<path class="st0" d="M72.5,7.6L25.9,39.3h93.2L72.5,7.6z M74.8,0.7c-1.4-0.9-3.2-0.9-4.6,0L13.6,39.2c-3.2,2.2-1.6,7.2,2.3,7.2
	h113.2c4,0,5.6-5,2.3-7.2L74.8,0.7z"/>
</svg>
