<svg xmlns="http://www.w3.org/2000/svg" width="48" height="48" viewBox="0 0 48 48">
<style type="text/css">
	.st0{fill:#F6D1D3;}
	.st1{fill-rule:evenodd;clip-rule:evenodd;fill:#D11B25;}
</style>
<path class="st0" d="M14.5,34.7v-6h19v6l-4.8-1.4l-4.5,1.4l-4-1.4L14.5,34.7z"/>
<path class="st1" d="M14.5,29.5c0-0.4,0.4-0.8,0.9-0.8h18.1c0.5,0,0.9,0.3,0.9,0.8s-0.3,0.7-0.8,0.7H15.4
	C14.9,30.2,14.5,29.9,14.5,29.5z"/>
<path class="st1" d="M15.4,13.7c0.5,0,0.5,0.4,0.5,0.9v19.6l4.5-1c0.1,0,0.3,0,0.4,0l3.9,1l4.1-1.2c0.1,0,0.3,0,0.5,0l3.9,1V15
	c0-0.5,0-1.3,0.5-1.3c0.4,0,0.8,0.5,0.8,1v20.2c0,0.3-0.1,0.5-0.3,0.7s-0.5,0.2-0.8,0.2L29,34.8l-4,1.1c-0.2,0-0.3,0-0.5,0l-4-1.1
	l-4.9,1.1c-0.3,0.1-0.6,0-0.8-0.2s-0.3-0.5-0.3-0.8V14.7C14.5,14.2,14.9,13.7,15.4,13.7z"/>
<path class="st1" d="M18.5,22.5c0-0.4,0.3-0.8,0.7-0.8h10.6c0.4,0,0.7,0.3,0.7,0.8s-0.3,0.7-0.7,0.7H19.2
	C18.8,23.2,18.5,22.9,18.5,22.5z"/>
<path class="st1" d="M18.5,18.5c0-0.4,0.3-0.8,0.7-0.8h10.6c0.4,0,0.7,0.3,0.7,0.8s-0.3,0.7-0.7,0.7H19.2
	C18.8,19.2,18.5,18.9,18.5,18.5z"/>
<path class="st1" d="M11.5,13.5c0-0.4,0.3-0.8,0.7-0.8h23.6c0.4,0,0.7,0.3,0.7,0.8s-0.3,0.7-0.7,0.7H12.2
	C11.8,14.2,11.5,13.9,11.5,13.5z"/>
</svg>
