<svg xmlns="http://www.w3.org/2000/svg" width="48" height="48" viewBox="0 0 48 48">
<style type="text/css">
	.st0{fill:#F6D1D3;}
	.st1{fill-rule:evenodd;clip-rule:evenodd;fill:#D11B25;}
</style>
<path class="st0" d="M36.6,23.3c0,6.6-5.4,12-12,12s-12-5.4-12-12s5.4-12,12-12S36.6,16.7,36.6,23.3z"/>
<path class="st1" d="M24.6,33.8c5.8,0,10.5-4.7,10.5-10.5s-4.7-10.5-10.5-10.5s-10.5,4.7-10.5,10.5S18.8,33.8,24.6,33.8z M24.6,35.3
	c6.6,0,12-5.4,12-12s-5.4-12-12-12s-12,5.4-12,12S18,35.3,24.6,35.3z"/>
<path class="st1" d="M20.9,17.3c0-0.4,0.3-0.8,0.8-0.8h4.5c0.1,0,0.2,0,0.3,0s0.2,0,0.3,0c2.1,0,3.8,1.7,3.8,3.7S28.9,24,26.8,24
	c-0.1,0-0.2,0-0.3,0s-0.2,0-0.3,0h-1.8v1.5h1.2c0.4,0,0.8,0.3,0.8,0.8c0,0.4-0.3,0.8-0.8,0.8h-1.3v2.2c0,0.4-0.3,0.8-0.8,0.8
	s-0.8-0.3-0.8-0.8V27h-1.1c-0.4,0-0.8-0.3-0.8-0.8c0-0.4,0.3-0.8,0.8-0.8h1.3v-1.5h-1.3c-0.4,0-0.8-0.3-0.8-0.8
	c0-0.4,0.3-0.8,0.8-0.8h1.3V18h-1.3C21.2,18,20.9,17.7,20.9,17.3z M24.4,18v4.5h1.8c0.1,0,0.2,0,0.3,0s0.2,0,0.3,0
	c1.2,0,2.3-1,2.3-2.3c0-1.3-1-2.2-2.3-2.2c-0.1,0-0.2,0-0.3,0s-0.2,0-0.3,0H24.4z"/>
</svg>
