<svg width="24" height="24" viewBox="0 0 24 24" fill="none" xmlns="http://www.w3.org/2000/svg">
<path fill-rule="evenodd" clip-rule="evenodd" d="M10.7597 2.66667C6.29004 2.66667 2.66667 6.29004 2.66667 10.7597C2.66667 15.2293 6.29004 18.8527 10.7597 18.8527C15.2293 18.8527 18.8527 15.2293 18.8527 10.7597C18.8527 6.29004 15.2293 2.66667 10.7597 2.66667ZM0 10.7597C0 4.81728 4.81728 0 10.7597 0C16.7021 0 21.5194 4.81728 21.5194 10.7597C21.5194 13.2503 20.6731 15.5433 19.2525 17.3668L23.6095 21.7239C24.1302 22.2446 24.1302 23.0888 23.6095 23.6095C23.0888 24.1302 22.2446 24.1302 21.7239 23.6095L17.3668 19.2525C15.5433 20.6731 13.2503 21.5194 10.7597 21.5194C4.81728 21.5194 0 16.7021 0 10.7597Z" fill="#777777"/>
</svg>
