<?xml version="1.0" encoding="utf-8"?>
<!-- Generator: Adobe Illustrator 23.0.6, SVG Export Plug-In . SVG Version: 6.00 Build 0)  -->
<svg version="1.1" id="Layer_1" xmlns="http://www.w3.org/2000/svg" xmlns:xlink="http://www.w3.org/1999/xlink" x="0px" y="0px"
	 viewBox="0 0 347 346" style="enable-background:new 0 0 347 346;" xml:space="preserve">
<style type="text/css">
	.st0{fill:#FFFFFF;}
	.st1{opacity:7.000000e-02;fill:#FF000E;enable-background:new    ;}
	.st2{fill:none;stroke:#FBA2AA;stroke-width:8;stroke-linecap:round;stroke-miterlimit:10;}
	.st3{fill:none;stroke:#FFC5C9;stroke-width:16;stroke-linecap:round;stroke-miterlimit:10;}
	.st4{fill-rule:evenodd;clip-rule:evenodd;fill:#FF6271;}
</style>
<path class="st0" d="M159.6,345.1c87.9,0,159.1-71.4,159.1-159.4c0-88.1-71.2-159.4-159.1-159.4C71.7,26.2,0.5,97.6,0.5,185.6
	C0.5,273.7,71.7,345.1,159.6,345.1z"/>
<path class="st1" d="M159.6,345.1c87.9,0,159.1-71.4,159.1-159.4c0-88.1-71.2-159.4-159.1-159.4C71.7,26.2,0.5,97.6,0.5,185.6
	C0.5,273.7,71.7,345.1,159.6,345.1z"/>
<path class="st2" d="M48.5,113.6V143"/>
<path class="st2" d="M64.3,128.7H34.2"/>
<path class="st2" d="M138.1,4v54.5"/>
<path class="st2" d="M165.3,31.2h-54.5"/>
<path class="st3" d="M310,143v58"/>
<path class="st3" d="M338.7,172.4h-57.3"/>
<path class="st4" d="M168.4,144.4c-20.4,0-36.9,16.5-36.9,36.9c0,20.4,16.5,36.9,36.9,36.9c20.4,0,36.9-16.5,36.9-36.9
	C205.4,161,188.8,144.4,168.4,144.4z M123.8,181.4c0-24.7,20-44.6,44.6-44.6s44.6,20,44.6,44.6c0,10.9-3.9,21-10.5,28.7l20.1,20.1
	c1.5,1.5,1.5,3.9,0,5.4c-1.5,1.5-3.9,1.5-5.4,0l-20.1-20.1c-7.8,6.5-17.8,10.5-28.7,10.5C143.8,226,123.8,206,123.8,181.4z"/>
</svg>
