<svg width="415" height="411" viewBox="0 0 415 411" fill="none" xmlns="http://www.w3.org/2000/svg">
<ellipse cx="197.943" cy="216.684" rx="109.346" ry="109.507" fill="white"/>
<path opacity="0.07" d="M197.943 326.19C258.333 326.19 307.289 277.162 307.289 216.684C307.289 156.205 258.333 107.177 197.943 107.177C137.553 107.177 88.5977 156.205 88.5977 216.684C88.5977 277.162 137.553 326.19 197.943 326.19Z" fill="#FF000E"/>
<path d="M282.336 243.481H112.624C111.611 243.481 110.789 244.303 110.789 245.317V304.131C110.789 305.145 111.611 305.967 112.624 305.967H282.336C283.35 305.967 284.171 305.145 284.171 304.131V245.317C284.171 244.303 283.35 243.481 282.336 243.481Z" fill="#FBA2AA"/>
<path d="M112.148 198.34L124.475 167.761H270.15L282.477 198.34H112.148Z" fill="#FBA2AA"/>
<path d="M206.419 240.289H188.531V285.253H206.419V240.289Z" fill="#FF6271"/>
<path d="M112.462 196.367H282.777C283.119 196.368 283.455 196.464 283.745 196.646C284.036 196.827 284.269 197.087 284.42 197.394L307.06 243.043C307.197 243.321 307.261 243.63 307.246 243.94C307.231 244.25 307.138 244.551 306.975 244.815C306.812 245.079 306.585 245.297 306.315 245.45C306.045 245.602 305.741 245.684 305.43 245.687H111.134H89.5347C89.2095 245.697 88.8875 245.62 88.6022 245.463C88.3169 245.307 88.0788 245.077 87.9124 244.797C87.746 244.518 87.6576 244.199 87.6563 243.873C87.6549 243.548 87.7407 243.228 87.9048 242.947L110.833 197.34C110.991 197.045 111.226 196.799 111.513 196.628C111.8 196.457 112.128 196.366 112.462 196.367Z" fill="#FFC6C9"/>
<path d="M124.077 170.912L113.585 195.408C113.092 196.6 111.928 196.778 110.134 197.12L79.4403 202.518C76.701 203.094 76.5915 202.34 77.7557 199.682L88.2608 175.173C88.6991 174.282 89.918 174.05 91.6849 173.693L122.406 168.076C126.008 167.432 125.734 167.474 124.077 170.912Z" fill="#FFC6C9"/>
<path d="M270.574 170.912L281.066 195.408C281.545 196.6 282.709 196.778 284.503 197.12L315.211 202.518C317.95 203.094 318.059 202.34 316.895 199.682L306.404 175.173C305.952 174.282 304.747 174.05 302.966 173.693L272.259 168.076C268.684 167.432 268.903 167.474 270.574 170.912Z" fill="#FFC6C9"/>
<path fill-rule="evenodd" clip-rule="evenodd" d="M262.633 110.692C242.231 110.692 225.692 127.231 225.692 147.633C225.692 168.035 242.231 184.574 262.633 184.574C283.035 184.574 299.574 168.035 299.574 147.633C299.574 127.231 283.035 110.692 262.633 110.692ZM218 147.633C218 122.983 237.983 103 262.633 103C287.284 103 307.267 122.983 307.267 147.633C307.267 158.574 303.33 168.595 296.797 176.357L316.873 196.434C318.376 197.936 318.376 200.371 316.873 201.873C315.371 203.376 312.936 203.376 311.434 201.873L291.357 181.797C283.595 188.33 273.574 192.267 262.633 192.267C237.983 192.267 218 172.284 218 147.633Z" fill="#FF6271"/>
</svg>
