<svg width="72" height="72" viewBox="0 0 72 72" fill="none" xmlns="http://www.w3.org/2000/svg">
<path d="M16 39.0225C15.4477 39.0225 15 39.4702 15 40.0225C15 40.5748 15.4477 41.0225 16 41.0225L16 39.0225ZM54.5 41.0224C55.0523 41.0224 55.5 40.5747 55.5 40.0224C55.5 39.4702 55.0523 39.0224 54.5 39.0224V41.0224ZM48.2929 47.3154C47.9024 47.7059 47.9024 48.3391 48.2929 48.7296C48.6834 49.1201 49.3166 49.1201 49.7071 48.7296L48.2929 47.3154ZM57 40.0225L57.7071 40.7296C58.0976 40.3391 58.0976 39.7059 57.7071 39.3154L57 40.0225ZM49.2071 30.8154C48.8166 30.4248 48.1834 30.4248 47.7929 30.8154C47.4024 31.2059 47.4024 31.8391 47.7929 32.2296L49.2071 30.8154ZM17 24C17 23.4477 16.5523 23 16 23C15.4477 23 15 23.4477 15 24L17 24ZM15 40C15 40.5523 15.4477 41 16 41C16.5523 41 17 40.5523 17 40H15ZM16 41.0225L54.5 41.0224V39.0224L16 39.0225L16 41.0225ZM49.7071 48.7296L57.7071 40.7296L56.2929 39.3154L48.2929 47.3154L49.7071 48.7296ZM47.7929 32.2296L56.2929 40.7296L57.7071 39.3154L49.2071 30.8154L47.7929 32.2296ZM15 24L15 40H17L17 24L15 24Z" fill="#828282"/>
</svg>
