<svg width="20" height="20" viewBox="0 0 20 20" fill="none" xmlns="http://www.w3.org/2000/svg">
<path d="M2.5503 5.23507L3.97973 7.05646C3.87096 7.28081 3.77454 7.5123 3.69143 7.74877L1.38471 8.03221C1.16502 8.05921 1 8.24469 1 8.46469V11.4107C1 11.6306 1.16502 11.8162 1.38471 11.8432L3.69151 12.1264C3.77454 12.3627 3.87104 12.594 3.97981 12.8183L2.55038 14.6398C2.41428 14.8132 2.4295 15.0604 2.586 15.2158L4.68197 17.2997C4.83854 17.4553 5.08723 17.4704 5.26182 17.3351L7.09436 15.914C7.3197 16.022 7.55253 16.1177 7.79062 16.2004L8.07557 18.4933C8.10266 18.7117 8.28943 18.8756 8.51071 18.8756H11.4751C11.6964 18.8756 11.8832 18.7117 11.9103 18.4933L12.1952 16.2004C12.4332 16.1178 12.666 16.022 12.8917 15.9139L14.7248 17.3351C14.8993 17.4704 15.148 17.4553 15.3045 17.2996L17.4001 15.2159C17.5567 15.0603 17.5719 14.8133 17.4357 14.6399L16.0064 12.8186C16.1153 12.5943 16.2118 12.3629 16.2949 12.1265L18.6016 11.8433C18.8214 11.8163 18.9863 11.6307 18.9863 11.4108V8.46477C18.9863 8.24476 18.8214 8.05929 18.6016 8.03229L16.2944 7.74885C16.2111 7.51214 16.1148 7.28065 16.0062 7.05654L17.4356 5.23515C17.5718 5.06163 17.5566 4.81439 17.4 4.65893L15.304 2.57644C15.1475 2.4209 14.8989 2.40578 14.7244 2.54096L12.8917 3.96115C12.6662 3.85313 12.4334 3.7573 12.1953 3.67463L11.9104 1.38235C11.8831 1.16401 11.6965 1 11.4752 1H8.51079C8.28951 1 8.10274 1.16401 8.07564 1.38243L7.7907 3.67471C7.55261 3.75738 7.31978 3.85313 7.09443 3.96115L5.26174 2.54057C5.08731 2.40522 4.83862 2.42043 4.68205 2.57596L2.58616 4.65885C2.4295 4.81439 2.4142 5.06155 2.5503 5.23507ZM8.4943 7.05646L8.89837 6.87903C9.03534 6.98531 8.95286 7.29499 9.10585 7.21318C9.44187 7.03349 9.12206 6.73917 9.49354 6.62767C9.6596 6.57777 9.68999 7.22767 9.71126 7.05646L9.82662 6.73889L10.1597 6.79318L10.3262 6.87903C10.3474 7.05033 10.4933 6.68907 10.6593 6.73889C11.0303 6.85023 11.1386 7.03333 11.4752 7.21318C11.6282 7.29499 11.8155 7.27923 11.9525 7.17303L12.3247 7.45526L12.8917 8.27343L12.9322 8.80168C12.8254 8.9379 12.8094 9.12385 12.8917 9.27598C12.7795 8.90677 13.0725 9.61034 12.8917 9.27598C12.942 9.44102 12.8779 9.93806 13.211 9.93806V10.1036V10.4346L13.1574 10.7657C12.9852 10.7869 13.2077 10.8602 13.1574 11.0254C13.0457 11.3937 12.7934 11.0763 12.6121 11.4108C12.5296 11.563 12.3843 11.707 12.4913 11.8433L12.1952 12.1265L11.9525 12.4208L11.8251 12.5864C11.6881 12.4801 11.8208 12.6701 11.6677 12.7519C11.331 12.9317 11.5296 12.7074 11.1589 12.8186C10.9927 12.8684 10.8471 12.9116 10.8259 13.0829L10.4928 13.1358L9.82662 12.9174L9.16046 13.0829C9.13911 12.9117 8.88322 12.8685 8.717 12.8186C8.34568 12.7072 8.49724 12.766 8.16122 12.5864C8.00807 12.5046 7.92775 12.1491 7.79062 12.2553L7.49506 11.8433L7.09436 11.6019L6.99544 11.2953C7.10222 11.1592 7.17651 11.0833 7.09436 10.9312C6.91316 10.5962 7.20623 10.9682 7.09443 10.6001C7.04423 10.4349 6.94726 10.4558 6.77499 10.4346V10.1036L6.66236 9.60702L6.77499 9.27598C6.94726 9.25475 6.94524 9.11014 6.99544 8.94494C7.1074 8.57645 7.31394 8.60842 7.49506 8.27343C7.57722 8.1213 7.93492 7.75692 7.82814 7.62078L8.16122 7.45526L8.4943 7.05646Z" fill="#F2F2F2"/>
<path d="M2.56416 5.30294L3.99358 7.12433C3.88481 7.34868 3.7884 7.58017 3.70529 7.81664L1.39856 8.10008C1.17888 8.12708 1.01385 8.31256 1.01385 8.53256V11.4786C1.01385 11.6985 1.17888 11.8841 1.39856 11.9111L3.70537 12.1943C3.7884 12.4306 3.88489 12.6619 3.99366 12.8862L2.56424 14.7076C2.42814 14.8811 2.44336 15.1282 2.59985 15.2837L4.69582 17.3675C4.8524 17.5232 5.10109 17.5383 5.27567 17.4029L7.10821 15.9819C7.33355 16.0898 7.56639 16.1856 7.80448 16.2682L8.08942 18.5612C8.11651 18.7796 8.30329 18.9435 8.52457 18.9435H11.489C11.7103 18.9435 11.897 18.7796 11.9241 18.5612L12.2091 16.2682C12.447 16.1856 12.6798 16.0899 12.9055 15.9818L14.7387 17.4029C14.9131 17.5383 15.1619 17.5232 15.3184 17.3675L17.4139 15.2838C17.5705 15.1282 17.5857 14.8812 17.4496 14.7077L16.0202 12.8865C16.1291 12.6622 16.2256 12.4308 16.3087 12.1943L18.6155 11.9111C18.8352 11.8841 19.0002 11.6986 19.0002 11.4787V8.53264C19.0002 8.31263 18.8352 8.12716 18.6155 8.10016L16.3083 7.81672C16.225 7.58001 16.1287 7.34853 16.0201 7.12441L17.4495 5.30302C17.5857 5.1295 17.5704 4.88226 17.4139 4.7268L15.3178 2.64431C15.1614 2.48877 14.9127 2.47365 14.7383 2.60883L12.9056 4.02902C12.6801 3.921 12.4473 3.82517 12.2092 3.7425L11.9242 1.45022C11.897 1.23188 11.7104 1.06787 11.4891 1.06787H8.52465C8.30337 1.06787 8.11659 1.23188 8.0895 1.4503L7.80456 3.74258C7.56647 3.82525 7.33363 3.921 7.10829 4.02902L5.27559 2.60844C5.10117 2.47309 4.85248 2.4883 4.6959 2.64384L2.60001 4.72672C2.44336 4.88226 2.42806 5.12943 2.56416 5.30294ZM5.0418 3.53255L6.78884 4.88677C6.92582 4.99305 7.11315 5.00881 7.26614 4.927C7.60216 4.74731 7.96089 4.59969 8.33237 4.48819C8.49843 4.4383 8.61939 4.29567 8.64066 4.12445L8.91222 1.9394H11.1013L11.3731 4.12445C11.3943 4.29575 11.5153 4.43838 11.6813 4.48819C12.0523 4.59954 12.4109 4.74715 12.7476 4.927C12.9006 5.00881 13.0878 4.99305 13.2249 4.88685L14.9718 3.53303L16.5197 5.07066L15.157 6.80676C15.0502 6.94297 15.0342 7.12892 15.1165 7.28105C15.2973 7.61541 15.4459 7.9721 15.5581 8.3413C15.6083 8.50634 15.7518 8.62656 15.9241 8.64771L18.1234 8.91784V11.0933L15.9246 11.3632C15.7523 11.3844 15.6088 11.5046 15.5585 11.6698C15.4468 12.0381 15.298 12.3945 15.1167 12.729C15.0342 12.8812 15.0501 13.0674 15.157 13.2037L16.5199 14.94L14.9723 16.4788L13.2249 15.1242C13.0879 15.0179 12.9007 15.0022 12.7476 15.084C12.4109 15.2638 12.0522 15.4114 11.6815 15.5226C11.5153 15.5724 11.3943 15.7152 11.3731 15.8865L11.1013 18.0721H8.91222L8.64066 15.8865C8.61931 15.7152 8.49843 15.5725 8.33221 15.5226C7.96089 15.4112 7.60216 15.2636 7.26614 15.084C7.11299 15.0022 6.92582 15.0179 6.78868 15.1242L5.04188 16.4788L3.49405 14.94L4.8567 13.2037C4.96348 13.0675 4.97933 12.8815 4.89718 12.7294C4.71598 12.3944 4.56738 12.0378 4.45558 11.6698C4.40538 11.5046 4.26187 11.3843 4.0896 11.3632L1.89084 11.0933V8.91776L4.08968 8.64771C4.26195 8.62648 4.40546 8.50634 4.45566 8.34115C4.56761 7.97265 4.71614 7.61604 4.89726 7.28105C4.97941 7.12892 4.96356 6.94289 4.85678 6.80676L3.49421 5.07066L5.0418 3.53255Z" fill="#020202" stroke="#020202" stroke-width="0.5"/>
<path d="M10.0064 13.54C11.9675 13.54 13.5629 11.9544 13.5629 10.0053C13.5629 8.05604 11.9675 6.47009 10.0064 6.47009C8.04535 6.47009 6.44995 8.05596 6.44995 10.0053C6.44995 11.9544 8.04527 13.54 10.0064 13.54ZM10.0064 7.34178C11.4838 7.34178 12.6859 8.53666 12.6859 10.0054C12.6859 11.4738 11.4838 12.6685 10.0064 12.6685C8.52886 12.6685 7.32694 11.4738 7.32694 10.0054C7.32686 8.53666 8.52886 7.34178 10.0064 7.34178Z" fill="#020202" stroke="#020202" stroke-width="0.5"/>
</svg>
