<svg width="72" height="72" viewBox="0 0 72 72" fill="none" xmlns="http://www.w3.org/2000/svg">
<path d="M17 30.92L23.5 29L27 51.56L23 53L17 30.92Z" fill="#F6D1D3"/>
<path fill-rule="evenodd" clip-rule="evenodd" d="M44.212 3.81055C44.1783 3.79164 44.1295 3.78031 44.0664 3.79746L35.852 6.02997L39.8112 21.017L47.9997 18.7915C48.0636 18.7742 48.1076 18.7367 48.1334 18.6931C48.1588 18.6503 48.1582 18.6185 48.1521 18.5955L44.2623 3.87105C44.2565 3.84909 44.2446 3.82886 44.212 3.81055ZM48.1517 3.75767L47.926 2.90311C47.3602 0.761303 45.1542 -0.425188 43.0726 0.140543L2.95303 11.0442C0.880685 11.6074 -0.432165 13.7343 0.130744 15.8651L4.02055 30.5896C4.58636 32.7314 6.79232 33.9179 8.8739 33.3521L13.3046 32.148L18.9883 53.6628L16.7594 54.2686C15.5027 54.6101 14.6519 55.9126 15.0109 57.2717L18.4212 70.1808C18.7832 71.5512 20.1829 72.2577 21.4485 71.9137L46.0798 65.2195C47.3365 64.8779 48.1873 63.5754 47.8283 62.2164L44.418 49.3072C44.056 47.9369 42.6563 47.2304 41.3907 47.5743L30.1429 50.6312L28.1981 37.0957L34.2156 35.4603C35.5175 35.1065 36.3693 33.7605 36.0051 32.3818L34.4268 26.4074L48.9935 22.4485C51.0659 21.8852 52.3787 19.7584 51.8158 17.6276L51.5832 16.7471L56.5976 15.3843C56.6975 15.3572 56.7944 15.324 56.8882 15.2854C56.9427 15.2777 56.9974 15.2675 57.052 15.2549C58.9082 14.8254 60.5628 13.7316 61.644 12.1781C62.3744 11.1287 62.8065 9.91901 62.8915 8.67624L70.6017 6.58075C71.6115 6.30631 72.2076 5.26521 71.9332 4.25538C71.6588 3.24555 70.6177 2.6494 69.6079 2.92383L61.9152 5.01457C61.2273 3.987 60.2572 3.1608 59.1072 2.62231C57.3949 1.82053 55.4163 1.7142 53.5977 2.28346C53.5441 2.30023 53.4918 2.31915 53.4409 2.3401C53.3405 2.35423 53.2401 2.37475 53.1403 2.40189L48.1517 3.75767ZM49.1197 7.42162L50.6153 13.0832L54.3137 12.078L52.8181 6.41646L49.1197 7.42162ZM56.5657 5.76638L57.8769 10.7296C58.1289 10.5179 58.3503 10.2769 58.5338 10.0133C59.0346 9.29377 59.2058 8.47925 59.0751 7.7361C58.823 7.02909 58.2779 6.41836 57.5003 6.05429C57.2086 5.91769 56.8937 5.82083 56.5657 5.76638ZM31.0066 23.4099L36.1543 22.0109L32.1952 7.02382L3.94681 14.7011C3.88294 14.7185 3.83896 14.756 3.81311 14.7996C3.78775 14.8424 3.78834 14.8741 3.79442 14.8972L7.68423 29.6216C7.69003 29.6436 7.70191 29.6638 7.73452 29.6821C7.76819 29.701 7.81702 29.7124 7.88012 29.6952L21.9645 25.8674C21.9654 25.8671 21.9662 25.8669 21.967 25.8667L24.8728 25.0769C24.8736 25.0767 24.8744 25.0765 24.8752 25.0763L31.0046 23.4104C31.0053 23.4103 31.006 23.4101 31.0066 23.4099ZM23.2777 29.4947C23.2339 29.4989 23.1915 29.5033 23.151 29.5077C23.0517 29.5187 22.9723 29.5291 22.9187 29.5371C22.9121 29.5381 22.9062 29.539 22.9011 29.5398L16.9614 31.1541L22.6451 52.669L26.4585 51.6326L24.2558 36.3021C24.246 36.2721 24.2369 36.2418 24.2286 36.2111C24.178 36.025 24.157 35.8378 24.1627 35.6546L23.2777 29.4947ZM27.655 33.3163L32.0193 32.1302L30.77 27.4012L26.9542 28.4383L27.655 33.3163ZM24.2828 29.4645C24.2839 29.4646 24.285 29.4648 24.2861 29.4649C24.2976 29.4665 24.2957 29.4669 24.2828 29.4645ZM19.0126 57.5832L21.74 67.9075L43.8266 61.9049L41.0992 51.5806L19.0126 57.5832ZM15.7833 15.5177C16.0578 16.5276 15.4616 17.5687 14.4518 17.8431L9.85481 19.0925C8.84503 19.3669 7.80398 18.7708 7.52955 17.7609C7.25513 16.7511 7.85125 15.71 8.86103 15.4356L13.4581 14.1862C14.4679 13.9117 15.5089 14.5079 15.7833 15.5177ZM17.5078 22.0456C17.7822 23.0554 17.1861 24.0965 16.1763 24.371L11.5793 25.6203C10.5695 25.8948 9.52846 25.2986 9.25403 24.2888C8.97961 23.279 9.57573 22.2379 10.5855 21.9634L15.1826 20.714C16.1923 20.4396 17.2334 21.0358 17.5078 22.0456Z" fill="#D11B25"/>
<path d="M36 5.88889L44 4L48 19.1111L40.4444 21L36 5.88889Z" fill="#F6D1D3"/>
</svg>
