<svg width="18" height="18" viewBox="0 0 18 18" fill="none" xmlns="http://www.w3.org/2000/svg">
<path fill-rule="evenodd" clip-rule="evenodd" d="M9 16.8C13.3078 16.8 16.8 13.3078 16.8 9C16.8 4.69218 13.3078 1.2 9 1.2C4.69218 1.2 1.2 4.69218 1.2 9C1.2 13.3078 4.69218 16.8 9 16.8ZM9 18C13.9706 18 18 13.9706 18 9C18 4.02944 13.9706 0 9 0C4.02944 0 0 4.02944 0 9C0 13.9706 4.02944 18 9 18Z" fill="#777777"/>
<path d="M7.8 7.35C7.8 7.84706 7.39706 8.25 6.9 8.25C6.40294 8.25 6 7.84706 6 7.35C6 6.85294 6.40294 6.45 6.9 6.45C7.39706 6.45 7.8 6.85294 7.8 7.35Z" fill="#777777"/>
<path d="M12.15 7.35C12.15 7.84706 11.7471 8.25 11.25 8.25C10.7529 8.25 10.35 7.84706 10.35 7.35C10.35 6.85294 10.7529 6.45 11.25 6.45C11.7471 6.45 12.15 6.85294 12.15 7.35Z" fill="#777777"/>
<path fill-rule="evenodd" clip-rule="evenodd" d="M4.52574 10.4233C4.76005 10.189 5.13995 10.189 5.37426 10.4233C7.34383 12.3929 10.5371 12.3929 12.5067 10.4233C12.741 10.189 13.1209 10.189 13.3552 10.4233C13.5895 10.6577 13.5895 11.0376 13.3552 11.2719C10.917 13.7101 6.96393 13.7101 4.52574 11.2719C4.29142 11.0376 4.29142 10.6577 4.52574 10.4233Z" fill="#777777"/>
</svg>
