<svg width="100" height="100" viewBox="0 0 100 100" fill="none" xmlns="http://www.w3.org/2000/svg">
<path d="M12.5 93.75V68.75H87.5V93.75L68.75 87.9808L50.9615 93.75L35 87.9808L12.5 93.75Z" fill="#F6D1D3"/>
<path fill-rule="evenodd" clip-rule="evenodd" d="M9.72222 70.1389C9.72222 68.6048 11.3708 67.3611 13.4044 67.3611H85.2067C87.2403 67.3611 88.8889 68.6048 88.8889 70.1389C88.8889 71.673 87.2403 72.9167 85.2067 72.9167H13.4044C11.3708 72.9167 9.72222 71.673 9.72222 70.1389Z" fill="#D11B25"/>
<path fill-rule="evenodd" clip-rule="evenodd" d="M13.3838 7.63889C15.4061 7.63889 15.2778 9.29709 15.2778 11.3426V90.2778L33.3333 86.1111C33.9173 85.9787 34.5244 85.9931 35.1016 86.1531L50.9389 90.2778L67.3611 85.4167C67.9637 85.2497 68.5985 85.2415 69.2051 85.3927L84.7222 89.5833V12.8033C84.7222 10.7578 84.5939 7.63889 86.6162 7.63889C88.6384 7.63889 90.2778 9.29709 90.2778 11.3426V92.824C90.2778 93.9624 89.7602 95.0376 88.8743 95.7396C87.9883 96.4417 86.8324 96.6926 85.7396 96.4201L67.8872 91.9679L51.9063 96.3961C51.273 96.5716 50.6047 96.5716 49.9714 96.3961L33.9507 91.9568L14.1847 96.4381C13.0998 96.684 11.9632 96.4181 11.0953 95.7152C10.2274 95.0123 9.72222 93.9486 9.72222 92.824V11.3426C9.72222 9.29709 11.3616 7.63889 13.3838 7.63889Z" fill="#D11B25"/>
<path fill-rule="evenodd" clip-rule="evenodd" d="M26.3889 44.7222C26.3889 43.3415 27.5082 42.2222 28.8889 42.2222H71.1111C72.4918 42.2222 73.6111 43.3415 73.6111 44.7222C73.6111 46.1029 72.4918 47.2222 71.1111 47.2222H28.8889C27.5082 47.2222 26.3889 46.1029 26.3889 44.7222Z" fill="#D11B25"/>
<path fill-rule="evenodd" clip-rule="evenodd" d="M26.3889 29.4443C26.3889 28.0636 27.5082 26.9443 28.8889 26.9443H71.1111C72.4918 26.9443 73.6111 28.0636 73.6111 29.4443C73.6111 30.825 72.4918 31.9443 71.1111 31.9443H28.8889C27.5082 31.9443 26.3889 30.825 26.3889 29.4443Z" fill="#D11B25"/>
<path fill-rule="evenodd" clip-rule="evenodd" d="M0.277832 9C0.277832 7.61929 1.39712 6.5 2.77783 6.5H97.2223C98.603 6.5 99.7223 7.61929 99.7223 9C99.7223 10.3807 98.603 11.5 97.2223 11.5H2.77783C1.39712 11.5 0.277832 10.3807 0.277832 9Z" fill="#D11B25"/>
</svg>
