<?xml version="1.0" encoding="utf-8"?>
<!-- Generator: Adobe Illustrator 23.0.6, SVG Export Plug-In . SVG Version: 6.00 Build 0)  -->
<svg version="1.1" id="Layer_1" xmlns="http://www.w3.org/2000/svg" xmlns:xlink="http://www.w3.org/1999/xlink" x="0px" y="0px"
	 viewBox="0 0 95 102" style="enable-background:new 0 0 95 102;" xml:space="preserve">
<style type="text/css">
	.st0{fill-rule:evenodd;clip-rule:evenodd;fill:#D11B25;}
	.st1{fill:#F6D1D3;}
</style>
<path class="st0" d="M12.3,18.1c0-1.3,1.1-2.4,2.4-2.4H78c1.3,0,2.4,1.1,2.4,2.4s-1.1,2.4-2.4,2.4H14.7
	C13.4,20.4,12.3,19.4,12.3,18.1z"/>
<path class="st0" d="M80.4,50.7c1.6,0,2.8,1.1,2.8,2.4v40.6c0,1.3-1.3,2.4-2.8,2.4c-1.6,0-2.8-1.1-2.8-2.4V53.1
	C77.6,51.8,78.8,50.7,80.4,50.7z"/>
<path class="st1" d="M7,26.6c0.2-0.9,1-1.5,1.9-1.5h76.8c0.9,0,1.6,0.6,1.9,1.5L94.5,53c0.3,1.2-0.6,2.5-1.9,2.5H1.9
	c-1.3,0-2.2-1.2-1.9-2.5L7,26.6z"/>
<path class="st0" d="M11.1,30L5.7,50.5h83.2L83.5,30H11.1z M8.9,25.1c-0.9,0-1.6,0.6-1.9,1.5L0.1,53c-0.3,1.2,0.6,2.5,1.9,2.5h90.7
	c1.3,0,2.2-1.2,1.9-2.5l-6.9-26.4c-0.2-0.9-1-1.5-1.9-1.5H8.9z"/>
<path class="st0" d="M14.4,55.5v36.7h44.1V55.5H14.4z M12.4,50.7c-1.6,0-2.9,1.3-2.9,2.9v40.5c0,1.6,1.3,2.9,2.9,2.9h48
	c1.6,0,2.9-1.3,2.9-2.9V53.6c0-1.6-1.3-2.9-2.9-2.9C60.4,50.7,12.4,50.7,12.4,50.7z"/>
</svg>
