<?xml version="1.0" encoding="utf-8"?>
<!-- Generator: Adobe Illustrator 23.0.6, SVG Export Plug-In . SVG Version: 6.00 Build 0)  -->
<svg version="1.1" id="Layer_1" xmlns="http://www.w3.org/2000/svg" xmlns:xlink="http://www.w3.org/1999/xlink" x="0px" y="0px"
	 viewBox="0 0 95 102" style="enable-background:new 0 0 95 102;" xml:space="preserve">
<style type="text/css">
	.st0{fill:#F6D1D3;}
	.st1{fill-rule:evenodd;clip-rule:evenodd;fill:#D11B25;}
</style>
<path class="st0" d="M2.9,46.4c0-1.5,1.3-2.8,2.8-2.8h40.9c1.5,0,2.8,1.3,2.8,2.8V94c0,1.5-1.3,2.8-2.8,2.8H5.7
	c-1.5,0-2.8-1.3-2.8-2.8V46.4z"/>
<path class="st1" d="M7.5,48.4v43.8h37.2V48.4H7.5z M5.7,43.6c-1.5,0-2.8,1.3-2.8,2.8V94c0,1.5,1.3,2.8,2.8,2.8h40.9
	c1.5,0,2.8-1.3,2.8-2.8V46.4c0-1.5-1.3-2.8-2.8-2.8H5.7z"/>
<path class="st1" d="M87.3,48.2l-18.6-9.3l-19.4,9.4v43.9h38C87.3,92.1,87.3,48.2,87.3,48.2z M46.2,44.5c-1,0.5-1.6,1.5-1.6,2.5v47
	c0,1.5,1.3,2.8,2.8,2.8h41.7c1.5,0,2.8-1.3,2.8-2.8V47c0-1.1-0.6-2-1.5-2.5L70,34.2c-0.8-0.4-1.7-0.4-2.5,0L46.2,44.5z"/>
<path class="st1" d="M23.2,6.1c0-2.8,2.3-5.1,5.1-5.1h58.5C89.7,1,92,3.3,92,6.1v85.6c0,2.8-2.3,5.1-5.1,5.1H25.6v-4.6h61.3
	c0.3,0,0.5-0.2,0.5-0.5V6.1c0-0.3-0.2-0.5-0.5-0.5H28.4c-0.3,0-0.5,0.2-0.5,0.5v40h-4.6V6.1z"/>
<path class="st1" d="M32,13c0-1.3,1.1-2.3,2.4-2.3h6.8c2.9,0,5.3,2.2,5.3,5v10.1c0,1.3-1.1,2.3-2.4,2.3c-1.4,0-2.4-1.1-2.4-2.3V15.7
	c0-0.3-0.2-0.5-0.5-0.5h-6.8C33,15.2,32,14.3,32,13z"/>
<path class="st0" d="M70.7,75.6c0-1.6,1.2-2.9,2.7-2.9h7.2c1.5,0,2.7,1.3,2.7,2.9V94c0,1.6-1.2,2.9-2.7,2.9h-7.2
	c-1.5,0-2.7-1.3-2.7-2.9V75.6z"/>
<path class="st1" d="M75.1,77.5V92h3.6V77.5H75.1z M73.4,72.7c-1.5,0-2.7,1.3-2.7,2.9V94c0,1.6,1.2,2.9,2.7,2.9h7.2
	c1.5,0,2.7-1.3,2.7-2.9V75.6c0-1.6-1.2-2.9-2.7-2.9H73.4z"/>
<path class="st1" d="M29,74.9c0-1.3,1-2.2,2.2-2.2h4.5c2.7,0,4.9,2.2,4.9,4.9v4.5c0,1.3-1,2.2-2.2,2.2s-2.2-1-2.2-2.2v-4.5
	c0-0.3-0.2-0.5-0.5-0.5h-4.5C30,77.1,29,76.2,29,74.9z"/>
<path class="st1" d="M29,56.5c0-1.3,1-2.2,2.2-2.2h4.5c2.7,0,4.9,2.2,4.9,4.9v4.5c0,1.3-1,2.2-2.2,2.2s-2.2-1-2.2-2.2v-4.5
	c0-0.3-0.2-0.5-0.5-0.5h-4.5C30,58.7,29,57.8,29,56.5z"/>
<path class="st1" d="M11.6,74.9c0-1.3,1.1-2.2,2.4-2.2h4.8c2.9,0,5.3,2.2,5.3,4.9v4.5c0,1.3-1.1,2.2-2.4,2.2s-2.4-1-2.4-2.2v-4.5
	c0-0.3-0.2-0.5-0.5-0.5H14C12.7,77.1,11.6,76.2,11.6,74.9z"/>
<path class="st1" d="M54.2,74.9c0-1.3,1-2.2,2.2-2.2h4.5c2.7,0,4.9,2.2,4.9,4.9v4.5c0,1.3-1,2.2-2.2,2.2c-1.3,0-2.2-1-2.2-2.2v-4.5
	c0-0.3-0.2-0.5-0.5-0.5h-4.5C55.2,77.1,54.2,76.2,54.2,74.9z"/>
<path class="st1" d="M54.2,56.5c0-1.3,1-2.2,2.2-2.2h4.5c2.7,0,4.9,2.2,4.9,4.9v4.5c0,1.3-1,2.2-2.2,2.2c-1.3,0-2.2-1-2.2-2.2v-4.5
	c0-0.3-0.2-0.5-0.5-0.5h-4.5C55.2,58.7,54.2,57.8,54.2,56.5z"/>
<path class="st1" d="M70.7,56.5c0-1.3,1.1-2.2,2.4-2.2H78c2.9,0,5.3,2.2,5.3,4.9v4.5c0,1.3-1.1,2.2-2.4,2.2c-1.4,0-2.4-1-2.4-2.2
	v-4.5c0-0.3-0.2-0.5-0.5-0.5h-4.8C71.8,58.7,70.7,57.8,70.7,56.5z"/>
<path class="st1" d="M11.6,56.5c0-1.3,1.1-2.2,2.4-2.2h4.8c2.9,0,5.3,2.2,5.3,4.9v4.5c0,1.3-1.1,2.2-2.4,2.2s-2.4-1-2.4-2.2v-4.5
	c0-0.3-0.2-0.5-0.5-0.5H14C12.7,58.7,11.6,57.8,11.6,56.5z"/>
<path class="st1" d="M50.4,13c0-1.3,1-2.3,2.2-2.3h6.3c2.7,0,4.9,2.2,4.9,5v10.1c0,1.3-1,2.3-2.2,2.3c-1.3,0-2.2-1.1-2.2-2.3V15.7
	c0-0.3-0.2-0.5-0.5-0.5h-6.3C51.3,15.2,50.4,14.3,50.4,13z"/>
<path class="st1" d="M68.8,13c0-1.3,1.1-2.3,2.4-2.3H78c2.9,0,5.3,2.2,5.3,5v10.1c0,1.3-1.1,2.3-2.4,2.3c-1.4,0-2.4-1.1-2.4-2.3
	V15.7c0-0.3-0.2-0.5-0.5-0.5h-6.8C69.8,15.2,68.8,14.3,68.8,13z"/>
</svg>
