<svg width="20" height="20" viewBox="0 0 20 20" fill="none" xmlns="http://www.w3.org/2000/svg">
<path fill-rule="evenodd" clip-rule="evenodd" d="M8.64262 1.03169C9.06766 -0.343901 10.9323 -0.343894 11.3574 1.03169L12.9944 6.32964C13.028 6.43835 13.1251 6.51195 13.2345 6.5117L18.5679 6.49953C19.9527 6.49637 20.5289 8.34734 19.4068 9.19434L15.0851 12.4565C14.9965 12.5234 14.9594 12.6425 14.9934 12.7511L16.6526 18.0415C17.0834 19.4151 15.5749 20.5591 14.4563 19.707L10.1484 16.4251C10.06 16.3578 9.94002 16.3578 9.85162 16.4251L5.54366 19.707C4.42511 20.5591 2.91656 19.4151 3.34736 18.0415L5.00656 12.7511C5.04061 12.6425 5.00354 12.5234 4.91486 12.4565L0.593193 9.19434C-0.528911 8.34734 0.0473088 6.49637 1.4321 6.49953L6.7655 6.5117C6.87495 6.51195 6.972 6.43835 7.00559 6.32964L8.64262 1.03169ZM10.2395 1.40797C10.1645 1.16522 9.83547 1.16522 9.76046 1.40797L8.12344 6.70591C7.93308 7.32197 7.38311 7.73902 6.76294 7.7376L1.42954 7.72543C1.18516 7.72488 1.08348 8.05152 1.28149 8.20099L5.60316 11.4631C6.10569 11.8425 6.31576 12.5173 6.12282 13.1324L4.46362 18.4229C4.3876 18.6653 4.65382 18.8671 4.8512 18.7168L9.15916 15.4349C9.6601 15.0533 10.3399 15.0533 10.8408 15.4349L15.1488 18.7168C15.3462 18.8671 15.6124 18.6653 15.5364 18.4229L13.8772 13.1324C13.6842 12.5173 13.8943 11.8425 14.3968 11.4631L18.7185 8.20099C18.9165 8.05152 18.8148 7.72488 18.5705 7.72543L13.2371 7.7376C12.6169 7.73902 12.0669 7.32197 11.8766 6.70591L10.2395 1.40797Z" fill="#020202"/>
</svg>
