<svg width="20" height="20" viewBox="0 0 20 20" fill="none" xmlns="http://www.w3.org/2000/svg">
<path fill-rule="evenodd" clip-rule="evenodd" d="M2.77783 2.36122C2.77783 2.05439 3.02656 1.80566 3.33339 1.80566L16.6667 1.80567C16.9735 1.80567 17.2223 2.0544 17.2223 2.36122C17.2223 2.66805 16.9735 2.91678 16.6667 2.91678L3.33339 2.91678C3.02656 2.91678 2.77783 2.66804 2.77783 2.36122Z" fill="#020202"/>
<path fill-rule="evenodd" clip-rule="evenodd" d="M16.9444 9.30566C17.2513 9.30566 17.5 9.55439 17.5 9.86122L17.5 18.1946C17.5 18.5014 17.2513 18.7501 16.9444 18.7501C16.6376 18.7501 16.3889 18.5014 16.3889 18.1946L16.3889 9.86122C16.3889 9.55439 16.6376 9.30566 16.9444 9.30566Z" fill="#020202"/>
<path fill-rule="evenodd" clip-rule="evenodd" d="M2.52497 5.13894L1.43801 9.30561H18.5617L17.4748 5.13894H2.52497ZM2.09575 4.02783C1.84293 4.02783 1.622 4.19853 1.55818 4.44315L0.181369 9.72093C0.0895457 10.0729 0.355163 10.4167 0.718934 10.4167H19.2808C19.6446 10.4167 19.9102 10.0729 19.8183 9.72093L18.4415 4.44315C18.3777 4.19853 18.1568 4.02783 17.904 4.02783H2.09575Z" fill="#020202"/>
<path fill-rule="evenodd" clip-rule="evenodd" d="M3.33328 10.4168V17.639H12.2222V10.4168H3.33328ZM3.0555 9.30566C2.59526 9.30566 2.22217 9.67876 2.22217 10.139V17.9168C2.22217 18.377 2.59526 18.7501 3.0555 18.7501H12.4999C12.9602 18.7501 13.3333 18.377 13.3333 17.9168V10.139C13.3333 9.67876 12.9602 9.30566 12.4999 9.30566H3.0555Z" fill="#020202"/>
</svg>
