<?xml version="1.0" encoding="utf-8"?>
<!-- Generator: Adobe Illustrator 23.0.6, SVG Export Plug-In . SVG Version: 6.00 Build 0)  -->
<svg version="1.1" id="Layer_1" xmlns="http://www.w3.org/2000/svg" xmlns:xlink="http://www.w3.org/1999/xlink" x="0px" y="0px"
	 viewBox="0 0 24 24" style="enable-background:new 0 0 24 24;" xml:space="preserve">
<style type="text/css">
	.st0{fill:#F6D1D3;}
	.st1{fill-rule:evenodd;clip-rule:evenodd;fill:#D11B25;}
</style>
<path class="st0" d="M23.3,11.9c0,6.2-5,11.3-11.3,11.3c-6.2,0-11.3-5-11.3-11.3c0-6.2,5-11.3,11.3-11.3
	C18.2,0.7,23.3,5.7,23.3,11.9z"/>
<path class="st1" d="M12,22.6c5.6,0,10.7-5,10.7-10.7S17.6,1.3,12,1.3S1.3,6.3,1.3,12S6.4,22.6,12,22.6z M12,24c6.6,0,12-5.4,12-12
	S18.6,0,12,0S0,5.3,0,12S5.4,24,12,24z"/>
<path class="st1" d="M9.9,6.3c0.3,0.3,0.4,0.7,0.1,1L7,11c-0.3,0.3-0.7,0.4-1,0.1c-0.3-0.3-0.4-0.7-0.1-1l3-3.7
	C9.1,6.1,9.6,6,9.9,6.3z"/>
<path class="st1" d="M9.4,6.1c0.4,0,0.7,0.3,0.7,0.7v8.9c0,0.4-0.3,0.7-0.7,0.7c-0.4,0-0.7-0.3-0.7-0.7V6.9C8.7,6.5,9,6.1,9.4,6.1z"
	/>
<path class="st1" d="M15.5,9.8c-1.3,0-2.4,1.1-2.4,2.6c0,1.5,1.1,2.6,2.4,2.6c0.6,0,1.1-0.2,1.6-0.6c0.3-0.3,0.8-0.2,1,0.1
	c0.3,0.3,0.2,0.8-0.1,1c-0.7,0.6-1.5,1-2.5,1c-2.2,0-3.9-1.8-3.9-4.1c0-2.2,1.7-4.1,3.9-4.1c1,0,1.9,0.4,2.6,1.1
	c0.3,0.3,0.3,0.8,0,1c-0.3,0.3-0.8,0.3-1,0C16.7,10.1,16.1,9.8,15.5,9.8z"/>
</svg>
