<svg width="14" height="14" viewBox="0 0 14 14" fill="none" xmlns="http://www.w3.org/2000/svg">
<path fill-rule="evenodd" clip-rule="evenodd" d="M13.1868 1.12653C13.4797 1.41942 13.4797 1.8943 13.1868 2.18719L8.06029 7.31371L13.1868 12.4402C13.4797 12.7331 13.4797 13.208 13.1868 13.5009C12.8939 13.7938 12.419 13.7938 12.1262 13.5009L6.99963 8.37438L1.8731 13.5009C1.58021 13.7938 1.10534 13.7938 0.812443 13.5009C0.51955 13.208 0.51955 12.7331 0.812443 12.4402L5.93897 7.31371L0.812443 2.18719C0.51955 1.8943 0.51955 1.41942 0.812443 1.12653C1.10534 0.833637 1.58021 0.833637 1.8731 1.12653L6.99963 6.25306L12.1262 1.12653C12.419 0.833637 12.8939 0.833637 13.1868 1.12653Z" fill="white"/>
</svg>
