<svg xmlns="http://www.w3.org/2000/svg" width="48" height="48" viewBox="0 0 48 48">
<style type="text/css">
	.st0{fill-rule:evenodd;clip-rule:evenodd;fill:#D11B25;}
	.st1{fill:#F6D1D3;}
</style>
<path class="st0" d="M18,15.5c-0.1,0-0.2,0.1-0.2,0.3V31c0,0.1,0.1,0.2,0.2,0.2h11.4c0.1,0,0.2-0.1,0.2-0.2V15.8
	c0-0.1-0.1-0.2-0.2-0.2H27c-0.3,0-0.6-0.3-0.6-0.6c0-0.3,0.3-0.6,0.6-0.6h2.4c0.8,0,1.4,0.6,1.4,1.4V31c0,0.8-0.6,1.4-1.4,1.4H18
	c-0.8,0-1.4-0.6-1.4-1.4V15.8c0-0.8,0.6-1.4,1.4-1.4h2.6c0.3,0,0,0.3,0,0.6s0.3,0.5,0,0.5C20.6,15.5,18,15.5,18,15.5z"/>
<path class="st1" d="M26.3,13.5H21c-0.4,0-0.8,0.3-0.8,0.7v1.5c0,0.4,0.3,0.8,0.8,0.8h4.6h0.7c0.4,0,0.8-0.3,0.8-0.8v-1.5
	C27.1,13.8,26.8,13.5,26.3,13.5z"/>
<path class="st0" d="M19.6,14.2c0-0.8,0.6-1.4,1.4-1.4h5.3c0.8,0,1.4,0.6,1.4,1.4v1.5c0,0.8-0.6,1.4-1.4,1.4H21
	c-0.8,0-1.4-0.6-1.4-1.4C19.6,15.7,19.6,14.2,19.6,14.2z M21,14c-0.1,0-0.2,0.1-0.2,0.2v1.5c0,0.1,0.1,0.2,0.2,0.2h5.3
	c0.1,0,0.2-0.1,0.2-0.2v-1.5c0-0.1-0.1-0.2-0.2-0.2H21L21,14z"/>
<path class="st0" d="M19.6,20.3c0-0.3,0.3-0.6,0.6-0.6H27c0.3,0,0.6,0.3,0.6,0.6c0,0.3-0.3,0.6-0.6,0.6h-6.8
	C20,20.8,19.6,20.6,19.6,20.3z"/>
<path class="st0" d="M19.6,24.1c0-0.3,0.3-0.6,0.6-0.6h6.1c0.3,0,0.6,0.3,0.6,0.6c0,0.3-0.3,0.6-0.6,0.6h-6.1
	C20,24.6,19.6,24.4,19.6,24.1z"/>
<path class="st0" d="M19.6,27.9c0-0.3,0.3-0.6,0.6-0.6H24c0.3,0,0.6,0.3,0.6,0.6c0,0.3-0.3,0.6-0.6,0.6h-3.8
	C20,28.4,19.6,28.2,19.6,27.9z"/>
<path class="st1" d="M24.3,28l1.2-3l1.6,1.6L24.3,28z"/>
<path class="st0" d="M25.3,24.4c0.2,0,0.4,0,0.5,0.2l1.6,1.6c0.2,0.2,0.2,0.3,0.2,0.5s-0.2,0.3-0.3,0.4l-2.9,1.4
	c-0.2,0.1-0.5,0.1-0.7-0.1s-0.3-0.4-0.2-0.6l1.2-3C25,24.5,25.1,24.5,25.3,24.4z M25.3,26.8l0.8-0.4L25.8,26L25.3,26.8z"/>
<path class="st1" d="M25.3,25.4c-0.3-0.3-0.3-0.8,0-1.1l7.2-7.1c0.3-0.3,0.8-0.3,1.1,0l1.3,1.3c0.3,0.3,0.3,0.8,0,1.1l-7.2,7.2
	c-0.3,0.3-0.8,0.3-1.1,0L25.3,25.4z"/>
<path class="st0" d="M26.5,24.9l0.8,0.8l6.6-6.6L33,18.3L26.5,24.9z M25.3,24.3c-0.3,0.3-0.3,0.8,0,1.1l1.4,1.4
	c0.3,0.3,0.8,0.3,1.1,0l7.1-7.2c0.3-0.3,0.3-0.8,0-1.1l-1.3-1.3c-0.3-0.3-0.8-0.3-1.1,0L25.3,24.3z"/>
</svg>
