<svg width="20" height="20" viewBox="0 0 20 20" fill="none" xmlns="http://www.w3.org/2000/svg">
<path fill-rule="evenodd" clip-rule="evenodd" d="M2.22233 2.06228C1.91551 2.06228 1.66678 2.31101 1.66678 2.61784V18.3333C1.66678 18.6401 1.91551 18.8888 2.22233 18.8888H13.5892C13.8961 18.8888 14.1448 18.6401 14.1448 18.3333V10.1389C14.1448 9.83204 14.3935 9.58331 14.7003 9.58331C15.0072 9.58331 15.2559 9.83204 15.2559 10.1389V18.3333C15.2559 19.2537 14.5097 19.9999 13.5892 19.9999H2.22233C1.30185 19.9999 0.555664 19.2537 0.555664 18.3333V2.61784C0.555664 1.69737 1.30186 0.951172 2.22233 0.951172H4.64439C4.95122 0.951172 5.19995 1.1999 5.19995 1.50673C5.19995 1.81355 4.95122 2.06228 4.64439 2.06228H2.22233ZM10.8834 1.50673C10.8834 1.1999 11.1321 0.951172 11.439 0.951172H13.5892C14.5097 0.951172 15.2559 1.69736 15.2559 2.61784V6.38886C15.2559 6.69569 15.0072 6.94442 14.7003 6.94442C14.3935 6.94442 14.1448 6.69569 14.1448 6.38886V2.61784C14.1448 2.31101 13.8961 2.06228 13.5892 2.06228H11.439C11.1321 2.06228 10.8834 1.81355 10.8834 1.50673Z" fill="#020202"/>
<path fill-rule="evenodd" clip-rule="evenodd" d="M4.08838 1.66667C4.08838 0.746194 4.83457 0 5.75505 0H10.3274C11.2479 0 11.9941 0.746193 11.9941 1.66667V3.11351C11.9941 4.03398 11.2479 4.78018 10.3274 4.78018H5.75505C4.83457 4.78018 4.08838 4.03398 4.08838 3.11351V1.66667ZM5.75505 1.11111C5.44822 1.11111 5.19949 1.35984 5.19949 1.66667V3.11351C5.19949 3.42033 5.44822 3.66906 5.75505 3.66906H10.3274C10.6342 3.66906 10.8829 3.42033 10.8829 3.11351V1.66667C10.8829 1.35984 10.6342 1.11111 10.3274 1.11111H5.75505Z" fill="#020202"/>
<path fill-rule="evenodd" clip-rule="evenodd" d="M3.27295 8.02956C3.27295 7.72273 3.52168 7.474 3.8285 7.474H11.982C12.2888 7.474 12.5375 7.72273 12.5375 8.02956C12.5375 8.33638 12.2888 8.58511 11.982 8.58511H3.8285C3.52168 8.58511 3.27295 8.33638 3.27295 8.02956Z" fill="#020202"/>
<path fill-rule="evenodd" clip-rule="evenodd" d="M3.27295 11.5628C3.27295 11.2559 3.52168 11.0072 3.8285 11.0072H9.58317C9.89 11.0072 10.1387 11.2559 10.1387 11.5628C10.1387 11.8696 9.89 12.1183 9.58317 12.1183H3.8285C3.52168 12.1183 3.27295 11.8696 3.27295 11.5628Z" fill="#020202"/>
<path fill-rule="evenodd" clip-rule="evenodd" d="M3.27295 14.9601C3.27295 14.6533 3.52168 14.4045 3.8285 14.4045H7.90524C8.21207 14.4045 8.4608 14.6533 8.4608 14.9601C8.4608 15.2669 8.21207 15.5156 7.90524 15.5156H3.8285C3.52168 15.5156 3.27295 15.2669 3.27295 14.9601Z" fill="#020202"/>
<path d="M8.35836 14.6816L9.16991 12.5116L10.6947 13.9398L8.75377 15.0216C8.52801 15.1474 8.26783 14.9237 8.35836 14.6816Z" fill="#F6D1D3"/>
<path fill-rule="evenodd" clip-rule="evenodd" d="M9.04348 11.9707C9.22434 11.9283 9.41441 11.9791 9.54998 12.1061L11.0747 13.5344C11.2042 13.6556 11.268 13.8314 11.2464 14.0075C11.2248 14.1836 11.1204 14.3387 10.9654 14.4251L9.02451 15.5068C8.34722 15.8843 7.56667 15.2133 7.83828 14.487L8.64983 12.317C8.7149 12.143 8.86262 12.013 9.04348 11.9707ZM9.14372 14.1684L9.75975 13.825L9.39862 13.4868L9.14372 14.1684Z" fill="#020202"/>
<path fill-rule="evenodd" clip-rule="evenodd" d="M10.1406 12.1895L10.9569 12.9654L17.9624 5.58906L17.1461 4.81324L10.1406 12.1895ZM8.95247 11.8271C8.74123 12.0495 8.75023 12.401 8.97257 12.6123L10.5943 14.1536C10.8167 14.365 11.1685 14.356 11.3798 14.1335L19.1505 5.95154C19.3618 5.72912 19.3528 5.37758 19.1304 5.16626L17.5087 3.62499C17.2863 3.41357 16.9345 3.42257 16.7232 3.6451L8.95247 11.8271Z" fill="#020202"/>
</svg>
