<svg width="18" height="24" viewBox="0 0 18 24" fill="none" xmlns="http://www.w3.org/2000/svg">
<path fill-rule="evenodd" clip-rule="evenodd" d="M2.04078 2.34159C1.66509 2.34159 1.36052 2.64191 1.36052 3.01238V21.9876C1.36052 22.3581 1.66508 22.6584 2.04078 22.6584H15.9592C16.3349 22.6584 16.6395 22.3581 16.6395 21.9876V3.01238C16.6395 2.64191 16.3349 2.34159 15.9592 2.34159H13.3263C12.9506 2.34159 12.646 2.04126 12.646 1.67079C12.646 1.30032 12.9506 1 13.3263 1H15.9592C17.0863 1 18 1.90097 18 3.01238V21.9876C18 23.099 17.0863 24 15.9592 24H2.04078C0.913688 24 0 23.099 0 21.9876V3.01238C0 1.90097 0.913689 1 2.04078 1H5.00653C5.38222 1 5.68679 1.30032 5.68679 1.67079C5.68679 2.04126 5.38222 2.34159 5.00653 2.34159H2.04078Z" fill="#D11B25"/>
<path d="M11.6918 1H6.30824C5.58572 1 5 1.54233 5 2.21133V3.78867C5 4.45767 5.58572 5 6.30824 5H11.32H11.6918C12.4143 5 13 4.45767 13 3.78867V2.21133C13 1.54233 12.4143 1 11.6918 1Z" fill="#F6D1D3"/>
<path fill-rule="evenodd" clip-rule="evenodd" d="M4 2.09197C4 0.936611 4.94387 0 6.10819 0H11.8918C13.0561 0 14 0.936609 14 2.09197V3.90803C14 5.06339 13.0561 6 11.8918 6H6.10819C4.94387 6 4 5.06339 4 3.90803V2.09197ZM6.10819 1.39465C5.72008 1.39465 5.40546 1.70685 5.40546 2.09197V3.90803C5.40546 4.29315 5.72008 4.60535 6.10819 4.60535H11.8918C12.2799 4.60535 12.5945 4.29315 12.5945 3.90803V2.09197C12.5945 1.70685 12.2799 1.39465 11.8918 1.39465H6.10819Z" fill="#D11B25"/>
<path fill-rule="evenodd" clip-rule="evenodd" d="M3 9.5C3 9.22386 3.29532 9 3.65962 9H13.3404C13.7047 9 14 9.22386 14 9.5C14 9.77614 13.7047 10 13.3404 10H3.65962C3.29532 10 3 9.77614 3 9.5Z" fill="#D11B25"/>
<path fill-rule="evenodd" clip-rule="evenodd" d="M3 13.5C3 13.2239 3.29532 13 3.65962 13H13.3404C13.7047 13 14 13.2239 14 13.5C14 13.7761 13.7047 14 13.3404 14H3.65962C3.29532 14 3 13.7761 3 13.5Z" fill="#D11B25"/>
<path fill-rule="evenodd" clip-rule="evenodd" d="M3 17.5C3 17.2239 3.33561 17 3.74961 17H9.25039C9.66439 17 10 17.2239 10 17.5C10 17.7761 9.66439 18 9.25039 18H3.74961C3.33561 18 3 17.7761 3 17.5Z" fill="#D11B25"/>
</svg>
