<?xml version="1.0" encoding="utf-8"?>
<!-- Generator: Adobe Illustrator 23.0.6, SVG Export Plug-In . SVG Version: 6.00 Build 0)  -->
<svg version="1.1" id="Layer_1" xmlns="http://www.w3.org/2000/svg" xmlns:xlink="http://www.w3.org/1999/xlink" x="0px" y="0px"
	 viewBox="0 0 19.8 19.8" style="enable-background:new 0 0 19.8 19.8;" xml:space="preserve">
<style type="text/css">
	.st0{fill-rule:evenodd;clip-rule:evenodd;fill:#D11B25;}
	.st1{fill:#F6D1D3;}
</style>
<path class="st0" d="M2.5,2.8c-0.1,0-0.2,0.1-0.2,0.3v15.2c0,0.1,0.1,0.2,0.2,0.2h11.4c0.1,0,0.2-0.1,0.2-0.2V3.1
	c0-0.1-0.1-0.2-0.2-0.2h-2.4c-0.3,0-0.6-0.3-0.6-0.6s0.3-0.6,0.6-0.6h2.4c0.8,0,1.4,0.6,1.4,1.4v15.2c0,0.8-0.6,1.4-1.4,1.4H2.5
	c-0.8,0-1.4-0.6-1.4-1.4V3.1c0-0.8,0.6-1.4,1.4-1.4h2.6c0.3,0,0,0.3,0,0.6c0,0.3,0.3,0.5,0,0.5C5.1,2.8,2.5,2.8,2.5,2.8z"/>
<path class="st1" d="M10.8,0.8H5.5c-0.4,0-0.8,0.3-0.8,0.7V3c0,0.4,0.3,0.8,0.8,0.8h4.6h0.7c0.4,0,0.8-0.3,0.8-0.8V1.5
	C11.6,1.1,11.2,0.8,10.8,0.8z"/>
<path class="st0" d="M4.1,1.5c0-0.8,0.6-1.4,1.4-1.4h5.3c0.8,0,1.4,0.6,1.4,1.4V3c0,0.8-0.6,1.4-1.4,1.4H5.5C4.7,4.4,4.1,3.8,4.1,3
	C4.1,3,4.1,1.5,4.1,1.5z M5.5,1.3c-0.1,0-0.2,0.1-0.2,0.2V3c0,0.1,0.1,0.2,0.2,0.2h5.3C10.9,3.2,11,3.1,11,3V1.5
	c0-0.1-0.1-0.2-0.2-0.2H5.5L5.5,1.3z"/>
<path class="st0" d="M4.1,7.6C4.1,7.3,4.4,7,4.7,7h6.8c0.3,0,0.6,0.3,0.6,0.6s-0.3,0.6-0.6,0.6H4.7C4.4,8.1,4.1,7.9,4.1,7.6z"/>
<path class="st0" d="M4.1,11.4c0-0.3,0.3-0.6,0.6-0.6h6.1c0.3,0,0.6,0.3,0.6,0.6S11.1,12,10.8,12H4.7C4.4,11.9,4.1,11.7,4.1,11.4z"
	/>
<path class="st0" d="M4.1,15.2c0-0.3,0.3-0.6,0.6-0.6h3.8c0.3,0,0.6,0.3,0.6,0.6c0,0.3-0.3,0.6-0.6,0.6H4.7
	C4.4,15.7,4.1,15.5,4.1,15.2z"/>
<path class="st1" d="M8.7,15.3l1.2-3l1.6,1.6L8.7,15.3z"/>
<path class="st0" d="M9.8,11.7c0.2,0,0.4,0,0.5,0.2l1.6,1.6c0.2,0.2,0.2,0.3,0.2,0.5s-0.2,0.3-0.3,0.4l-2.9,1.4
	c-0.2,0.1-0.5,0.1-0.7-0.1S7.9,15.3,8,15.1l1.2-3C9.5,11.8,9.6,11.8,9.8,11.7z M9.8,14.1l0.8-0.4l-0.4-0.4L9.8,14.1z"/>
<path class="st1" d="M9.8,12.7c-0.3-0.3-0.3-0.8,0-1.1L17,4.5c0.3-0.3,0.8-0.3,1.1,0l1.3,1.3c0.3,0.3,0.3,0.8,0,1.1l-7.2,7.2
	c-0.3,0.3-0.8,0.3-1.1,0L9.8,12.7z"/>
<path class="st0" d="M10.9,12.2l0.8,0.8l6.6-6.6l-0.8-0.8L10.9,12.2z M9.8,11.6c-0.3,0.3-0.3,0.8,0,1.1l1.4,1.4
	c0.3,0.3,0.8,0.3,1.1,0l7.1-7.2c0.3-0.3,0.3-0.8,0-1.1l-1.3-1.3c-0.3-0.3-0.8-0.3-1.1,0L9.8,11.6z"/>
</svg>
