<svg width="49" height="50" viewBox="0 0 49 50" fill="none" xmlns="http://www.w3.org/2000/svg">
<path d="M9.97842 3.41727H5C2.79086 3.41727 1 5.20813 1 7.41726V45C1 47.2091 2.79086 49 5 49H31.5324C33.7415 49 35.5324 47.2091 35.5324 45V40.3669V7.41727C35.5324 5.20813 33.7415 3.41727 31.5324 3.41727H27.2446" stroke="#F2F2F2" stroke-width="2" stroke-linecap="round" stroke-linejoin="round"/>
<path d="M23.2447 1H13.9785C11.7694 1 9.97852 2.79086 9.97852 5V6.32374C9.97852 8.53288 11.7694 10.3237 13.9785 10.3237H23.6188C25.6213 10.3237 27.2447 8.70037 27.2447 6.69784V5C27.2447 2.79086 25.4538 1 23.2447 1Z" fill="#4F4F4F" stroke="#F2F2F2" stroke-width="2" stroke-linecap="round" stroke-linejoin="round"/>
<path d="M7.90662 19.9928H28.626" stroke="#F2F2F2" stroke-width="2" stroke-linecap="round"/>
<path d="M7.90662 28.9712H28.626" stroke="#F2F2F2" stroke-width="2" stroke-linecap="round"/>
<path d="M7.90662 37.6043H18.2663" stroke="#F2F2F2" stroke-width="2" stroke-linecap="round"/>
<mask id="path-6-outside-1" maskUnits="userSpaceOnUse" x="11.3007" y="27.391" width="18.3058" height="18.4516" fill="black">
<rect fill="white" x="11.3007" y="27.391" width="18.3058" height="18.4516"/>
<path d="M18.9811 38.6661L21.157 30.7937L26.0342 35.4257L18.9811 38.6661Z"/>
</mask>
<path d="M18.9811 38.6661L21.157 30.7937L26.0342 35.4257L18.9811 38.6661Z" fill="#4F4F4F"/>
<path d="M21.157 30.7937L22.5343 29.3435C22.0249 28.8597 21.299 28.6786 20.6221 28.8665C19.9452 29.0544 19.4165 29.5837 19.2293 30.2608L21.157 30.7937ZM18.9811 38.6661L17.0533 38.1333L15.9074 42.2792L19.816 40.4835L18.9811 38.6661ZM26.0342 35.4257L26.8692 37.2431C27.4722 36.966 27.8986 36.4079 28.0072 35.7532C28.1159 35.0985 27.8927 34.4325 27.4115 33.9755L26.0342 35.4257ZM19.2293 30.2608L17.0533 38.1333L20.9088 39.1989L23.0847 31.3265L19.2293 30.2608ZM19.816 40.4835L26.8692 37.2431L25.1993 33.6083L18.1461 36.8487L19.816 40.4835ZM19.7797 32.2438L24.6569 36.8759L27.4115 33.9755L22.5343 29.3435L19.7797 32.2438Z" fill="#F2F2F2" mask="url(#path-6-outside-1)"/>
<path d="M21.7981 31.0416C21.3978 30.6612 21.3816 30.0284 21.7619 29.6281L40.6984 9.68931C41.0789 9.28876 41.712 9.27254 42.1124 9.65309L46.0598 13.4045C46.4601 13.7849 46.4763 14.4176 46.096 14.818L27.1595 34.7568C26.7791 35.1573 26.1459 35.1735 25.7455 34.793L21.7981 31.0416Z" fill="#4F4F4F" stroke="#F2F2F2" stroke-width="2"/>
</svg>
