<svg width="40" height="48" viewBox="0 0 40 48" fill="none" xmlns="http://www.w3.org/2000/svg">
<mask id="path-1-inside-1" fill="white">
<path fill-rule="evenodd" clip-rule="evenodd" d="M31.3807 2.66667H7.95264C5.51257 2.66667 2.66667 5.5454 2.66667 8V40C2.66667 42.4546 5.51257 45.3333 7.95263 45.3333H31.3807C33.8208 45.3333 36.6667 42.4546 36.6667 40V8C36.6667 5.5454 33.8208 2.66667 31.3807 2.66667ZM7.95264 0C3.56052 0 0 3.58172 0 8V40C0 44.4183 3.56051 48 7.95263 48H31.3807C35.7728 48 39.3333 44.4183 39.3333 40V8C39.3333 3.58172 35.7728 0 31.3807 0H7.95264Z"/>
</mask>
<path fill-rule="evenodd" clip-rule="evenodd" d="M31.3807 2.66667H7.95264C5.51257 2.66667 2.66667 5.5454 2.66667 8V40C2.66667 42.4546 5.51257 45.3333 7.95263 45.3333H31.3807C33.8208 45.3333 36.6667 42.4546 36.6667 40V8C36.6667 5.5454 33.8208 2.66667 31.3807 2.66667ZM7.95264 0C3.56052 0 0 3.58172 0 8V40C0 44.4183 3.56051 48 7.95263 48H31.3807C35.7728 48 39.3333 44.4183 39.3333 40V8C39.3333 3.58172 35.7728 0 31.3807 0H7.95264Z" fill="#D50000"/>
<path d="M7.95264 6.66667H31.3807V-1.33333H7.95264V6.66667ZM6.66667 8C6.66667 8.14377 6.63168 8.11266 6.73321 7.90786C6.82941 7.71382 6.99866 7.46796 7.2369 7.22738C7.47537 6.98655 7.71609 6.81852 7.90143 6.72485C8.09756 6.62574 8.11433 6.66667 7.95264 6.66667V-1.33333C5.28147 -1.33333 2.99867 0.137773 1.55236 1.59834C0.10224 3.06276 -1.33333 5.34955 -1.33333 8H6.66667ZM6.66667 40V8H-1.33333V40H6.66667ZM7.95263 41.3333C8.11432 41.3333 8.09756 41.3743 7.90143 41.2752C7.71609 41.1815 7.47537 41.0135 7.2369 40.7726C6.99866 40.532 6.82941 40.2862 6.73321 40.0921C6.63168 39.8873 6.66667 39.8562 6.66667 40H-1.33333C-1.33333 42.6505 0.102237 44.9372 1.55236 46.4017C2.99866 47.8622 5.28147 49.3333 7.95263 49.3333V41.3333ZM31.3807 41.3333H7.95263V49.3333H31.3807V41.3333ZM32.6667 40C32.6667 39.8562 32.7017 39.8873 32.6001 40.0921C32.5039 40.2862 32.3347 40.532 32.0964 40.7726C31.858 41.0135 31.6172 41.1815 31.4319 41.2751C31.2358 41.3743 31.219 41.3333 31.3807 41.3333V49.3333C34.0519 49.3333 36.3347 47.8622 37.781 46.4017C39.2311 44.9372 40.6667 42.6505 40.6667 40H32.6667ZM32.6667 8V40H40.6667V8H32.6667ZM31.3807 6.66667C31.219 6.66667 31.2358 6.62574 31.4319 6.72485C31.6172 6.81852 31.858 6.98655 32.0964 7.22737C32.3347 7.46796 32.5039 7.71382 32.6001 7.90786C32.7017 8.11266 32.6667 8.14377 32.6667 8H40.6667C40.6667 5.34955 39.2311 3.06276 37.781 1.59834C36.3347 0.137773 34.0519 -1.33333 31.3807 -1.33333V6.66667ZM4 8C4 5.76844 5.79202 4 7.95264 4V-4C1.32902 -4 -4 1.39501 -4 8H4ZM4 40V8H-4V40H4ZM7.95263 44C5.79201 44 4 42.2316 4 40H-4C-4 46.605 1.32901 52 7.95263 52V44ZM31.3807 44H7.95263V52H31.3807V44ZM35.3333 40C35.3333 42.2316 33.5413 44 31.3807 44V52C38.0043 52 43.3333 46.605 43.3333 40H35.3333ZM35.3333 8V40H43.3333V8H35.3333ZM31.3807 4C33.5413 4 35.3333 5.76843 35.3333 8H43.3333C43.3333 1.39501 38.0043 -4 31.3807 -4V4ZM7.95264 4H31.3807V-4H7.95264V4Z" fill="#4F4F4F" mask="url(#path-1-inside-1)"/>
<path fill-rule="evenodd" clip-rule="evenodd" d="M10 14C10 13.2636 10.6229 12.6667 11.3913 12.6667H28.6087C29.3771 12.6667 30 13.2636 30 14C30 14.7364 29.3771 15.3334 28.6087 15.3334H11.3913C10.6229 15.3334 10 14.7364 10 14Z" fill="#4F4F4F"/>
<path fill-rule="evenodd" clip-rule="evenodd" d="M10 24C10 23.2636 10.6229 22.6667 11.3913 22.6667H28.6087C29.3771 22.6667 30 23.2636 30 24C30 24.7364 29.3771 25.3333 28.6087 25.3333H11.3913C10.6229 25.3333 10 24.7364 10 24Z" fill="#4F4F4F"/>
<path fill-rule="evenodd" clip-rule="evenodd" d="M10 34C10 33.2636 10.6229 32.6667 11.3913 32.6667H28.6087C29.3771 32.6667 30 33.2636 30 34C30 34.7364 29.3771 35.3333 28.6087 35.3333H11.3913C10.6229 35.3333 10 34.7364 10 34Z" fill="#4F4F4F"/>
</svg>
