<svg width="49" height="43" viewBox="0 0 49 43" fill="none" xmlns="http://www.w3.org/2000/svg">
<path fill-rule="evenodd" clip-rule="evenodd" d="M19.7002 41.4807C17.2984 41.4807 15.3514 40.716 15.3514 39.7727V1.70803C15.3514 0.764709 17.2984 0 19.7002 0C22.102 0 24.049 0.764709 24.049 1.70803V39.7727C24.049 40.716 22.102 41.4807 19.7002 41.4807Z" fill="#4F4F4F"/>
<path fill-rule="evenodd" clip-rule="evenodd" d="M5.31575 41.6619C4.57674 41.6619 3.97766 41.0329 3.97766 40.2569L3.97766 27.6789C3.97766 26.9029 4.57674 26.2739 5.31575 26.2739C6.05475 26.2739 6.65384 26.9029 6.65384 27.6789V40.2569C6.65384 41.0329 6.05475 41.6619 5.31575 41.6619Z" fill="#F2F2F2"/>
<path fill-rule="evenodd" clip-rule="evenodd" d="M3.97766 27.4308C3.97766 26.6918 4.6067 26.0927 5.38265 26.0927H14.6155C15.3914 26.0927 16.0205 26.6918 16.0205 27.4308C16.0205 28.1698 15.3914 28.7689 14.6155 28.7689H5.38265C4.6067 28.7689 3.97766 28.1698 3.97766 27.4308Z" fill="#F2F2F2"/>
<path fill-rule="evenodd" clip-rule="evenodd" d="M13.3443 1.33809C13.3443 0.599082 13.9733 0 14.7493 0L23.9821 0C24.7581 0 25.3871 0.599082 25.3871 1.33809C25.3871 2.07709 24.7581 2.67618 23.9821 2.67618L14.7493 2.67618C13.9733 2.67618 13.3443 2.07709 13.3443 1.33809Z" fill="#F2F2F2"/>
<path fill-rule="evenodd" clip-rule="evenodd" d="M22.7109 16.0571C22.7109 15.318 23.3399 14.719 24.1159 14.719H33.3487C34.1247 14.719 34.7537 15.318 34.7537 16.0571C34.7537 16.7961 34.1247 17.3951 33.3487 17.3951H24.1159C23.3399 17.3951 22.7109 16.7961 22.7109 16.0571Z" fill="#F2F2F2"/>
<path fill-rule="evenodd" clip-rule="evenodd" d="M32.0775 25.4237C32.0775 24.6847 32.7066 24.0856 33.4825 24.0856H42.7153C43.4913 24.0856 44.1203 24.6847 44.1203 25.4237C44.1203 26.1627 43.4913 26.7617 42.7153 26.7617H33.4825C32.7066 26.7617 32.0775 26.1627 32.0775 25.4237Z" fill="#F2F2F2"/>
<path fill-rule="evenodd" clip-rule="evenodd" d="M42.7822 41.6619C42.0432 41.6619 41.4442 41.0329 41.4442 40.2569V25.6718C41.4442 24.8958 42.0432 24.2668 42.7822 24.2668C43.5212 24.2668 44.1203 24.8958 44.1203 25.6718V40.2569C44.1203 41.0329 43.5212 41.6619 42.7822 41.6619Z" fill="#F2F2F2"/>
<path fill-rule="evenodd" clip-rule="evenodd" d="M24.049 41.4807C23.31 41.4807 22.7109 40.716 22.7109 39.7727V1.70803C22.7109 0.764709 23.31 0 24.049 0C24.788 0 25.3871 0.764709 25.3871 1.70803V39.7727C25.3871 40.716 24.788 41.4807 24.049 41.4807Z" fill="#F2F2F2"/>
<path fill-rule="evenodd" clip-rule="evenodd" d="M14.6824 41.4807C13.9434 41.4807 13.3443 40.716 13.3443 39.7727L13.3443 1.70803C13.3443 0.764709 13.9434 0 14.6824 0C15.4214 0 16.0205 0.764709 16.0205 1.70803V39.7727C16.0205 40.716 15.4214 41.4807 14.6824 41.4807Z" fill="#F2F2F2"/>
<path fill-rule="evenodd" clip-rule="evenodd" d="M0 41.6619C0 40.9229 0.629036 40.3238 1.40499 40.3238H46.7662C47.5421 40.3238 48.1712 40.9229 48.1712 41.6619C48.1712 42.4009 47.5421 43 46.7662 43H1.40499C0.629036 43 0 42.4009 0 41.6619Z" fill="#F2F2F2"/>
<path fill-rule="evenodd" clip-rule="evenodd" d="M33.4156 41.6619C32.6766 41.6619 32.0775 41.0329 32.0775 40.2569V16.3051C32.0775 15.5292 32.6766 14.9002 33.4156 14.9002C34.1546 14.9002 34.7537 15.5292 34.7537 16.3051V40.2569C34.7537 41.0329 34.1546 41.6619 33.4156 41.6619Z" fill="#F2F2F2"/>
</svg>
