<svg width="16" height="14" viewBox="0 0 16 14" fill="none" xmlns="http://www.w3.org/2000/svg">
<path d="M14.6146 0.0153144C14.6655 0.00452981 14.7201 -0.00265972 14.7747 0.000935151C15.6557 0.0440736 16.1035 0.619254 15.9797 1.42451C15.6958 3.27227 15.3972 5.12004 15.1097 6.9678C14.8293 8.76524 14.549 10.5627 14.2687 12.3637C14.1122 13.3847 13.1584 13.7981 12.3138 13.1905C10.6574 12.0006 9.01192 10.7999 7.36645 9.59565C6.80946 9.18584 6.78762 8.69694 7.30456 8.21163C8.72797 6.87434 11.9862 3.6749 11.9862 3.6749C12.0335 3.59581 11.9461 3.50234 11.8624 3.54548C11.8624 3.54548 10.9705 4.05595 10.7156 4.22132C9.01556 5.31775 7.3082 6.40341 5.62268 7.52141C4.78902 8.07502 3.92259 8.15051 2.94332 7.79462C2.3026 7.56096 1.64004 7.37402 0.95928 7.29134C0.402294 7.22663 0.0346097 7.01813 0.00184573 6.51485C-0.0236373 6.09065 0.216631 5.8498 0.606158 5.69162C5.12394 3.85105 9.63444 1.99968 14.1486 0.155514C14.316 0.0800219 14.4981 0.0404785 14.6146 0.0153144Z" fill="#000000"/>
</svg>
