<?xml version="1.0" encoding="utf-8"?>
<!-- Generator: Adobe Illustrator 23.0.6, SVG Export Plug-In . SVG Version: 6.00 Build 0)  -->
<svg version="1.1" id="Layer_1" xmlns="http://www.w3.org/2000/svg" xmlns:xlink="http://www.w3.org/1999/xlink" x="0px" y="0px"
	 viewBox="0 0 24 24" style="enable-background:new 0 0 24 24;" xml:space="preserve">
<style type="text/css">
	.st0{fill-rule:evenodd;clip-rule:evenodd;fill:#D11B25;}
	.st1{fill:#F6D1D3;}
</style>
<path class="st0" d="M16.1,1.4c1.3-1.3,3.2-1.7,4.8-1.1l0,0c0.7,0.2,0.8,1.1,0.3,1.5l-1.9,1.9l1,1l1.9-1.9c0.4-0.5,1.3-0.4,1.5,0.3
	c0.6,1.6,0.1,3.5-1.1,4.8c-1.9,1.9-4,1.4-4.9,1.1L9,17.8c0.3,0.9,0.8,3-1.1,4.8c-1.3,1.3-3.2,1.7-4.8,1.1c-0.7-0.2-0.8-1.1-0.3-1.5
	l1.9-1.9l-1-1l-1.9,1.9c-0.4,0.5-1.3,0.4-1.5-0.3c-0.6-1.6-0.1-3.5,1.1-4.8c1.9-1.9,4-1.4,4.8-1.1L15,6.2
	C14.7,5.4,14.2,3.2,16.1,1.4z M19.9,1.3c-1-0.2-2.1,0.2-2.9,1l0,0c-1.5,1.5-0.9,3.2-0.7,3.8l0,0l0,0c0.1,0.3,0.1,0.6-0.2,0.9
	l-9.2,9.2c-0.2,0.2-0.6,0.3-0.9,0.2l0,0l0,0c-0.5-0.2-2.3-0.8-3.8,0.7C1.4,17.9,1.1,19,1.3,20L3,18.3c0.4-0.4,1-0.4,1.3,0l1.4,1.4
	c0.4,0.4,0.4,1,0,1.3L4,22.7c1,0.2,2.1-0.2,2.9-0.9l0,0c1.5-1.5,0.9-3.2,0.7-3.8l0,0l0,0c-0.1-0.3-0.1-0.6,0.2-0.9L17,7.9
	c0.2-0.2,0.6-0.3,0.9-0.2l0,0l0,0c0.5,0.2,2.3,0.8,3.8-0.7c0.8-0.8,1.1-1.9,0.9-2.9L21,5.8c-0.4,0.4-1,0.4-1.3,0l-1.4-1.4
	c-0.4-0.4-0.4-1,0-1.3l0.4,0.4L18.2,3L19.9,1.3z"/>
<path class="st0" d="M3.6,0.2l4.3,3.2C8.2,3.6,8.3,4,8.3,4.3L8.2,6.5l3.3,3.2l0,0c0.4,0.4,0.4,1,0,1.4l0,0L11,11.5l0,0
	c-0.3,0.3-0.9,0.3-1.3-0.1L6.5,8.1H6l0,0H4.5C4.2,8.1,3.9,8,3.7,7.7L0.6,3.3C0.3,2.9,0.4,2.4,0.7,2.1l1.7-1.8l0.5,0.4 M10.1,10.2
	l0.1,0.2l0,0L10.1,10.2z M6.9,6.8c0-0.1,0-0.2,0-0.3L7,4.3L3,1.4L1.6,2.8l2.9,4.1h2.4V6.8z M3.6,0.2C3.2-0.1,2.7,0,2.4,0.3l0.5,0.4"
	/>
<path class="st1" d="M20.9,23.3c-0.1,0.1-0.3,0.1-0.5,0l-8.7-8.7c-0.1-0.1-0.1-0.3,0-0.5l2.5-2.4c0.1-0.1,0.3-0.1,0.5,0l8.6,8.7
	c0.1,0.1,0.1,0.3,0,0.5L20.9,23.3z"/>
<path class="st0" d="M14.4,12.3l-2,1.9l8.3,8.2l1.9-1.9L14.4,12.3z M22.7,20.4L22.7,20.4L22.7,20.4z M15.1,11.2l8.6,8.7
	c0.4,0.4,0.4,1,0,1.4l0,0l-2.3,2.4l0,0c-0.4,0.4-1,0.4-1.4,0L11.3,15l0,0c-0.4-0.4-0.4-1,0-1.4l0,0l2.5-2.4l0,0
	C14.1,10.9,14.7,10.9,15.1,11.2z"/>
</svg>
