<svg xmlns="http://www.w3.org/2000/svg" width="48" height="48" viewBox="0 0 48 48">
<style type="text/css">
	.st0{fill-rule:evenodd;clip-rule:evenodd;fill:#D11B25;}
	.st1{fill:#F6D1D3;}
</style>
<path class="st0" d="M28.1,13.4c1.3-1.3,3.2-1.7,4.8-1.1l0,0c0.7,0.2,0.8,1.1,0.3,1.5l-1.9,1.9l1,1l1.9-1.9c0.4-0.5,1.3-0.4,1.5,0.3
	c0.6,1.6,0.1,3.5-1.1,4.8c-1.9,1.9-4,1.4-4.9,1.1L21,29.8c0.3,0.9,0.8,3-1.1,4.8c-1.3,1.3-3.2,1.7-4.8,1.1c-0.7-0.2-0.8-1.1-0.3-1.5
	l1.9-1.9l-1-1l-1.9,1.9c-0.4,0.5-1.3,0.4-1.5-0.3c-0.6-1.6-0.1-3.5,1.1-4.8c1.9-1.9,4-1.4,4.8-1.1l8.8-8.8
	C26.7,17.4,26.2,15.2,28.1,13.4z M31.9,13.3c-1-0.2-2.1,0.2-2.9,1l0,0c-1.5,1.5-0.9,3.2-0.7,3.8l0,0l0,0c0.1,0.3,0.1,0.6-0.2,0.9
	l-9.2,9.2c-0.2,0.2-0.6,0.3-0.9,0.2l0,0l0,0c-0.5-0.2-2.3-0.8-3.8,0.7c-0.8,0.8-1.1,1.9-0.9,2.9l1.7-1.7c0.4-0.4,1-0.4,1.3,0
	l1.4,1.4c0.4,0.4,0.4,1,0,1.3l-1.7,1.7c1,0.2,2.1-0.2,2.9-0.9l0,0c1.5-1.5,0.9-3.2,0.7-3.8l0,0l0,0c-0.1-0.3-0.1-0.6,0.2-0.9
	l9.2-9.2c0.2-0.2,0.6-0.3,0.9-0.2l0,0l0,0c0.5,0.2,2.3,0.8,3.8-0.7c0.8-0.8,1.1-1.9,0.9-2.9L33,17.8c-0.4,0.4-1,0.4-1.3,0l-1.4-1.4
	c-0.4-0.4-0.4-1,0-1.3l0.4,0.4L30.2,15L31.9,13.3z"/>
<path class="st0" d="M15.6,12.2l4.3,3.2c0.3,0.2,0.4,0.6,0.4,0.9l-0.1,2.2l3.3,3.2l0,0c0.4,0.4,0.4,1,0,1.4l0,0l-0.5,0.4l0,0
	c-0.3,0.3-0.9,0.3-1.3-0.1l-3.2-3.3h-0.5v0h-1.5c-0.3,0-0.6-0.1-0.8-0.4l-3.1-4.4c-0.3-0.4-0.2-0.9,0.1-1.2l1.7-1.8l0.5,0.4
	 M22.1,22.2l0.1,0.2l0,0L22.1,22.2z M18.9,18.8c0-0.1,0-0.2,0-0.3l0.1-2.2L15,13.4l-1.4,1.4l2.9,4.1H18.9z M15.6,12.2
	c-0.4-0.3-0.9-0.2-1.2,0.1l0.5,0.4"/>
<path class="st1" d="M32.9,35.3c-0.1,0.1-0.3,0.1-0.5,0l-8.7-8.7c-0.1-0.1-0.1-0.3,0-0.5l2.5-2.4c0.1-0.1,0.3-0.1,0.5,0l8.6,8.7
	c0.1,0.1,0.1,0.3,0,0.5L32.9,35.3z"/>
<path class="st0" d="M26.5,24.4l-2,1.9l8.3,8.2l1.9-1.9L26.5,24.4z M34.8,32.5L34.8,32.5C34.8,32.5,34.8,32.5,34.8,32.5z M27.2,23.3
	l8.6,8.7c0.4,0.4,0.4,1,0,1.4c0,0,0,0,0,0l-2.3,2.4l0,0c-0.4,0.4-1,0.4-1.4,0l-8.7-8.7l0,0c-0.4-0.4-0.4-1,0-1.4l0,0l2.5-2.4l0,0
	C26.2,23,26.8,23,27.2,23.3z"/>
</svg>
