<svg width="40" height="40" viewBox="0 0 40 40" fill="none" xmlns="http://www.w3.org/2000/svg">
<path fill-rule="evenodd" clip-rule="evenodd" d="M15.5214 8.25104C15.8519 8.58577 15.8519 9.12848 15.5214 9.46321L11.8889 13.1429L30.1538 13.1429C30.6212 13.1429 31 13.5267 31 14.0001C31 14.4734 30.6212 14.8572 30.1538 14.8572L11.889 14.8572L15.5214 18.5368C15.8519 18.8715 15.8519 19.4142 15.5214 19.749C15.191 20.0837 14.6552 20.0837 14.3248 19.749L9.24783 14.6061C8.91739 14.2714 8.91739 13.7287 9.24783 13.394L14.3248 8.25106C14.6552 7.91632 15.191 7.91631 15.5214 8.25104Z" fill="#777777"/>
<path fill-rule="evenodd" clip-rule="evenodd" d="M24.4786 31.749C24.1481 31.4142 24.1481 30.8715 24.4786 30.5368L28.1111 26.8571L9.84615 26.8571C9.37884 26.8571 9 26.4733 9 25.9999C9 25.5266 9.37884 25.1428 9.84615 25.1428L28.111 25.1428L24.4786 21.4632C24.1481 21.1285 24.1481 20.5858 24.4786 20.251C24.809 19.9163 25.3448 19.9163 25.6752 20.251L30.7522 25.3939C31.0826 25.7286 31.0826 26.2713 30.7522 26.606L25.6752 31.7489C25.3448 32.0837 24.809 32.0837 24.4786 31.749Z" fill="#777777"/>
</svg>
