<svg width="16" height="13" viewBox="0 0 16 13" fill="none" xmlns="http://www.w3.org/2000/svg">
<path d="M5.03168 12.6108C11.0694 12.6108 14.3718 7.75865 14.3718 3.55086C14.3718 3.41304 14.3718 3.27585 14.3622 3.13927C15.0047 2.68851 15.5593 2.13039 16 1.49104C15.4009 1.74855 14.7653 1.91743 14.1146 1.99203C14.7998 1.59408 15.3127 0.968185 15.5578 0.230814C14.9134 0.601715 14.2084 0.863108 13.4733 1.00371C12.9783 0.493217 12.3237 0.155181 11.6108 0.0419124C10.8978 -0.0713561 10.1663 0.0464586 9.52931 0.377125C8.89234 0.707791 8.38548 1.23287 8.08716 1.87112C7.78884 2.50936 7.71569 3.22519 7.87904 3.90782C6.57392 3.84436 5.29715 3.51537 4.13161 2.94222C2.96607 2.36907 1.93782 1.56457 1.1136 0.580946C0.693819 1.28193 0.565248 2.11176 0.754066 2.90146C0.942885 3.69117 1.43489 4.38139 2.12992 4.83157C1.60751 4.81656 1.0965 4.67986 0.64 4.43302C0.64 4.44606 0.64 4.45971 0.64 4.47337C0.640207 5.20854 0.902567 5.921 1.38258 6.48992C1.86259 7.05884 2.53071 7.44919 3.2736 7.59476C2.79032 7.72261 2.28325 7.7413 1.79136 7.64939C2.00113 8.28209 2.40951 8.83538 2.95941 9.23186C3.5093 9.62835 4.17319 9.84821 4.85824 9.86069C3.69583 10.7468 2.25988 11.2279 0.78144 11.2265C0.520258 11.226 0.259331 11.2106 0 11.1805C1.50121 12.115 3.24794 12.6107 5.03168 12.6084" fill="#000000"/>
</svg>
