<svg width="46" height="46" viewBox="0 0 46 46" fill="none" xmlns="http://www.w3.org/2000/svg">
<g clip-path="url(#clip0)">
<circle cx="23" cy="23" r="22.5" fill="white" stroke="url(#paint0_linear)"/>
<mask id="mask0" mask-type="alpha" maskUnits="userSpaceOnUse" x="-11" y="-11" width="72" height="72">
<circle cx="25" cy="25" r="36" fill="#C4C4C4"/>
</mask>
<g mask="url(#mask0)">
</g>
<path d="M18.9604 25.8586H20.7551C21.2919 25.8628 21.7001 25.4901 21.826 24.8882C21.8358 24.8425 23.3349 17.9231 23.6928 16.1516C23.8193 15.5247 23.9244 14.9418 23.9469 14.8378C23.993 14.6268 23.684 14.6268 23.684 14.6268H23.0494C22.6574 14.6268 21.9989 14.8026 21.7623 15.9747C21.4055 17.7396 19.9064 24.6541 19.8973 24.7019C19.8674 24.8443 19.8185 24.9245 19.7521 24.948C19.326 24.9178 19.0606 24.8179 18.8922 24.6263C18.6528 24.3539 18.5758 23.8529 18.6616 23.1368C18.7291 22.5781 19.4304 19.465 19.6955 18.3119L19.706 18.2416C19.73 17.8661 19.6322 17.549 19.4223 17.3254C19.2905 17.1848 19.0514 17.0175 18.6609 17.0175H18.3378C18.0414 17.0175 17.8913 17.4467 17.8913 17.4467C17.7876 17.8988 16.8035 22.3408 16.7202 23.0306C16.6 24.0255 16.7466 24.742 17.1681 25.2219C17.6564 25.7773 18.3807 25.8536 18.9604 25.8586Z" fill="#AF251B"/>
<path d="M23.9332 32.9102C23.0326 32.911 22.1626 33.2368 21.4831 33.8278C20.8036 34.4188 20.3602 35.2352 20.2344 36.127H15.881C15.8681 36.1258 15.8556 36.1219 15.8444 36.1154C15.8331 36.1089 15.8234 36.1 15.816 36.0893C15.7989 36.0667 15.7869 36.0406 15.7809 36.0128C15.7748 35.9851 15.7748 35.9564 15.7808 35.9287L16.2259 33.6899C16.2593 33.5254 16.4639 33.3992 16.6228 33.3992H19.1003C19.6997 33.3992 20.1747 33.0476 20.2844 32.522L20.818 29.9156C20.9003 29.5204 20.8293 29.1358 20.6285 28.8862C20.5543 28.7935 20.4601 28.7189 20.353 28.6678C20.2458 28.6167 20.1285 28.5905 20.0098 28.5912H19.2638C17.8818 28.58 16.6271 27.9675 15.8185 26.974C14.9796 25.9401 14.7001 24.5834 15.0099 23.0481C15.2862 21.6791 16.111 17.8207 16.1517 17.619C16.1517 17.619 16.254 17.0167 15.8983 17.0167H15.2092C14.318 17.0216 14.1471 17.8675 14.0912 18.1456C14.0508 18.3449 13.9689 18.7176 13.8613 19.2056C13.6606 20.1168 13.3572 21.4935 13.0791 22.8702C12.7198 24.6506 13.0717 26.3092 14.0705 27.5404C15.0468 28.7438 16.5539 29.4775 18.2091 29.4912H18.8088C18.8088 29.4912 18.9143 29.5496 18.8858 29.7373L18.3525 32.3438C18.3205 32.4971 18.0927 32.5034 18.0393 32.5023H15.5706C15.0433 32.5023 14.4235 32.8792 14.2951 33.5145L13.8501 35.7532C13.818 35.9107 13.8211 36.0732 13.8592 36.2293C13.8973 36.3854 13.9695 36.5311 14.0705 36.6561C14.1614 36.7702 14.2765 36.8628 14.4075 36.927C14.5385 36.9912 14.6822 37.0254 14.8281 37.0273H20.2172C20.2908 37.7462 20.5713 38.4283 21.0247 38.991C21.4782 39.5537 22.0851 39.9727 22.7719 40.1974C23.4587 40.4221 24.196 40.4428 24.8943 40.2569C25.5927 40.0711 26.2221 39.6867 26.7063 39.1503C27.1906 38.6139 27.5089 37.9485 27.6226 37.2349C27.7364 36.5213 27.6407 35.79 27.3472 35.1296C27.0537 34.4693 26.5749 33.9082 25.969 33.5145C25.363 33.1207 24.6559 32.9112 23.9332 32.9112V32.9102ZM23.9332 39.4844C23.3721 39.4844 22.8237 39.3181 22.3571 39.0065C21.8906 38.6948 21.5269 38.2518 21.3121 37.7334C21.0974 37.2151 21.0412 36.6447 21.1506 36.0944C21.26 35.5441 21.5301 35.0386 21.9269 34.6419C22.3236 34.2451 22.829 33.9749 23.3793 33.8654C23.9296 33.7559 24.5 33.8121 25.0184 34.0268C25.5367 34.2415 25.9798 34.6051 26.2915 35.0716C26.6032 35.5381 26.7696 36.0865 26.7696 36.6476C26.7683 37.3994 26.469 38.1199 25.9373 38.6513C25.4056 39.1828 24.685 39.4817 23.9332 39.4826V39.4844Z" fill="#AF251B"/>
<path d="M23.9332 37.8672C24.6078 37.8672 25.1546 37.3204 25.1546 36.6459C25.1546 35.9714 24.6078 35.4246 23.9332 35.4246C23.2587 35.4246 22.7119 35.9714 22.7119 36.6459C22.7119 37.3204 23.2587 37.8672 23.9332 37.8672Z" fill="#095C68"/>
<path d="M32.0267 19.0492C31.0511 17.8458 29.5433 17.1124 27.8871 17.0983H27.2894C27.2894 17.0983 27.184 17.0403 27.2121 16.854L27.7465 14.2461C27.7785 14.0928 28.0063 14.0865 28.0597 14.0876H30.5305C31.0578 14.0876 31.6773 13.711 31.8056 13.0758L32.2507 10.837C32.2834 10.6793 32.2807 10.5164 32.2429 10.3598C32.2051 10.2033 32.1331 10.0571 32.032 9.93174C31.9408 9.81748 31.8254 9.7249 31.6941 9.6607C31.5627 9.59649 31.4188 9.56227 31.2726 9.56049H25.9408C25.7489 7.67928 24.1552 6.19006 22.2245 6.19006C21.2337 6.19006 20.2835 6.58365 19.5829 7.28422C18.8824 7.9848 18.4888 8.935 18.4888 9.92576C18.4888 10.9165 18.8824 11.8667 19.5829 12.5673C20.2835 13.2679 21.2337 13.6615 22.2245 13.6615C24.1088 13.6615 25.6698 12.2767 25.9236 10.4622H30.2179C30.2308 10.4633 30.2434 10.4672 30.2546 10.4737C30.2658 10.4801 30.2755 10.4889 30.283 10.4995C30.3001 10.5222 30.3121 10.5482 30.3182 10.576C30.3243 10.6037 30.3243 10.6324 30.3181 10.6602L29.8734 12.8989C29.8383 13.0635 29.6354 13.19 29.4765 13.19H26.9994C26.3996 13.19 25.9247 13.5398 25.815 14.0689L25.2813 16.6754C25.199 17.0702 25.2701 17.4552 25.4711 17.7044C25.5453 17.7971 25.6394 17.8718 25.7465 17.9229C25.8536 17.9739 25.9709 18.0001 26.0895 17.9994H26.8352C28.2172 18.011 29.4719 18.6234 30.2805 19.6166C31.119 20.6502 31.3985 22.0072 31.0891 23.5421C30.8124 24.9111 29.9877 28.7695 29.9469 28.9717C29.9469 28.9717 29.8446 29.5739 30.2004 29.5739H30.8894C31.7806 29.569 31.9515 28.7227 32.0077 28.445C32.0478 28.2457 32.1301 27.873 32.2377 27.3847C32.4381 26.4738 32.7415 25.0971 33.0195 23.72C33.3778 21.9394 33.0255 20.2807 32.0267 19.0492ZM22.2245 12.7639C21.6634 12.764 21.1149 12.5977 20.6484 12.286C20.1818 11.9744 19.8182 11.5313 19.6034 11.013C19.3886 10.4947 19.3324 9.92426 19.4418 9.37396C19.5512 8.82366 19.8214 8.31817 20.2181 7.92141C20.6148 7.52464 21.1203 7.25443 21.6706 7.14495C22.2209 7.03546 22.7912 7.09162 23.3096 7.30632C23.828 7.52101 24.271 7.88461 24.5828 8.35112C24.8945 8.81763 25.0609 9.3661 25.0609 9.92717C25.06 10.6792 24.7609 11.4002 24.2292 11.932C23.6975 12.4638 22.9765 12.763 22.2245 12.7639Z" fill="#095C68"/>
<path d="M27.1382 20.7306H25.3435C24.8067 20.7261 24.3985 21.0987 24.2726 21.7009C24.2628 21.7463 22.7637 28.6661 22.4058 30.4376C22.2793 31.0645 22.1742 31.647 22.1517 31.7511C22.1056 31.9638 22.4146 31.9638 22.4146 31.9638H23.0474C23.4398 31.9638 24.0979 31.788 24.3345 30.6155C24.6913 28.8496 26.1894 21.9351 26.1978 21.8873C26.2277 21.7449 26.2765 21.6644 26.343 21.6412C26.7691 21.6718 27.0345 21.7713 27.2029 21.9629C27.4423 22.2357 27.5193 22.7363 27.4335 23.4528C27.366 24.0104 26.6647 27.1249 26.3999 28.2776L26.3897 28.3479C26.3655 28.7238 26.4632 29.0405 26.6731 29.2641C26.8049 29.4047 27.044 29.5724 27.4346 29.5724H27.7577C28.054 29.5724 28.2045 29.1432 28.2045 29.1432C28.3079 28.6911 29.2919 24.2491 29.3752 23.5593C29.4954 22.5644 29.3488 21.8475 28.9273 21.3677C28.4418 20.8122 27.7179 20.7352 27.1382 20.7306Z" fill="#095C68"/>
<path d="M22.2238 11.1485C22.8983 11.1485 23.4451 10.6017 23.4451 9.92714C23.4451 9.25262 22.8983 8.70581 22.2238 8.70581C21.5492 8.70581 21.0024 9.25262 21.0024 9.92714C21.0024 10.6017 21.5492 11.1485 22.2238 11.1485Z" fill="#AF251B"/>
</g>
<defs>
<linearGradient id="paint0_linear" x1="7" y1="7.5" x2="39.55" y2="38.3361" gradientUnits="userSpaceOnUse">
<stop stop-color="#0090A5"/>
<stop offset="1" stop-color="#E10210"/>
</linearGradient>
<clipPath id="clip0">
<rect width="46" height="46" fill="white"/>
</clipPath>
</defs>
</svg>
