<svg width="17" height="20" viewBox="0 0 17 20" fill="none" xmlns="http://www.w3.org/2000/svg">
<path d="M1 19H16" stroke="#D11B25" stroke-width="2" stroke-linecap="round"/>
<path d="M7.5 13C7.5 13.5523 7.94772 14 8.5 14C9.05228 14 9.5 13.5523 9.5 13H7.5ZM8.5 1L9.20711 0.292893C8.81658 -0.0976311 8.18342 -0.0976311 7.79289 0.292893L8.5 1ZM2.54289 5.54289C2.15237 5.93342 2.15237 6.56658 2.54289 6.95711C2.93342 7.34763 3.56658 7.34763 3.95711 6.95711L2.54289 5.54289ZM13.0429 6.95711C13.4334 7.34763 14.0666 7.34763 14.4571 6.95711C14.8476 6.56658 14.8476 5.93342 14.4571 5.54289L13.0429 6.95711ZM9.5 13V1H7.5V13H9.5ZM7.79289 0.292893L2.54289 5.54289L3.95711 6.95711L9.20711 1.70711L7.79289 0.292893ZM7.79289 1.70711L13.0429 6.95711L14.4571 5.54289L9.20711 0.292893L7.79289 1.70711Z" fill="#D11B25"/>
</svg>
