<svg width="19" height="20" viewBox="0 0 19 20" fill="none" xmlns="http://www.w3.org/2000/svg">
<path fill-rule="evenodd" clip-rule="evenodd" d="M9.5835 9.75C12.0161 9.75 13.9433 7.78484 13.9433 5.41667C13.9433 3.04849 12.0161 1.08333 9.5835 1.08333C7.15092 1.08333 5.22374 3.04849 5.22374 5.41667C5.22374 7.78484 7.15092 9.75 9.5835 9.75ZM9.5835 10.8333C12.575 10.8333 15.0002 8.40821 15.0002 5.41667C15.0002 2.42512 12.575 0 9.5835 0C6.59195 0 4.16683 2.42512 4.16683 5.41667C4.16683 8.40821 6.59195 10.8333 9.5835 10.8333Z" fill="#020202"/>
<path fill-rule="evenodd" clip-rule="evenodd" d="M9.5835 13.5714C5.63821 13.5714 2.51596 15.7902 1.93097 18.5113C1.90875 18.6147 1.93769 18.7058 2.01127 18.7832C2.09022 18.8661 2.22021 18.9286 2.37378 18.9286H16.7932C16.9468 18.9286 17.0768 18.8661 17.1557 18.7832C17.2293 18.7058 17.2582 18.6147 17.236 18.5113C16.651 15.7902 13.5288 13.5714 9.5835 13.5714ZM0.866301 18.2894C1.59017 14.9223 5.29875 12.5 9.5835 12.5C13.8682 12.5 17.5768 14.9223 18.3007 18.2894C18.5133 19.2786 17.6553 20 16.7932 20H2.37378C1.51173 20 0.653652 19.2786 0.866301 18.2894Z" fill="#020202"/>
</svg>
