<svg width="72" height="72" viewBox="0 0 72 72" fill="none" xmlns="http://www.w3.org/2000/svg">
<g clip-path="url(#clip0)">
<path d="M25.2863 56.4501L14.5443 62.3095C13.9139 62.6532 13.3474 63.0757 12.8203 63.5363C19.0832 68.8169 27.1679 72.0027 36.0011 72.0027C44.7692 72.0027 52.8022 68.8645 59.0475 63.6558C58.4714 63.1695 57.8465 62.732 57.1536 62.3869L45.6509 56.6362C44.1646 55.8931 43.2259 54.3742 43.2259 52.7127V48.1997C43.5492 47.8315 43.9187 47.3587 44.3141 46.8004C45.8818 44.5859 47.0678 42.1501 47.8897 39.5947C49.3651 39.1395 50.452 37.7769 50.452 36.1575V31.3402C50.452 30.2805 49.9805 29.3336 49.2483 28.6706V21.7067C49.2483 21.7067 50.6788 10.8696 36.0025 10.8696C21.3261 10.8696 22.7567 21.7067 22.7567 21.7067V28.6706C22.0231 29.3336 21.553 30.2805 21.553 31.3402V36.1575C21.553 37.4264 22.2201 38.5431 23.2186 39.1885C24.4223 44.4284 27.5741 48.1997 27.5741 48.1997V52.6014C27.5727 54.2044 26.6951 55.6812 25.2863 56.4501Z" fill="white"/>
<path d="M36.6167 0.00536148C16.7372 -0.334274 0.345 15.505 0.00536458 35.3859C-0.187549 46.6564 4.83634 56.787 12.8354 63.5254C13.3585 63.0689 13.9196 62.6505 14.5431 62.3109L25.2851 56.4515C26.6939 55.6825 27.5716 54.2058 27.5716 52.6V48.1983C27.5716 48.1983 24.4184 44.427 23.2161 39.1871C22.2189 38.5418 21.5505 37.4264 21.5505 36.1562V31.3388C21.5505 30.2791 22.0219 29.3322 22.7542 28.6693V21.7054C22.7542 21.7054 21.3236 10.8683 36 10.8683C50.6763 10.8683 49.2458 21.7054 49.2458 21.7054V28.6693C49.9794 29.3322 50.4494 30.2791 50.4494 31.3388V36.1562C50.4494 37.7756 49.3626 39.1382 47.8872 39.5933C47.0653 42.1487 45.8793 44.5846 44.3115 46.799C43.9162 47.3574 43.5467 47.8302 43.2233 48.1983V52.7114C43.2233 54.3729 44.1621 55.8931 45.6483 56.6349L57.1511 62.3856C57.8413 62.7306 58.4648 63.1667 59.0395 63.6517C66.7968 57.1824 71.8084 47.5095 71.9946 36.6167C72.3369 16.7372 56.4977 0.344997 36.6167 0.00536148Z" fill="#F6D1D3"/>
</g>
<defs>
<clipPath id="clip0">
<path d="M0 0H72V72H0V0Z" fill="white"/>
</clipPath>
</defs>
</svg>
