<svg width="72" height="59" viewBox="0 0 72 59" fill="none" xmlns="http://www.w3.org/2000/svg">
<path d="M62.0183 54.4762L56.2062 56.8746C55.4165 57.2128 54.4688 56.8438 54.1529 56.0444L43.1288 30.5225C42.7814 29.7538 43.1604 28.8313 43.9817 28.5238L49.7938 26.1254C50.5835 25.7872 51.5312 26.1562 51.847 26.9556L62.8712 52.4775C63.2186 53.2462 62.8396 54.1379 62.0183 54.4762Z" fill="#F6D1D3"/>
<path fill-rule="evenodd" clip-rule="evenodd" d="M6.88323 3.80645L12.9761 55.1935H37.0239L43.1168 3.80645H6.88323ZM3 3.43638C3 1.52194 4.54115 0 6.45819 0H43.5418C45.4589 0 47 1.52194 47 3.43638C47 3.51089 46.9956 3.58534 46.9868 3.65934L40.8169 55.6964C40.7476 57.548 39.2337 59 37.3612 59H12.6388C10.7663 59 9.25242 57.548 9.18308 55.6964L3.01317 3.65934C3.0044 3.58534 3 3.51089 3 3.43638Z" fill="#D11B25"/>
<path fill-rule="evenodd" clip-rule="evenodd" d="M50.532 27.7529L50.5272 27.7549L50.532 27.7529ZM50.1984 27.8907L44.9651 30.0484L55.799 55.1094L61.0322 52.9516L50.1984 27.8907ZM44.8035 29.6751C44.8045 29.6773 44.8055 29.6796 44.8065 29.6819L44.8035 29.6751ZM53.6122 26.1338C52.8751 24.3239 50.765 23.537 49.0169 24.276L43.1927 26.6775C41.3639 27.384 40.5084 29.4473 41.2891 31.1987L52.3851 56.8662C53.1222 58.6761 55.2324 59.4629 56.9804 58.724L62.8286 56.3126C64.5765 55.5926 65.5133 53.6063 64.7083 51.8012L53.6122 26.1338Z" fill="#D11B25"/>
<path fill-rule="evenodd" clip-rule="evenodd" d="M58.7226 24.9373L68.0754 47.9725L63.2773 50.0627L53.9245 27.0275L58.7226 24.9373ZM62.107 23.1202C61.4153 21.3568 59.4349 20.5404 57.6942 21.2623C57.6836 21.2666 57.6731 21.2711 57.6627 21.2756L52.0387 23.7256C50.2387 24.484 49.6134 26.4822 50.2315 28.084L50.2435 28.1144L59.8928 51.8798C60.5846 53.6432 62.565 54.4596 64.3057 53.7377C64.3162 53.7334 64.3267 53.7289 64.3372 53.7243L69.9611 51.2744C71.7611 50.5157 72.3962 48.4777 71.7588 46.8917L62.107 23.1202Z" fill="#D11B25"/>
<path fill-rule="evenodd" clip-rule="evenodd" d="M64.1864 28.174C64.5896 29.1484 64.1365 30.2693 63.1745 30.6777L55.6194 33.8847C54.6573 34.2931 53.5505 33.8343 53.1473 32.8599C52.7441 31.8855 53.1971 30.7646 54.1592 30.3562L61.7143 27.1492C62.6764 26.7408 63.7831 27.1996 64.1864 28.174ZM67.0195 35.6571C67.4228 36.6314 66.9697 37.7524 66.0077 38.1608L58.4525 41.3678C57.4905 41.7762 56.3837 41.3173 55.9805 40.3429C55.5773 39.3686 56.0303 38.2476 56.9924 37.8392L64.5475 34.6322C65.5095 34.2238 66.6163 34.6827 67.0195 35.6571ZM69.8527 43.1401C70.2559 44.1145 69.8029 45.2354 68.8408 45.6438L61.2857 48.8508C60.3236 49.2592 59.2169 48.8004 58.8136 47.826C58.4104 46.8516 58.8635 45.7307 59.8255 45.3223L67.3806 42.1153C68.3427 41.7069 69.4495 42.1657 69.8527 43.1401Z" fill="#D11B25"/>
<path fill-rule="evenodd" clip-rule="evenodd" d="M1.88462 6C2.92546 6 3.76923 6.82655 3.76923 7.84615C3.76923 17.9049 12.8983 26.3077 24.5 26.3077C36.1017 26.3077 45.2308 17.9049 45.2308 7.84615C45.2308 6.82655 46.0745 6 47.1154 6C48.1562 6 49 6.82655 49 7.84615C49 20.2419 37.8657 30 24.5 30C11.1343 30 0 20.2419 0 7.84615C0 6.82655 0.843771 6 1.88462 6Z" fill="#D11B25"/>
</svg>
