<svg width="72" height="72" viewBox="0 0 72 72" fill="none" xmlns="http://www.w3.org/2000/svg">
<path fill-rule="evenodd" clip-rule="evenodd" d="M36 5.09735C18.9329 5.09735 5.09735 18.9329 5.09735 36C5.09735 53.0671 18.9329 66.9027 36 66.9027C53.0671 66.9027 66.9027 53.0671 66.9027 36C66.9027 18.9329 53.0671 5.09735 36 5.09735ZM0 36C0 16.1178 16.1178 0 36 0C55.8823 0 72 16.1178 72 36C72 55.8823 55.8823 72 36 72C16.1178 72 0 55.8823 0 36Z" fill="#D11B25"/>
<path fill-rule="evenodd" clip-rule="evenodd" d="M18.678 35.8017C19.5573 34.7025 21.1611 34.5243 22.2603 35.4036L36.1983 46.5541C37.2975 47.4334 37.4757 49.0372 36.5964 50.1364C35.7171 51.2355 34.1132 51.4137 33.0141 50.5344L19.076 39.384C17.9769 38.5047 17.7986 36.9008 18.678 35.8017Z" fill="#D11B25"/>
<path fill-rule="evenodd" clip-rule="evenodd" d="M55.6842 21.444C56.7953 22.3081 56.9954 23.9094 56.1313 25.0205L36.618 50.109C35.7538 51.2201 34.1525 51.4202 33.0415 50.556C31.9304 49.6919 31.7302 48.0906 32.5944 46.9795L52.1077 21.891C52.9719 20.7799 54.5731 20.5798 55.6842 21.444Z" fill="#D11B25"/>
</svg>
