<svg width="50" height="72" viewBox="0 0 50 72" fill="none" xmlns="http://www.w3.org/2000/svg">
<path fill-rule="evenodd" clip-rule="evenodd" d="M24.0445 21.8527C25.0517 21.5843 26.0848 22.1867 26.352 23.1982L38.6161 69.6189C38.8834 70.6304 38.2835 71.6678 37.2763 71.9362C36.2691 72.2045 35.236 71.6021 34.9688 70.5907L22.7046 24.1699C22.4374 23.1585 23.0373 22.121 24.0445 21.8527Z" fill="#D11B25"/>
<path fill-rule="evenodd" clip-rule="evenodd" d="M25.9377 19.9533C26.9475 20.2118 27.5574 21.2433 27.3 22.2573L15.0359 70.5728C14.7785 71.5868 13.7513 72.1993 12.7415 71.9408C11.7317 71.6824 11.1218 70.6508 11.3792 69.6368L23.6434 21.3213C23.9008 20.3073 24.928 19.6948 25.9377 19.9533Z" fill="#D11B25"/>
<path fill-rule="evenodd" clip-rule="evenodd" d="M14.8619 57.813C15.3697 56.8993 16.5191 56.572 17.429 57.082L37.712 68.4503C38.6219 68.9603 38.9479 70.1145 38.44 71.0282C37.9321 71.942 36.7828 72.2693 35.8729 71.7593L15.5899 60.3909C14.68 59.8809 14.354 58.7268 14.8619 57.813Z" fill="#D11B25"/>
<path fill-rule="evenodd" clip-rule="evenodd" d="M35.1543 58.3165C35.6458 59.2392 35.2993 60.3873 34.3805 60.8809L14.0975 71.7756C13.1786 72.2691 12.0353 71.9212 11.5438 70.9985C11.0523 70.0757 11.3988 68.9276 12.3176 68.4341L32.6007 57.5394C33.5195 57.0459 34.6628 57.3938 35.1543 58.3165Z" fill="#D11B25"/>
<path fill-rule="evenodd" clip-rule="evenodd" d="M9.79482 0.525577C10.5478 1.24892 10.5743 2.4483 9.85398 3.20446C6.11605 7.12839 3.77358 12.5473 3.77358 18.5471C3.77358 24.4946 6.06434 29.8556 9.74569 33.7475C10.4633 34.5062 10.4326 35.7055 9.67711 36.4262C8.92158 37.1468 7.72732 37.116 7.00967 36.3573C2.67618 31.7759 0 25.4861 0 18.5471C0 11.5428 2.73736 5.19321 7.12715 0.584992C7.84747 -0.171169 9.04182 -0.19777 9.79482 0.525577Z" fill="#D11B25"/>
<path fill-rule="evenodd" clip-rule="evenodd" d="M40.1932 0.537231C40.9397 -0.192785 42.1343 -0.176808 42.8612 0.572916C47.2914 5.14184 50 11.4905 50 18.4736C50 25.4566 47.2914 31.8053 42.8612 36.3742C42.1343 37.1239 40.9397 37.1399 40.1932 36.4099C39.4466 35.6799 39.4307 34.4803 40.1576 33.7306C43.9062 29.8647 46.2264 24.4627 46.2264 18.4736C46.2264 12.4844 43.9062 7.08246 40.1576 3.21654C39.4307 2.46681 39.4466 1.26725 40.1932 0.537231Z" fill="#D11B25"/>
<path fill-rule="evenodd" clip-rule="evenodd" d="M15.393 6.1526C16.1774 6.84145 16.2572 8.03844 15.5713 8.82616C13.5625 11.133 12.2642 14.4157 12.2642 18.0887C12.2642 21.6838 13.4936 24.8876 15.4387 27.1974C16.1115 27.9964 16.012 29.1919 15.2163 29.8676C14.4206 30.5433 13.2301 30.4434 12.5572 29.6443C10.0148 26.6252 8.49057 22.5461 8.49057 18.0887C8.49057 13.5315 10.0989 9.35376 12.7306 6.33164C13.4166 5.54392 14.6086 5.46376 15.393 6.1526Z" fill="#D11B25"/>
<path fill-rule="evenodd" clip-rule="evenodd" d="M34.6034 6.1558C35.3861 5.46494 36.5782 5.54204 37.2662 6.328C39.9242 9.36461 41.5094 13.5311 41.5094 18.0445C41.5094 22.5276 39.951 26.6262 37.3581 29.6559C36.6788 30.4495 35.4876 30.5399 34.6973 29.8578C33.907 29.1757 33.817 27.9795 34.4962 27.1859C36.4836 24.8638 37.7358 21.6484 37.7358 18.0445C37.7358 14.4114 36.4584 11.1449 34.4319 8.8298C33.7439 8.04385 33.8207 6.84665 34.6034 6.1558Z" fill="#D11B25"/>
<path fill-rule="evenodd" clip-rule="evenodd" d="M18.4772 44.1336C19.214 43.3937 20.4086 43.3937 21.1455 44.1336L34.353 57.3967C35.0899 58.1366 35.0899 59.3363 34.353 60.0762C33.6162 60.8162 32.4215 60.8162 31.6847 60.0762L18.4772 46.8132C17.7403 46.0732 17.7403 44.8736 18.4772 44.1336Z" fill="#D11B25"/>
<path fill-rule="evenodd" clip-rule="evenodd" d="M31.5228 44.1336C32.2597 44.8736 32.2597 46.0732 31.5228 46.8132L17.8436 60.5499C17.1068 61.2899 15.9121 61.2899 15.1753 60.5499C14.4384 59.81 14.4384 58.6103 15.1753 57.8704L28.8545 44.1336C29.5914 43.3937 30.786 43.3937 31.5228 44.1336Z" fill="#D11B25"/>
<path d="M25 23C27.2091 23 29 21.2091 29 19C29 16.7909 27.2091 15 25 15C22.7909 15 21 16.7909 21 19C21 21.2091 22.7909 23 25 23Z" fill="#F6D1D3"/>
<path fill-rule="evenodd" clip-rule="evenodd" d="M33 19C33 23.4183 29.4183 27 25 27C20.5817 27 17 23.4183 17 19C17 14.5817 20.5817 11 25 11C29.4183 11 33 14.5817 33 19ZM29 19C29 21.2091 27.2091 23 25 23C22.7909 23 21 21.2091 21 19C21 16.7909 22.7909 15 25 15C27.2091 15 29 16.7909 29 19Z" fill="#D11B25"/>
</svg>
